<?xml version="1.0"?>
<svg width="1080" height="1080" xmlns="http://www.w3.org/2000/svg" xmlns:svg="http://www.w3.org/2000/svg" data-name="sorry item not found">
 <g class="layer">
  <title>Layer 1</title>
  <path d="m1039,912.41c0,11.83 -98,22.73 -255.8,28.45s-350.6,5.37 -503.31,-0.92s-241.28,-17.53 -231.21,-29.35l494.75,1.82l495.57,0z" fill="#f9f1cb" id="svg_1"/>
  <path d="m496.85,676.79s26.52,61.74 47.35,74.21s185.62,15.15 201.52,15.15s32.39,-0.56 32.39,-0.56l-2,-42.62s-166,-2.65 -181.36,-4s-32,-8.52 -40.72,-31.25s-55.5,-116.67 -55.5,-116.67l-1.68,105.74z" fill="#f9f1cb" id="svg_2"/>
  <path d="m588.14,475.64s34.77,44.53 69.32,37.57s66.43,-20.36 86.52,-6.43a62.25,62.25 0 0 1 24.37,35.62l-6.83,19.6l-48.88,0s0.27,-13.53 -11.65,-17s-17.41,-12.86 -23,-17.41s-20.76,7 -23,11s-7.64,-2.69 -13,-0.54s-11.25,10.31 -11.25,10.31s-7.43,4.64 -17.34,-17.36s-25.26,-55.38 -25.26,-55.38l0,0.02z" fill="#f9f1cb" id="svg_3"/>
  <path d="m388.51,731s-30.69,51.85 -43.51,73.07s-23.87,20.83 -23.87,20.83l8.71,-103.23l-18.56,3.22l0.76,-42.23s44.89,-45.46 48.1,-49.82s10.8,-13.06 10.8,-13.06s9.85,50.38 11.18,71.4a223.72,223.72 0 0 0 6.39,39.82z" fill="#f9f1cb" id="svg_4"/>
  <path d="m538.53,882.58s1.88,20.62 24.92,19.29s60.8,0 60.8,0s32.94,7.76 34,-21.17s9.1,-51.42 4.55,-59.19s-18.21,-0.81 -18.21,-0.81s2.94,43.93 -6.16,51.17s-34.29,7 -54.38,8.83s-45.52,1.88 -45.52,1.88z" fill="#f9f1cb" id="svg_5"/>
  <path d="m643.94,558.54c-0.21,-1.41 -4.07,-15.34 2,-18.21s1.21,13.19 7.17,9.77s10.71,-13.32 18.55,-15.87s10.58,-3 14.87,2.55s10.58,4.22 16.6,10s11.31,14.46 9.51,15.2s-66,0.4 -66.36,0.4s-2.34,-3.82 -2.34,-3.82l0,-0.02z" fill="#9a702d" id="svg_6"/>
  <path d="m428.85,523.94c-1,0 -27.84,-16.86 -40.91,-21.4s-13.26,-8.9 -23.49,-1.33s-26.7,25.76 -35,46.22s-6.25,33.14 -18.18,55.68s-28.77,49.12 -35.6,55.14s-1.07,10.85 -0.54,11s-2.88,7.36 -30.72,-8.74s-48.3,-27.46 -59.48,-36.36s-24.64,-2.32 -32,6.63s1,19.51 8.91,27.08s64.15,47.68 77.81,50.9s28.12,4.15 40.18,-1.88s69.05,-61.88 69.05,-61.88s20.5,-25.18 22.5,-29.74s-5.62,-3.34 -18.75,-12s-15.93,-13.79 -8.7,-13.12s14.46,10.31 24.77,10.58s15.81,7.09 12.32,12.72s2.68,24.64 5.36,46.07s9.78,64.55 11.92,84.11s3.21,30.39 1.6,47.54s-8.43,22.23 -0.66,32.27s44.86,7 46.47,-13s1.74,-44.06 1.74,-44.06l4.29,-90.94l-0.27,-67l-0.54,-45.67s-5.35,-23 -22.1,-38.81l0.02,-0.01z" fill="#000000" id="svg_7"/>
  <path d="m376.88,486.23s16.15,-11.14 41.86,-20.79s50.77,-17.43 58.67,-14.23s5.14,22.22 8.76,35.34s8.84,29.74 8.17,37.77s-0.33,13.92 3.45,15.44s5,-0.19 7.49,7.77s5.77,12.12 3,12.59s-47.63,-0.57 -53.22,-1.42s-9.76,-18.47 -21.5,-32.2s-56.7,-40.27 -56.7,-40.27l0.02,0z" fill="#0000ff" id="svg_8" transform="matrix(1 0 0 1 0 0)"/>
  <path d="m530.37,409.35c-1,-0.38 -28.41,-8.9 -34.85,5.87s-9.47,24.81 -3,57.39s9.09,44.89 9.09,52.09s8.14,5.11 19.7,3.22s17.61,-4 17.42,-12.12s-0.19,-50.76 0,-55.31s6.06,-3.79 6.25,4.54s-3.53,18.75 -3.53,18.75s14.33,-11.55 11.11,3s-6.06,8.91 -4.55,25s2.47,20.65 1.33,24.82s22.54,12.5 33,11.36s32.19,-16.48 32.19,-16.48s-13.63,-35.41 -34.09,-67.42s-50,-54.74 -50,-54.74l-0.07,0.03z" fill="#ff0000" id="svg_9" transform="matrix(1 0 0 1 0 0)"/>
  <path d="m394.29,465.39s-1.07,-22.77 9.91,-35.89s21.16,-14.73 28.4,-10s23.57,23.43 23.57,23.43s-44.33,9.91 -61.88,22.5l0,-0.04z" fill="#ff0000" id="svg_10" transform="matrix(1 0 0 1 0 0)"/>
  <path d="m508.31,395.7c-5,-0.06 -10.56,0.71 -13.83,2.08c-4,1.67 -10.27,8.7 -12.72,14.23a71.63,71.63 0 0 0 -4.81,22.6l0,4.75l-6.75,0a53.55,53.55 0 0 0 -8.81,0.56c-1.64,0.44 -3.28,-0.9 -7.92,-6.48c-10.83,-13 -24.73,-22.36 -35.13,-23.66c-12.31,-1.54 -24.58,6.45 -29.31,19.09c-4.11,11 -5.37,17.68 -5.47,29.17c-0.12,12.74 -0.9,14.56 -5.24,12.23a18.2,18.2 0 0 0 -7.1,-1.43c-3.46,0 -4.86,0.52 -6.35,2.36c-2.28,2.81 -2.46,7.18 -0.46,11l1.45,2.81l-6.7,4.59c-18.18,12.46 -36.9,39.13 -45.59,64.94c-1.43,4.26 -3.91,13 -5.52,19.5c-4.83,19.48 -6.47,23 -27.33,58c-14.77,24.83 -15.07,25.25 -17.26,23.81c-1.22,-0.8 -9.37,-4.8 -18.11,-8.89c-25.41,-11.9 -44,-23.5 -54.31,-33.81c-5.59,-5.62 -10,-8 -16.37,-8.78c-4.84,-0.61 -4.87,-0.64 -6.66,-5.94c-1,-2.92 -2.27,-5.79 -2.85,-6.37s-0.74,-1.89 -0.08,-3.64c1.34,-3.53 -1.39,-10.5 -5.17,-13.19c-7.89,-5.62 -24.74,-8.47 -40.62,-6.87c-21.49,2.16 -48.79,10.16 -56.15,16.47c-4.52,3.87 -5.69,7.06 -4,11.11a16.3,16.3 0 0 1 0.92,6.12c-0.29,4.35 2,7.67 7.21,10.37c3.87,2 6.28,2.28 27.73,3c22.92,0.72 35,1.91 37.35,3.65c0.64,0.47 3.25,2.53 5.8,4.57l4.65,3.72l-1.58,4.93c-2.58,8.06 -1.18,11.36 7.4,17.45c3.91,2.77 10.66,8.22 15,12.1c25.31,22.67 66.43,48.49 83.38,52.36c9.12,2.09 20.77,0.68 31.1,-3.75c5.56,-2.08 17.35,-10.44 19.33,-12a315.86,315.86 0 0 0 25.78,-21.83c3.69,-3.51 14,-13.89 14,-13.89l3.25,-3.5c6.14,-6.6 22.16,-25.66 25.57,-30.4c2.9,-4 3.52,-4.48 4.16,-2.93c1,2.48 7.14,43 10.3,68.33c1.41,11.28 2.76,21.18 3,22s0.93,6.68 1.52,13s1.73,16.36 2.53,22.29c2.19,16.24 1.87,30.66 -1.15,50.94c-2.64,17.77 -2.66,24.5 -0.1,27.85c0.67,0.86 3.35,2.63 6,3.92s4.75,2.53 4.75,2.74s-2.56,5.6 -5.68,12c-5,10.34 -5.72,12.46 -6.1,19.2c-0.52,9.23 1.37,17.2 6.86,29a77.91,77.91 0 0 1 3.92,9.3c0,0.53 -16,0.83 -38.92,0.71c-28,-0.14 -49.9,0.07 -49.9,0.07l-41.71,0c-22.87,0 -103,0.06 -155.45,0.25l-70.63,0.25s-5.56,0.47 -5.56,2.5s5.56,2.5 5.56,2.5l60.5,0.5c92.33,0.76 882.78,0.9 913.5,0.15l27,-0.65s5.69,-0.43 5.69,-2.5s-5.69,-2.5 -5.69,-2.5l-71.25,-0.26c-38.52,-0.14 -70.11,-0.58 -71.18,-1l-4.58,0.2s-65.22,0.44 -73.23,0.29l-14.74,-0.28l-7,0l-151.45,0.38l-151.4,0.25l-43.92,0s-2.56,-14 -11.67,-16.46c-4.57,-1.23 -6.78,-12.09 -7.54,-29c-0.35,-7.7 -0.87,-15.8 -1.15,-18c-0.5,-3.79 -0.33,-4.11 3.16,-6c5.43,-2.9 13.13,-12 15.07,-17.88c1.31,-4 1.52,-6.88 1,-14.07c-0.88,-11.44 -0.75,-25.9 0.43,-50.08c3.08,-62.86 3.5,-79 3.46,-134.11l0,-60.12c-1.47,-6.76 6.13,-6.46 8,-6.29a1.07,1.07 0 0 1 0.1,-0.76c3.06,-7.41 3.11,-30.38 0.08,-39.92c-2.06,-6.52 -6.26,-11.83 -8.12,-10.28c-1.05,0.87 -1,2.06 0.55,6.31c2.6,7.39 4.33,21.88 3.63,30.25s-2.66,14.92 -4.46,14.92c-0.72,0 -2.32,-2.5 -3.56,-5.56c-5.2,-12.79 -17.31,-28.58 -29.37,-38.26c-13.43,-10.8 -31.51,-21.66 -43.57,-26.19c-5.33,-2 -8.7,-5.54 -8.7,-9.13c0,-2 0.49,-2.36 3.46,-2.36a17.19,17.19 0 0 1 5.92,1.12c2.19,1 4.89,0 24.29,-9.39c26.23,-12.64 33.34,-15.27 47.78,-17.69c11.8,-2 26.55,-3.51 26.55,-2.77c0,0.25 0.47,2.87 1,5.84s1.71,10.56 2.53,16.88a381.49,381.49 0 0 0 8,42.84c2.05,7.95 2.37,11 1.83,17c-0.48,5.31 -0.29,8 0.68,9.84c1.36,2.55 7.56,6.33 10.37,6.33c1.05,0 1.54,1 1.54,3a20.44,20.44 0 0 0 1.45,6.5l1.44,5s6.53,0.22 6.5,0.17c-2.05,-3.29 -3.47,-10.18 -3.22,-13.72c0.32,-4.42 0.34,-4.44 5.32,-5.72a36.45,36.45 0 0 1 12,-0.63c5.89,0.56 7.68,1.2 11.5,4.14c2.49,1.91 10,6.17 16.78,9.45s12.16,6.14 12.23,6.44l25.5,0.32l5.63,-2.31c6.83,-2.81 14,-6.94 15.79,-9.07s3,-1.65 3,4.94l0,7.92l6,0l0,-13.62l2.35,1.84c1.3,1 4.72,3.74 7.59,6.08l7.11,5.53l10.78,0.84l-8.8,-6.45c-3.86,-2.81 -7.17,-5.7 -7.43,-6.36c-0.64,-1.64 3.49,-7.45 5.93,-8.34a10.61,10.61 0 0 1 5.5,0.4c2.94,0.95 3.5,1.61 3.5,4c0,4.26 2,4.21 4.62,-0.11c3.3,-5.36 8.74,-11.18 12,-12.86a17.7,17.7 0 0 1 6.85,-1.44c3.37,0 4.83,0.69 8.44,4c2.4,2.21 4.9,5.31 5.55,6.87a9,9 0 0 0 7.77,5.1c3.76,0 10.31,4.27 12.71,8.28c1.29,2.17 3.45,6.84 3.26,7.42l6,-0.49a41.11,41.11 0 0 1 -2.46,-5.63c-2.11,-7.89 -6.89,-12 -17,-14.57c-3.55,-0.9 -4.79,-1.94 -7.64,-6.4c-4.65,-7.27 -8.62,-9.9 -15.66,-10.41c-7.26,-0.53 -11.53,1.43 -17.42,8l-4.44,4.99l-2.62,-1.73c-6,-3.94 -15.7,-1 -18.64,5.62c-0.73,1.65 -1.57,3 -1.88,3c-2,0 -7.37,-8.16 -11.89,-18c-2.9,-6.32 -6.62,-14.39 -8.26,-18a180.63,180.63 0 0 0 -9,-16c-3.33,-5.25 -9,-14.72 -12.52,-21.05s-8.87,-15.18 -11.8,-19.68l-15.48,-21.5c-10.79,-13.43 -22.51,-23.88 -32.09,-28.6a78.81,78.81 0 0 0 -13.37,-5.24a30.72,30.72 0 0 0 -6.13,-0.62l-0.01,0.05zm-2.05,5.95c11.71,-0.09 23.07,6.05 36.71,19.66c15.77,15.74 20.48,22.56 54.56,78.84a163.52,163.52 0 0 1 8.36,16.73c2.33,5.47 5.54,12.5 7.12,15.63l2.87,5.68l-3.67,3.22c-5.94,5.22 -18.67,10.7 -27.6,11.89a96.32,96.32 0 0 1 -10.5,1c-3.19,-0.11 -15.45,-5.55 -27.49,-12.21l-8.68,-4.8l2.35,-4.7c3.43,-6.86 3.76,-10.1 2.12,-20.95c-2.22,-14.72 -2,-16.46 2.23,-22.4c3.92,-5.47 7.44,-14.29 6.59,-16.52c-1.07,-2.79 -3.3,-1.11 -6.49,4.89l-3.31,6.21l-0.5,-15.46c-0.41,-12.78 -0.76,-15.47 -2,-15.47c-2.1,0 -2.77,5 -3.56,26.5c-0.45,12.51 -0.28,21.25 0.53,27c2.35,16.57 2.33,18.13 -0.17,23l-2.32,4.5l-8.52,-0.35c-9.64,-0.39 -16.07,1 -18.89,4c-2.1,2.26 -5.13,1.92 -8.4,-1c-1.56,-1.38 -1.73,-2.59 -1.18,-8.64s0.14,-9 -2.45,-19.53a489.68,489.68 0 0 1 -9.7,-54.9c-1.41,-11.79 -1.52,-16 -0.63,-23c1.4,-11 4.51,-19.21 9.12,-24c3.21,-3.36 4.41,-3.91 9.84,-4.53a34.56,34.56 0 0 1 3.65,-0.23l0.01,-0.06zm-91.77,14.9a28.21,28.21 0 0 1 13.66,3.45c5,2.67 22.77,18.65 22.77,20.45c0,0.46 -1.23,1.1 -2.75,1.43s-6.8,1.7 -11.75,3.06c-5.54,1.52 -16.44,6.1 -28.4,11.94l-19.4,9.48l0.61,-8.5c1,-14.58 5.41,-28.51 11.06,-35.21c3.34,-3.95 8.5,-6 14.2,-6.12l0,0.02zm-42.68,72.2a7.17,7.17 0 0 1 2.39,0.66c5.25,2.1 18.51,9.74 29.2,16.82c9.1,6 28.52,23.19 28.52,25.19a17.14,17.14 0 0 1 -2.41,4.39c-5.67,8.36 -5.63,27.44 0.09,39.12c3.23,6.61 10,12.94 15.61,14.62l4,1.2l-0.59,49c-0.36,30.44 -1.23,57.78 -2.28,72.05c-1.13,15.28 -1.75,36.78 -1.86,64c-0.16,39.64 -0.24,41.14 -2.28,45.07c-2.8,5.37 -9.19,11 -13.94,12.36c-9.95,2.76 -25.46,0.67 -34.65,-4.68c-4.25,-2.48 -4.36,-4.59 -1.24,-25.21c3,-19.73 3.33,-36.64 1.09,-52.85c-0.81,-5.88 -3.09,-24.19 -5.05,-40.69c-4.15,-34.79 -9.72,-73 -12.6,-86.31c-1.56,-7.24 -1.75,-9.63 -0.83,-10.74c1.74,-2.09 0.39,-4.45 -2.55,-4.45c-7.38,0 -24.56,-9.09 -31.93,-16.89c-3.21,-3.39 -5.31,-3.94 -6.21,-1.6c-1.74,4.53 12.29,16.1 26.11,21.57c3.84,1.51 7.14,3.25 7.35,3.86c0.91,2.74 -29.28,37.42 -51,58.56c-22.09,21.51 -35.54,30.59 -50.57,34.12c-11.8,2.77 -16.65,1.77 -33.93,-7c-21.7,-11 -54.11,-33 -72,-48.78c-3.94,-3.49 -8.87,-7.73 -11,-9.42l-3.79,-3.07l1.28,-5.72c1.07,-4.81 2.25,-6.78 7.26,-12.13c6.2,-6.62 14.22,-11.5 18.9,-11.5a17.46,17.46 0 0 1 11.95,4.89c10.55,11.38 27.75,22.52 56.51,36.62c12.65,6.2 26.15,13.32 30,15.83c4.31,2.81 7.35,4.2 7.93,3.63c1.45,-1.46 -1.17,-5.4 -6,-9l-4.31,-3.23l5.32,-7.12c2.92,-3.92 8.68,-12.52 12.79,-19.12c14.63,-23.49 21.87,-38.77 23.86,-50.37c1.44,-8.36 7.81,-26.77 13.52,-39.06c9,-19.25 24.59,-39.13 39.43,-50.13c4.64,-3.44 6.25,-4.57 7.82,-4.54l0.09,0.05zm64.44,49.6c1.75,0 8.1,11.22 10.6,18.71c1.6,4.8 2.08,8.75 2.08,17.25c0,12.25 -0.42,12.87 -5.54,8.21c-7.31,-6.65 -11.46,-16.66 -11.46,-27.58c-0.01,-7.13 2.46,-16.59 4.32,-16.59zm-310.62,36.23c14.65,-0.24 27.9,2.9 31.65,8c1.1,1.5 1.81,2.93 1.57,3.17s-3.14,-0.5 -6.44,-1.65c-4.63,-1.63 -9.16,-2.2 -20,-2.53c-17.8,-0.55 -33.63,2 -51.5,8.14c-6.87,2.38 -13.23,4.65 -14.12,5c-2.25,1 -3.08,-1.67 -1.32,-4.19c3.26,-4.64 29.63,-12.71 49.89,-15.26a96.52,96.52 0 0 1 10.26,-0.72l0.01,0.04zm2.79,13.36c22.55,-0.14 30.56,3 34,13.5c0.92,2.77 1.52,5.14 1.33,5.26a64.4,64.4 0 0 0 -13.37,10.77c-2.52,2.68 -4.66,4.86 -4.78,4.84s-3,-2.14 -6.36,-4.69c-5.54,-4.18 -6.07,-4.88 -5.25,-7c2.32,-6.12 -0.1,-15.82 -3.77,-15.06c-1.12,0.23 -1.52,2 -1.65,7.47c-0.1,3.94 -0.47,7.46 -0.82,7.82s-2.3,0.34 -4.32,0c-2.89,-0.54 -3.51,-1 -2.95,-2.31c1.62,-3.7 1.59,-8.21 -0.07,-10.74c-2.11,-3.23 -3.65,-2 -4.11,3.16a15.69,15.69 0 0 1 -1.81,5.94c-1.47,2.24 -1.54,2.25 -22.29,1.75c-22,-0.52 -26.31,-1.38 -26.31,-5.24c0,-2.58 3.21,-4.12 16.5,-7.92c20.62,-5.89 29.74,-7.38 46,-7.48l0.03,-0.07zm274,251.26a4.39,4.39 0 0 1 1.47,0.42c1.38,0.55 6.89,1.06 12.25,1.12l9.75,0.1l0.12,13.5c0.14,16.62 0.18,16.28 -2.55,23c-3.11,7.69 -1.77,10.41 3,6l2.14,-2l1.28,4.28c1.5,5 5.6,13.36 7,14.21a1.15,1.15 0 0 0 1.57,-0.43a2.14,2.14 0 0 1 1.49,-1c1,0 5,6.26 5,7.87c0,1.69 -29.93,1.57 -30.43,-0.12a296.15,296.15 0 0 0 -13.15,-34.81c-3,-6.36 -5.42,-12.89 -5.4,-14.5s1.26,-6.37 2.75,-10.56c2,-5.55 2.57,-7 3.76,-7l-0.05,-0.08zm-11,25.64l2.92,5.5c1.61,3 5.57,12 8.8,20s6.14,15.07 6.44,15.75c0.38,0.86 -0.45,1.25 -2.61,1.25c-3,0 -3.37,-0.44 -8.08,-10.25c-5.26,-11 -8.3,-22 -7.78,-28.35l0.31,-3.9z" fill="#483613" id="svg_11"/>
  <path d="m587.05,135.08c-16.56,-0.15 -36.56,8.12 -51.9,22.63c-14.94,14.13 -22.53,30.19 -22.42,47.43c0,5.76 0.69,11.17 1.7,14.21c3.78,11.38 16.38,15.81 29.48,10.35c5,-2.08 7.34,-4.56 15.22,-16.1c3.84,-5.64 9,-12.07 11.56,-14.28c4.31,-3.79 8.68,-5.86 9.86,-4.68c0.29,0.29 -5.74,12.83 -13.41,27.87c-14.74,28.88 -19.72,41.75 -24.35,62.84c-3,13.84 -3.34,36.71 -0.58,44.6c2.11,6.07 7.49,12.67 12.57,15.45c3,1.64 5,1.91 10.9,1.55c8,-0.49 12.29,-2.5 16.67,-7.71c3.59,-4.27 4.51,-8.83 4.37,-21.9c-0.16,-16.35 1.55,-21 16,-43.28c8.08,-12.57 18.28,-30.86 22.28,-39.95c4.48,-10.23 6.85,-23 6.88,-37c0,-19.33 -2.54,-26.89 -15.13,-44.7c-5.82,-8.23 -8.4,-11 -12.36,-13.18a36,36 0 0 0 -17.37,-4.17l0.03,0.02zm-0.41,6.28a32,32 0 0 1 10.49,1.54c10.52,3.58 15.46,12.91 14.49,27.37c-1,14.66 -6.23,29.75 -24.56,70.58c-19.1,42.57 -25.3,69.63 -20.5,89.51c0.9,3.74 1.37,7.52 1,8.4c-0.91,2.36 -6.78,2 -10.75,-0.69c-7.93,-5.34 -10.51,-13.87 -9.59,-31.72c0.7,-13.63 3.22,-25.94 8.58,-42c4.09,-12.24 7.53,-19.65 22.79,-49.25c9.7,-18.8 11.83,-25.39 11.08,-34.4c-0.94,-11.31 -8.15,-16.74 -19.12,-14.4c-8,1.7 -12.9,4.56 -19,11c-7.21,7.56 -11.7,16.94 -15.09,31.52c-3.66,15.72 -6.79,19.24 -12.87,14.46c-3.31,-2.6 -5.66,-10.31 -5.66,-18.55c0,-7.33 3.86,-19.27 9,-27.67c12.18,-20.09 39.37,-35.53 59.77,-35.7l-0.06,0zm32.91,28c0.59,0.11 1.32,1.7 2.44,4.52c2.17,5.43 2.38,7.47 2.41,22.48c0,13.05 -0.38,18.06 -1.9,24c-2.44,9.55 -12.33,28.86 -25.61,50c-5.7,9.08 -11.7,19.65 -13.34,23.51c-2.75,6.46 -3,8.19 -3.55,22.72s-0.74,15.89 -2.83,18c-1.89,1.9 -2.25,2 -2.25,0.56a19,19 0 0 0 -2.14,-5.8c-1.9,-3.65 -2.07,-5.12 -1.52,-13c1.45,-20.32 8.11,-41.5 25.12,-79.85c12.84,-28.93 18.85,-45.58 20.61,-57.09c1.1,-7.1 1.69,-10.14 2.56,-10l0,-0.05zm-45.62,3c2.47,0 5,0.33 5.6,0.73c2.15,1.44 3.4,5.17 3.4,10.17l0,5.06l-3.86,0c-7.31,0 -14.17,6 -24.92,21.68c-5.24,7.67 -8.81,11.86 -11.33,13.26c-5.48,3.08 -5.6,3 -3.43,-2.2a102,102 0 0 0 3.43,-12.5c4.71,-21.59 17.25,-36.17 31.11,-36.2zm-8.17,187.28c-1.7,0 -3.56,0.48 -7,1.64s-7.21,3 -8.23,3.87c-7.4,6.67 -5.57,22 3.29,27.53c3.64,2.26 11.82,2.09 15.77,-0.32c6.63,-4 10.86,-14.67 8.91,-22.4c-1,-4 -5.45,-8.5 -9.57,-9.73a11.07,11.07 0 0 0 -3.21,-0.59l0.04,0zm-0.61,6.82c1.42,0 2.5,0.64 4.14,1.93c4.68,3.69 3.11,13 -3,17.84c-5.45,4.29 -11.93,1 -13.93,-7.18c-1.14,-4.63 1.13,-8.31 6.56,-10.65c3,-1.29 4.79,-1.93 6.21,-1.93l0.02,-0.01zm68.78,42.39c-40.58,0 -43.75,0.11 -47.28,1.86c-5.08,2.53 -9.92,8.36 -15.58,18.8l-5,9.19l3.75,5.21l7,-12.27c9,-15.74 9.19,-15.85 26.9,-16.6c16.1,-0.69 89.86,0.77 114.21,2.25c9.08,0.56 26,1 37.57,1c23.69,0 29.09,1 33.86,5.94c5.23,5.45 4.88,8.48 -5.32,47.27c-12,45.56 -19.27,70.05 -23.74,79.82l-3.65,8l-19.28,0c-4.39,0 -50.39,1 -58.54,0.95l-86.4,-1l-25.5,-0.33c0,0.4 -69.3,-1.84 -69.3,-1.84c-4.51,-0.12 -14.43,-0.36 -22,-0.53c-10.22,-0.23 -12.92,-0.39 -13.24,-1.27c-1.86,-0.17 -9.46,-0.47 -8,6.29l16,0.39c8.82,0.23 18,0.65 20.39,0.94l4.35,0.54l-0.56,4.17c-0.62,4.61 -1.34,55.23 -2.19,154.18c-0.6,69.18 -2,146.45 -3.1,170.75l-0.66,14.74l7,0l0.61,-24.24c0.58,-23.77 2.19,-143.4 3.35,-250.05c0.32,-29.59 0.8,-53.59 1.06,-53.33s4.64,9.84 9.75,21.3c12.31,27.64 21.49,47.2 33,70.43c23,46.22 26,48.93 57.17,50.84c32.87,2 66.52,3.07 119.43,3.73l53.59,0.65l0.69,26.09c1.14,43.77 3.31,74.28 8,112.43l2.25,18.33l5.13,4.66c5.81,5.29 8.22,9.5 8.53,14.93l0.23,3.73l7,0l-0.78,-5.42a28.67,28.67 0 0 0 -9.62,-17.32l-4,-3.61l-2.55,-20.81c-3.48,-28.48 -5.32,-51.27 -6.54,-80.82c-1.15,-28.25 -1.86,-40.84 -2.67,-47.75l-0.56,-4.75l10.34,-0.06c25.93,-0.18 35.1,-2.6 39,-10.27c1.87,-3.66 2,-5.25 1.53,-14.23c-0.46,-8 -1.41,-12.69 -4.59,-22.52c-2.2,-6.83 -7.2,-23.66 -11.12,-37.41c-7.47,-26.23 -15.18,-50.53 -20.31,-64c-2.31,-6.06 -4.18,-9.08 -7.73,-12.55l-4.69,-4.57l4.27,-15.44c2.35,-8.5 5.44,-19.72 6.87,-24.94s4.64,-16.48 7.13,-25c12,-41.06 13.5,-50.91 9.24,-60.12c-2.68,-5.78 -4.53,-7.93 -12.71,-14.77s-14.19,-8.32 -34.57,-8.71c-9.35,-0.18 -32.07,-0.9 -50.49,-1.6s-53.08,-1.29 -77,-1.29l0.07,0.01zm165.56,23l2.22,4.2c4.2,8 2.53,18.46 -9.39,58.8c-2.44,8.25 -6.46,22.64 -8.93,32s-5.44,19.93 -6.6,23.51s-2.61,6.95 -3.23,7.52c-1,0.88 -7.64,0.91 -7.64,0c0,-0.18 1.17,-3.41 2.6,-7.19c8.38,-22.18 28.94,-98.14 30.29,-111.87l0.68,-6.97zm-293.06,131.5c3.4,0 5.5,0.43 5.5,1.12c0,2.1 19.14,49.2 24.91,61.31c3.17,6.64 9.16,18.48 13.32,26.31s10.39,20.62 13.87,28.42c7.05,15.8 10.43,20 19.82,24.59c4.09,2 7.15,2.7 12.5,2.85c3.89,0.11 13.15,0.91 20.58,1.78c27.4,3.2 50.31,4 115,4.06c57.37,0.05 65.58,-0.14 74.31,-1.71c5.39,-1 11.65,-2.69 13.89,-3.84l4.08,-2.08l-0.64,3.25c-1.36,6.8 -4.69,8.41 -20.31,9.83c-23,2.1 -157.83,0.15 -204.27,-3c-27.23,-1.82 -29.18,-3.86 -55,-57.65c-18.73,-39 -43.06,-92.68 -43.06,-95c0,-0.19 2.47,-0.33 5.5,-0.33l0,0.09zm10.36,0.78l24.82,0.6c58.88,1.43 169.51,1.78 198.31,0.63c27.77,-1.11 29.82,-1.07 34.92,0.65a18.54,18.54 0 0 1 9.31,6.47c4.39,5.21 8.36,17.1 24.33,72.86c4.65,16.24 9.52,33.11 10.83,37.5s2.69,9.89 3.07,12.19c0.67,4 0.56,4.27 -3.13,6.71c-2.41,1.59 -7.17,3.16 -12.83,4.23c-7.58,1.45 -16.36,1.75 -55.5,1.91c-53.6,0.23 -93.81,-0.81 -119.5,-3.08c-9.9,-0.87 -22.81,-2 -28.69,-2.44c-10.77,-0.87 -18,-3.09 -22.16,-6.8c-3.08,-2.76 -6,-7.89 -12,-21.46c-3.15,-7 -9.15,-19.16 -13.34,-27a500.66,500.66 0 0 1 -24.36,-52c-3.77,-9.19 -8.48,-19.93 -10.46,-23.85l-3.62,-7.12zm-179.64,98.71l-2.43,2.43c-1.33,1.33 -2.39,2.39 -4.67,4.65c0.22,0.86 -2.52,35.75 -3.67,46.08l-0.58,5.16l-6.27,1.09a107.5,107.5 0 0 1 -14.79,1.1c-7.22,0 -9,-0.35 -11.92,-2.29c-3.33,-2.24 -4.28,-4.35 -3.51,-9.18c0.16,-1 0.1,-7.18 1.82,-9l-0.33,0.21c-2.49,1.67 -5.3,3.47 -7.88,4.94l-0.32,0.2l-0.08,6.11c-0.09,6.88 1.88,10.19 8,13.38c4.71,2.47 16.35,3.23 26.94,1.77c3.85,-0.53 7.16,-0.82 7.35,-0.65s-0.81,12.88 -2.29,28.16c-3.89,41.72 -8.6,103.24 -8.6,112.39c0,6.76 -0.39,8.76 -2.44,12.25c-3.57,6.08 -5.75,15.25 -5,20.93l0.63,4.73l11.06,0c-1.21,-0.31 -2.1,-1.83 -2.83,-2.41c-2.56,-2 -2.7,-2.54 -2.11,-7.61a40.48,40.48 0 0 1 3.66,-11.3c2.08,-4.05 3,-7.34 3,-10.5c0,-8.92 6.73,-91.62 12.9,-158.61c1.07,-11.55 2.47,-28.43 3.13,-37.5l1.23,-16.53zm226.46,128.16c-13.74,0 -25.22,0.47 -28.19,1.3c-4.83,1.36 -10.1,6.31 -10.93,10.27c-1.19,5.7 -2.57,29.34 -2.57,44.12c0,32.55 2.34,35.66 27.5,36.68c34.27,1.39 72.63,0.17 82.25,-2.6a23,23 0 0 0 14.55,-12.4c1.75,-4 2,-7.46 2.46,-33c0.44,-24.49 0.28,-29.1 -1.06,-32.29c-3.08,-7.31 -8.57,-8.73 -42.19,-10.94c-12.06,-0.8 -28.07,-1.17 -41.82,-1.14zm-7.88,6.42c20.58,0.1 79.48,3.48 82.89,4.89c3.88,1.6 4.61,7.34 3.91,30.49c-0.81,26.33 -1.32,30.78 -4,34.78c-3.58,5.38 -7.52,6.61 -24.69,7.71c-19.37,1.24 -47.12,1.66 -65.76,1c-14.08,-0.49 -14.38,-0.55 -16.67,-3.2c-1.65,-1.93 -2.52,-4.52 -3,-9c-0.86,-8.15 1.26,-58.5 2.56,-60.94c2.4,-4.47 5.59,-5.33 21.16,-5.71l3.57,0l0.03,-0.02zm-368.73,13.49l0.06,0.09l0.52,0a1.94,1.94 0 0 0 -0.58,0l0,-0.09zm0.06,0.09l-0.73,0c-6.52,0.54 -6.54,1.86 -0.44,33c2.94,15 5.54,28.07 5.78,29c0.37,1.45 -0.11,1.62 -3.15,1.12c-6.22,-1 -7,0.55 -6.07,11.66q1.64,18.9 -0.58,21.55s0,0 -0.09,0l6.5,0a1,1 0 0 1 0,-0.3c0.89,-2.83 0.94,-9 0.12,-18c-0.85,-9.37 -0.41,-9.84 4.86,-5.21c4.4,3.86 6.68,9.8 6.91,18l0.16,5.49l6.53,0l0,-4.83q0,-12 -6,-20.38c-2.57,-3.57 -3.45,-6.36 -5.1,-16.08c-1.1,-6.46 -3.32,-18.88 -4.94,-27.6s-3,-17 -3,-18.46c0,-2.52 0.2,-2.43 5,2.34a58.38,58.38 0 0 1 14.46,21.84c3.49,9.31 4.57,14.85 5.88,30c0.74,8.58 1.54,13.08 2.36,13.35c2.06,0.68 3.26,-4.38 3.26,-13.85c0,-10.54 2.21,-17.94 4.31,-14.4c0.76,1.28 1.17,6.82 1.17,15.5c0,12.8 -0.2,14 -3.5,23.5l-3.15,9l6.66,0c0.44,-1.21 1,-3.84 1.88,-6.41c7.32,-20.38 5.54,-50.12 -3,-50.12a7.59,7.59 0 0 0 -4.39,1.5c-1.52,1.38 -1.81,1 -3.4,-4.73c-2.81,-10.48 -8.15,-19.38 -17.02,-28.48a40.38,40.38 0 0 0 -11.27,-8l-0.01,0zm425.58,6.72c-5.23,-0.05 -11.67,0.12 -19.24,0.53c-10.45,0.56 -26.12,1.32 -34.83,1.69c-16.38,0.7 -18.58,1.39 -15.66,4.91c1.55,1.86 4.53,1.86 49.91,0c35.56,-1.46 39.76,-2 35.8,-5c-1.83,-1.35 -7.25,-2.08 -16,-2.17l0.02,0.04zm284.74,8.64c-12.74,0 -35.34,23.63 -45.08,47.14l-3.69,8.92l-2.4,-4.28c-2.94,-5.25 -4.85,-6.78 -8.46,-6.78c-2.12,0 -3.2,0.78 -4.52,3.25c-2.29,4.3 -2.26,20.26 0.06,26.75c0.88,2.47 1.87,5.79 1.87,5.79l6.59,0c0.07,0 -0.1,-0.06 -0.12,-0.08c-2.9,-4.78 -5.29,-28.7 -2.87,-28.7c0.48,0 2.5,2.48 4.5,5.48c3.13,4.71 3.66,6.31 3.66,11.25c0,9.84 3.24,11.33 4.51,2.1c2.32,-16.87 15.3,-40.82 29.27,-54c6.9,-6.51 15.25,-11.54 17.18,-10.35c2.83,1.75 0.45,11.48 -8.39,34.29c-2.93,7.55 -6.34,16.85 -7.59,20.65a46.23,46.23 0 0 1 -5.64,11.33c-1.85,2.42 -3.36,5.27 -3.36,6.33c0,0.33 -0.17,1.53 -0.17,1.53l5.22,0a3.75,3.75 0 0 1 -0.05,-0.47c0,-1.38 10.84,-10.84 13.1,-11.44s3.2,2.07 2.72,7.92l-0.32,3.88l4.58,-0.2c0,-0.41 0.48,-2.71 1,-5.12c1.9,-8.2 -1.88,-14 -8.28,-12.73c-2.15,0.43 -2.85,0.25 -2.5,-0.65c0.26,-0.69 3.51,-8.89 7.21,-18.24c7.84,-19.81 11,-31.15 10.06,-36.15c-0.89,-4.76 -3.75,-7.36 -8.07,-7.36l-0.02,-0.06zm-315.82,21c-2.28,0 -5.72,0.1 -10.91,0.31c-15.64,0.63 -27.56,2.14 -29.13,3.69a2.69,2.69 0 0 0 -0.23,2.58c0.58,1.5 1.77,1.62 10.38,1c14.08,-1 29.38,-2.73 32,-3.71a3.32,3.32 0 0 0 2.25,-2.53c0,-1 -0.55,-1.35 -4.34,-1.38l-0.02,0.04z" fill="#7f3f00" id="svg_12"/>
 </g>
</svg>