<svg xmlns="http://www.w3.org/2000/svg" viewBox="0 0 1364 960"><path fill="#CCE9FF" d="M1050.998 340.261h154.773s9.104-3.872-11.489-5.606-14.74-11.706-19.726-9.971c-4.986 1.734-9.772 7.477-18.642-.202-12.789-11.07-23.411-19.524-30.131-7.819-6.72 11.705-14.495 9.267-17.992 6.652-6.286-4.701-17.125-7.587-22.761 0-5.636 7.587-14.324-1.202-20.593-1.667-5.853-.434-4.986 10.405-14.09 11.706-9.104 1.301-17.342 0-17.125 2.818s15.825 4.089 17.776 4.089zM503.88 204.112h154.773s9.104-3.872-11.489-5.606-14.74-11.705-19.726-9.971c-4.986 1.734-9.772 7.477-18.642-.202-12.789-11.07-23.411-19.524-30.131-7.819-6.72 11.706-14.495 9.267-17.992 6.652-6.286-4.701-17.125-7.587-22.761 0-5.636 7.587-14.324-1.202-20.593-1.667-5.853-.434-4.986 10.405-14.09 11.706-9.104 1.301-17.341 0-17.125 2.818.218 2.819 15.825 4.089 17.776 4.089z"/><path fill="#C9E3F5" d="M181.507 562.94c-1.066-2.68-.191-5.89 1.764-8.004 1.955-2.115 4.827-3.219 7.695-3.484 2.869-.265 5.755.242 8.55.944 4.626 1.162 9.243 2.963 12.882 5.984a136.52 136.52 0 0 0-3.943-20.615c-.167-.615-.346-1.227-.521-1.839l-14.141 4.943c-3.145 1.099-6.386 2.214-9.715 2.059-3.329-.155-6.812-1.883-8.045-4.983-1.066-2.68-.191-5.89 1.764-8.004 1.955-2.115 4.827-3.219 7.695-3.484 2.868-.265 5.755.242 8.55.944 4.771 1.199 9.536 3.075 13.224 6.273a139.24 139.24 0 0 0-8.647-21.643l-14.52 4.458c-3.185.978-6.466 1.966-9.787 1.685-3.321-.282-6.735-2.142-7.849-5.287-.963-2.718.035-5.893 2.069-7.93 2.035-2.038 4.947-3.031 7.823-3.186 2.876-.155 5.742.462 8.508 1.271 4.429 1.295 8.83 3.185 12.3 6.167a136.912 136.912 0 0 0-8.789-14.402 132.568 132.568 0 0 0-2.949-4.034l-15.084 4.093c-3.215.872-6.527 1.753-9.838 1.362-3.31-.391-6.661-2.362-7.671-5.542-.872-2.749.228-5.888 2.329-7.857 2.101-1.97 5.044-2.867 7.924-2.927 2.88-.06 5.724.651 8.462 1.55 3.913 1.285 7.785 3.046 10.969 5.608a131.243 131.243 0 0 0-11.525-12.417l-14.832-3.494c-3.245-.764-6.579-1.568-9.306-3.488-2.727-1.921-4.739-5.249-4.116-8.524.539-2.831 3.001-5.066 5.787-5.797 2.785-.731 5.803-.117 8.366 1.201 2.564 1.319 4.728 3.298 6.711 5.392 3.654 3.859 6.878 8.381 8.099 13.522.014.012.029.02.043.033a132.49 132.49 0 0 1 12.24 13.24c-1.395-4.053-1.659-8.518-1.422-12.834.158-2.878.529-5.786 1.632-8.448 1.103-2.662 3.008-5.078 5.606-6.319 2.599-1.242 5.922-1.126 8.165.686 2.595 2.097 3.213 5.936 2.374 9.162-.839 3.226-2.863 5.992-4.845 8.671l-9.052 12.238a136.99 136.99 0 0 1 11.865 18.598c-.503-4.484.368-9.123 1.737-13.463.867-2.748 1.948-5.472 3.677-7.776 1.729-2.304 4.174-4.171 7-4.727 2.826-.557 6.019.381 7.742 2.693 1.994 2.674 1.641 6.546.028 9.462-1.613 2.916-4.261 5.092-6.845 7.194l-11.803 9.598c.103.207.211.412.314.62a141.276 141.276 0 0 1 8.383 21.159c.082-5.055 2.03-9.991 4.513-14.434 1.405-2.515 3.015-4.962 5.175-6.867 2.16-1.905 4.933-3.237 7.814-3.209 2.881.027 5.819 1.593 7.039 4.205 1.412 3.022.283 6.741-1.887 9.269-2.17 2.527-5.204 4.121-8.161 5.655l-13.939 7.231.087.306.142.044-.117.041c2.043 7.1 3.526 14.36 4.414 21.7 1.854-4.146 4.956-7.743 8.34-10.833 2.168-1.979 4.512-3.827 7.213-4.976 2.701-1.148 5.812-1.546 8.589-.596 2.777.95 5.115 3.403 5.456 6.318.394 3.372-1.894 6.603-4.805 8.349-2.912 1.747-6.358 2.314-9.711 2.848l-14.287 2.277-.415.145a132.18 132.18 0 0 1 .053 24.387c-.078.857-1.431.899-1.352.031a132.03 132.03 0 0 0-.018-23.957l-13.415 4.689c-3.145 1.099-6.385 2.214-9.715 2.059-3.33-.156-6.812-1.884-8.045-4.984z"/><path fill="#C9E3F5" d="M112.758 794.707c8.937 4.166 23.222 9.332 48.793 9.782 15.692.222 37.436.659 63.352-8.78 1.119-.409 3.095-1.112 5.614-2.195.127-.042.272-.093.389-.153.234-.072.477-.173.73-.255.856-.345 1.761-.74 2.744-1.078 18.829-8.181 57.144-28.41 65.581-64.059.519-2.043 6.454-28.016-5.258-35.822-14.742-9.612-46.533 15.739-51.585 9.558-2.541-3.144 4.657-10.227 9.939-21.196 12.101-24.536 12.08-62.382-7.956-75.978-9.423-6.528-23.738-7.758-35.147-2.141-18.642 8.922-18.418 39.122-20.917 38.865-3.599-.526 12.816-56.872-12.469-78.74-8.909-7.632-23.707-11.645-32.567-6.486-12.975 7.588-7.511 31.966-14.524 33.555-7.434 1.684-12.234-25.553-37.857-42.414-6.53-4.231-21.836-14.264-37.038-9.023C41.365 542.557 32.017 556.57 31.88 570c-.056 12.401 7.745 21.125 9.96 23.452 14.121 15.356 30.442 9.04 60.452 25.427 10.486 5.68 21.266 13.402 19.941 17.219-1.164 2.747-8.142.744-18.146 4.648a4.743 4.743 0 0 0-.944.366c-3.036 1.229-13.826 5.662-18.074 15.678-.239.395-4.611 11.361.892 18.317 2.774 3.641 7.095 4.655 8.963 5.165 18.703 4.797 40.423 16.412 39.724 19.485-.701 3.544-30.786-4.475-37.047 5.843-5.189 8.581 8.956 24.935 10.788 27.041 15.346 17.482 37.661 22.355 37.049 23.979-.576 1.359-17.061-6.907-35.254-2.11-8.483 2.178-21.832 8.284-22.606 16.965-1.076 10.666 17.394 19.528 25.18 23.232z"/><path fill="#FFF" d="M135.048 730.598c2.276-3.618 7.061-3.708 10.809-2.855 4.726 1.074 9.09 3.369 13.095 6.045 8.424 5.629 15.638 13.389 25.246 17.09 4.856 1.87 10.145 2.598 15.219 1.242-7.18-14.242-12.663-29.347-17.898-44.391-1.96-5.629-3.905-11.284-5.916-16.92-12.578-9.961-30.366-6.431-44.052-14.054-3.641-2.028-6.76-4.811-8.911-8.399-.362-.604.61-1.105.972-.504 4.122 6.876 11.827 10.156 19.304 11.994 7.402 1.817 15.082 2.277 22.386 4.529 3.438 1.06 6.713 2.565 9.649 4.632-5.47-15.201-11.5-30.221-19.829-44.099-10.09-16.805-23.615-32.148-41.13-41.408a79.239 79.239 0 0 0-6.73-3.141c-.64-.284-.313-1.317.338-1.062 17.712 7.357 31.983 20.861 42.858 36.421 1.856 2.649 3.581 5.37 5.247 8.125a.498.498 0 0 1 .148-.36c6.934-6.797 4.923-17.282 2.443-25.568-1.357-4.531-2.917-9.042-3.512-13.755-.496-3.914-.475-8.203 1.9-11.545.408-.572 1.334.011.926.585-2.777 3.905-2.169 9.247-1.264 13.673.986 4.818 2.732 9.432 3.974 14.182 2.04 7.809 2.512 17.12-3.723 23.231-.201.198-.426.157-.609.042 9.331 15.562 15.902 32.629 21.919 49.722 3.337 9.475 6.566 19.013 10.059 28.441 10.739-5.242 19.333-15.047 23.423-26.242 2.235-6.116 2.7-12.339 2.273-18.799-.463-7.013-1.585-14.097-.397-21.101 1.172-6.913 4.961-13.773 11.764-16.456.648-.255 1.159.713.503.971-6.852 2.704-10.413 9.731-11.35 16.695-.961 7.141.299 14.3.661 21.435.312 6.174-.366 12.154-2.551 17.961-2.03 5.396-5.066 10.387-8.812 14.765-4.188 4.895-9.321 9.004-15.129 11.816 4.281 11.469 8.984 22.76 14.87 33.528 4.075 7.467 8.772 14.686 14.133 21.335 3.839-17.277 21.717-25.81 31.178-39.522 2.769-4.012 4.809-8.492 5.422-13.359.086-.694 1.181-.646 1.092.056-2.251 17.889-20.268 27.033-30.3 40.166-3.032 3.968-5.396 8.386-6.432 13.299a.433.433 0 0 1-.209.285c4.108 4.991 8.589 9.652 13.533 13.783-.253.082-.496.183-.73.255a2.91 2.91 0 0 1-.389.153c-8.413-7.101-15.623-15.687-21.719-24.974-3.262-4.977-6.186-10.136-8.884-15.411-8.531 2.409-17.288-.93-24.396-5.612-8.25-5.436-15.245-12.849-24.398-16.864-4.221-1.851-12.021-4.438-15.147.53-.378.595-1.302.009-.927-.586z"/><path fill="#C9E3F5" d="M1179.337 571.594c1.066-2.68.191-5.89-1.763-8.004-1.955-2.115-4.827-3.219-7.695-3.484-2.869-.265-5.755.242-8.55.944-4.625 1.162-9.243 2.963-12.882 5.984a136.52 136.52 0 0 1 3.943-20.615c.167-.615.346-1.227.521-1.839l14.141 4.943c3.145 1.099 6.385 2.214 9.715 2.059 3.329-.154 6.812-1.883 8.045-4.982 1.066-2.68.191-5.89-1.764-8.004-1.955-2.115-4.827-3.219-7.695-3.484-2.868-.265-5.755.242-8.55.944-4.771 1.199-9.536 3.075-13.224 6.273a139.29 139.29 0 0 1 8.647-21.644l14.52 4.458c3.185.978 6.466 1.966 9.787 1.684 3.321-.282 6.735-2.142 7.849-5.287.963-2.718-.035-5.893-2.069-7.93-2.035-2.038-4.947-3.031-7.823-3.186-2.876-.155-5.742.462-8.508 1.271-4.429 1.295-8.831 3.185-12.301 6.167a136.912 136.912 0 0 1 8.789-14.402 132.568 132.568 0 0 1 2.949-4.034l15.084 4.093c3.215.872 6.527 1.753 9.838 1.362 3.31-.391 6.661-2.362 7.671-5.542.873-2.749-.228-5.888-2.329-7.857-2.101-1.97-5.044-2.867-7.924-2.927-2.88-.06-5.724.651-8.462 1.55-3.913 1.285-7.785 3.045-10.969 5.608 3.569-4.38 7.419-8.53 11.525-12.418l14.832-3.494c3.245-.764 6.578-1.568 9.306-3.488 2.728-1.921 4.739-5.249 4.116-8.524-.539-2.831-3-5.066-5.786-5.797-2.785-.731-5.802-.117-8.366 1.201-2.564 1.319-4.728 3.298-6.711 5.392-3.654 3.86-6.878 8.381-8.099 13.522-.014.012-.029.02-.043.033a132.482 132.482 0 0 0-12.24 13.24c1.395-4.053 1.659-8.518 1.422-12.834-.158-2.878-.529-5.786-1.632-8.448-1.103-2.662-3.008-5.078-5.606-6.319-2.599-1.242-5.922-1.126-8.165.686-2.595 2.096-3.213 5.936-2.374 9.162.839 3.226 2.863 5.992 4.845 8.671l9.052 12.238a136.892 136.892 0 0 0-11.865 18.598c.502-4.484-.368-9.123-1.737-13.463-.867-2.748-1.948-5.472-3.677-7.775-1.728-2.304-4.174-4.171-7-4.727-2.826-.557-6.019.38-7.742 2.693-1.994 2.674-1.641 6.546-.028 9.461 1.613 2.916 4.261 5.092 6.845 7.194l11.803 9.599c-.103.207-.212.412-.314.62a141.134 141.134 0 0 0-8.382 21.16c-.082-5.055-2.03-9.991-4.513-14.434-1.405-2.515-3.016-4.962-5.175-6.867-2.16-1.905-4.933-3.237-7.814-3.209-2.881.028-5.818 1.593-7.039 4.205-1.412 3.022-.283 6.741 1.887 9.269 2.17 2.528 5.204 4.121 8.161 5.655l13.939 7.232-.087.306-.142.044.117.041a138.785 138.785 0 0 0-4.414 21.7c-1.854-4.146-4.956-7.742-8.34-10.832-2.168-1.979-4.512-3.827-7.213-4.976-2.701-1.148-5.812-1.546-8.589-.596-2.777.95-5.115 3.402-5.455 6.318-.394 3.372 1.893 6.603 4.805 8.349 2.912 1.747 6.358 2.314 9.711 2.848l14.287 2.277.415.145a132.267 132.267 0 0 0-.053 24.387c.078.857 1.431.899 1.352.031a131.939 131.939 0 0 1 .019-23.957l13.415 4.69c3.145 1.099 6.385 2.214 9.715 2.059 3.325-.159 6.808-1.887 8.041-4.987z"/><path fill="#C9E3F5" d="M1251.242 785.828c-8.937 4.166-23.222 9.332-48.793 9.782-15.692.222-37.435.659-63.352-8.78-1.119-.409-3.095-1.112-5.614-2.195a2.857 2.857 0 0 1-.389-.153c-.234-.072-.477-.173-.73-.255-.856-.345-1.761-.74-2.744-1.078-18.829-8.181-57.144-28.41-65.581-64.059-.519-2.043-6.454-28.016 5.258-35.822 14.742-9.612 46.533 15.739 51.585 9.558 2.541-3.144-4.657-10.227-9.939-21.196-12.101-24.536-12.08-62.382 7.956-75.978 9.423-6.528 23.739-7.758 35.147-2.141 18.642 8.922 18.418 39.122 20.917 38.865 3.599-.526-12.817-56.872 12.469-78.741 8.909-7.632 23.707-11.645 32.567-6.485 12.975 7.588 7.512 31.966 14.524 33.555 7.434 1.684 12.234-25.552 37.857-42.414 6.53-4.231 21.836-14.264 37.038-9.023 13.217 4.411 22.564 18.424 22.701 31.854.056 12.401-7.745 21.125-9.96 23.452-14.121 15.356-30.442 9.04-60.453 25.427-10.486 5.681-21.266 13.403-19.941 17.219 1.164 2.747 8.142.744 18.146 4.648.215.061.536.155.944.366 3.036 1.229 13.826 5.662 18.074 15.678.239.395 4.611 11.361-.892 18.317-2.774 3.641-7.095 4.654-8.963 5.165-18.703 4.798-40.423 16.412-39.724 19.485.701 3.544 30.786-4.475 37.047 5.843 5.19 8.581-8.956 24.935-10.788 27.041-15.346 17.482-37.661 22.355-37.049 23.979.576 1.359 17.061-6.907 35.254-2.11 8.483 2.178 21.832 8.284 22.606 16.965 1.078 10.666-17.392 19.528-25.178 23.231z"/><path fill="#FFF" d="M1228.952 721.719c-2.276-3.618-7.061-3.708-10.809-2.855-4.726 1.074-9.091 3.369-13.095 6.045-8.424 5.63-15.638 13.389-25.246 17.09-4.856 1.87-10.145 2.598-15.219 1.242 7.18-14.242 12.663-29.347 17.898-44.391 1.96-5.629 3.905-11.284 5.916-16.92 12.578-9.962 30.366-6.432 44.052-14.054 3.641-2.028 6.76-4.811 8.911-8.4.362-.604-.61-1.105-.971-.503-4.122 6.876-11.827 10.157-19.304 11.994-7.401 1.818-15.082 2.277-22.386 4.529-3.438 1.06-6.713 2.565-9.649 4.632 5.47-15.201 11.5-30.221 19.829-44.099 10.09-16.805 23.615-32.148 41.13-41.408a79.239 79.239 0 0 1 6.73-3.141c.64-.284.313-1.317-.337-1.062-17.712 7.357-31.983 20.861-42.858 36.421-1.856 2.649-3.581 5.371-5.247 8.125a.498.498 0 0 0-.148-.36c-6.934-6.797-4.923-17.282-2.443-25.568 1.357-4.53 2.917-9.042 3.512-13.755.496-3.914.475-8.203-1.9-11.545-.408-.572-1.334.011-.926.585 2.777 3.905 2.169 9.247 1.264 13.673-.986 4.818-2.732 9.432-3.974 14.182-2.04 7.808-2.512 17.12 3.723 23.23.201.198.426.157.609.042-9.331 15.562-15.902 32.629-21.919 49.722-3.336 9.475-6.566 19.013-10.059 28.441-10.739-5.242-19.333-15.047-23.423-26.242-2.235-6.115-2.7-12.339-2.273-18.799.463-7.013 1.585-14.097.397-21.101-1.172-6.913-4.962-13.772-11.764-16.456-.648-.255-1.159.713-.503.971 6.852 2.704 10.413 9.731 11.349 16.695.961 7.141-.299 14.3-.661 21.435-.312 6.174.366 12.154 2.551 17.961 2.03 5.397 5.066 10.387 8.812 14.765 4.188 4.895 9.321 9.004 15.129 11.816-4.281 11.469-8.984 22.76-14.87 33.528-4.075 7.467-8.772 14.686-14.133 21.335-3.839-17.277-21.717-25.81-31.178-39.522-2.769-4.012-4.809-8.492-5.422-13.359-.086-.693-1.181-.645-1.092.056 2.251 17.889 20.268 27.033 30.3 40.166 3.032 3.968 5.396 8.386 6.432 13.299a.433.433 0 0 0 .209.285c-4.108 4.991-8.589 9.652-13.533 13.783.253.082.496.183.73.255.117.06.263.111.389.153 8.413-7.101 15.623-15.686 21.719-24.974 3.262-4.977 6.186-10.136 8.884-15.411 8.531 2.409 17.288-.93 24.396-5.612 8.25-5.437 15.245-12.849 24.398-16.864 4.221-1.851 12.021-4.438 15.147.53.377.596 1.301.011.926-.585z"/><path fill="#E6F3FF" d="M1177.177 797.511H221.602c-44.78-31.182-71.638-87.104-66.897-141.618 4.696-53.991 67.899-55.378 101.83-132.735 25.164-57.369-3.088-91.41 27.982-122.778 29.48-29.764 61.646-10.28 90.863-41.826 30.213-32.621 5.453-63.856 37.499-99.517 23.855-26.545 65.369-40.166 98.54-31.08 9.848 2.697 17.907 6.7 32.367 17.137 23.602 17.034 31.381 35.874 65.477 54.839 44.28 24.629 104.857 7.628 136-2.813 65.274-21.885 69.895-55.218 110.932-53.637 40.511 1.56 42.122 33.689 100.851 53.788 60.047 20.549 81.083-5.263 117.66 18.49 37.55 24.385 54.345 76.895 54.303 116.483-.058 54.121-34.999 76.987-17.575 116.444 8.796 19.92 27.014 33.709 41.767 49.721 48.384 52.518 57.372 136.512 23.976 199.102z"/><path fill="#FFD6D6" d="M955.881 461.038s.008.024.016.081c.113.734 1.041 6.35 2.832 13.724 0 .016.008.024.008.04 1.008 3.114 2.251 6.463 3.752 9.69 2.897 6.277 6.762 12.103 11.724 14.862 8.641 4.801 17.202 6.866 23.536 7.73 1.469.202 2.808.339 4.01.428 1.646-1.299 3.219-2.695 4.72-4.091-1.921-9.723 1.557-27.86 1.557-27.86s-4.825 2.445-10.545 4.518c-7.552 7.617-14.241 14.136-15.048 14.136-1.687 0-13.248-29.829-16.234-37.599-.444-1.162-.702-1.832-.702-1.832l-9.626 6.173z"/><path fill="#FFD6D6" d="M955.877 461.036s-.51-3.833-2.001-9.405l9.065-4.317 2.564 7.548s-1.936 4.833-9.628 6.174z"/><path fill="#FFD6D6" d="M964.353 451.278s1.177-2.708.719-9.87c-.263-4.106 3.681-5.342 2.443-7.04-1.624-2.227-4.985 4.468-6.206 5.962-2.152 2.632-7.492 7.524-8.594 9.311-1.102 1.786.297 3.56 2.612 7.837l6.781-3.962c.001.001 1.765-.43 2.245-2.238z"/><path fill="#F2C0C0" d="M962.95 442.943c.169 1.486-1.325 3.06-2.651 3.514-1.325.454 0 2.722-2.286 3.771-2.277 1.05-3.896-.125-4.021 1.138-.089.898 1.245 3.264 1.548 4.723l-.712.463c-1.886-3.389-2.98-5.043-2.286-6.591.044-.107.107-.213.169-.32.694-1.121 3.033-3.451 5.221-5.684.222-.222.436-.445.649-.667 1.067-1.094 2.046-2.135 2.722-2.962.036-.044.071-.089.116-.133.098-.142.214-.311.356-.507.08-.133.178-.276.276-.427.044-.071.098-.151.151-.231.142-.231.302-.471.463-.729.214-.329.427-.667.658-1.005-.187 1.529-.507 4.562-.373 5.647z"/><path fill="#FFF" d="M941.927 458.514a4.551 4.551 0 0 0 3.381.894 4.56 4.56 0 0 0 3.022-1.761l22.505-29.55a4.57 4.57 0 0 0-4.249-7.298 4.556 4.556 0 0 0-3.024 1.76l-22.505 29.55a4.567 4.567 0 0 0 .87 6.405z"/><path fill="#FFF" d="M941.927 458.514c.068.052.139.102.209.15.332.19.706.347 1.127.451.67.165 2.959.574 4.304-1.074.025-.03.048-.06.071-.091 1.062-1.395.823-3.266.137-4.438-.681-1.164-2.08-2.005-3.568-2.144-1.109-.102-2.083.201-2.739.856-1.027 1.023-1.438 3.085-.413 4.524.836 1.174 2.422 1.642 3.771 1.112.745-.293 2.024-1.15 2.083-2.497.06-1.37-1.249-2.378-2.496-2.527-.815-.099-2.195.116-2.653 1.107-.199.431-.195.948.012 1.456.266.657.82 1.188 1.446 1.385.135.042 1.338.387 2.152-.504.51-.561.664-1.391.392-2.12a.088.088 0 0 0-.117-.048.1.1 0 0 0-.054.122c.248.665.111 1.419-.35 1.923-.734.803-1.834.487-1.958.448-.579-.183-1.094-.676-1.341-1.287-.187-.461-.192-.924-.016-1.306.413-.896 1.694-1.084 2.454-.994 1.173.141 2.404 1.079 2.348 2.347-.049 1.085-1.049 1.964-1.957 2.322a3.053 3.053 0 0 1-3.565-1.053c-.972-1.364-.585-3.314.385-4.281.615-.613 1.534-.897 2.588-.8 1.434.133 2.785.943 3.439 2.062.691 1.182.846 3.039-.188 4.314-1.272 1.559-3.469 1.165-4.112 1.007-1.38-.34-2.246-1.293-2.751-2.097a4.546 4.546 0 0 0 1.36 1.675z"/><path fill="#CCC" d="M963.034 447.31c.101.025.198.047.287.064a8.027 8.027 0 0 0-.287-.064z"/><path fill="#CCC" d="M961.045 440.272c.731-.034 1.74-.144 2.922-.478-.13.173-.467.665-.528 1.327-.079.841.367 1.316.482 1.439.279.298.594.399.77.439a7.488 7.488 0 0 1-1.363.286v-.002c-.216.027-.42.04-.61.047a76.326 76.326 0 0 1-2.107-.094c-.77-.046-1.549-.105-2.337-.17.372.662.74 1.206 1.08 1.646.424.545.81.944 1.119 1.227.318.292.544.455.61.501.712.493 1.41.737 1.952.87a8.781 8.781 0 0 0-2.735-.13 8.72 8.72 0 0 0-1.343.258 15.576 15.576 0 0 1-4.57-4.988c.003-.001.003-.001.003-.003l-1.488-1.658c-.369-.288-.741-.581-1.115-.875l-.972-.763c-.029-.025-.06-.048-.09-.071l-.05-.045c.958-.815 1.918-1.628 2.88-2.444l.065-.055.107.144.727.97.592.789 1.997 1.626a1.12 1.12 0 0 1 .077-.008c.363-.027.697.034 1.224.1.002.001.002.001.004-.001.402.052.919.104 1.645.12.562.014.967 0 1.052-.004z"/><path fill="#D94559" d="M962.668 447.596c.101.025.198.047.287.064a8.546 8.546 0 0 0-.287-.064z"/><path fill="#D94559" d="M960.678 440.558c.731-.034 1.74-.144 2.922-.478-.13.173-.467.665-.528 1.327-.079.841.367 1.316.482 1.439.279.298.594.399.77.439a7.436 7.436 0 0 1-1.363.286v-.002c-.216.027-.42.04-.61.047a76.326 76.326 0 0 1-2.107-.094c-.77-.046-1.549-.105-2.337-.17.372.662.74 1.206 1.08 1.646.424.545.81.944 1.119 1.227.318.292.544.455.611.501.712.493 1.41.737 1.952.87a8.781 8.781 0 0 0-2.735-.13 8.72 8.72 0 0 0-1.343.258 15.576 15.576 0 0 1-4.57-4.988c.003-.001.003-.001.003-.003l-1.488-1.658c-.369-.288-.741-.581-1.116-.875l-.972-.763c-.03-.025-.06-.048-.09-.071l-.05-.045c.958-.815 1.917-1.628 2.88-2.444l.065-.055c.035.049.071.097.107.144l.727.97.592.789 1.997 1.626a1.12 1.12 0 0 1 .077-.008c.363-.027.697.034 1.224.1.002.001.002.001.004-.001.402.052.919.104 1.645.12.563.014.968 0 1.052-.004z"/><path fill="#FFD6D6" d="M956.861 431.201s-4.861-2.094-3.725 3.429c0 0-3.141-.272-2.22 3.706 0 0-3.006.105-1.846 3.206 0 0-3.992 1.373.347 4.162 2.44 1.569 6.817.858 4.433-1.295 0 0 3.201-.285 1.191-2.567 0 0 5.133.406.441-3.844 0 0 5.418 2.942 1.979-2.533-1.958-3.115-.891-2.811-.6-4.264z"/><path fill="#F5C4C4" d="M953.849 444.412c.104.093.195.187.286.28-.665-.222-1.511-.582-2.091-1.044.201.063 1.305.434 2.269.689-.268.052-.464.075-.464.075zM955.039 441.845c.092.106.184.212.251.306-.666-.234-1.499-.583-2.053-1.033.201.063 1.432.488 2.419.73-.357.02-.617-.003-.617-.003zM956.59 439.122c-.361-.288-1.819-1.478-2.389-2.654 0 0 1.163 1.206 2.165 1.939-.441-.173-.783-.351-.872-.396.454.42.819.781 1.096 1.111z"/><path fill="#36405E" d="M955.276 461.385s1.065 6.067 3.453 13.458c0 .016.008.024.008.04 1.008 3.114 2.251 6.463 3.752 9.69 2.897 6.277 6.762 12.103 11.724 14.862 8.641 4.801 17.202 6.866 23.536 7.73 1.469.202 2.808.339 4.01.428 3.889.299 6.277.129 6.277.129-.718-1.049-1.227-2.501-1.557-4.22-1.921-9.723 1.557-27.86 1.557-27.86s-4.825 2.445-10.545 4.518c-6.455 2.34-14.039 4.204-17.097 1.525-4.97-4.333-14.064-25.036-14.064-25.036l-.121.048-3.526 1.517h-.008l-6.407 2.751h-.008l-.363.153-.621.267z"/><path fill="#242E4A" d="M962.486 484.57c2.9 6.284 6.767 12.109 11.726 14.865 8.644 4.802 17.2 6.867 23.54 7.734l.05-13.421s-4.997 3.321-5.298 7.25c-.307 3.93-13.816-4.67-17.256-4.67-2.944 0-9.027-9.755-12.762-11.758z"/><path fill="#754C24" d="M1008.185 480.938c.764-2.455.436-9.34.999-11.848 1.174-5.238-.85-9.233-.948-12.507-.316-10.475 8.229-12.056 4.673-24.619 0 0 12.281 1.47 12.8 19.743 1.354 47.68-9.984 44.163-9.984 44.163.952-6.735-10.874-4.212-7.54-14.932z"/><path fill="#36405E" d="M1064.833 697.617s-43.207 19.399-94.792-16.313l36.594-99.642 46.294 7.054 11.904 108.901z"/><path fill="#754C24" d="M1013.519 428.002c5.553-17.745 33.322-14.223 36.437 7.044 1.675 11.436 10.882 9.798 11.243 22.621.145 5.133 8.089 7.485 10.791 9.121 10.28 6.22.632 16.345 9.053 23.162 5.287 4.281-2.391 12.007-.416 17.627 5.36 15.245-14.552 23.778-28.369 10.775l-35.21-79.863c-3.597.756-4.585-7.113-3.529-10.487z"/><path fill="#FFD6D6" d="M1027.662 487.533c7.634-2.75 12.38-4.965 14.708-16.346 0 0-3.525-1.004-4.94-8.757-.301-1.62-.507-3.528-.572-5.794-.006-.188-.006-.377-.012-.571-.006-.345-.047-.697-.065-1.073 0 0-7.386-6.214-12.987-.716 0 0 .065.684.041 1.808-.018.986-.112 2.31-.377 3.804-.324 1.827-.289 3.93-.914 5.888-.536 1.695-1.562 3.277-3.737 4.495-7.993 4.469 1.221 19.986 8.855 17.262z"/><path fill="#F2C0C0" d="M1022.545 465.776c7.245.408 12.126-1.632 14.885-3.346-.301-1.62-.507-6.424-.572-8.69-3.219-1.72-8.342-.544-13.022 2.343-.018.986-.112 2.31-.377 3.804-.324 1.827-.289 3.93-.914 5.889z"/><path fill="#FFD6D6" d="M1041.429 449.853c4.283-.392 5.487-16.444-4.041-8.281 0 0 .934-5.992-3.03-7.499-1.708-.649-5.549 2.104-9.831 1.266-5.943-1.163-6.978-3.829-7.639-4.658 0 0-5.487 29.904 10.314 29.5 11.907-.304 10.773-10.012 14.227-10.328z"/><path fill="#F2C0C0" d="M1041.724 446.658a18.84 18.84 0 0 0 .367-2.271c.061-.767.114-1.544-.094-2.352-.099-.379-.35-.891-.893-1.011-.512-.101-.918.113-1.261.302-.695.408-1.25.943-1.794 1.48a.25.25 0 0 0 .35.358l.005-.005c.531-.514 1.085-1.026 1.698-1.374.298-.172.643-.299.882-.234.233.043.395.305.479.633.165.659.12 1.417.049 2.145a18.513 18.513 0 0 1-.38 2.187l-.002.007a.304.304 0 0 0 .592.14l.002-.005z"/><path fill="#F2C0C0" d="M1039.524 443.722c-.147.611.015 1.173.361 1.256.346.083.745-.344.892-.955.147-.611-.015-1.173-.361-1.256-.346-.083-.745.344-.892.955z"/><path fill="#FFD6D6" d="m1041.705 772.081-.062 5.257s-5.085 12.444-10.307 16.272c-1.291.946-11.222 2.857-7.428-4.022 0 0 8.674-4.758 8.635-17.585l9.162.078z"/><path fill="#36405E" d="M1041.939 776.525c2.365 3.756-.104 9.695-.104 9.695l-.026 11.254-2.417.052.032-9.578s-5.917 9.135-9.117 9.866c-3.2.731-10.549.663-11.189.023-.64-.64-1.352-6.342 4.79-8.251 0 0 1.396 3.832 5.817 2 5.013-2.078 8.281-7.288 9.927-11.813.848-2.33 1.868-3.914 2.287-3.248z"/><path fill="#FFD6D6" d="m1007.584 772.081-.061 5.257s-5.085 12.444-10.307 16.272c-1.291.946-11.222 2.857-7.428-4.022 0 0 8.674-4.758 8.635-17.585l9.161.078z"/><path fill="#36405E" d="M1007.818 776.525c2.365 3.756-.104 9.695-.104 9.695l-.026 11.254-2.417.052.032-9.578s-5.917 9.135-9.117 9.866c-3.2.731-10.549.663-11.189.023s-1.352-6.342 4.79-8.251c0 0 1.396 3.832 5.817 2 5.013-2.078 8.281-7.288 9.927-11.813.848-2.33 1.868-3.914 2.287-3.248z"/><path fill="#1A2036" d="M1047.462 579.813s23.582 19.288 4.769 50.921c-16.7 28.079-1.59 92.149-8.153 143.839l-14.102.384c-1.128-38.28-7.385-57.775-8.594-81.949-1.436-28.716-.123-74.683-.123-74.683s-15.795 50.118-12.512 71.483c4.837 31.48.923 84.406.923 84.406h-12.922s-14.666-85.124-13.846-97.021c.82-11.897 21.025-98.251 21.025-98.251l43.535.871z"/><path fill="#FFF" d="M1019.599 469.928s11.389 5.263 23.296.345c0 0 16.923 4.364 22.779 12.425 0 0-19.327 39.633-9.664 87.261-18.891 6.533-37.307 8.257-54.761.23 0 0 9.222-38.264-.46-72.478-6.086-21.503 18.81-27.783 18.81-27.783z"/><path fill="#36405E" d="M1044.841 694.771c4.697 11.06 34.36 28.191 50.823 7.363 5.682-7.188 13.927-10.408 21.914-12.793 11.453-3.427 22.37-5.135 24.429-14.356 3.371-15.116-34.027-25.806-48.831-48.317-14.818-22.536-39.118-69.603-33.327-122.565a141.975 141.975 0 0 1 4.472-23.145s-3.106-6.98-16.707-10.653c-2.345-.634-5.003-1.161-8.007-1.532 0 0-11.936 38.763-14.845 90.802-.013.013 0 .025 0 .025-2.311 40.973.986 90.168 20.079 135.171z"/><path fill="#242E4A" d="M1027.366 574.485c4.031 5.455 17.802-.439 26.371 2.128 7.224 2.164 10.436 13.973 10.538 23.634.102 9.661 1.43 36.734 18.895 42.91 26.864 9.5 48.498 23.492 43.979 32.744-3.481 7.125-8.836 9.925-9.571 13.44 11.453-3.427 22.37-5.135 24.429-14.356 3.371-15.116-34.027-25.806-48.831-48.317-14.818-22.536-39.118-69.603-33.327-122.565l-10.012 7.389s5.139 15.718 1.237 22.435c-3.901 6.711-2.657 14.978-8.686 19.567-6.022 4.582-19.053 15.536-15.022 20.991z"/><path fill="#36405E" d="M956.467 683.842c3.038-.107 6.116.276 9.174.992 22.861 5.348 44.445 29.378 40.239 7.407-5.119-26.723 3.358-61.92 10.557-99.96v-.006c1.65-8.701 3.228-17.545 4.558-26.478.489-3.233.906-6.491 1.265-9.73 4.995-44.707-1.082-87.77-1.082-87.77s-3.815.578-8.379 2.969c-3.515 1.858-7.473 4.796-10.44 9.397-9.09 14.093.717 31.293-6.449 78.925-7.173 47.627-59.286 124.939-39.443 124.254z"/><path fill="#5A668C" d="M1024.762 559.579c-.01.01 0 .019 0 .019.021.303.042.46.042.46 4.087-33.13 14.433-55.338 14.433-55.338l-3.738-2.562 4.765-1.203c-.127-6.904 7.38-30.461 7.38-30.461s-.01-.068-.031-.186c-2.34-.635-4.998-1.164-8.005-1.535 0 0-11.934 38.763-14.846 90.806zM1016.121 500.615l4.408 1.672-3.85 2.181s4.947 20.741 5.577 51.602c4.997-44.708-1.077-87.774-1.077-87.774s-3.82.577-8.38 2.973c.996 5.584 4.074 23.586 3.322 29.346z"/><path fill="#242E4A" d="M965.641 684.834c22.861 5.348 44.445 29.378 40.239 7.407-5.119-26.723 3.358-61.92 10.557-99.96-.307.534-15.395 26.992-15.793 42.065-.398 15.229-9.077 19.654-5.503 35.862 3.573 16.214-25.32 7.144-29.5 14.626z"/><path fill="#FFF" d="M1016.365 448.16c.251 6.068 1.533 10.614 5.72 12.171 4.382 1.629 15.407-.146 18.3-10.016-5.146 4.443-7.111-2.906-2.996-8.742l.093-1.261s-4.441 6.439-5.984 6.585c-4.77.447-14.001-1.084-15.133 1.263z"/><path fill="#6C8CF5" d="m997.447 550.229 35.865-14.576 19.657 48.366-35.865 14.576z"/><path fill="#FFF" d="m1021.644 577.475 12.806-5.205a4.525 4.525 0 0 0 2.488-5.895l-5.776-14.211a4.524 4.524 0 0 0-5.895-2.488l-12.807 5.205a4.524 4.524 0 0 0-2.488 5.895l5.776 14.212a4.526 4.526 0 0 0 5.896 2.487z"/><path fill="#6C8CF5" d="m1022.296 575.595 10.377-4.218a4.432 4.432 0 0 0 2.437-5.775l-4.719-11.61a4.433 4.433 0 0 0-5.776-2.437l-10.377 4.218a4.432 4.432 0 0 0-2.437 5.775l4.719 11.61a4.434 4.434 0 0 0 5.776 2.437z"/><path fill="#FFF" d="M1020.991 565.072c-1.227.394-2.524 1.072-3.734.419a1.738 1.738 0 0 1-.168-.105l-.046-.034a1.486 1.486 0 0 1-.134-.115.95.95 0 0 1-.068-.076l-.031-.038a.727.727 0 0 1-.114-.229c-.005-.016-.008-.033-.011-.049-.005-.024-.01-.047-.013-.071l-.005-.054-.002-.024.002.002c-.011-.434.309-.911.498-1.401.115-.599-.484-1.209-.216-1.797.741-.939 2.991.061 4.306.656-.955-.865-2.19-1.65-2.23-3.024a1.788 1.788 0 0 1 .007-.198l.007-.057a1.3 1.3 0 0 1 .019-.117l.013-.056c.009-.034.02-.066.031-.097.006-.015.011-.032.018-.046a.865.865 0 0 1 .077-.135.711.711 0 0 1 .064-.079l.037-.035c.018-.016.036-.032.056-.047a.693.693 0 0 1 .044-.031l.02-.014v.003c.37-.226.944-.188 1.463-.269.577-.2.805-1.024 1.449-1.086 1.185.172 1.443 2.621 1.584 4.057.272-1.259.333-2.722 1.504-3.443a1.67 1.67 0 0 1 .175-.093c.018-.009.035-.015.053-.023a1.283 1.283 0 0 1 .166-.059.976.976 0 0 1 .271-.033c.011 0 .022.002.032.003a.652.652 0 0 1 .1.016c.017.004.032.01.048.015a.554.554 0 0 1 .117.048l.022.01-.002.001c.381.207.635.723.964 1.132.462.399 1.289.185 1.665.711.443 1.111-1.548 2.56-2.721 3.401 1.226-.394 2.524-1.072 3.733-.419.062.034.117.069.168.105l.046.034a1.194 1.194 0 0 1 .202.19c.01.013.022.025.031.038.025.035.047.07.065.105l.013.028a.588.588 0 0 1 .036.096c.005.016.008.033.012.049.005.024.01.048.013.071l.005.054.002.024-.002-.002c.011.434-.309.911-.498 1.401-.115.599.484 1.209.216 1.797-.741.939-2.991-.061-4.306-.656.954.865 2.19 1.65 2.23 3.024.001.071-.002.136-.007.198l-.007.057a1.3 1.3 0 0 1-.033.173c-.009.034-.02.066-.031.097l-.017.046a.707.707 0 0 1-.142.213l-.036.034c-.018.016-.036.032-.056.047a.693.693 0 0 1-.044.031l-.02.014v-.003c-.37.226-.944.188-1.463.269-.576.2-.805 1.024-1.448 1.086-1.185-.172-1.443-2.621-1.585-4.057-.272 1.259-.333 2.722-1.504 3.443a1.776 1.776 0 0 1-.175.093c-.018.009-.035.015-.053.023a1.732 1.732 0 0 1-.166.059.976.976 0 0 1-.303.03.645.645 0 0 1-.101-.016l-.048-.014a.637.637 0 0 1-.118-.048l-.022-.01.002-.001c-.381-.207-.635-.723-.964-1.132-.462-.399-1.289-.185-1.665-.712-.442-1.109 1.55-2.557 2.723-3.398zM1029.781 537.089l.895-.364 19.657 48.367-.895.363zM1040.774 575.697l-14.735 5.989-.393-.968 14.734-5.989zM1041.822 578.287l-14.734 5.988-.394-.968 14.735-5.988z"/><path fill="#FFD6D6" d="M1053.403 561.56c-2.429 5.999-11.401 19.034-18.675 16.142-8.218-3.268-5.475-8.537-.356-12.625 3.86-3.082-2.402-.159-3.62-2.963-.918-2.112 13.733-8.549 15.774-7.528 2.703 3.137 4.09 3.672 6.877 6.974z"/><path fill="#36405E" d="M1041.449 555.573v.006a3.95 3.95 0 0 0 .917 2.172 651.734 651.734 0 0 0 6.855 7.941 3.95 3.95 0 0 0 1.444 1.042 3.948 3.948 0 0 0 3.93-.496 152.593 152.593 0 0 0 11.287-9.529c8.751-8.173 18.324-19.334 18.493-29.152.239-13.49-7.263-28.066-13.427-37.708-.006-.013-.006-.019-.006-.019-4.244-6.635-7.84-10.935-7.84-10.935-9.41 16.064-11.337 33.891-11.337 33.891s6.001 6.698 9.46 11.594c.345.477.659.942.935 1.375a.223.223 0 0 0 .038.063c.91 1.412 1.469 2.555 1.412 3.151-.188 1.977-1.425 4.3-3.252 6.729v.006c-4.576 6.102-12.837 12.856-17.388 16.358a3.921 3.921 0 0 0-1.521 3.511z"/><path fill="#242E4A" d="M1065.88 556.709c8.751-8.173 18.324-19.334 18.493-29.152.239-13.49-7.263-28.066-13.427-37.708.27.86 12.385 31.073 8.185 39.642-4.256 8.682-4.356 13.634-8.945 18.38-2.9 3.007-3.935 6.603-4.306 8.838z"/><path fill="#242E4A" d="M1060.356 535.699v.006s3.446-1.262 3.446-2.819c0-1.55 4.338-2.21 4.338-2.21-2.373-.439-4.689-3.145-5.944-4.859.91 1.412 1.469 2.555 1.412 3.151-.188 1.979-1.425 4.302-3.252 6.731z"/><path fill="#3E4057" d="m1060.51 418.36-5.753 15.581a4.555 4.555 0 0 1-4.643 2.953 68.045 68.045 0 0 1-1.99-.187c-11.073-1.207-21.22-5.138-30.414-11.803-1.639-1.188-2.271-3.334-1.569-5.233l5.75-15.572 38.619 14.261z"/><path fill="#2C2D3D" d="m1060.51 418.36-5.753 15.581a4.555 4.555 0 0 1-4.643 2.953 68.045 68.045 0 0 1-1.99-.187c1.84-2.295 3.695-5.01 4.099-7.037.853-4.281-6.781-1.294-16.943-4.564-7.235-2.327-13.536-8.845-16.565-12.408l3.175-8.598 38.62 14.26z"/><path fill="#6B6F96" d="m1011.499 399.688 33.29.654a.94.94 0 0 1 .576.212l25.911 21.203c.69.565.278 1.683-.613 1.665l-33.29-.654a.94.94 0 0 1-.576-.212l-25.911-21.203c-.69-.564-.279-1.683.613-1.665z"/><path fill="#3E4057" d="m1044.567 401.835-31.484-.619 24.513 20.059 31.483.619z"/><path fill="#2C2D3D" d="m1044.567 401.835-3.516-.069 12.817 10.488c2.673 2.187 1.078 6.519-2.375 6.452l-17.457-.343 3.559 2.913 31.484.619-24.512-20.06z"/><path fill="#2C2D3D" d="M1039.53 409.338c.215-.583 1.601-.608 3.095-.057 1.494.552 2.53 1.471 2.315 2.054-.215.583-1.601.608-3.095.057-1.494-.551-2.53-1.471-2.315-2.054z"/><path fill="#FFBC47" d="M1040.285 409.617c.155-.42 1.154-.439 2.231-.041s1.824 1.061 1.669 1.481c-.155.42-1.154.439-2.231.041s-1.824-1.061-1.669-1.481z"/><path fill="#FFBC47" d="m1045.979 443.652-.562-.208 7.497-20.302-10.905-12.609.452-.392 11.137 12.877z"/><path fill="#FFC154" d="M1045.125 443.123c-1.28 2.109-2.355 4.423-3.273 6.757a55.542 55.542 0 0 0-.552 1.463c-.06.166-.141.345-.156.517-.009.108.081.15.145.054.073-.111.11-.236.155-.363l.173-.479a51.177 51.177 0 0 1 1.031-2.601 58.398 58.398 0 0 1 1.578-3.38c.32-.635.654-1.262.987-1.888.049-.092-.034-.17-.088-.08zM1045.387 443.341c-1.208 2.315-2.257 4.726-3.198 7.183-.132.345-.262.69-.389 1.037l-.19.52c-.061.169-.143.348-.166.523-.016.123.093.138.146.053l.002.002c.076-.124.116-.267.166-.405a94.717 94.717 0 0 1 .51-1.386 97.35 97.35 0 0 1 2.259-5.449c.307-.68.608-1.364.921-2.041.023-.051-.035-.086-.061-.037zM1043.415 453.016c.224-.734.417-1.477.623-2.216l.628-2.253c.416-1.493.805-2.99 1.203-4.486.026-.097-.077-.14-.106-.039l-.166.565c-.01.002-.017.019-.007.025-.381 1.299-.765 2.597-1.13 3.9l-.62 2.217c-.21.751-.434 1.502-.625 2.256-.041.162.145.177.198.032l.002-.001zM1043.01 451.088a134.565 134.565 0 0 1 1.111-3.182c.253-.697.514-1.389.774-2.083.264-.704.551-1.402.8-2.112.031-.089-.056-.115-.094-.035-.313.668-.583 1.365-.858 2.051a96.378 96.378 0 0 0-1.551 4.205 100.114 100.114 0 0 0-.532 1.579c-.057.173-.13.352-.155.529-.015.107.095.166.153.056.158-.302.244-.683.352-1.008zM1044.512 451.677a127.182 127.182 0 0 0 .4-1.559c.18-.721.352-1.442.519-2.164.331-1.433.645-2.865.879-4.302.017-.107-.098-.1-.122.003-.336 1.422-.641 2.847-.975 4.269a134.564 134.564 0 0 1-.79 3.192l-.129.496c-.05.19-.077.331-.079.516-.001.07.078.085.114.02.089-.162.136-.29.183-.471zM1046.527 443.197c0-.063-.082-.049-.088.017a67.382 67.382 0 0 1-.433 4.009 45.583 45.583 0 0 1-.774 4.032c-.044.185.174.181.217-.005.628-2.676 1.056-5.43 1.078-8.053zM1045.159 442.886c-.913.931-1.716 2.073-2.435 3.254a26.713 26.713 0 0 0-1.018 1.835 22.127 22.127 0 0 0-.882 1.93c-.068.177.119.242.192.071.281-.65.554-1.296.871-1.926a26.14 26.14 0 0 1 .984-1.779c.712-1.177 1.517-2.247 2.33-3.311.042-.051.005-.121-.042-.074z"/><path fill="#FFBC47" d="M1044.615 443.043a1.191 1.191 0 1 1 2.235.825 1.191 1.191 0 0 1-2.235-.825z"/><path fill="#FFD7C9" d="M462.548 491.13c4.124-1.586 8.939-4.772 7.052-9.771-2.132-5.648-5.761-3.839-8.612-.395-2.15 2.597-.08-1.641-1.978-2.506-1.431-.652-3.661 5.383-2.989 6.788 2.107 1.883 4.306 3.942 6.527 5.884z"/><path fill="#754C24" d="M392.664 422.156c1.478 2.892 2.371 6.039 3.309 9.135.911 3.112 1.712 6.253 2.488 9.4a346.19 346.19 0 0 1 3.99 19.028c1.186 6.373 2.14 12.788 3.004 19.216a352.287 352.287 0 0 1 1.951 19.371c.415 6.482.665 12.984.522 19.5a137.871 137.871 0 0 1-.583 9.772c-.305 3.255-.801 6.504-1.545 9.716-1.396 6.419-4.499 12.75-9.57 17.111-5.038 4.374-11.97 6.315-18.366 5.282 6.453.42 12.953-1.898 17.458-6.286a26.08 26.08 0 0 0 3.073-3.557c.905-1.284 1.686-2.651 2.393-4.054.675-1.43 1.267-2.864 1.738-4.365.477-1.497.834-3.041 1.153-4.591 1.191-6.235 1.549-12.661 1.599-19.069.045-6.416-.208-12.847-.675-19.266-.419-6.423-1.05-12.837-1.79-19.24-.705-6.409-1.603-12.796-2.527-19.181-.963-6.379-1.988-12.753-3.176-19.098a286.062 286.062 0 0 0-1.893-9.495c-.34-1.578-.705-3.15-1.106-4.713-.409-1.56-.8-3.133-1.447-4.616zM359.299 412.336c-1.61.07-3.132.676-4.506 1.447a14.112 14.112 0 0 0-3.648 2.965c-2.084 2.35-3.307 5.343-3.687 8.419-.382 3.088-.033 6.237.706 9.275.082.382.204.757.304 1.136l.318 1.177c.233.838.339 1.693.412 2.544.1 1.704-.048 3.39-.334 5.032-.587 3.285-1.675 6.414-2.999 9.407-1.334 2.992-2.893 5.865-4.607 8.639a75.416 75.416 0 0 1-2.704 4.081 71.207 71.207 0 0 1-1.467 1.968c-.5.652-1.002 1.28-1.599 1.946-1.169 1.268-2.415 2.345-3.674 3.391a130.544 130.544 0 0 1-3.825 3.015c-5.154 3.884-10.386 7.559-15.379 11.53-5.024 3.918-9.833 8.1-14.129 12.742-2.136 2.329-4.101 4.806-5.828 7.435-1.714 2.635-3.179 5.445-4.103 8.433-.951 2.975-1.296 6.151-.841 9.272.423 3.134 1.691 6.116 3.004 9.042-.774-1.406-1.564-2.808-2.229-4.284a23.376 23.376 0 0 1-1.542-4.621c-.709-3.204-.526-6.593.279-9.783 1.688-6.408 5.408-12.009 9.607-16.957 2.107-2.489 4.398-4.802 6.772-7.013a148.82 148.82 0 0 1 7.334-6.367c5.036-4.049 10.262-7.831 15.37-11.658 2.522-1.922 5.113-3.851 7.18-6.024.478-.525.986-1.144 1.466-1.763a81.51 81.51 0 0 0 4.111-5.776c1.714-2.651 3.279-5.402 4.618-8.248 1.33-2.843 2.488-5.78 3.124-8.803.316-1.508.498-3.036.461-4.541-.043-.747-.089-1.497-.258-2.215-.067-.345-.167-.763-.259-1.16-.087-.401-.196-.797-.266-1.203-.624-3.217-.892-6.571-.287-9.846.592-3.253 2.062-6.411 4.43-8.716a14.332 14.332 0 0 1 3.992-2.816c1.469-.677 3.068-1.163 4.683-1.102z"/><path fill="#754C24" d="M394.527 517.194c-.815-2.797-1.832-5.539-3.211-8.109a207.41 207.41 0 0 1 1.835 8.438c.524 2.812.999 5.623 1.246 8.446.159 1.408.229 2.819.256 4.231.028.707.008 1.408 0 2.112-.039.702-.055 1.411-.124 2.111-.224 2.805-.833 5.557-1.985 8.228-.007.004-.01.016-.012.022-2.142 3.529-4.824 6.372-7.915 8.607-.259.185-.518.37-.785.54-.678.461-1.379.89-2.092 1.292.249-.718.475-1.443.671-2.174.651-2.542 1.059-5.138 1.163-7.742.109-2.596-.003-5.211-.531-7.761-.224 2.586-.51 5.113-.878 7.625-.203 1.255-.385 2.502-.656 3.733-.248 1.237-.508 2.471-.849 3.679a55.725 55.725 0 0 1-1.191 3.824c-25.133 11.823-68.198-4.945-80.656-14.989a31.256 31.256 0 0 1-.227-4.842c.121-3.642.811-7.236 1.91-10.714.532-1.747 1.187-3.457 1.904-5.144.694-1.694 1.508-3.344 2.345-4.983a91.002 91.002 0 0 1 5.739-9.522c-2.702 2.601-4.99 5.618-6.97 8.826a47.08 47.08 0 0 0-4.756 10.281 42.615 42.615 0 0 0-1.283 5.556c-.262 1.89-.386 3.801-.309 5.707.041 1.279.201 2.556.444 3.804-.761-.703-1.337-1.367-1.723-1.97-16.94-26.599 49.33-66.66 51.146-98.418.34-5.931.533-23.592 12.782-25.651 10.3-10.044 28.709-4.222 34.609 12.689 7.352 21.075 9.1 82.239 1.546 109.508.513-2.863.49-5.78.24-8.641-.164-1.459-.355-2.913-.645-4.347-.298-1.43-.613-2.859-1.038-4.252z"/><path fill="#E1F1F4" d="M423.475 662.487s-50.25 21.293-79.208 7.239c-28.958-14.053 19.589-62.6 19.589-62.6s51.102-8.09 59.619 55.361z"/><path fill="#FFD7C9" d="m378.083 758.641-2.906 4.899s-2.309 14.38.366 20.867c.661 1.603 8.773 8.969 9.14.465 0 0-5.344-9.291 1.922-21.138l-8.522-5.093z"/><path fill="#2C3E6E" d="M375.362 762.621c-4.306 2.142-5.368 9.029-5.368 9.029l-6.319 10.428 2.207 1.411 5.368-8.881s.326 11.788 2.875 14.268c2.548 2.48 9.388 6.56 10.34 6.328.953-.232 4.825-5.107.218-10.334 0 0-3.452 2.759-6.509-1.428-3.467-4.748-3.555-11.411-2.527-16.526.529-2.635.478-4.674-.285-4.295z"/><path fill="#FFD7C9" d="m358.255 769.648.067 5.695s5.509 13.482 11.168 17.631c1.399 1.025 12.158 3.095 8.048-4.358 0 0-9.398-5.155-9.355-19.052l-9.928.084z"/><path fill="#2C3E6E" d="M358.001 774.464c-2.563 4.069.113 10.504.113 10.504l.028 12.194 2.619.056-.035-10.377s6.411 9.897 9.878 10.69c3.467.792 11.43.719 12.123.025.693-.693 1.464-6.871-5.19-8.94 0 0-1.513 4.152-6.302 2.167-5.431-2.252-8.972-7.896-10.755-12.799-.919-2.526-2.024-4.242-2.479-3.52z"/><path fill="#1A2036" d="M393.22 572.08s39.417 74.215 39.743 93.942c.326 19.727-46.036 101.11-46.036 101.11l-11.93-7.249s13.197-50.969 24.214-82.323c2.795-7.953-33.754-69.753-33.754-94.982l27.763-10.498z"/><path fill="#1A2036" d="M347.033 574.768s-9.789 28.943 2.768 65.581c13.835 40.365-1.815 94.022 5.855 132.439l14.899.159s12.243-75.306 13.521-97.663c1.063-18.593 8.517-60.486-2.555-100.516h-34.488z"/><path fill="#FFF" d="M382.104 471.844a20.862 20.862 0 0 1-6.273 1.918c-5.951.825-10.687-1.183-12.748-2.219a42.601 42.601 0 0 0-9.458 3.52 42.855 42.855 0 0 0-11.758 8.927s14.079 55.553 5.639 100.855l53.134-.629s-10.565-53.403-2.11-85.946c5.314-20.453-16.426-26.426-16.426-26.426z"/><path fill="#36405E" d="M390.28 475.199s8.833 5.346 11.506 12.9 8.905 28.544 18.827 27.369c13.249-1.569 35.214-32.599 35.214-32.599l7.322 8.542s-19.752 40.637-44.977 45.151c-16.561 2.963-27.892-10.46-27.892-10.46v-50.903z"/><path fill="#36405E" d="M442.184 679.989c-24-.869-53.387 30.516-48.828 6.479 8.832-46.565-4.508-74.153-11.177-120.491-.453-3.127-.986-6.26-1.171-9.398-2.546-43.005 1.001-84.78 1.001-84.78s3.552.557 7.792 2.871c3.268 1.795 6.951 4.628 9.709 9.077 8.454 13.611-.671 30.224 5.998 76.232 6.669 45.998 55.123 120.671 36.676 120.01z"/><path fill="#5A668C" d="m386.713 503.015-4.099 1.615 3.58 2.106s-4.6 20.033-5.186 49.842c-4.647-43.183 1.001-84.78 1.001-84.78s3.552.557 7.792 2.871c-.925 5.395-3.787 22.783-3.088 28.346z"/><path fill="#F9CBCB" d="m358.139 435.808.943 7.491c-.089-.029-.137-.064-.219-.052l-.006-.042c-.439-.104-.838-.215-1.235-.325-9.163-3.175-7.159-9.662-5.357-10.948 1.348-.921 3.003-.616 4.126-.189a.785.785 0 0 0-.033.344c.397 1.256 1.01 2.521 1.781 3.721zM363.116 471.359c.471.577 1.151 2.157 1.62 2.681 5.908 6.303 11.705 6.523 17.264-2.153l-2.587-13.444-.966-5.041-12.3.25-3.031 17.707z"/><path fill="#EBB0B0" d="M363.116 471.359c.313.643 1.151 2.157 1.62 2.681.456-2.023 2.203-8.8 4.791-12.302 2.095-2.818 6.989-3.325 9.885-3.296l-.966-5.041-12.3.25-3.03 17.708z"/><path fill="#F9CBCB" d="M355.055 437.253c.636 4.738 2.781 9.062 5.761 12.343 3.984 4.458 9.577 7.05 15.064 6.314 5.071-.681 10.531-5.391 13.507-11.586 1.798-3.626 2.677-7.806 2.118-11.962-1.5-11.18-10.904-19.142-20.921-17.797-10.057 1.348-17.029 11.508-15.529 22.688z"/><path fill="#36405E" d="M365.282 673.105c-3.256 11.005-22.198 36.091-39.604 13.202-12.659-16.647-32.745-6.588-35.771-21.719-3.833-19.163 21.289-26.804 34.494-48.547 15.112-24.898 32.311-72.759 16.755-132.707 0 0 2.73-6.971 14.867-10.513 2.087-.614 4.458-1.124 7.141-1.483 0 0 8.571 36.803 13.242 87.708.009.009 0 .019 0 .019 2.057 39.576 1.226 72.307-11.124 114.04z"/><path fill="#5A668C" d="M376.405 559.047c.009.009 0 .019 0 .019-.019.293-.038.444-.038.444-3.646-32-12.874-53.45-12.874-53.45l3.335-2.474-4.25-1.162c.113-6.668-6.583-29.422-6.583-29.422s.009-.066.028-.18c2.087-.614 4.458-1.124 7.141-1.483-.001 0 10.643 37.441 13.241 87.708z"/><path fill="#FFF" d="M360.909 441.234c.664 1.923-.352 4.289-2.144 4.943-.423-.715-.775-1.258-1.138-1.943a18.772 18.772 0 0 1-.886-1.973c-.222-.06-.453-.121-.664-.171-.181-.05-.342-.101-.483-.141.04.091 2.728 5.638 2.779 5.638 3.805 6.051 9.423 9.031 14.769 9.031 5.024 0 10.954-3.765 14.799-9.313.06-.06.101-.131.151-.201h.04c.805-.805 1.238-1.49 1.591-2.225.292-.584.534-1.188.886-1.903-.171.05-.453.151-.685.232-.191.07-.342.131-.342.131-.675 1.41-.876 1.853-1.49 2.557-.081.091-.161.191-.262.292l-.02-.02c-1.872-1.409-2.436-3.503-2.175-5.285 1.369-1.248 2.879-3.181 4.118-5.396.463-.826.896-1.701 1.269-2.587.554-1.188.977-2.416 1.168-3.645.03-.131.04-.252.06-.383 0-.121-.03-.232-.04-.292.01-.01.01-.01 0-.02h-.04c-.05-.081-.131-.171-.262-.171-.221-.05-.443.131-.483.302 0 .091-.05.221-.05.312a9.488 9.488 0 0 1-.393 1.621 19.843 19.843 0 0 1-1.389 3.423c-1.047 2.064-2.366 3.906-3.534 5.195-.413.463-1.027.634-1.631.493-2.768-.634-9.151-2.013-11.991-2.013-2.718 0-7.641 1.51-10.148 2.366-.624.222-1.309.091-1.772-.382a13.936 13.936 0 0 1-1.54-1.852c-1.54-2.165-2.718-4.923-3.373-8.014a1.936 1.936 0 0 1-.131-.664 6.317 6.317 0 0 1-.171-.745.535.535 0 0 0-.101-.232c-.081.665-.231 1.44-.383 2.285.191.856.443 1.681.745 2.467.745 2.215 1.762 4.188 2.98 5.799a14.479 14.479 0 0 0 2.366 2.484z"/><path fill="#D9E7EF" d="M384.116 443.769c-.944-.063-1.86-.286-2.762-.553-.904-.259-1.801-.553-2.709-.819-1.81-.539-3.69-.981-5.623-.984-.965.007-1.922.136-2.856.335-.933.204-1.848.462-2.75.743-.904.274-1.8.564-2.709.8-.907.247-1.832.422-2.776.479.946.055 1.897-.073 2.83-.242.932-.182 1.849-.424 2.761-.665 1.82-.479 3.649-.953 5.502-.954 1.855-.008 3.698.399 5.519.86.912.232 1.826.477 2.752.682.927.189 1.873.366 2.821.318zM381.019 446.212c-1.308.058-2.608.128-3.909.175a110.289 110.289 0 0 1-7.799.012c-1.301-.046-2.601-.118-3.907-.186 1.28.273 2.579.453 3.883.571a42.825 42.825 0 0 0 7.847-.012 36.522 36.522 0 0 0 3.885-.56zM379.634 448.944c-1.064.26-2.126.483-3.197.631a22.914 22.914 0 0 1-3.223.218 23.71 23.71 0 0 1-3.224-.232 36.558 36.558 0 0 1-3.202-.616c1.002.444 2.057.773 3.136.997 1.078.227 2.183.339 3.288.347a16.068 16.068 0 0 0 3.29-.334 14.82 14.82 0 0 0 3.132-1.011z"/><path fill="#754C24" d="M354.547 436.119c.342 1.802.896 4.108 1.53 5.97.503 1.46 1.057 2.638 1.601 3.101-.03-.322-.04-.644-.05-.956-.07-2.185.272-3.977.916-5.487.131-.312.272-.614.433-.896 4.228-7.812 17.155-7.853 21.404-19.36-.01.956.06 1.923.262 2.869.161.795.413 1.57.745 2.315.342.745.765 1.45 1.248 2.104.987 1.299 2.195 2.416 3.513 3.352.332.242.665.463 1.007.685.352.222.654.413.946.664.171.141.322.292.463.453.413.916.765 1.943 1.027 3.111.081.302.141.624.201.946-.01.161-.02.332-.04.493-.03.463-.101.916-.181 1.369-.282 1.561-.725 3.091-1.097 4.651-.191.775-.373 1.56-.503 2.366-.111.755-.201 1.52-.161 2.295v.121c.02.342.06.685.131 1.017.091.463.242.916.463 1.339.372.725.966 1.309 1.641 1.742-.644-.483-1.178-1.097-1.51-1.812a5.018 5.018 0 0 1-.403-1.47 5.724 5.724 0 0 1-.05-.826c0-.131 0-.262.01-.383.06-1.44.433-2.869.805-4.279.403-1.46.856-2.92 1.168-4.43.131 1.732.101 3.725-.141 6.021-.05.533-.121 1.097-.201 1.671-.01.101-.03.201-.04.312 3.987-7.692 2.084-12.826 2.245-13.682.141-.745.232-1.5.262-2.255.02-.221.02-.453.02-.674.01-.01.01-.01 0-.02.05-3.091-.685-6.01-1.691-7.903-6.927-13.098-20.035-9.272-22.29-8.809-10.42 2.175-12.584 11.558-12.977 15.937a6.61 6.61 0 0 1-.05.413c-.081.665-.231 1.44-.383 2.285-.314 1.774-.616 3.828-.273 5.64zm26.024-17.074c1.027 4.369 4.802 6.181 7.299 10.521-.131-.091-.272-.171-.393-.252a17.206 17.206 0 0 1-.987-.654c-1.289-.906-2.487-1.953-3.453-3.181a11.24 11.24 0 0 1-2.094-4.188 13.276 13.276 0 0 1-.372-2.246z"/><path fill="#245CA3" d="m350.672 570.288 15.406-34.749 25.767 11.424-15.406 34.748z"/><path fill="#FFF" d="m365.106 562.472 6.951 3.081a4.524 4.524 0 0 0 5.97-2.303l3.529-7.96a4.524 4.524 0 0 0-2.303-5.97l-6.951-3.081a4.524 4.524 0 0 0-5.97 2.303l-3.529 7.96a4.524 4.524 0 0 0 2.303 5.97z"/><path fill="#245CA3" d="m366.317 561.818 5.411 2.398a4.345 4.345 0 0 0 5.733-2.211l2.791-6.296a4.346 4.346 0 0 0-2.212-5.734l-5.411-2.398a4.345 4.345 0 0 0-5.733 2.211l-2.791 6.296a4.347 4.347 0 0 0 2.212 5.734z"/><path fill="#FFF" d="M370.149 555.362c-.826-.443-1.837-.78-2.107-1.744a1.434 1.434 0 0 1-.03-.141l-.005-.041a.878.878 0 0 1-.007-.086v-.042c0-.026.002-.05.005-.074l.004-.035a.553.553 0 0 1 .022-.087l.009-.022a.591.591 0 0 1 .051-.098.671.671 0 0 1 .057-.073l.012-.013v.002c.222-.225.633-.299.986-.447.372-.243.389-.865.832-1.022.867-.087 1.48 1.598 1.833 2.588-.029-.938-.243-1.981.457-2.697a1.516 1.516 0 0 1 .14-.122.754.754 0 0 1 .107-.07c.022-.013.045-.023.066-.033l.033-.014a.483.483 0 0 1 .086-.024l.023-.004a.471.471 0 0 1 .163.002l.038.007.017.003-.001.001c.306.08.576.399.88.63.396.201.944-.096 1.301.21.509.708-.644 2.081-1.325 2.881.797-.494 1.595-1.201 2.564-.952.05.013.095.028.137.044l.039.016a1.136 1.136 0 0 1 .115.057.72.72 0 0 1 .154.125l.015.018c.016.02.03.04.042.061l.017.033a.5.5 0 0 1 .021.048l.013.037.006.017-.002-.001c.084.304-.058.698-.106 1.078.024.444.555.769.469 1.232-.358.794-2.124.483-3.157.293.826.443 1.837.78 2.107 1.744.014.05.023.096.03.141l.005.041c.004.03.006.058.007.086v.042c0 .026-.002.05-.005.074l-.004.036a.596.596 0 0 1-.022.088l-.008.021a.529.529 0 0 1-.109.172l-.012.013v-.002c-.222.225-.634.299-.986.447-.372.243-.389.865-.833 1.022-.867.087-1.48-1.598-1.833-2.588.029.938.243 1.982-.457 2.697a1.323 1.323 0 0 1-.211.171.335.335 0 0 1-.036.021c-.022.013-.045.023-.067.033l-.033.014a.47.47 0 0 1-.183.033l-.036-.002a.478.478 0 0 1-.053-.006l-.039-.008-.017-.003.002-.001c-.306-.08-.576-.399-.88-.63-.396-.201-.943.096-1.301-.21-.509-.708.644-2.081 1.325-2.881-.797.494-1.595 1.201-2.564.952a1.301 1.301 0 0 1-.137-.044l-.039-.016a1.466 1.466 0 0 1-.078-.036l-.037-.021a.72.72 0 0 1-.155-.125l-.014-.017a.614.614 0 0 1-.043-.061l-.017-.032a.728.728 0 0 1-.035-.086l-.006-.017.002.001c-.084-.305.058-.698.106-1.078-.024-.444-.555-.769-.469-1.232.362-.795 2.127-.484 3.161-.294zM373.903 580.585l15.406-34.748.642.285-15.405 34.748zM374.57 571.097l-10.586-4.693.309-.696 10.585 4.693zM373.75 572.95l-10.586-4.692.309-.696 10.585 4.693z"/><path fill="#FFD7C9" d="M353.206 557.146c1.658 4.095 4.928 8.853 9.893 6.879 5.61-2.231 3.737-5.828.243-8.618-2.635-2.104 1.639-.109 2.471-2.022.627-1.442-5.446-3.566-6.839-2.869-1.845 2.141-3.865 4.376-5.768 6.63z"/><path fill="#36405E" d="M342.599 481.346s-23.576 31.683-22.14 42.71c1.627 12.494 33.703 33.645 33.703 33.645s5.753-3.719 6.624-8.949c0 0-20.571-20.106-23.011-24.289-2.44-4.184 8.658-17.142 8.658-17.142s-1.916-18.827-3.834-25.975z"/><path fill="#3E4057" d="m476.104 474.314-9.362 12.003a4.174 4.174 0 0 1-4.876 1.286 66.616 66.616 0 0 1-1.686-.717c-9.332-4.137-17.098-10.394-23.271-18.774-1.1-1.494-1.054-3.543.087-5.006l9.356-11.996 29.752 23.204z"/><path fill="#2C2D3D" d="m476.104 474.314-9.362 12.003a4.174 4.174 0 0 1-4.876 1.286 66.616 66.616 0 0 1-1.686-.717c2.246-1.492 4.621-3.346 5.538-5.004 1.937-3.501-5.56-3.018-13.523-8.703-5.67-4.046-9.357-11.492-11.009-15.446l5.166-6.624 29.752 23.205z"/><path fill="#6B6F96" d="m438.507 444.364 28.886 9.84a.857.857 0 0 1 .444.346l16.722 25.728c.445.685-.225 1.547-.999 1.283l-28.886-9.84a.857.857 0 0 1-.444-.346l-16.722-25.728c-.446-.685.225-1.547.999-1.283z"/><path fill="#3E4057" d="m466.783 455.445-27.319-9.305 15.82 24.339 27.319 9.306z"/><path fill="#2C2D3D" d="m466.783 455.445-3.051-1.039 8.272 12.726c1.725 2.654-.873 5.993-3.87 4.972l-15.148-5.16 2.297 3.534 27.319 9.306-15.819-24.339z"/><path fill="#2C2D3D" d="M460.296 460.595c.35-.449 1.567-.086 2.718.812s1.8 1.989 1.45 2.438-1.567.085-2.718-.812-1.8-1.989-1.45-2.438z"/><path fill="#FFBC47" d="M460.878 461.048c.253-.324 1.13-.062 1.96.585.83.647 1.298 1.434 1.045 1.758-.253.324-1.13.062-1.96-.585-.83-.647-1.298-1.434-1.045-1.758z"/><path fill="#FFBC47" d="m456.374 492.352-.433-.337 12.199-15.64-6.012-14.047.504-.216 6.14 14.345z"/><path fill="#FFC154" d="M455.776 491.652c-1.704 1.485-3.287 3.207-4.739 4.988a48.604 48.604 0 0 0-.889 1.124c-.098.128-.22.262-.281.408-.038.091.029.154.112.087.095-.076.162-.175.237-.273l.284-.37a48.797 48.797 0 0 1 1.625-1.984 54.182 54.182 0 0 1 2.319-2.513c.457-.465.922-.919 1.387-1.374.068-.065.017-.155-.055-.093zM455.943 491.916c-1.699 1.685-3.286 3.498-4.792 5.382a81.552 81.552 0 0 0-.939 1.199c-.1.131-.222.264-.29.41-.048.103.043.147.113.087l.001.002c.101-.087.176-.201.257-.307.096-.125.192-.251.289-.375a71.764 71.764 0 0 1 1.693-2.112 89.088 89.088 0 0 1 2.339-2.71c.457-.509.911-1.022 1.372-1.526.035-.039-.006-.086-.043-.05zM451.528 499.815c.4-.579.775-1.174 1.161-1.761l1.175-1.793c.779-1.188 1.535-2.387 2.299-3.582.05-.078-.028-.144-.082-.064l-.302.447c-.009-.001-.02.012-.013.019-.694 1.028-1.391 2.055-2.072 3.091l-1.159 1.763c-.392.597-.797 1.19-1.174 1.796-.081.13.078.195.164.083l.003.001zM451.712 498.019a123.43 123.43 0 0 1 1.856-2.469c.414-.538.836-1.07 1.256-1.604.426-.542.872-1.071 1.286-1.621.052-.069-.017-.116-.072-.056-.46.496-.889 1.029-1.32 1.552a93.42 93.42 0 0 0-3.13 4.059l-.299.412c-.098.135-.211.271-.283.418-.043.089.037.172.118.092.221-.22.403-.53.588-.783zM452.859 498.952l.251-.397a109.565 109.565 0 0 0 1.588-2.598c.688-1.159 1.361-2.322 1.965-3.512.045-.088-.057-.115-.107-.032-.689 1.148-1.352 2.307-2.04 3.456a130.649 130.649 0 0 1-1.578 2.567l-.251.397c-.096.152-.16.268-.213.429-.02.061.045.096.094.049.123-.116.2-.215.291-.359zM456.979 492.108c.018-.055-.058-.066-.081-.01a60.586 60.586 0 0 1-1.495 3.38 41.945 41.945 0 0 1-1.798 3.305c-.09.15.102.206.191.056 1.293-2.161 2.434-4.447 3.183-6.731zM455.871 491.456c-1.057.559-2.075 1.332-3.032 2.163-.481.418-.948.858-1.4 1.319-.449.459-.902.936-1.307 1.44-.109.136.036.244.148.115.426-.489.844-.977 1.297-1.439.437-.446.889-.873 1.354-1.279.95-.829 1.95-1.54 2.956-2.242.051-.035.039-.106-.016-.077z"/><path fill="#FFBC47" d="M455.352 491.441a1.093 1.093 0 1 1 1.722 1.345 1.093 1.093 0 0 1-1.722-1.345z"/><path fill="#FFF" d="M839.689 605.404H783.41s-4.52-29.872-7.219-59.006c0-7.364-.059-14.358-.117-20.809-.01-1.749-.029-3.468-.039-5.129-.029-3.4-.049-6.606-.058-9.598-.02-6.946.058-12.716.341-16.903.234-.525.487-.962.77-1.311.146-.194.302-.359.458-.495.273-.223.555-.466.838-.699 6.771-5.566 16.045-10.443 21.374-13.008-.142.027-.214-.004-.254-.036-.178-.141-.1-.611.201-1.181l4.29-.756h16.542c.75.152 2.107.455 3.746.995 0 0 8.371 2.758 15.573 10.401 6.416 6.808 8.897 53.69-.167 117.535z"/><path fill="#F9CBCB" d="m812.05 603.472-2.104 26.177v.039l-10.492 127.57-.283 3.41-.477 5.826-.409 4.93 2.202 9.732c-.049.263-.088.536-.136.799l-21.968.497c.945-.896 1.793-1.841 2.377-2.737 2.289-3.536 3.682-7.345 4.442-10.034l.848-.36-.136-2.513-.292-6.138-.156-3.41-6.946-151.994 29.274-1.792 2.153-.136h.088l2.015.134z"/><path fill="#F9CBCB" d="M841.412 783.035h-22.329c-.136-.76-.263-1.432-.36-2.065l2.114-11.963c-.049-.448-.097-1.257-.185-2.465a750.964 750.964 0 0 1-.487-5.875c-.088-1.052-.175-2.192-.273-3.41-2.104-26.625-4.023-92.022-6.897-128.73l-3.049 1.12c-1.12-13.717-1.929-23.575-2.153-26.177l2.153-.136h.088l2.017.136 29.265 1.792-7.657 151.994-.175 3.41-.273 5.514v.137l-.097 1.968.584.312c.721 2.65 2.104 7.082 4.803 11.116.671 1.081 1.693 2.202 2.911 3.322z"/><path fill="#0B2D50" d="M801.041 778.395c-.142.616-.332 1.587-.568 2.772-.024.26-.071.521-.119.806-.876 5.118-1.967 13.126-1.801 14.121l-3.483.379-.971-11.017s-4.621 1.066-7.037 4.668c-2.417 3.601-4.075 6.8-9.525 7.131-5.472.332-13.623 1.256-13.054-2.18.474-2.89 9.003-7.795 13.908-12.604.948-.924 1.777-1.872 2.369-2.772 2.298-3.507 3.696-7.345 4.455-10.022.379-1.256.592-2.274.711-2.867.095-.403.118-.616.118-.616 4.123 1.8 8.624 2.108 12.652.284-.001-.001 3.127 8.671 2.345 11.917zM841.698 797.254c-5.473-.332-7.108-3.531-9.525-7.131-2.417-3.601-7.036-4.668-7.036-4.668l-.972 11.017-3.483-.379c.143-.948-.781-7.984-1.61-13.078a73.265 73.265 0 0 0-.355-2.038v-.024c-.214-1.09-.379-1.966-.521-2.558-.782-3.246 2.345-11.918 2.345-11.918.024.024.071.024.095.047 4.004 1.777 8.458 1.445 12.557-.331 0 0 0 .024.023.094v.047c.047.308.214 1.113.497 2.251.687 2.654 2.109 7.084 4.763 11.112.71 1.09 1.73 2.203 2.914 3.317 4.975 4.62 12.912 9.287 13.362 12.059.569 3.437-7.581 2.513-13.054 2.181z"/><path fill="#1A2036" d="m841.315 605.264-7.657 151.994-.175 3.41h-13.317c-.088-1.052-.175-2.192-.273-3.41-2.104-26.625-4.023-92.022-6.897-128.73l-3.049 1.12v.039l-10.492 127.57-.283 3.41H785.62l-.156-3.41-6.946-151.994 29.274-1.792 2.153-.136h.088l2.017.136 29.265 1.793z"/><path fill="#F9CBCB" d="M907.986 502.334s-1.325 1.519-3.442 3.856l-.074.074c-.552.607-1.169 1.27-1.822 1.969l-.838.893c-3.331 3.534-7.647 7.914-12.037 11.825-5.77 5.163-11.669 9.525-15.589 10.068-.064.009-.12.018-.184.018a4.415 4.415 0 0 1-.589.037c-.083 0-.156-.009-.239-.009-7.877-.368-21.295-7.997-25.776-10.684-.957-.561-1.509-.911-1.509-.911l1.344-30.029 27.387 21.157 21.23-9.801 1.123-.515 2.834-1.307.331-.157 4.307-1.979s2.632-3.663 7.169-5.2c4.564-1.555 7.546-4.215 8.595-2.926 1.068 1.279-5.871 5.052-4.196 5.402 4.215.838 13.39-2.034 16.887-1.564 4.702.627-10.851 11.385-24.912 9.783z"/><path fill="#36405E" d="M905.4 507.497c-.561.607-1.187 1.279-1.868 1.979l-.856.865a158.932 158.932 0 0 1-8.751 8.209c-7.04 6.129-14.964 11.871-19.74 12.47-.064.009-.12.018-.184.018a4.415 4.415 0 0 1-.589.037c-.083 0-.156-.009-.239-.009-7.877-.368-21.295-7.997-25.776-10.684-.957-.561-1.509-.911-1.509-.911l-.488-33.084c2.724 1.049 18.617 15.277 29.218 24.213l20.301-11.108 1.077-.579 2.77-1.519 1.04 1.583 4.739 7.215.855 1.305z"/><path fill="#FFF" d="m903.535 509.479-.861.861-7.754-10.849 1.071-.582z"/><path fill="#36405E" d="M893.924 518.55c-7.04 6.129-14.964 11.871-19.74 12.47-.064.009-.12.018-.184.018a4.415 4.415 0 0 1-.589.037c-.083 0-.156-.009-.239-.009-7.877-.368-21.295-7.997-25.776-10.684l-.083-.193-.23-9.911s17.899 17.549 27.544 16.151c5.549-.801 11.283-3.396 15.148-5.476a63.174 63.174 0 0 0 4.149-2.403z"/><path fill="#F9CBCB" d="M777.973 519.292s-.555.351-1.51.916c-.117.068-.234.136-.36.214a139.9 139.9 0 0 1-.536.312c-5.173 3.049-17.467 9.81-24.881 10.151-.088 0-.156.01-.243.01-.185 0-.38-.01-.585-.029-.068 0-.117-.01-.185-.019-.117-.019-.243-.029-.37-.058-3.916-.76-9.625-5.017-15.217-10.015-4.394-3.906-8.7-8.281-12.031-11.817l-.01-.01a71.854 71.854 0 0 0-.838-.887 398.051 398.051 0 0 1-1.822-1.968c-.029-.029-.049-.049-.068-.078a279.527 279.527 0 0 1-3.449-3.858c-14.058 1.607-29.615-9.158-24.91-9.781 3.497-.468 12.674 2.406 16.893 1.569 1.676-.351-5.27-4.131-4.199-5.407 1.052-1.286 4.033 1.374 8.592 2.932 4.54 1.529 7.17 5.192 7.17 5.192l4.306 1.978.331.156 2.835 1.315 1.12.507 21.237 9.81 26.615-20.565.77-.594.058 1.267 1.287 28.757z"/><path fill="#36405E" d="m778.46 486.208-.01.848-.477 32.236s-.555.351-1.51.916c-.117.068-.234.136-.36.214a139.9 139.9 0 0 1-.536.312c-5.173 3.049-17.467 9.81-24.881 10.151-.088 0-.156.01-.243.01-.185 0-.38-.01-.585-.029-.068 0-.117-.01-.185-.019-.117-.019-.243-.029-.37-.058-4.803-.838-12.509-6.44-19.367-12.411a160.255 160.255 0 0 1-8.758-8.212l-.282-.292-.565-.575a75.826 75.826 0 0 1-1.87-1.978l.857-1.305 4.735-7.219 1.042-1.578 2.767 1.52h.01l1.072.575 20.302 11.116c9.8-8.271 24.131-21.062 28.388-23.77.339-.218.621-.374.826-.452z"/><path fill="#FFF" d="m720.322 509.302.862.862 7.753-10.85-1.071-.582z"/><path fill="#36405E" d="m776.775 510.095-.234 9.917s-.019.059-.078.195c-.117.068-.234.136-.36.214a139.9 139.9 0 0 1-.536.312c-5.173 3.049-17.467 9.81-24.881 10.151-.088 0-.156.01-.243.01-.185 0-.38-.01-.585-.029-.068 0-.117-.01-.185-.019-.117-.019-.243-.029-.37-.058-4.803-.838-12.509-6.44-19.367-12.411.76.487 2.221 1.373 4.15 2.396 3.867 2.085 9.596 4.676 15.149 5.475 7.667 1.111 20.546-9.742 25.504-14.252.536-.477.974-.887 1.306-1.198l.73-.703z"/><path fill="#36405E" d="M860.711 694.179c-.253 3.322-21.656 9.459-36.649 6.605-9.869-20.78-17.341-40.322-23.03-58.12a6313.714 6313.714 0 0 1-1.237 57.945c-14.993 2.854-36.396-3.283-36.649-6.605 0 0 9.42-51.379 12.109-102.553.098-1.53.175-3.059.224-4.589.624-13.921.779-27.716.779-40.429 0-7.384-.059-14.398-.117-20.867-.01-1.753-.029-3.478-.039-5.144-.029-3.41-.049-6.625-.058-9.625-.02-6.966.058-12.752.341-16.951.078-1.247.175-2.358.302-3.312.049-.39.098-.75.156-1.091.087-.585.195-1.091.312-1.529.136-.536.302-.964.477-1.257.117-.185.234-.312.36-.399 3.312-2.309 8.232-4.452 12.606-6.118.068-.02.127-.049.185-.068.643-.234 1.266-.468 1.87-.682a154.064 154.064 0 0 1 5.358-1.803 6.852 6.852 0 0 1 4.544-.93 66.908 66.908 0 0 0 9.329 26.775l.886.789h.029v-.02l.828-.77.662-2.962a65.694 65.694 0 0 0 3.088-5.65c2.845-5.943 4.53-12.031 4.832-18.081.633.146 1.247.302 1.851.468.224.068.516.156.847.263.555.166 1.247.39 2.065.653.847.273 1.802.594 2.845.955.662.224 1.354.477 2.075.74.468.166.935.341 1.422.526 4.364 1.656 9.245 3.79 12.547 6.089.487.331.887 1.432 1.15 3.186 1.978 11.817-.575 54.009 1.364 97.419.049 1.529.127 3.059.224 4.588 2.692 51.175 12.112 102.554 12.112 102.554z"/><path fill="#5A668C" d="M829.819 479.077a64.13 64.13 0 0 1-.916 3.488 58.867 58.867 0 0 1-2.309 6.4 59.84 59.84 0 0 1-2.582 5.3 60.162 60.162 0 0 1-8.466 11.749c-.234.263-.477.516-.711.76-.37.38-.721.74-1.062 1.081l-.01.01h-.01c-.136.146-.263.263-.39.39l-.01.01-.137.137h-.01a5.49 5.49 0 0 1-.429.409c-.156-.117-.331-.253-.507-.38-.058-.039-.097-.078-.166-.136h-.01c-.127-.088-.244-.185-.37-.283h-.01a.391.391 0 0 0-.097-.078c-.253-.205-.526-.409-.799-.643a23.56 23.56 0 0 1-.273-.214 53.9 53.9 0 0 1-11.827-13.58 49.365 49.365 0 0 1-1.481-2.562 54.208 54.208 0 0 1-4.588-11.544c-.604.214-1.228.448-1.87.682-.058.02-.117.049-.185.068a55.328 55.328 0 0 0 4.725 11.827 51.484 51.484 0 0 0 2.075 3.546 52.599 52.599 0 0 0 2.338 3.38 56.33 56.33 0 0 0 8.66 9.226l.419.361c.029.01.049.039.068.049.049.039.088.078.127.117l.01.01c.273.224.545.438.828.662.312.243.633.497.955.74l.01.01c.234.165.448.331.672.507l1.218.906h.01l.253.176.185-.176.01-.01 1.13-1.072c.156-.146.302-.292.458-.448l.01-.01c.37-.351.731-.702 1.081-1.062.185-.195.37-.38.555-.575l.039-.039.01-.01c.107-.107.205-.224.312-.331l.156-.156a62.567 62.567 0 0 0 7.209-9.391c.321-.507.633-1.013.935-1.53a62.506 62.506 0 0 0 3.556-7.024c.312-.75.623-1.51.916-2.27a59.663 59.663 0 0 0 2.367-7.735 80.464 80.464 0 0 0-2.072-.742z"/><path fill="#EABA09" d="m808.97 508.38 7.43-.226.116 3.818-7.43.226z"/><path fill="#F5DF81" d="M820.072 516.596a7.094 7.094 0 1 1-7.306-6.875 7.094 7.094 0 0 1 7.306 6.875z"/><path fill="#F7E999" d="M813.144 522.158a5.354 5.354 0 0 1-5.509-5.183 5.355 5.355 0 0 1 5.183-5.509 5.353 5.353 0 0 1 5.508 5.183 5.353 5.353 0 0 1-5.182 5.509z"/><path fill="#F7E999" d="m817.657 516.378-4.735-1.221-4.652 1.507.54.174.027.009.019.62a.146.146 0 0 0-.081.135c.002.05.03.092.069.117a3.796 3.796 0 0 0-.09.364c-.072.388-.042.539-.009.635.013.039.027.07.037.09.011.01.077.074.18.069a.248.248 0 0 0 .166-.079.737.737 0 0 0 .032-.093c.027-.099.048-.25-.048-.633a4.029 4.029 0 0 0-.111-.354.143.143 0 0 0 .067-.125.147.147 0 0 0-.09-.13l-.018-.576.12.039 1.446.466.035 1.159a11.19 11.19 0 0 1 4.925-.15l-.035-1.159 2.206-.864z"/><path fill="#020202" d="m817.667 516.093-2.269.888-2.304.795-2.495-.649-1.51-.487-.269-.087-.54-.174 4.652-1.507z"/><path fill="#020202" d="m808.969 516.591.03.965-.122.003-.031-1.008z"/><path fill="#020202" d="M809.121 517.785c-.023-.094-.119-.417-.155-.442-.011-.008-.065-.006-.075.002-.034.027-.11.354-.127.45-.072.388-.042.539-.009.635.013.039.027.07.037.09.011.01.077.074.179.069a.248.248 0 0 0 .166-.079.992.992 0 0 0 .031-.093c.027-.097.048-.248-.047-.632z"/><path fill="#333" d="M809.077 517.307a.146.146 0 1 1-.293.01.146.146 0 0 1 .293-.01zM815.601 516.682c-.008-.265-1.176-.444-2.61-.4-1.433.044-2.588.293-2.58.558.008.264 1.176.444 2.61.4 1.433-.044 2.588-.294 2.58-.558z"/><path fill="#020202" d="M815.496 518.115a11.187 11.187 0 0 0-4.925.15l-.045-1.477a9.737 9.737 0 0 1 4.925-.15l.045 1.477z"/><path fill="#F2F2F2" d="M812.963 516.397a9.72 9.72 0 0 0-2.437.391l.005.148a9.737 9.737 0 0 1 4.925-.15l-.005-.148a9.783 9.783 0 0 0-2.488-.241z"/><path fill="#F5DF81" d="m817.043 508.283-.602.018-.046.002-3.18.096-.939.029-3.265.1-.125.002-.477.016-.013-.429-.002-.087 3.231-.099 2.134-.066 3.137-.094.131-.004z"/><path fill="#3E4057" d="m708.105 464.758 7.744 17.37a5.217 5.217 0 0 1-1.443 6.133 75.13 75.13 0 0 1-1.781 1.438c-10.041 7.865-21.5 12.757-34.365 14.647-2.293.337-4.527-.917-5.47-3.034l-7.74-17.361 43.055-19.193z"/><path fill="#2C2D3D" d="m708.105 464.758 7.744 17.37a5.217 5.217 0 0 1-1.443 6.133 75.13 75.13 0 0 1-1.781 1.438c-.327-3.353-.978-7.061-2.268-9.045-2.724-4.191-6.592 4.362-17.536 9.807-7.791 3.879-18.166 3.575-23.498 3.077l-4.273-9.585 43.055-19.195z"/><path fill="#6B6F96" d="m653.005 488.646 27.807-26.084c.176-.165.402-.266.642-.287l38.191-3.343c1.017-.089 1.574 1.157.829 1.855l-27.807 26.084a1.076 1.076 0 0 1-.642.287l-38.191 3.342c-1.017.09-1.574-1.155-.829-1.854z"/><path fill="#3E4057" d="m681.823 463.964-26.298 24.669 36.13-3.163 26.298-24.668z"/><path fill="#2C2D3D" d="m681.823 463.964-2.936 2.754 18.891-1.653c3.94-.345 6.097 4.481 3.212 7.186l-14.582 13.678 5.246-.459 26.298-24.669-36.129 3.163z"/><path fill="#2C2D3D" d="M683.695 474.14c-.29-.65.826-1.779 2.491-2.521 1.666-.742 3.25-.818 3.54-.168.29.65-.825 1.779-2.491 2.521-1.665.743-3.25.818-3.54.168z"/><path fill="#FFBC47" d="M684.537 473.765c-.209-.469.595-1.282 1.796-1.818s2.344-.589 2.552-.121c.209.468-.595 1.282-1.796 1.818s-2.343.59-2.552.121z"/><path fill="#FFBC47" d="m716.419 497.106-.626.279-10.09-22.633-19.021-1.614.058-.684 19.424 1.649z"/><path fill="#FFC154" d="M715.296 497.355c.638 2.752 1.607 5.508 2.72 8.155.156.371.316.74.479 1.108l.239.532c.084.184.16.396.285.549.078.096.187.058.162-.072-.029-.149-.098-.282-.163-.422a53.88 53.88 0 0 1-.659-1.484 60.052 60.052 0 0 1-.817-2.004 68.056 68.056 0 0 1-1.41-4.032c-.245-.777-.473-1.557-.701-2.337-.032-.112-.162-.109-.135.007zM715.686 497.325c.862 2.863 1.929 5.677 3.123 8.444a120.004 120.004 0 0 0 .771 1.739c.085.187.161.399.282.561.086.114.187.039.162-.074h.003c-.037-.162-.118-.312-.188-.464a88.243 88.243 0 0 1-.691-1.544 112.917 112.917 0 0 1-2.507-6.273c-.292-.803-.592-1.604-.878-2.409-.02-.059-.096-.041-.077.02zM721.806 506.832c-.404-.781-.84-1.544-1.261-2.314l-1.287-2.349c-.853-1.556-1.732-3.094-2.602-4.639-.057-.1-.175-.053-.118.053l.316.595c-.007.01.002.029.014.026.726 1.369 1.45 2.74 2.193 4.099l1.264 2.312c.428.783.845 1.578 1.292 2.349.096.166.26.029.188-.133-.001.001 0 .001.001.001zM719.932 505.574a133.426 133.426 0 0 1-1.634-3.496c-.35-.773-.69-1.55-1.031-2.327-.347-.788-.67-1.59-1.033-2.37-.046-.098-.138-.05-.104.047.277.798.614 1.584.937 2.367a114.927 114.927 0 0 0 2.641 5.834l.278.572c.091.187.175.392.296.557.073.1.211.06.17-.076-.113-.373-.349-.755-.52-1.108zM721.635 504.856l-.29-.51a145.998 145.998 0 0 0-1.933-3.276c-.874-1.439-1.763-2.864-2.72-4.229-.071-.101-.161-.004-.098.1.862 1.434 1.751 2.845 2.614 4.278.431.716.857 1.436 1.277 2.16.21.362.42.724.628 1.087l.29.509c.111.196.201.333.348.486.056.058.132.007.109-.075a2.161 2.161 0 0 0-.225-.53zM716.505 496.295c-.05-.052-.107.026-.058.084.972 1.179 1.938 2.379 2.851 3.632a51.924 51.924 0 0 1 2.589 3.923c.112.187.287.009.174-.178-1.626-2.694-3.477-5.294-5.556-7.461zM715.135 497.134c-.004 1.494.251 3.071.606 4.614.179.776.39 1.55.633 2.318.242.765.503 1.544.821 2.287.086.2.29.103.214-.096-.29-.757-.582-1.505-.826-2.275a30.264 30.264 0 0 1-.616-2.245c-.357-1.534-.554-3.055-.737-4.577-.008-.074-.094-.102-.095-.026z"/><path fill="#FFBC47" d="M714.814 497.699a1.364 1.364 0 1 1 2.492-1.111 1.364 1.364 0 0 1-2.492 1.111z"/><path fill="#FFF" d="M903.721 509.317a4.035 4.035 0 0 0 2.697 1.475 4.014 4.014 0 0 0 2.95-.865l25.428-20.469a4.015 4.015 0 0 0-2.087-7.121 4.007 4.007 0 0 0-2.951.864L904.33 503.67a4.016 4.016 0 0 0-.609 5.647z"/><path fill="#FFF" d="M903.721 509.317c.047.059.097.116.147.172.243.232.53.445.867.622.536.282 2.404 1.113 3.898-.01l.08-.063c1.2-.966 1.391-2.613 1.052-3.758-.335-1.137-1.352-2.149-2.592-2.581-.925-.321-1.82-.267-2.517.153-1.092.656-1.877 2.329-1.305 3.773.466 1.178 1.72 1.911 2.983 1.743.697-.093 1.969-.555 2.304-1.692.34-1.156-.564-2.292-1.597-2.682-.674-.256-1.897-.364-2.496.385-.26.326-.366.768-.297 1.245.088.617.45 1.186.942 1.486.107.064 1.06.612 1.942.024a1.836 1.836 0 0 0 .781-1.726.075.075 0 0 0-.09-.065.086.086 0 0 0-.072.093c.071.62-.205 1.234-.704 1.567-.796.531-1.668.029-1.765-.03-.456-.278-.791-.807-.873-1.381-.062-.433.031-.829.262-1.117.541-.678 1.674-.568 2.303-.331.971.367 1.824 1.427 1.508 2.497-.27.916-1.309 1.455-2.159 1.568a2.684 2.684 0 0 1-2.82-1.65c-.541-1.369.199-2.951 1.231-3.571.654-.394 1.498-.442 2.377-.137 1.196.416 2.177 1.391 2.5 2.484.34 1.154.081 2.771-1.07 3.641-1.414 1.062-3.205.263-3.721-.007-1.105-.581-1.644-1.577-1.905-2.369.122.61.39 1.199.806 1.717z"/><path fill="#CCC" d="M924.09 504.205c.081.042.159.082.232.115a8.43 8.43 0 0 0-.232-.115z"/><path fill="#CCC" d="M923.876 497.782c.631.125 1.515.243 2.594.208-.147.12-.538.469-.73 1.021-.245.701.036 1.2.108 1.329.175.313.422.465.564.537a6.478 6.478 0 0 1-1.223-.043l.001-.001a6.446 6.446 0 0 1-.531-.089c-.56-.157-1.154-.33-1.778-.524-.647-.202-1.3-.416-1.958-.638.178.644.377 1.185.575 1.632.247.554.492.976.696 1.283.209.316.368.503.415.556a5.12 5.12 0 0 0 1.482 1.153 7.7 7.7 0 0 0-2.306-.687 7.737 7.737 0 0 0-1.201-.063 13.645 13.645 0 0 1-2.63-4.541 13.022 13.022 0 0 1-.218-.677c.002 0 .002 0 .003-.002l-.92-1.728-.767-.981c-.22-.284-.444-.57-.669-.856-.02-.028-.041-.054-.062-.08l-.033-.049c.989-.494 1.979-.985 2.972-1.478.022-.012.045-.022.067-.033.02.049.04.098.061.145l.416.981.339.798 1.361 1.808.067.009c.316.053.588.176 1.023.343l.004.001c.332.129.762.282 1.378.449.478.129.827.202.9.217z"/><path fill="#D94559" d="M923.718 504.372c.081.042.159.082.232.115-.073-.037-.15-.076-.232-.115z"/><path fill="#D94559" d="M923.503 497.948c.631.125 1.515.243 2.594.208-.147.12-.539.469-.73 1.021-.245.701.036 1.2.108 1.329.175.313.422.465.564.537a6.478 6.478 0 0 1-1.223-.043l.001-.001a6.446 6.446 0 0 1-.531-.089c-.56-.157-1.154-.33-1.778-.524-.647-.202-1.3-.416-1.958-.638.178.644.377 1.185.575 1.632.247.554.492.976.696 1.283.209.316.368.503.415.556a5.12 5.12 0 0 0 1.482 1.153 7.7 7.7 0 0 0-2.306-.687 7.737 7.737 0 0 0-1.201-.063 13.645 13.645 0 0 1-2.63-4.541 13.022 13.022 0 0 1-.218-.677c.002 0 .002 0 .003-.002l-.92-1.728-.767-.981c-.22-.284-.444-.57-.669-.856-.02-.028-.041-.054-.062-.08l-.033-.049c.989-.494 1.979-.985 2.972-1.478.022-.012.045-.022.067-.033.02.049.04.098.061.145l.416.981.339.798 1.361 1.808.067.009c.316.053.588.176 1.023.343l.004.001c.332.129.762.282 1.378.449.479.13.827.203.9.217z"/><path fill="#754C24" d="M829.973 444.776c1.265.93 2.356 2.086 3.339 3.312a30.762 30.762 0 0 1 2.658 3.902 28.005 28.005 0 0 1 2.028 4.279 22.129 22.129 0 0 1 1.204 4.604c.102.792.16 1.591.155 2.395a14.419 14.419 0 0 1-.245 2.403c-.33 1.589-.96 3.09-1.749 4.478-1.574 2.787-3.664 5.162-5.234 7.816a23.956 23.956 0 0 0-1.083 2.029c-.32.694-.596 1.405-.82 2.132-.449 1.455-.652 2.975-.662 4.502-.001.767.046 1.534.121 2.301.086.766.198 1.531.337 2.295.282 1.527.635 3.053.934 4.603.293 1.55.52 3.133.507 4.731a17.78 17.78 0 0 1-.182 2.384c-.133.786-.291 1.568-.536 2.324-.462 1.521-1.154 2.956-1.952 4.312-.798 1.359-1.725 2.632-2.719 3.845 1.817-2.542 3.454-5.273 4.237-8.282.204-.746.341-1.508.443-2.271.081-.766.125-1.536.102-2.306a22.258 22.258 0 0 0-.197-2.304 34.774 34.774 0 0 0-.414-2.289c-.328-1.522-.724-3.041-1.027-4.595a34.07 34.07 0 0 1-.378-2.352 24.114 24.114 0 0 1-.159-2.391 15.826 15.826 0 0 1 .661-4.773c.465-1.546 1.153-3.015 1.984-4.376 1.647-2.736 3.737-5.104 5.306-7.754.779-1.323 1.404-2.735 1.748-4.212a13.73 13.73 0 0 0 .275-2.264c.02-.764-.021-1.532-.104-2.296-.363-3.065-1.481-6.023-2.917-8.779a30.405 30.405 0 0 0-2.487-3.96c-.939-1.249-1.957-2.451-3.174-3.443z"/><path fill="#754C24" d="m828.056 440.195-.976 10.837-11.616-8.264s9.126 8.354 9.323 19.155c.197 10.801-7.251 17.61-6.533 27.624.719 10.014 8.755 22.099 8.755 22.099-1.749-12.086 1.576-16.92 8.137-37.12s-7.09-34.331-7.09-34.331z"/><path fill="#F9CBCB" d="M830.056 450.837c-.256.128-.511.213-.81.341v-.597l-.128-6.444c.513-1.366.853-2.817 1.109-4.353v-.043c1.067-.555 2.774-1.195 4.31-.427 2.049 1.025 3.884 7.725-4.481 11.523zM820.644 478.265c-.403.522-.83 1.02-1.233 1.494-5.076 5.716-10.199 6.048-15.322-1.494l1.968-11.953.735-4.483 10.886-.071 2.966 16.507z"/><path fill="#F0B4B4" d="M820.542 477.619c-.403.522-3.148-5.592-5.519-8.628-1.921-2.443-6.261-2.775-8.823-2.68l.735-4.483 10.886-.071 2.721 15.862z"/><path fill="#F9CBCB" d="M831.392 435.885c-.257 1.536-.597 2.987-1.11 4.353l-.043-3.115v-.512l.128-.128c.172-.086.513-.342 1.025-.598z"/><path fill="#F0B4B4" d="m795.117 436.61-.043 1.28-.043 2.305c-.597-1.323-1.024-2.689-1.238-4.012a.81.81 0 0 1 .085-.341h.043c.299.171.555.299.768.469.257.171.428.299.428.299z"/><path fill="#F9CBCB" d="M831.307 442.116c0 4.866-1.579 9.516-4.141 13.229a21.202 21.202 0 0 1-3.979 4.414c-2.998 2.496-6.604 3.995-10.36 3.995-5.205 0-11.351-4.012-15.193-9.858-2.303-3.413-3.756-7.512-3.756-11.779 0-7.625 3.709-14.292 9.217-17.905a17.64 17.64 0 0 1 4.318-2.074 16.961 16.961 0 0 1 5.158-.804c5.285 0 10.068 2.436 13.481 6.355 3.254 3.738 5.255 8.823 5.255 14.427z"/><path fill="#F0B4B4" d="M831.307 442.116c0 4.866-1.579 9.516-4.141 13.229a21.202 21.202 0 0 1-3.979 4.414c3.953-6.002 4.047-8.324 3.932-10.676-.214-4.359-4.66-8.803-13.059-12.16-8.399-3.357-10.283-10.106-10.117-11.628l-.848-1.083a17.64 17.64 0 0 1 4.318-2.074l18.639 5.551c3.254 3.738 5.255 8.823 5.255 14.427z"/><path fill="#F9CBCB" d="m796.974 443.497-.171 7.682c-.085-.043-.128-.085-.213-.085v-.043a33.255 33.255 0 0 1-1.195-.512c-8.749-4.566-5.762-10.797-3.756-11.821 1.494-.725 3.115-.171 4.182.427a.796.796 0 0 0-.085.341c.214 1.322.641 2.688 1.238 4.011z"/><path fill="#754C24" d="M831.73 439.986c-.206 3.419-1.461 8.531-2.613 9.778-.785-16.598-17.837-10.182-25.175-24.468-.268 8.757-11.469 9.469-6.015 29.031-5.152-7.433-3.869-13.013-4.148-13.871-1.35-4.161-1.02-8.688.015-11.439 5.437-14.499 19.526-12.276 21.925-12.092 11.087.858 14.587 10.302 15.57 14.785.456 2.068.617 5.238.441 8.276z"/><path fill="#D94559" d="M831.73 439.986c-.499-6.721-3.405-20.743-19.137-20.743-17.772 0-18.865 16.414-18.814 21.213-1.35-4.161-1.02-8.688.015-11.439 5.437-14.499 19.27-12.973 21.669-12.79 11.087.858 14.843 10.999 15.826 15.482.456 2.069.617 5.239.441 8.277z"/><path fill="#754C24" d="M803.6 423.438c.43 1.614.656 3.303.529 4.995a11.666 11.666 0 0 1-.473 2.499 12.685 12.685 0 0 1-1.01 2.344c-.845 1.482-1.953 2.8-3.197 3.946-.311.288-.628.568-.953.838-.334.277-.621.519-.891.818a4.723 4.723 0 0 0-1.119 2.042c-.196.762-.207 1.573-.106 2.374.107.802.299 1.601.549 2.387.497 1.573 1.162 3.106 1.762 4.671.303.782.592 1.572.829 2.382.236.809.431 1.639.496 2.487.065.845-.005 1.716-.303 2.515-.291.802-.826 1.491-1.469 2.022.604-.578 1.078-1.287 1.323-2.073.248-.786.272-1.623.167-2.436-.216-1.635-.842-3.188-1.474-4.724-.643-1.536-1.343-3.061-1.875-4.669-.266-.803-.49-1.63-.604-2.485-.112-.853-.11-1.743.107-2.604a5.224 5.224 0 0 1 1.258-2.311c.291-.322.646-.618.957-.872.32-.261.631-.532.935-.81 1.212-1.114 2.317-2.351 3.156-3.76a11.786 11.786 0 0 0 1.605-4.615c.106-.818.134-1.648.093-2.478a21.738 21.738 0 0 0-.292-2.483z"/><path fill="#FFF" d="M829.345 450.985c.414-.103.849-.22 1.158-.308-.044.088-2.755 5.679-2.799 5.679-3.843 6.096-9.497 9.1-14.886 9.1-5.124 0-11.176-3.887-15.063-9.586h-.044c-1.458-1.458-1.685-2.516-2.495-4.155.31.089 1.03.36 1.03.36.778 1.607.926 1.966 1.774 2.868 1.9-1.413 2.474-3.534 2.208-5.345-1.899-1.723-4.063-4.771-5.433-8.04-.618-1.325-1.06-2.694-1.237-4.064 0-.132.044-.265.044-.309h.044a.3.3 0 0 1 .265-.177c.221-.044.442.133.486.309 0 .088.044.221.044.309.088.53.221 1.104.398 1.634 1.014 3.434 3.167 6.695 4.964 8.688.418.463 1.035.636 1.643.495 2.784-.643 9.22-2.027 12.078-2.027 2.748 0 7.705 1.517 10.228 2.385.627.216 1.322.085 1.788-.387 2.306-2.339 4.073-5.858 4.947-9.949.089-.221.133-.442.133-.663.088-.265.132-.53.176-.751.044-.265.221-.441.486-.397a.457.457 0 0 1 .353.53c-.221 1.59-.575 3.048-1.104 4.417-1.193 3.578-3.092 6.494-5.389 8.349-.664 1.944.355 4.324 2.167 4.986.751-1.28 1.285-2.008 2.036-3.951z"/><path fill="#D9E7EF" d="M801.757 452.509c.951-.064 1.874-.288 2.783-.558.911-.261 1.815-.557 2.73-.825 1.824-.543 3.719-.989 5.666-.992.973.008 1.937.138 2.878.337.94.206 1.862.466 2.771.749.911.276 1.814.569 2.73.806.914.249 1.847.425 2.798.483-.954.056-1.911-.074-2.852-.244-.94-.183-1.864-.427-2.782-.671-1.834-.483-3.677-.961-5.544-.961-1.87-.008-3.726.402-5.562.867-.919.234-1.84.481-2.773.688-.934.191-1.887.37-2.843.321zM804.878 454.971c1.318.058 2.628.128 3.939.176 1.311.045 2.62.079 3.93.076a103 103 0 0 0 3.929-.065c1.311-.047 2.621-.119 3.938-.187-1.29.275-2.599.456-3.913.575a43.14 43.14 0 0 1-7.908-.013 36.104 36.104 0 0 1-3.915-.562zM806.274 457.724a32.06 32.06 0 0 0 3.222.636c1.079.146 2.163.228 3.249.219a23.903 23.903 0 0 0 3.248-.234 36.739 36.739 0 0 0 3.226-.621c-1.01.447-2.072.779-3.16 1.004-1.087.229-2.2.342-3.313.35a16.329 16.329 0 0 1-3.316-.336 14.873 14.873 0 0 1-3.156-1.018z"/><path fill="#F9CBCB" d="m550.186 783.769 1.645 11.064h-39.232l21.63-11.887.988-188.109 30.658-1.862-14.867 182.22zM579.589 794.833c4.354-3.899-12.335-192.012-12.068-201.858l30.659 1.862-.988 188.109 21.63 11.887h-39.233z"/><path fill="#1A2036" d="m599.397 772.576-1.218-177.739-30.101-22.945-34.645 19.941-1.506 181.427h21.372l12.01-140.134 12.892 139.314z"/><path fill="#F9CBCB" d="M650.352 445.383c-.99 1.955-3.39 5.719-5.923 6.925-.636 45.184 8.825 72.782-49.908 53.235-3.539-11.34-7.055-20.982-12.621-30.932 14.586 4.864 28.076 9.761 42.298 14.137 4.066-10.768 8.534-27.876 10.35-37.472-2.554-2.245-6.654-12.574-4.884-15.668 1.771-3.095 3.933 5.59 5.919 3.523 1.966-2.059-1.549-12.211 1.75-13.214 3.307-.983 3.492 11.293 3.732 12.889 3.045-16.755 10.821-13.805 3.974 1.401 5.276-12.945 12.367-10.814 3.195 1.48.939-.898 4.835-5.741 6.361-4.411 1.527 1.331-3.254 6.152-4.243 8.107z"/><path fill="#1A1A1A" d="m629.412 458.627 18.107.797c1.541-1.076 1.273-4.481-.917-4.764l-14.542-1.388c-2.505.054-3.161 3.257-2.648 5.355z"/><path fill="#36405E" d="M647.05 458.726c.78.046 1.391.69 1.389 1.472-.035 15.488-1.708 41.265-10.788 51.715-4.629 5.297-33.66-.991-43.129-6.371-3.539-11.34-7.055-20.982-12.621-30.932 14.586 4.864 28.076 9.761 42.298 14.137 1.129-8.242 2.723-21.876 4.414-29.918a1.408 1.408 0 0 1 1.439-1.116l16.998 1.013z"/><path fill="#CCC" d="M563.011 562.117c-1.13-1.098.62-2.847 1.717-1.717 1.13 1.097-.62 2.848-1.717 1.717zM563.011 568.704c-1.13-1.098.62-2.849 1.717-1.717 1.13 1.097-.62 2.846-1.717 1.717zM563.011 575.289c-1.13-1.097.62-2.848 1.717-1.717 1.13 1.098-.62 2.848-1.717 1.717zM563.011 581.876c-1.13-1.097.62-2.848 1.717-1.717 1.13 1.097-.62 2.847-1.717 1.717zM563.011 588.462c-1.13-1.098.619-2.848 1.717-1.718 1.13 1.098-.62 2.849-1.717 1.718zM563.011 595.048c-1.13-1.098.619-2.848 1.717-1.718 1.13 1.098-.62 2.848-1.717 1.718z"/><path fill="#FFF" d="M574.64 491.065c-1.336 14.49-5.166 28.762-10.609 42.909-7.052-21.055-11.479-40.663-9.677-62.104 1.718-.633 18.405-.109 20.538.125a120.5 120.5 0 0 1-.252 19.07z"/><path fill="#D94559" d="M559.048 483.426c.693 1.146 1.661 7.51 3.372 7.202 1.046-.275 4.703.77 5.19-.997.761-1.918 2.349-5.957 2.349-6.204-.323-.357-3.889-5.98-5.514-6.704l-3.653-.581c-1.811-.53-2.489 4.679-3.167 5.876l1.423 1.408z"/><path fill="#D94559" d="m561.731 489.865-4.107 38.647 6.407 12.596 7.08-12.694-4.456-38.697z"/><path fill="#36405E" d="M621.964 717.45c-17.423 8.316-33.933 9.342-48.837-2.455l-5.55-25.437-9.203 28.441c-15.532 8.434-33.801 4.516-52.758-2.512 0 0 15.167-54.847 18.998-109.098 4.259-59.985-2.493-120.122 3.076-124.391 8.367-6.206 19.182-8.627 26.662-10.128-1.388 15.142.783 30.497 4.511 44.935 1.498 5.799 3.257 11.489 5.166 17.17 2.151-5.603 4.103-11.385 5.746-17.201 4.028-14.346 6.179-29.59 5.115-44.779 6.582 1.651 17.374 4.623 25.098 11.374 4.133 3.802-2.034 56.312 2.225 110.844 4.765 60.452 19.751 123.237 19.751 123.237z"/><path fill="#545E7B" d="m574.64 491.065-10.272-11.699s-10.115 7.741-10.115 8.053c-.687-5.1-.241-10.46.101-15.55 1.718-.633 18.405-.109 20.538.125a120.51 120.51 0 0 1-.252 19.071z"/><path fill="#0B2D50" d="M612.524 785.683c-5.084-1.329-6.721-.536-11.35-3.261-2.45-1.323-2.673-5.96-5.401-3.829-5.65 3.723-11.801-2.616-15.284-1.83.856-.235-9.796 20.212-1.284 20.349 12.035 1.306 25.54 1.185 37.43.408 5.796-2.01 4.389-9.168-4.111-11.837zM517.25 785.683v-.002c5.09-1.323 9.881-1.374 14.511-4.097 2.45-1.323 1.354-4.284 4.083-2.154 5.653 3.723 11.452-2.636 14.936-1.85-.856-.235 8.301 19.393-.211 19.531-12.035 1.306-25.54 1.185-37.43.408-5.795-2.009-4.389-9.167 4.111-11.836z"/><path fill="#F9CBCB" d="M572.963 471.828c-.406.526-.836 1.028-1.242 1.506-5.115 5.76-10.278 6.095-15.441-1.506l1.984-12.046.741-4.517 10.97-.072 2.988 16.635z"/><path fill="#EBB0B0" d="M572.963 471.828c-.406.526-.836 1.028-1.242 1.506-.455-1.793-2.175-7.792-4.566-10.851-1.935-2.462-6.31-2.796-8.891-2.701l.741-4.517 10.97-.072 2.988 16.635z"/><path fill="#F9CBCB" d="m546.244 570.274-11.482 7.854s-2.95-2.623-7.096-6.618c-9.44-9.106-25.084-25.331-26.24-33.966-1.961-14.742 25.721-54.717 25.721-54.717l10.534 29.131-14.902 23.968 16.792 24.582 6.673 9.766z"/><path fill="#1A1A1A" d="m539.648 559.496-12.74 12.891c-.031 1.377.724 2.32 2.176 2.879a1.906 1.906 0 0 0 1.971-.363l10.787-9.851c.425-.388.667-.954.613-1.527-.168-1.798-1.171-3.101-2.807-4.029z"/><path fill="#36405E" d="m540.933 560.029-.008.008a1.485 1.485 0 0 1-.239.263c-3.763 3.333-9.712 8.436-13.172 11.649a1.613 1.613 0 0 1-2.225-.047c-9.368-9.377-22.102-26.168-23.864-34.357-3.142-14.599 19.799-51.092 26.105-55.27l10.149 29.684-7.12 12.375-5.916 10.285 16.313 23.449a1.698 1.698 0 0 1-.023 1.961z"/><path fill="#754C24" d="M545.753 438.782c-8.614-7.421-6.53-26.441 3.419-27.182 2.487-7.55 21.754-14.867 33.41-2.353 10.605 11.386 1.265 29.534 1.265 29.534h-38.094z"/><path fill="#EBB0B0" d="M581.414 444.578c-.326.093-.652.14-1.025.14-.559.093-1.165.14-1.77.14l3.866-10.947s3.913-1.444 6.01.792c1.583 1.676 1.117 8.431-7.081 9.875zM550.219 444.532a9.243 9.243 0 0 1-1.63-.14 3.99 3.99 0 0 1-1.072-.14c-8.245-1.444-8.758-8.292-7.174-9.969 2.097-2.236 6.009-.792 6.009-.792l3.867 11.041z"/><path fill="#F9CBCB" d="M585.061 434.696c0 12.513-9.025 26.384-19.746 26.384-10.964 0-21.069-13.871-21.069-26.384s9.137-22.658 20.408-22.658 20.407 10.144 20.407 22.658z"/><path fill="#EBB0B0" d="M564.654 412.038c-.323 0-.637.037-.956.053 10.823.559 19.451 10.449 19.451 22.604 0 12.142-8.503 25.524-18.803 26.309.323.024.644.075.97.075 10.721 0 19.746-13.871 19.746-26.384-.001-12.513-9.138-22.657-20.408-22.657z"/><path fill="#0B2D50" d="M586.736 432.189v.05c0-.025 0-.05-.025-.074l.025.024z"/><path fill="#FFF" d="M583.192 444.718c.373 0 .7-.046 1.025-.14-.047.093-.047.14-.093.233-1.071 2.609-2.143 5.357-3.168 6.755-.047.047-.093.047-.139.047-4.053 6.428-10.016 9.596-15.699 9.596-5.404 0-11.786-4.099-15.885-10.109h-.047c-1.537-1.537-2.888-3.633-4.426-6.848.326.093.7.14 1.072.14 1.304 2.609 2.515 4.472 3.679 5.73 2.004-1.491 2.609-3.727 2.329-5.637-2.002-1.817-4.285-5.031-5.729-8.478-.651-1.397-1.118-2.842-1.305-4.286 0-.14.047-.279.047-.326h.047a.315.315 0 0 1 .28-.186c.233-.046.466.14.513.326 0 .093.047.233.047.326.093.559.232 1.165.419 1.724 1.07 3.621 3.34 7.061 5.235 9.163.441.488 1.091.67 1.732.522 2.936-.679 9.724-2.138 12.737-2.138 2.898 0 8.126 1.599 10.786 2.515.661.228 1.395.09 1.886-.408 2.432-2.466 4.295-6.177 5.216-10.492.093-.233.14-.466.14-.699.093-.279.14-.559.186-.792.047-.28.233-.466.512-.419.233.047.419.28.373.559-.233 1.677-.606 3.214-1.165 4.658-1.258 3.773-3.26 6.848-5.683 8.804-.7 2.05.698 4.612 2.608 5.311.794-1.352 1.679-3.401 2.47-5.451z"/><path fill="#D9E7EF" d="M553.855 446.09c.993-.067 1.955-.301 2.903-.581.951-.272 1.893-.583 2.849-.861 1.903-.566 3.879-1.031 5.91-1.034 1.015.007 2.021.143 3.002.351.981.215 1.942.486 2.891.781.951.288 1.892.593 2.848.842.953.26 1.926.443 2.919.503-.995.058-1.994-.077-2.975-.255-.98-.191-1.945-.445-2.903-.7-1.913-.503-3.835-1.001-5.783-1.003-1.951-.008-3.886.42-5.802.904-.959.244-1.92.502-2.893.717-.975.2-1.969.387-2.966.336zM557.551 449.331c1.374.061 2.741.134 4.108.184a114.46 114.46 0 0 0 8.198.011c1.367-.048 2.734-.124 4.108-.195a34.858 34.858 0 0 1-4.082.6 44.722 44.722 0 0 1-4.125.182 46.522 46.522 0 0 1-4.124-.196 37.403 37.403 0 0 1-4.083-.586zM558.764 453.701c1.118.274 2.235.508 3.36.663 1.126.152 2.257.238 3.388.229a24.853 24.853 0 0 0 3.389-.245 37.639 37.639 0 0 0 3.365-.648 16.276 16.276 0 0 1-3.296 1.047 16.927 16.927 0 0 1-6.915.014 15.456 15.456 0 0 1-3.291-1.06z"/><path fill="#754C24" d="M544.817 434.218s8.188-2.292 8.282-16.481c2.559 4.738 7.895 10.912 15.72 11.668-.616-1.662-.534-3.301 0-4.651.447 3.822 3.755 7.268 7.801 7.871-.454-1.5-.949-4.372.756-5.081 1.012 4.046 4.241 7.761 7.814 8.044l1.208-9.611s-5.58-10.431-5.767-10.711c-.186-.279-10.696-7.162-10.696-7.162l-13.859.697-9.115 11.701c-3.766 4.893-5.768 9.6-2.144 13.716z"/><path fill="#3E4057" d="m534.346 398.748 3.995 18.594a5.215 5.215 0 0 0 4.784 4.1 80.17 80.17 0 0 0 2.286.111c12.747.426 24.886-2.384 36.388-8.448 2.05-1.081 3.114-3.411 2.627-5.677l-3.993-18.583-46.087 9.903z"/><path fill="#2C2D3D" d="m534.346 398.748 3.995 18.594a5.215 5.215 0 0 0 4.784 4.1 80.17 80.17 0 0 0 2.286.111c-1.714-2.9-3.376-6.278-3.505-8.642-.273-4.991 7.896-.367 19.945-2.427 8.579-1.465 16.777-7.831 20.788-11.379l-2.205-10.261-46.088 9.904z"/><path fill="#6B6F96" d="m592.928 385.529-37.841-4.656a1.074 1.074 0 0 0-.687.147l-32.809 19.833c-.874.528-.588 1.862.425 1.987l37.841 4.656c.239.03.481-.022.687-.147l32.809-19.833c.874-.528.589-1.862-.425-1.987z"/><path fill="#3E4057" d="m555.098 382.602 35.787 4.403-31.038 18.762-35.787-4.403z"/><path fill="#2C2D3D" d="m555.098 382.602 3.996.492-16.229 9.81c-3.385 2.046-2.279 7.215 1.646 7.698l19.843 2.441-4.507 2.724-35.787-4.403 31.038-18.762z"/><path fill="#2C2D3D" d="M559.59 391.923c-.15-.696-1.716-.949-3.499-.566-1.783.383-3.107 1.257-2.957 1.953.149.696 1.716.949 3.498.566 1.783-.383 3.107-1.257 2.958-1.953z"/><path fill="#FFBC47" d="M558.689 392.117c-.108-.501-1.237-.684-2.522-.408-1.285.276-2.24.907-2.132 1.408.108.502 1.237.684 2.522.408 1.285-.276 2.24-.907 2.132-1.408z"/><path fill="#FFBC47" d="m546.717 429.772.67-.144-5.206-24.228 14.406-12.524-.45-.518-14.711 12.79z"/><path fill="#FFC154" d="M547.771 429.311c1.109 2.598 1.952 5.395 2.615 8.189a60.52 60.52 0 0 1 .388 1.747c.041.198.104.414.093.612-.007.124-.117.157-.173.037-.065-.137-.087-.285-.117-.436l-.118-.571a59.425 59.425 0 0 0-.748-3.115 67.635 67.635 0 0 0-1.24-4.088c-.26-.772-.537-1.536-.812-2.3-.042-.111.065-.185.112-.075zM547.438 429.516c.993 2.82 1.792 5.722 2.46 8.661a88.192 88.192 0 0 1 .404 1.858c.042.202.106.417.103.62-.002.143-.128.142-.174.036l-.002.002c-.066-.153-.089-.321-.122-.486l-.12-.579a92.91 92.91 0 0 0-.755-3.296 113.517 113.517 0 0 0-1.155-4.321c-.238-.821-.468-1.645-.713-2.463-.018-.062.053-.092.074-.032zM548.105 440.803c-.135-.868-.233-1.742-.347-2.612l-.346-2.656c-.229-1.76-.427-3.52-.636-5.28-.014-.115.109-.146.127-.027l.096.667c.011.004.016.025.004.029.221 1.534.446 3.068.648 4.603l.343 2.613c.116.885.248 1.773.343 2.658.02.191-.193.177-.23.004l-.002.001zM548.876 438.682a145.813 145.813 0 0 0-.744-3.786c-.173-.83-.358-1.658-.54-2.487-.185-.841-.397-1.679-.565-2.523-.021-.106.082-.122.112-.024.247.807.439 1.641.64 2.464a117.077 117.077 0 0 1 1.31 6.268l.113.626c.036.205.09.42.09.625 0 .124-.135.173-.182.039-.128-.369-.164-.816-.234-1.202zM547.078 439.107a128.805 128.805 0 0 1-.439-4.369c-.143-1.678-.266-3.352-.299-5.019-.002-.124.127-.098.138.023.15 1.666.264 3.331.413 4.997.074.832.155 1.665.243 2.497a264.086 264.086 0 0 0 .2 1.831c.026.224.034.388.006.598-.011.08-.103.084-.133.004a2.178 2.178 0 0 1-.129-.562zM546.169 429.168c.01-.071.101-.042.097.033a76.604 76.604 0 0 0-.159 4.615 51.86 51.86 0 0 0 .224 4.695c.02.217-.226.177-.246-.04-.277-3.135-.316-6.326.084-9.303zM547.77 429.038c.884 1.204 1.609 2.627 2.232 4.083.313.732.599 1.482.856 2.245.256.76.505 1.543.686 2.331.049.212-.173.255-.229.049-.213-.782-.418-1.558-.675-2.324a30.016 30.016 0 0 0-.827-2.176c-.617-1.449-1.355-2.793-2.105-4.13-.036-.067.017-.14.062-.078z"/><path fill="#FFBC47" d="M548.362 429.304a1.364 1.364 0 1 0-2.667.573 1.364 1.364 0 0 0 2.667-.573z"/><path fill="#FFF" d="M629.409 424.877a4.004 4.004 0 0 0-1.844 2.46 4.015 4.015 0 0 0 .437 3.043l16.648 28.079a4.014 4.014 0 0 0 7.345-1.054 4 4 0 0 0-.436-3.043l-16.647-28.079a4.015 4.015 0 0 0-5.503-1.406z"/><path fill="#FFF" d="M629.409 424.877c-.065.039-.129.08-.191.121a3.83 3.83 0 0 0-.739.77c-.356.491-1.444 2.221-.544 3.86.016.03.033.059.051.088.786 1.325 2.389 1.748 3.57 1.576 1.173-.171 2.32-1.033 2.923-2.199.449-.87.523-1.763.206-2.513-.495-1.174-2.039-2.189-3.549-1.828-1.233.294-2.136 1.431-2.149 2.705-.007.704.269 2.028 1.347 2.521 1.096.501 2.349-.233 2.882-1.2.349-.631.63-1.827-.027-2.526-.286-.304-.708-.471-1.19-.471-.623 0-1.238.276-1.605.721-.079.096-.756.962-.299 1.919.289.6.914.999 1.598 1.018.044.001.078-.035.078-.08a.085.085 0 0 0-.082-.084c-.623-.018-1.193-.378-1.451-.919-.412-.863.208-1.655.281-1.743.34-.411.911-.668 1.491-.668.437 0 .816.148 1.069.418.594.632.325 1.738 0 2.327-.502.909-1.672 1.602-2.686 1.138-.868-.398-1.254-1.502-1.246-2.36a2.684 2.684 0 0 1 2.034-2.557c1.432-.341 2.893.617 3.36 1.726.297.703.225 1.546-.202 2.372-.582 1.124-1.687 1.957-2.814 2.121-1.191.173-2.754-.313-3.452-1.577-.851-1.551.195-3.21.536-3.682.732-1.012 1.794-1.403 2.616-1.549a3.99 3.99 0 0 0-1.816.555z"/><path fill="#CCC" d="M631.574 445.766zM637.963 446.467a11.397 11.397 0 0 0-.575 2.538 2.357 2.357 0 0 0-.906-.868c-.659-.342-1.193-.135-1.331-.082a1.318 1.318 0 0 0-.612.482 6.577 6.577 0 0 1 .216-1.204l.001.001c.049-.185.106-.355.163-.513a68.126 68.126 0 0 1 1.681-3.533c-.663.085-1.227.205-1.697.337a8.598 8.598 0 0 0-1.369.507c-.343.162-.55.293-.61.332a5.13 5.13 0 0 0-1.352 1.303 7.707 7.707 0 0 0 1.008-2.185c.12-.431.192-.828.233-1.179a13.675 13.675 0 0 1 4.868-1.957c.246-.049.48-.088.701-.12l.001.004 1.842-.665c.357-.206.718-.412 1.081-.62l.943-.54.088-.05.053-.026c.348 1.049.694 2.099 1.041 3.152.009.024.015.048.024.071l-.153.04-1.03.272-.838.222-1.984 1.091a1.005 1.005 0 0 1-.019.065c-.098.305-.257.557-.485.964l-.001.004c-.175.31-.388.714-.641 1.3-.195.452-.317.787-.341.857z"/><path fill="#D94559" d="M631.461 445.373a5.243 5.243 0 0 0-.147.213c.048-.066.097-.137.147-.213z"/><path fill="#D94559" d="M637.85 446.074a11.384 11.384 0 0 0-.575 2.538 2.357 2.357 0 0 0-.906-.868c-.659-.342-1.193-.135-1.331-.082a1.318 1.318 0 0 0-.612.482 6.547 6.547 0 0 1 .216-1.204l.001.001c.049-.185.106-.355.163-.513a68.126 68.126 0 0 1 1.681-3.533c-.662.085-1.227.205-1.697.337a8.598 8.598 0 0 0-1.369.507c-.343.162-.55.293-.61.332a5.13 5.13 0 0 0-1.352 1.303 7.707 7.707 0 0 0 1.008-2.185c.12-.431.192-.828.233-1.179a13.675 13.675 0 0 1 4.868-1.957c.246-.049.48-.088.701-.12l.001.004c.603-.219 1.218-.44 1.842-.665.357-.206.718-.412 1.081-.62l.943-.54.088-.05.053-.026c.348 1.049.694 2.099 1.041 3.152.009.024.015.048.024.071l-.153.039-1.03.272-.838.222-1.984 1.091-.019.065c-.098.305-.257.557-.485.964l-.001.004c-.175.311-.387.714-.641 1.301-.194.452-.316.787-.341.857z"/><path fill="#E35669" d="M404.191 162.687c.358.579.473 1.277.305 1.963a2.556 2.556 0 0 1-1.785 1.865l-8.649 2.523a2.557 2.557 0 0 1-2.508-.613 2.56 2.56 0 0 1-.723-2.478l2.14-8.752a2.553 2.553 0 0 1 1.785-1.865 2.553 2.553 0 0 1 2.507.614l6.509 6.229c.164.156.304.329.419.514zm-11.32 4.156a.55.55 0 0 0 .09.111c.068.066.257.21.531.13l8.649-2.522a.54.54 0 0 0 .378-.395.535.535 0 0 0-.153-.524l-6.51-6.229a.537.537 0 0 0-.53-.13.538.538 0 0 0-.378.394l-2.14 8.752a.525.525 0 0 0 .063.413zM1075.321 175.214c.358.579.473 1.277.305 1.963a2.556 2.556 0 0 1-1.785 1.865l-8.65 2.523a2.557 2.557 0 0 1-2.508-.613 2.56 2.56 0 0 1-.723-2.478l2.14-8.752a2.555 2.555 0 0 1 1.785-1.865 2.553 2.553 0 0 1 2.507.614l6.509 6.229c.165.156.305.329.42.514zm-11.32 4.156a.6.6 0 0 0 .09.112c.068.066.257.21.531.13l8.649-2.523a.54.54 0 0 0 .378-.395.535.535 0 0 0-.153-.524l-6.509-6.229a.537.537 0 0 0-.53-.13.538.538 0 0 0-.378.394l-2.14 8.752a.517.517 0 0 0 .062.413z"/><path fill="#FFB86B" d="m646.349 265.389 3.258-3.259a1.893 1.893 0 1 0-2.678-2.678l-3.258 3.258-3.259-3.258a1.893 1.893 0 1 0-2.678 2.678l3.258 3.259-3.253 3.253a1.893 1.893 0 1 0 2.678 2.678l3.253-3.253 3.253 3.253a1.889 1.889 0 0 0 2.678 0c.74-.739.74-1.939 0-2.678l-3.252-3.253zM1167.358 406.636l3.259-3.258a1.893 1.893 0 1 0-2.678-2.678l-3.258 3.259-3.259-3.259a1.893 1.893 0 1 0-2.678 2.678l3.259 3.258-3.252 3.253a1.893 1.893 0 1 0 2.678 2.678l3.253-3.253 3.253 3.253a1.889 1.889 0 0 0 2.678 0c.74-.739.74-1.939 0-2.678l-3.255-3.253z"/><path fill="#117CA0" d="M314.192 342.532c-4.104 0-7.442-3.339-7.442-7.442 0-4.104 3.339-7.442 7.442-7.442 4.104 0 7.442 3.339 7.442 7.442 0 4.104-3.339 7.442-7.442 7.442zm0-12.555a5.12 5.12 0 0 0-5.113 5.113 5.12 5.12 0 0 0 5.113 5.113 5.12 5.12 0 0 0 5.113-5.113 5.12 5.12 0 0 0-5.113-5.113zM857.876 180.259c-4.104 0-7.442-3.339-7.442-7.442 0-4.104 3.339-7.442 7.442-7.442 4.104 0 7.442 3.339 7.442 7.442.001 4.104-3.338 7.442-7.442 7.442zm0-12.555a5.12 5.12 0 0 0-5.113 5.113 5.12 5.12 0 0 0 5.113 5.113 5.12 5.12 0 0 0 5.113-5.113 5.118 5.118 0 0 0-5.113-5.113z"/><path d="M1263.501 800.11H191.638c-.934 0-1.692-.538-1.692-1.202v-.285c0-.664.757-1.202 1.692-1.202h1071.863c.934 0 1.692.538 1.692 1.202v.285c0 .664-.757 1.202-1.692 1.202zM172.016 800.11h-52.69a1.26 1.26 0 0 1-1.26-1.26v-.17c0-.696.564-1.26 1.26-1.26h52.69c.696 0 1.26.564 1.26 1.26v.17a1.26 1.26 0 0 1-1.26 1.26zM1188.08 815.411h-181.36a1.26 1.26 0 0 1-1.26-1.26v-.17c0-.696.564-1.26 1.26-1.26h181.36c.696 0 1.26.564 1.26 1.26v.17a1.261 1.261 0 0 1-1.26 1.26zM991.449 815.411h-35.404a1.26 1.26 0 0 1-1.26-1.26v-.17c0-.696.564-1.26 1.26-1.26h35.404c.696 0 1.26.564 1.26 1.26v.17a1.26 1.26 0 0 1-1.26 1.26z"/><path fill="#CCE9FF" d="M208.364 277.752h154.773s9.104-3.871-11.489-5.606c-20.593-1.734-14.74-11.706-19.726-9.971-4.986 1.734-9.772 7.477-18.642-.202-12.789-11.07-23.411-19.524-30.131-7.819-6.72 11.705-14.495 9.267-17.992 6.652-6.286-4.701-17.125-7.587-22.761 0-5.636 7.587-14.324-1.202-20.593-1.666-5.853-.434-4.986 10.405-14.09 11.706-9.104 1.301-17.341 0-17.125 2.818.218 2.818 15.825 4.088 17.776 4.088zM937.54 214.197h154.773s9.104-3.872-11.489-5.606-14.74-11.705-19.726-9.971c-4.986 1.734-9.772 7.476-18.642-.202-12.789-11.07-23.411-19.524-30.131-7.819-6.72 11.705-14.495 9.267-17.992 6.652-6.286-4.701-17.125-7.587-22.761 0-5.636 7.587-14.324-1.202-20.593-1.667-5.853-.434-4.986 10.405-14.09 11.706-9.104 1.301-17.341 0-17.125 2.818.218 2.819 15.825 4.089 17.776 4.089z"/><path fill="#C9E3F5" d="m634.841 162.334-15.299-5.529 7.743-5.627z"/><path fill="#C9E3F5" d="M619.677 159.694 602.72 145.6l24.548 9.293zM602.711 145.568l35.906-.979-7.25 5.084z"/><path fill="#C9E3F5" d="m602.72 145.6 24.571 9.38 7.55 7.354-3.426-12.77zM839.212 219.322a1.412 1.412 0 0 1-1.408-1.529c.002-.018.145-1.786.017-4.613a1.412 1.412 0 0 1 1.346-1.474 1.418 1.418 0 0 1 1.473 1.346c.137 3.028-.017 4.899-.024 4.977a1.409 1.409 0 0 1-1.404 1.293zM758.161 219.222c-1.325 0-2.664-.158-3.981-.47a1.413 1.413 0 0 1-1.049-1.698 1.408 1.408 0 0 1 1.698-1.048c2.922.691 5.9.465 8.651-.656a1.411 1.411 0 1 1 1.065 2.614 16.868 16.868 0 0 1-6.384 1.258zm-12.138-4.933c-.323 0-.648-.11-.914-.336a31.325 31.325 0 0 1-2.336-2.21c-1.732-1.813-2.827-4.031-3.252-6.594a1.412 1.412 0 0 1 2.785-.463c.331 1.993 1.175 3.711 2.509 5.106a28.475 28.475 0 0 0 2.124 2.01 1.412 1.412 0 0 1-.916 2.487zm25.447-2.21a1.411 1.411 0 0 1-1.154-2.222c1.693-2.41 2.625-5.197 2.625-7.848 0-.125-.002-.25-.006-.375a1.41 1.41 0 0 1 1.361-1.46 1.42 1.42 0 0 1 1.46 1.361c.006.158.008.316.008.474 0 3.226-1.115 6.589-3.138 9.47a1.41 1.41 0 0 1-1.156.6zm66.531-7.155a1.412 1.412 0 0 1-1.379-1.119 52.946 52.946 0 0 0-2.753-9.022 1.41 1.41 0 1 1 2.613-1.067 55.714 55.714 0 0 1 2.901 9.504 1.411 1.411 0 0 1-1.382 1.704zm-95.781-8.083a1.411 1.411 0 0 1-1.316-1.92c1.12-2.9 2.792-5.84 4.969-8.74a1.41 1.41 0 1 1 2.257 1.695c-2.021 2.692-3.566 5.405-4.593 8.062-.216.559-.75.903-1.317.903zm28.336-2.546c-.4 0-.797-.169-1.076-.497-1.773-2.087-4.106-4.197-6.932-6.273a1.412 1.412 0 0 1 1.67-2.276c3.003 2.205 5.498 4.466 7.413 6.721a1.411 1.411 0 0 1-1.075 2.325zm60.076-7.177c-.453 0-.898-.217-1.17-.621a41.555 41.555 0 0 0-6.075-7.11 1.411 1.411 0 0 1 1.925-2.066 44.29 44.29 0 0 1 6.489 7.594 1.411 1.411 0 0 1-1.169 2.203zm-75.469-4.454c-.224 0-.451-.054-.663-.166a77.34 77.34 0 0 0-8.661-3.948 1.41 1.41 0 1 1 1.011-2.635 80.47 80.47 0 0 1 6.117 2.642 58.421 58.421 0 0 1 7.586-5.665 1.413 1.413 0 0 1 1.501 2.391 55.648 55.648 0 0 0-6.365 4.652l.139.074c.687.367.948 1.222.581 1.91a1.415 1.415 0 0 1-1.246.745zm-77.645-.488h-.023a67.35 67.35 0 0 1-7.278-.387 1.412 1.412 0 0 1 .306-2.806c2.252.246 4.598.37 6.972.37h.02c.815 0 1.651-.015 2.485-.045a1.423 1.423 0 0 1 1.46 1.361 1.411 1.411 0 0 1-1.36 1.461c-.866.031-1.735.046-2.582.046zm12.173-.987a1.413 1.413 0 0 1-.218-2.807 93.124 93.124 0 0 0 9.338-1.976 1.412 1.412 0 0 1 .723 2.728 96.157 96.157 0 0 1-9.622 2.036 1.277 1.277 0 0 1-.221.019zm-28.823-1.244c-.13 0-.261-.018-.393-.056a50.23 50.23 0 0 1-9.251-3.685 1.41 1.41 0 1 1 1.305-2.504 47.34 47.34 0 0 0 8.73 3.476 1.412 1.412 0 0 1-.391 2.769zm47.549-3.673a1.412 1.412 0 0 1-.477-2.74c3.032-1.088 6.32-1.818 9.774-2.17a1.412 1.412 0 0 1 .286 2.809c-3.226.328-6.29 1.007-9.106 2.018a1.422 1.422 0 0 1-.477.083zm28.68-.523a1.41 1.41 0 0 1-.333-.04 63.478 63.478 0 0 0-9.35-1.562 1.412 1.412 0 0 1-1.282-1.53 1.403 1.403 0 0 1 1.53-1.282c3.173.28 6.459.828 9.767 1.63a1.41 1.41 0 0 1-.332 2.784zm79.481-1.738c-.242 0-.487-.062-.711-.193-2.62-1.53-5.497-2.846-8.549-3.91a1.41 1.41 0 1 1 .929-2.665c3.223 1.124 6.266 2.516 9.043 4.137a1.411 1.411 0 0 1-.712 2.631zm-46.669-2.958a1.413 1.413 0 0 1-.54-2.716 56.573 56.573 0 0 1 9.473-2.977 1.413 1.413 0 0 1 .604 2.758 53.73 53.73 0 0 0-8.998 2.828 1.408 1.408 0 0 1-.539.107zm28.498-3.461c-.074 0-.15-.006-.227-.018a49.858 49.858 0 0 0-7.909-.635h-.005c-.494 0-.986.007-1.477.022a1.402 1.402 0 0 1-1.453-1.369 1.411 1.411 0 0 1 1.369-1.452 53.994 53.994 0 0 1 1.56-.023h.005c2.787 0 5.599.226 8.36.671a1.412 1.412 0 0 1-.223 2.804zM643.774 170.977c-.318 0-.638-.107-.902-.326a48.646 48.646 0 0 1-3.633-3.352 1.412 1.412 0 0 1 2.018-1.974 45.612 45.612 0 0 0 3.42 3.155 1.412 1.412 0 0 1-.903 2.497z"/></svg>