<svg xmlns="http://www.w3.org/2000/svg" xmlns:xlink="http://www.w3.org/1999/xlink" viewBox="0 0 1600 1200"><defs><linearGradient id="a" x1="1561.71" x2="720.37" y1="565.98" y2="568.29" gradientUnits="userSpaceOnUse"><stop offset="0" stop-color="#3059ab"/><stop offset="1" stop-color="#166ee0"/></linearGradient><linearGradient id="d" x1="477.61" x2="132.58" y1="918.53" y2="94.21" xlink:href="#a"/><linearGradient id="e" x1="883.52" x2="519.81" y1="987.97" y2="207.77" gradientUnits="userSpaceOnUse"><stop offset="0" stop-color="#5681d4"/><stop offset="1" stop-color="#4093ff"/></linearGradient><linearGradient id="f" x1="275.27" x2="1019.95" y1="551.48" y2="551.48" gradientTransform="rotate(-90 686.29 551.48)" gradientUnits="userSpaceOnUse"><stop offset="0" stop-color="#fff"/><stop offset="1" stop-color="#cfe2ff"/></linearGradient><linearGradient id="b" x1="585.53" x2="530.94" y1="890.84" y2="890.99" gradientUnits="userSpaceOnUse"><stop offset="0" stop-color="#244280"/><stop offset="1" stop-color="#1f4180"/></linearGradient><linearGradient id="j" x1="507.7" x2="453.11" y1="890.84" y2="890.99" xlink:href="#b"/><linearGradient id="k" x1="429.52" x2="413.35" y1="890.89" y2="890.93" xlink:href="#b"/><linearGradient id="c" x1="5138.01" x2="5234.22" y1="2380.25" y2="2380.25" gradientTransform="matrix(-.98 -.2 -.2 .98 5906.85 -830.84)" gradientUnits="userSpaceOnUse"><stop offset=".01" stop-color="#bae1ff"/><stop offset="1" stop-color="#86c0ff"/></linearGradient><linearGradient id="o" x1="-51.56" x2="133.19" y1="407.48" y2="407.48" gradientTransform="rotate(9.89 791.007 4046.324)" xlink:href="#c"/><clipPath id="g"><path fill="none" d="M721.56,640.29C721.56,666,711.7,679,686,679a46.62,46.62,0,0,1,0-93.23C711.7,585.73,721.56,614.54,721.56,640.29Z"/></clipPath><clipPath id="h"><path fill="none" d="M909,474.33c0,20.88-8,31.36-28.86,31.36a37.8,37.8,0,0,1,0-75.6C901,430.09,909,453.45,909,474.33Z"/></clipPath><clipPath id="i"><rect width="566.96" height="825.15" x="402.84" y="136.97" fill="none" transform="rotate(90 686.315 549.545)"/></clipPath><clipPath id="l"><rect width="86.58" height="66.98" x="156.87" y="674.08" fill="none" transform="rotate(-8.74 200.045 707.287)"/></clipPath><clipPath id="m"><circle cx="350.76" cy="469.83" r="48.11" fill="none" transform="rotate(-45 350.764 469.839)"/></clipPath><clipPath id="n"><circle cx="350.48" cy="464.87" r="57.2" fill="#fff" transform="rotate(-89.3 350.446 464.86)"/></clipPath></defs><g data-name="Ñëîé 1"><ellipse cx="800" cy="910.3" rx="663.76" ry="31.2" style="mix-blend-mode:multiply" fill="#5d5d5d" opacity=".25"/><path fill="url(#a)" d="M1371.2,870.26H1086.71c16.44-3.39,28.68-16.24,28.68-31.62V256.57c0-18-16.69-32.53-37.29-32.53H248.71c-20.6,0-37.3,14.57-37.3,32.53V821.63h-1v69.53c0,11.54,10.72,20.89,23.95,20.89H1371.2c13.23,0,24-9.35,24-20.89S1384.43,870.26,1371.2,870.26Z"/><path fill="url(#d)" d="M721.94,891.16c0-11.54-10.72-20.9-24-20.9H413.5c16.44-3.39,28.68-16.24,28.68-31.62V256.57c0-18-16.7-32.53-37.3-32.53H248.71c-20.6,0-38.46,14.57-38.46,32.53l.12,634.59c0,11.54,10.72,20.89,23.95,20.89H698C711.22,912.05,721.94,902.7,721.94,891.16Z"/><path fill="url(#e)" d="M278.9,224h814.83a44.58,44.58,0,0,1,44.58,44.58V871.17a0,0,0,0,1,0,0h-904a0,0,0,0,1,0,0V268.62A44.58,44.58,0,0,1,278.9,224Z"/><rect width="570.83" height="825.15" x="400.88" y="138.9" fill="url(#f)" transform="rotate(90 686.29 551.48)"/><rect width="557.37" height="794.47" x="407.63" y="160.97" fill="#fff" transform="rotate(90 686.315 558.205)"/><path fill="#647ca8" d="M1057.6,312.89H315a1.59,1.59,0,0,1,0-3.18H1057.6a1.59,1.59,0,1,1,0,3.18Z"/><path fill="#647ca8" d="M1057,368H314.46a1.59,1.59,0,1,1,0-3.17H1057a1.59,1.59,0,1,1,0,3.17Z"/><path fill="#5c96d6" d="M623.29,345.32h9.41c0,3.08.16,5,.49,5.65a1.84,1.84,0,0,0,1.83,1,1.82,1.82,0,0,0,1.6-.66,5.63,5.63,0,0,0,.45-2.8V320.93H647.3v24.2a40.51,40.51,0,0,1-.34,6.09,8.9,8.9,0,0,1-1.17,3.29,8.08,8.08,0,0,1-3.86,3,17.13,17.13,0,0,1-6.31,1q-6.68,0-9.54-2.62c-1.92-1.75-2.87-4.67-2.87-8.76,0-.51,0-.89,0-1.15A5.17,5.17,0,0,1,623.29,345.32Z"/><path fill="#5c96d6" d="M653.63,339.3a58.61,58.61,0,0,1,.57-9.69,10.16,10.16,0,0,1,6.79-8.39,20.34,20.34,0,0,1,7.3-1.18,20.1,20.1,0,0,1,7.29,1.18,11.23,11.23,0,0,1,4.87,3.62,11,11,0,0,1,1.93,4.8,82.14,82.14,0,0,1,0,19.32,11,11,0,0,1-1.93,4.8,11.19,11.19,0,0,1-4.87,3.61,23,23,0,0,1-14.59,0,11.31,11.31,0,0,1-4.91-3.61A11.07,11.07,0,0,1,654.2,349,58.44,58.44,0,0,1,653.63,339.3Zm18.86,3.32V336c0-4.08-.3-6.6-.92-7.56a3.65,3.65,0,0,0-3.34-1.44,3.5,3.5,0,0,0-3.26,1.48q-.91,1.47-.91,7.52v6.63q0,6,.91,7.48a3.54,3.54,0,0,0,3.32,1.52,3.58,3.58,0,0,0,3.3-1.48C672.19,349.15,672.49,346.65,672.49,342.62Z"/><path fill="#5c96d6" d="M689.2,357.68V320.93h11a54.08,54.08,0,0,1,7.18.33,13,13,0,0,1,3.76,1.12,8.15,8.15,0,0,1,4.77,7.78,8.05,8.05,0,0,1-1.12,4.25,12.91,12.91,0,0,1-3.59,3.63,9.85,9.85,0,0,1,4.4,3.37,8.77,8.77,0,0,1,1.48,5.12,11.09,11.09,0,0,1-1,4.66,10.74,10.74,0,0,1-2.78,3.74,9.82,9.82,0,0,1-4.21,2.13,35.1,35.1,0,0,1-7.72.62Zm10.23-22.39h.65a7.5,7.5,0,0,0,4.45-1.06A3.83,3.83,0,0,0,706,331a3.44,3.44,0,0,0-1.42-3,6.82,6.82,0,0,0-4.06-1h-.66l-.37,0Zm0,15.9h.88a7.71,7.71,0,0,0,4.83-1.27,4.49,4.49,0,0,0,1.62-3.77,3.85,3.85,0,0,0-1.6-3.42,9,9,0,0,0-5-1.09h-.71Z"/><path fill="#5c96d6" d="M721.61,345.22H731v1.08a7.88,7.88,0,0,0,.85,4.27,3.24,3.24,0,0,0,2.87,1.24,3.23,3.23,0,0,0,3.49-3.51q0-2.67-4.57-5.13c-.49-.29-.87-.5-1.14-.65l-.48-.26q-6.16-3.48-7.67-5.25a9.69,9.69,0,0,1-1.65-3,11.22,11.22,0,0,1-.57-3.65,9.27,9.27,0,0,1,3.33-7.56q3.31-2.75,9.15-2.75,6.33,0,9.67,2.7c2.22,1.8,3.34,4.4,3.34,7.8q0,.22,0,.6c0,.26,0,.45,0,.6h-9.18v-.46a6.21,6.21,0,0,0-.89-3.65,3,3,0,0,0-2.6-1.24,3.17,3.17,0,0,0-2.33.87,3.09,3.09,0,0,0-.88,2.31c0,1.55,1.67,3.21,5,5l1.39.76q.41.19,1.11.6,5.37,2.87,6.87,4.82a9.27,9.27,0,0,1,1.44,2.88,11.82,11.82,0,0,1,.5,3.49q0,5.52-3.41,8.5c-2.28,2-5.52,3-9.75,3q-6.65,0-10-2.85t-3.34-8.48c0-.24,0-.49,0-.76S721.56,345.79,721.61,345.22Z"/><rect width="206.82" height="27.65" x="308.55" y="509.44" fill="#5c96d6"/><rect width="93.92" height="27.65" x="421.45" y="615.29" fill="#5c96d6"/><path fill="#fff" d="M490.93,524.64H415.75a1.91,1.91,0,0,1,0-3.82h75.18a1.91,1.91,0,1,1,0,3.82Z"/><path fill="#fff" d="M506,631H490.93a1.91,1.91,0,0,1,0-3.82H506a1.91,1.91,0,1,1,0,3.82Z"/><path fill="#fff" d="M475,631H430.82a1.91,1.91,0,0,1,0-3.82H475a1.91,1.91,0,0,1,0,3.82Z"/><rect width="179.43" height="27.65" x="528.78" y="390.21" fill="#5c96d6"/><rect width="179.43" height="27.65" x="528.78" y="735.31" fill="#5c96d6"/><path fill="#fff" d="M665.23,405.94h-29.9a1.91,1.91,0,0,1,0-3.82h29.9a1.91,1.91,0,1,1,0,3.82Z"/><path fill="#fff" d="M619.39,405.94H575.22a1.91,1.91,0,0,1,0-3.82h44.17a1.91,1.91,0,0,1,0,3.82Z"/><rect width="179.43" height="27.65" x="528.78" y="563.75" fill="#5c96d6"/><path fill="#fff" d="M665.23,579.49h-29.9a1.91,1.91,0,0,1,0-3.82h29.9a1.91,1.91,0,0,1,0,3.82Z"/><path fill="#fff" d="M619.39,579.49H575.22a1.91,1.91,0,0,1,0-3.82h44.17a1.91,1.91,0,0,1,0,3.82Z"/><rect width="93.92" height="27.65" x="421.45" y="789.52" fill="#5c96d6"/><path fill="#fff" d="M506,805.25H466.15a1.91,1.91,0,1,1,0-3.82H506a1.91,1.91,0,0,1,0,3.82Z"/><path fill="#fff" d="M452.26,805.25H430.82a1.91,1.91,0,1,1,0-3.82h21.44a1.91,1.91,0,0,1,0,3.82Z"/><path fill="#fff" d="M399.13,524.64H335.62a1.91,1.91,0,0,1,0-3.82h63.51a1.91,1.91,0,1,1,0,3.82Z"/><path fill="#647ca8" d="M708.21,437.84H675.33a1.47,1.47,0,0,1,0-2.94h32.88a1.47,1.47,0,0,1,0,2.94Z"/><path fill="#647ca8" d="M656.64,437.84h-53a1.47,1.47,0,1,1,0-2.94h53a1.47,1.47,0,1,1,0,2.94Z"/><path fill="#647ca8" d="M581.76,437.84H533.24a1.47,1.47,0,0,1,0-2.94h48.52a1.47,1.47,0,1,1,0,2.94Z"/><path fill="#647ca8" d="M672.67,452.15H638.49a1.47,1.47,0,0,1,0-2.94h34.18a1.47,1.47,0,1,1,0,2.94Z"/><path fill="#647ca8" d="M614.57,452.15H533.24a1.47,1.47,0,0,1,0-2.94h81.33a1.47,1.47,0,0,1,0,2.94Z"/><path fill="#647ca8" d="M708.21,466.46H670.62a1.47,1.47,0,0,1,0-2.94h37.59a1.47,1.47,0,0,1,0,2.94Z"/><path fill="#647ca8" d="M674.72,466.46H586.55a1.47,1.47,0,1,1,0-2.94h88.17a1.47,1.47,0,1,1,0,2.94Z"/><path fill="#647ca8" d="M566.73,466.46H533.24a1.47,1.47,0,0,1,0-2.94h33.49a1.47,1.47,0,0,1,0,2.94Z"/><path fill="#647ca8" d="M708.21,480.77H670.62a1.47,1.47,0,0,1,0-2.94h37.59a1.47,1.47,0,0,1,0,2.94Z"/><path fill="#647ca8" d="M652.16,480.77H533.24a1.47,1.47,0,0,1,0-2.94H652.16a1.47,1.47,0,1,1,0,2.94Z"/><path fill="#647ca8" d="M515.37,452.27H477a1.59,1.59,0,0,1,0-3.18h38.37a1.59,1.59,0,0,1,0,3.18Z"/><path fill="#647ca8" d="M455.19,452.27H393.33a1.59,1.59,0,0,1,0-3.18h61.86a1.59,1.59,0,0,1,0,3.18Z"/><path fill="#647ca8" d="M367.81,452.27H311.18a1.59,1.59,0,0,1,0-3.18h56.63a1.59,1.59,0,0,1,0,3.18Z"/><path fill="#647ca8" d="M473.89,466.58H434a1.59,1.59,0,0,1,0-3.18h39.88a1.59,1.59,0,1,1,0,3.18Z"/><path fill="#647ca8" d="M406.1,466.58H311.18a1.59,1.59,0,0,1,0-3.18H406.1a1.59,1.59,0,0,1,0,3.18Z"/><path fill="#647ca8" d="M515.37,480.89H471.5a1.59,1.59,0,0,1,0-3.18h43.87a1.59,1.59,0,0,1,0,3.18Z"/><path fill="#647ca8" d="M476.29,480.89H373.39a1.59,1.59,0,0,1,0-3.18h102.9a1.59,1.59,0,0,1,0,3.18Z"/><path fill="#647ca8" d="M350.26,480.89H311.18a1.59,1.59,0,0,1,0-3.18h39.08a1.59,1.59,0,1,1,0,3.18Z"/><path fill="#647ca8" d="M515.37,495.2H471.5a1.59,1.59,0,1,1,0-3.18h43.87a1.59,1.59,0,0,1,0,3.18Z"/><path fill="#647ca8" d="M450,495.2H311.18a1.59,1.59,0,0,1,0-3.18H450a1.59,1.59,0,0,1,0,3.18Z"/><path fill="#647ca8" d="M399.13,555.84H371.89a1.05,1.05,0,1,1,0-2.1h27.24a1.05,1.05,0,1,1,0,2.1Z"/><path fill="#647ca8" d="M372.82,555.84h-27a1,1,0,0,1,0-2.1h27a1.05,1.05,0,1,1,0,2.1Z"/><path fill="#647ca8" d="M334.62,555.84H309.86a1.05,1.05,0,1,1,0-2.1h24.76a1.05,1.05,0,1,1,0,2.1Z"/><path fill="#647ca8" d="M399.13,570.15H363.56a1,1,0,0,1,0-2.1h35.57a1,1,0,0,1,0,2.1Z"/><path fill="#647ca8" d="M353.45,570.15H309.86a1,1,0,0,1,0-2.1h43.59a1,1,0,0,1,0,2.1Z"/><path fill="#647ca8" d="M399.13,584.46h-14.3a1.05,1.05,0,1,1,0-2.1h14.3a1.05,1.05,0,1,1,0,2.1Z"/><path fill="#647ca8" d="M375.77,584.46H349.61a1.05,1.05,0,1,1,0-2.1h26.16a1.05,1.05,0,1,1,0,2.1Z"/><path fill="#647ca8" d="M340.9,584.46h-31a1.05,1.05,0,1,1,0-2.1h31a1.05,1.05,0,1,1,0,2.1Z"/><path fill="#647ca8" d="M399.13,598.77h-31a1.05,1.05,0,0,1,0-2.1h31a1,1,0,0,1,0,2.1Z"/><path fill="#647ca8" d="M358.68,598.77H309.86a1,1,0,0,1,0-2.1h48.82a1,1,0,0,1,0,2.1Z"/><path fill="#647ca8" d="M401.06,784.89H373.83a1,1,0,0,1,0-2.1h27.23a1,1,0,0,1,0,2.1Z"/><path fill="#647ca8" d="M374.75,784.89h-27a1.05,1.05,0,0,1,0-2.1h27a1.05,1.05,0,1,1,0,2.1Z"/><path fill="#647ca8" d="M336.55,784.89H311.8a1.05,1.05,0,1,1,0-2.1h24.75a1,1,0,0,1,0,2.1Z"/><path fill="#647ca8" d="M401.06,799.2H365.49a1.05,1.05,0,1,1,0-2.1h35.57a1.05,1.05,0,1,1,0,2.1Z"/><path fill="#647ca8" d="M355.38,799.2H311.8a1.05,1.05,0,1,1,0-2.1h43.58a1.05,1.05,0,1,1,0,2.1Z"/><path fill="#647ca8" d="M401.06,813.51H386.77a1.05,1.05,0,1,1,0-2.1h14.29a1,1,0,0,1,0,2.1Z"/><path fill="#647ca8" d="M377.7,813.51H351.55a1,1,0,0,1,0-2.1H377.7a1,1,0,0,1,0,2.1Z"/><path fill="#647ca8" d="M342.83,813.51h-31a1.05,1.05,0,1,1,0-2.1h31a1,1,0,0,1,0,2.1Z"/><path fill="#647ca8" d="M401.06,827.82H370a1.05,1.05,0,1,1,0-2.1h31a1.05,1.05,0,1,1,0,2.1Z"/><path fill="#647ca8" d="M360.61,827.82H311.8a1.05,1.05,0,1,1,0-2.1h48.81a1.05,1.05,0,1,1,0,2.1Z"/><path fill="#647ca8" d="M450.11,555.87H421.45a1.08,1.08,0,1,1,0-2.16h28.66a1.08,1.08,0,0,1,0,2.16Z"/><path fill="#647ca8" d="M477.58,555.87H449.13a1.08,1.08,0,1,1,0-2.16h28.45a1.08,1.08,0,1,1,0,2.16Z"/><path fill="#647ca8" d="M515.37,555.87H489.32a1.08,1.08,0,1,1,0-2.16h26.05a1.08,1.08,0,1,1,0,2.16Z"/><path fill="#647ca8" d="M458.87,570.18H421.45a1.08,1.08,0,0,1,0-2.16h37.42a1.08,1.08,0,0,1,0,2.16Z"/><path fill="#647ca8" d="M515.37,570.18H469.51a1.08,1.08,0,0,1,0-2.16h45.86a1.08,1.08,0,0,1,0,2.16Z"/><path fill="#647ca8" d="M436.49,584.49h-15a1.08,1.08,0,1,1,0-2.16h15a1.08,1.08,0,1,1,0,2.16Z"/><path fill="#647ca8" d="M473.54,584.49H446a1.08,1.08,0,1,1,0-2.16h27.51a1.08,1.08,0,1,1,0,2.16Z"/><path fill="#647ca8" d="M515.37,584.49H482.72a1.08,1.08,0,0,1,0-2.16h32.65a1.08,1.08,0,1,1,0,2.16Z"/><path fill="#647ca8" d="M454.1,598.8H421.45a1.08,1.08,0,1,1,0-2.15H454.1a1.08,1.08,0,1,1,0,2.15Z"/><path fill="#647ca8" d="M515.37,598.8H464a1.08,1.08,0,1,1,0-2.15h51.36a1.08,1.08,0,1,1,0,2.15Z"/><path fill="#647ca8" d="M338.36,673H311.68a1,1,0,0,1,0-2.08h26.68a1,1,0,1,1,0,2.08Z"/><path fill="#647ca8" d="M363.94,673H337.45a1,1,0,0,1,0-2.08h26.49a1,1,0,0,1,0,2.08Z"/><path fill="#647ca8" d="M399.13,673H374.88a1,1,0,0,1,0-2.08h24.25a1,1,0,0,1,0,2.08Z"/><path fill="#647ca8" d="M346.52,687.31H311.68a1,1,0,1,1,0-2.07h34.84a1,1,0,1,1,0,2.07Z"/><path fill="#647ca8" d="M399.13,687.31h-42.7a1,1,0,1,1,0-2.07h42.7a1,1,0,1,1,0,2.07Z"/><path fill="#647ca8" d="M325.68,701.62h-14a1,1,0,0,1,0-2.08h14a1,1,0,0,1,0,2.08Z"/><path fill="#647ca8" d="M360.19,701.62H334.57a1,1,0,0,1,0-2.08h25.62a1,1,0,0,1,0,2.08Z"/><path fill="#647ca8" d="M399.13,701.62h-30.4a1,1,0,0,1,0-2.08h30.4a1,1,0,0,1,0,2.08Z"/><path fill="#647ca8" d="M342.08,715.94h-30.4a1,1,0,1,1,0-2.08h30.4a1,1,0,1,1,0,2.08Z"/><path fill="#647ca8" d="M399.13,715.94H351.3a1,1,0,0,1,0-2.08h47.83a1,1,0,1,1,0,2.08Z"/><path fill="#647ca8" d="M708.21,499.28H603.64a1.47,1.47,0,1,1,0-2.94H708.21a1.47,1.47,0,0,1,0,2.94Z"/><path fill="#647ca8" d="M581.76,499.28H533.24a1.47,1.47,0,0,1,0-2.94h48.52a1.47,1.47,0,1,1,0,2.94Z"/><path fill="#647ca8" d="M708.21,513.59H675.4a1.47,1.47,0,0,1,0-2.94h32.81a1.47,1.47,0,0,1,0,2.94Z"/><path fill="#647ca8" d="M654.21,513.59h-121a1.47,1.47,0,0,1,0-2.94h121a1.47,1.47,0,1,1,0,2.94Z"/><path fill="#647ca8" d="M708.21,527.9H670.62a1.47,1.47,0,1,1,0-2.94h37.59a1.47,1.47,0,1,1,0,2.94Z"/><path fill="#647ca8" d="M652.85,527.9h-66.3a1.47,1.47,0,1,1,0-2.94h66.3a1.47,1.47,0,1,1,0,2.94Z"/><path fill="#647ca8" d="M566.73,527.9H533.24a1.47,1.47,0,0,1,0-2.94h33.49a1.47,1.47,0,1,1,0,2.94Z"/><path fill="#647ca8" d="M708.21,542.21H635.08a1.47,1.47,0,1,1,0-2.94h73.13a1.47,1.47,0,0,1,0,2.94Z"/><path fill="#647ca8" d="M616.62,542.21H533.24a1.47,1.47,0,0,1,0-2.94h83.38a1.47,1.47,0,1,1,0,2.94Z"/><rect width="179.43" height="27.65" x="724.35" y="563.44" fill="#5c96d6"/><path fill="#fff" d="M801.69,579.17h-29.9a1.91,1.91,0,0,1,0-3.82h29.9a1.91,1.91,0,0,1,0,3.82Z"/><path fill="#fff" d="M861.8,579.17H817.64a1.91,1.91,0,1,1,0-3.82H861.8a1.91,1.91,0,1,1,0,3.82Z"/><path fill="#647ca8" d="M761.69,611.07H728.81a1.47,1.47,0,1,1,0-2.94h32.88a1.47,1.47,0,1,1,0,2.94Z"/><path fill="#647ca8" d="M833.39,611.07h-53a1.47,1.47,0,0,1,0-2.94h53a1.47,1.47,0,0,1,0,2.94Z"/><path fill="#647ca8" d="M903.79,611.07H855.26a1.47,1.47,0,0,1,0-2.94h48.53a1.47,1.47,0,0,1,0,2.94Z"/><path fill="#647ca8" d="M798.53,625.38H764.35a1.47,1.47,0,1,1,0-2.94h34.18a1.47,1.47,0,1,1,0,2.94Z"/><path fill="#647ca8" d="M903.79,625.38H822.45a1.47,1.47,0,1,1,0-2.94h81.34a1.47,1.47,0,1,1,0,2.94Z"/><path fill="#647ca8" d="M766.4,639.69H728.81a1.47,1.47,0,1,1,0-2.94H766.4a1.47,1.47,0,1,1,0,2.94Z"/><path fill="#647ca8" d="M850.47,639.69H762.3a1.47,1.47,0,1,1,0-2.94h88.17a1.47,1.47,0,0,1,0,2.94Z"/><path fill="#647ca8" d="M903.79,639.69h-33.5a1.47,1.47,0,1,1,0-2.94h33.5a1.47,1.47,0,0,1,0,2.94Z"/><path fill="#647ca8" d="M766.41,654h-37.6a1.47,1.47,0,1,1,0-2.94h37.6a1.47,1.47,0,1,1,0,2.94Z"/><path fill="#647ca8" d="M903.79,654H784.86a1.47,1.47,0,1,1,0-2.94H903.79a1.47,1.47,0,0,1,0,2.94Z"/><path fill="#647ca8" d="M833.39,672.51H728.81a1.47,1.47,0,1,1,0-2.94H833.39a1.47,1.47,0,1,1,0,2.94Z"/><path fill="#647ca8" d="M903.79,672.51H855.26a1.47,1.47,0,1,1,0-2.94h48.53a1.47,1.47,0,1,1,0,2.94Z"/><path fill="#647ca8" d="M761.62,686.82H728.81a1.47,1.47,0,1,1,0-2.94h32.81a1.47,1.47,0,0,1,0,2.94Z"/><path fill="#647ca8" d="M903.79,686.82h-121a1.47,1.47,0,1,1,0-2.94h121a1.47,1.47,0,0,1,0,2.94Z"/><path fill="#647ca8" d="M766.4,701.13H728.81a1.47,1.47,0,1,1,0-2.94H766.4a1.47,1.47,0,1,1,0,2.94Z"/><path fill="#647ca8" d="M850.47,701.13H784.18a1.47,1.47,0,1,1,0-2.94h66.29a1.47,1.47,0,1,1,0,2.94Z"/><path fill="#647ca8" d="M903.79,701.13h-33.5a1.47,1.47,0,1,1,0-2.94h33.5a1.47,1.47,0,1,1,0,2.94Z"/><path fill="#647ca8" d="M802,715.44H728.81a1.47,1.47,0,1,1,0-2.94H802a1.47,1.47,0,0,1,0,2.94Z"/><path fill="#647ca8" d="M903.79,715.44H820.4a1.47,1.47,0,1,1,0-2.94h83.39a1.47,1.47,0,0,1,0,2.94Z"/><path fill="#647ca8" d="M515.37,394.49h-122a1.59,1.59,0,1,1,0-3.18h122a1.59,1.59,0,1,1,0,3.18Z"/><path fill="#647ca8" d="M367.81,394.49H311.18a1.59,1.59,0,1,1,0-3.18h56.63a1.59,1.59,0,0,1,0,3.18Z"/><path fill="#647ca8" d="M515.37,408.8H477.08a1.59,1.59,0,1,1,0-3.18h38.29a1.59,1.59,0,1,1,0,3.18Z"/><path fill="#647ca8" d="M452.36,408.8H311.18a1.59,1.59,0,1,1,0-3.18H452.36a1.59,1.59,0,0,1,0,3.18Z"/><path fill="#647ca8" d="M515.37,423.11H471.5a1.59,1.59,0,1,1,0-3.18h43.87a1.59,1.59,0,1,1,0,3.18Z"/><path fill="#647ca8" d="M450.76,423.11H373.39a1.59,1.59,0,0,1,0-3.18h77.37a1.59,1.59,0,1,1,0,3.18Z"/><path fill="#647ca8" d="M350.26,423.11H311.18a1.59,1.59,0,1,1,0-3.18h39.08a1.59,1.59,0,1,1,0,3.18Z"/><path fill="#647ca8" d="M515.37,437.42H430a1.59,1.59,0,1,1,0-3.18h85.35a1.59,1.59,0,1,1,0,3.18Z"/><path fill="#647ca8" d="M408.49,437.42H311.18a1.59,1.59,0,1,1,0-3.18h97.31a1.59,1.59,0,0,1,0,3.18Z"/><path fill="#647ca8" d="M1056.06,743.55H1030.4a1.3,1.3,0,1,1,0-2.6h25.66a1.3,1.3,0,0,1,0,2.6Z"/><path fill="#647ca8" d="M1015.82,743.55H974.46a1.3,1.3,0,0,1,0-2.6h41.36a1.3,1.3,0,1,1,0,2.6Z"/><path fill="#647ca8" d="M957.39,743.55H919.53a1.3,1.3,0,0,1,0-2.6h37.86a1.3,1.3,0,1,1,0,2.6Z"/><path fill="#647ca8" d="M1028.33,757.86h-26.67a1.3,1.3,0,1,1,0-2.6h26.67a1.3,1.3,0,0,1,0,2.6Z"/><path fill="#647ca8" d="M983,757.86H919.53a1.3,1.3,0,1,1,0-2.6H983a1.3,1.3,0,0,1,0,2.6Z"/><path fill="#647ca8" d="M1056.06,772.17h-29.33a1.3,1.3,0,0,1,0-2.6h29.33a1.3,1.3,0,0,1,0,2.6Z"/><path fill="#647ca8" d="M1029.93,772.17h-68.8a1.3,1.3,0,0,1,0-2.6h68.8a1.3,1.3,0,0,1,0,2.6Z"/><path fill="#647ca8" d="M945.66,772.17H919.53a1.3,1.3,0,0,1,0-2.6h26.13a1.3,1.3,0,1,1,0,2.6Z"/><path fill="#647ca8" d="M1056.06,786.48h-29.33a1.3,1.3,0,1,1,0-2.6h29.33a1.3,1.3,0,1,1,0,2.6Z"/><path fill="#647ca8" d="M1012.33,786.48h-92.8a1.3,1.3,0,1,1,0-2.6h92.8a1.3,1.3,0,0,1,0,2.6Z"/><path fill="#647ca8" d="M1056.06,685.77h-81.6a1.3,1.3,0,0,1,0-2.6h81.6a1.3,1.3,0,0,1,0,2.6Z"/><path fill="#647ca8" d="M957.39,685.77H919.53a1.3,1.3,0,1,1,0-2.6h37.86a1.3,1.3,0,0,1,0,2.6Z"/><path fill="#647ca8" d="M1056.06,700.08h-25.6a1.3,1.3,0,1,1,0-2.6h25.6a1.3,1.3,0,1,1,0,2.6Z"/><path fill="#647ca8" d="M1013.93,700.08h-94.4a1.3,1.3,0,1,1,0-2.6h94.4a1.3,1.3,0,1,1,0,2.6Z"/><path fill="#647ca8" d="M1056.06,714.39h-29.33a1.3,1.3,0,0,1,0-2.6h29.33a1.3,1.3,0,0,1,0,2.6Z"/><path fill="#647ca8" d="M1012.86,714.39H961.13a1.3,1.3,0,1,1,0-2.6h51.73a1.3,1.3,0,0,1,0,2.6Z"/><path fill="#647ca8" d="M945.66,714.39H919.53a1.3,1.3,0,1,1,0-2.6h26.13a1.3,1.3,0,1,1,0,2.6Z"/><path fill="#647ca8" d="M1056.06,728.7H999a1.3,1.3,0,1,1,0-2.6h57.07a1.3,1.3,0,1,1,0,2.6Z"/><path fill="#647ca8" d="M984.59,728.7H919.53a1.3,1.3,0,1,1,0-2.6h65.06a1.3,1.3,0,1,1,0,2.6Z"/><path fill="#647ca8" d="M399.71,617.08H382.83a1.06,1.06,0,1,1,0-2.11h16.88a1.06,1.06,0,1,1,0,2.11Z"/><path fill="#647ca8" d="M373.23,617.08H346a1.06,1.06,0,0,1,0-2.11h27.22a1.06,1.06,0,1,1,0,2.11Z"/><path fill="#647ca8" d="M334.78,617.08H309.86a1.06,1.06,0,0,1,0-2.11h24.92a1.06,1.06,0,1,1,0,2.11Z"/><path fill="#647ca8" d="M381.46,631.39H363.91a1.06,1.06,0,0,1,0-2.11h17.55a1.06,1.06,0,1,1,0,2.11Z"/><path fill="#647ca8" d="M351.63,631.39H309.86a1.06,1.06,0,0,1,0-2.11h41.77a1.06,1.06,0,0,1,0,2.11Z"/><path fill="#647ca8" d="M399.71,645.7h-19.3a1.06,1.06,0,1,1,0-2.11h19.3a1.06,1.06,0,1,1,0,2.11Z"/><path fill="#647ca8" d="M382.51,645.7H337.24a1.06,1.06,0,1,1,0-2.11h45.27a1.06,1.06,0,1,1,0,2.11Z"/><path fill="#647ca8" d="M327.06,645.7h-17.2a1.06,1.06,0,0,1,0-2.11h17.2a1.06,1.06,0,0,1,0,2.11Z"/><path fill="#647ca8" d="M399.71,660h-19.3a1.06,1.06,0,1,1,0-2.11h19.3a1.06,1.06,0,1,1,0,2.11Z"/><path fill="#647ca8" d="M370.93,660H309.86a1.06,1.06,0,0,1,0-2.11h61.07a1.06,1.06,0,1,1,0,2.11Z"/><path fill="#647ca8" d="M517.62,735.92H499.55a1.09,1.09,0,0,1,0-2.18h18.07a1.09,1.09,0,0,1,0,2.18Z"/><path fill="#647ca8" d="M489.28,735.92H460.14a1.09,1.09,0,0,1,0-2.18h29.14a1.09,1.09,0,0,1,0,2.18Z"/><path fill="#647ca8" d="M448.12,735.92H421.45a1.09,1.09,0,0,1,0-2.18h26.67a1.09,1.09,0,0,1,0,2.18Z"/><path fill="#647ca8" d="M498.09,750.23H479.3a1.09,1.09,0,0,1,0-2.18h18.79a1.09,1.09,0,1,1,0,2.18Z"/><path fill="#647ca8" d="M466.15,750.23h-44.7a1.09,1.09,0,1,1,0-2.18h44.7a1.09,1.09,0,0,1,0,2.18Z"/><path fill="#647ca8" d="M517.62,764.54H497a1.09,1.09,0,0,1,0-2.18h20.66a1.09,1.09,0,0,1,0,2.18Z"/><path fill="#647ca8" d="M499.21,764.54H450.75a1.09,1.09,0,0,1,0-2.18h48.46a1.09,1.09,0,0,1,0,2.18Z"/><path fill="#647ca8" d="M439.86,764.54H421.45a1.09,1.09,0,0,1,0-2.18h18.41a1.09,1.09,0,0,1,0,2.18Z"/><path fill="#647ca8" d="M517.62,778.85H497a1.09,1.09,0,1,1,0-2.18h20.66a1.09,1.09,0,0,1,0,2.18Z"/><path fill="#647ca8" d="M486.82,778.85H421.45a1.09,1.09,0,1,1,0-2.18h65.37a1.09,1.09,0,0,1,0,2.18Z"/><path fill="#647ca8" d="M439.52,661.59H421.45a1.09,1.09,0,1,1,0-2.18h18.07a1.09,1.09,0,0,1,0,2.18Z"/><path fill="#647ca8" d="M478.93,661.59H449.79a1.09,1.09,0,0,1,0-2.18h29.14a1.09,1.09,0,0,1,0,2.18Z"/><path fill="#647ca8" d="M517.62,661.59H491a1.09,1.09,0,1,1,0-2.18h26.67a1.09,1.09,0,0,1,0,2.18Z"/><path fill="#647ca8" d="M459.77,675.91H441a1.1,1.1,0,0,1,0-2.19h18.79a1.1,1.1,0,0,1,0,2.19Z"/><path fill="#647ca8" d="M517.62,675.91h-44.7a1.1,1.1,0,0,1,0-2.19h44.7a1.1,1.1,0,0,1,0,2.19Z"/><path fill="#647ca8" d="M442.11,690.22H421.45a1.1,1.1,0,0,1,0-2.19h20.66a1.1,1.1,0,0,1,0,2.19Z"/><path fill="#647ca8" d="M488.32,690.22H439.86a1.1,1.1,0,0,1,0-2.19h48.46a1.1,1.1,0,0,1,0,2.19Z"/><path fill="#647ca8" d="M517.62,690.22H499.21a1.1,1.1,0,0,1,0-2.19h18.41a1.1,1.1,0,0,1,0,2.19Z"/><path fill="#647ca8" d="M442.11,704.53H421.45a1.09,1.09,0,0,1,0-2.18h20.66a1.09,1.09,0,0,1,0,2.18Z"/><path fill="#647ca8" d="M517.62,704.53H452.25a1.09,1.09,0,0,1,0-2.18h65.37a1.09,1.09,0,0,1,0,2.18Z"/><path fill="#647ca8" d="M327.82,729H311.18a1,1,0,1,1,0-2.09h16.64a1,1,0,0,1,0,2.09Z"/><path fill="#647ca8" d="M364.09,729H337.27a1,1,0,1,1,0-2.09h26.82a1,1,0,1,1,0,2.09Z"/><path fill="#647ca8" d="M399.71,729H375.16a1,1,0,1,1,0-2.09h24.55a1,1,0,1,1,0,2.09Z"/><path fill="#647ca8" d="M346.46,743.26h-17.3a1,1,0,0,1,0-2.09h17.3a1,1,0,0,1,0,2.09Z"/><path fill="#647ca8" d="M399.71,743.26H358.56a1,1,0,1,1,0-2.09h41.15a1,1,0,1,1,0,2.09Z"/><path fill="#647ca8" d="M330.2,757.57h-19a1,1,0,1,1,0-2.09h19a1,1,0,1,1,0,2.09Z"/><path fill="#647ca8" d="M372.74,757.57H328.13a1,1,0,1,1,0-2.09h44.61a1,1,0,0,1,0,2.09Z"/><path fill="#647ca8" d="M399.71,757.57H382.77a1,1,0,1,1,0-2.09h16.94a1,1,0,1,1,0,2.09Z"/><path fill="#647ca8" d="M330.2,771.88h-19a1,1,0,1,1,0-2.09h19a1,1,0,1,1,0,2.09Z"/><path fill="#647ca8" d="M399.71,771.88H339.54a1,1,0,1,1,0-2.09h60.17a1,1,0,1,1,0,2.09Z"/><rect width="62.96" height="27.65" x="918.3" y="450.93" fill="#5c96d6" transform="rotate(180 949.78 464.76)"/><path fill="#fff" d="M934.69,466.32h-10.1a1.56,1.56,0,1,1,0-3.12h10.1a1.56,1.56,0,0,1,0,3.12Z"/><path fill="#fff" d="M975,466.32h-29.6a1.56,1.56,0,1,1,0-3.12H975a1.56,1.56,0,0,1,0,3.12Z"/><rect width="62.96" height="27.65" x="918.3" y="625.16" fill="#5c96d6" transform="rotate(180 949.78 638.99)"/><path fill="#fff" d="M951.29,640.55h-26.7a1.56,1.56,0,1,1,0-3.12h26.7a1.56,1.56,0,1,1,0,3.12Z"/><path fill="#fff" d="M975,640.55H960.61a1.56,1.56,0,0,1,0-3.12H975a1.56,1.56,0,0,1,0,3.12Z"/><path fill="#647ca8" d="M1014.48,391.3H996.22a.86.86,0,1,1,0-1.72h18.26a.86.86,0,0,1,0,1.72Z"/><path fill="#647ca8" d="M1032,391.3h-18.12a.86.86,0,1,1,0-1.72H1032a.86.86,0,1,1,0,1.72Z"/><path fill="#647ca8" d="M1056.06,391.3h-16.6a.86.86,0,1,1,0-1.72h16.6a.86.86,0,0,1,0,1.72Z"/><path fill="#647ca8" d="M1020.06,405.61H996.22a.86.86,0,0,1,0-1.72h23.84a.86.86,0,0,1,0,1.72Z"/><path fill="#647ca8" d="M1056.06,405.61h-29.22a.86.86,0,0,1,0-1.72h29.22a.86.86,0,0,1,0,1.72Z"/><path fill="#647ca8" d="M1005.8,419.92h-9.58a.86.86,0,0,1,0-1.72h9.58a.86.86,0,1,1,0,1.72Z"/><path fill="#647ca8" d="M1029.41,419.92h-17.53a.86.86,0,0,1,0-1.72h17.53a.86.86,0,1,1,0,1.72Z"/><path fill="#647ca8" d="M1056.06,419.92h-20.8a.86.86,0,0,1,0-1.72h20.8a.86.86,0,0,1,0,1.72Z"/><path fill="#647ca8" d="M1017,434.23h-20.8a.86.86,0,1,1,0-1.72H1017a.86.86,0,1,1,0,1.72Z"/><path fill="#647ca8" d="M1056.06,434.23h-32.73a.86.86,0,0,1,0-1.72h32.73a.86.86,0,0,1,0,1.72Z"/><path fill="#647ca8" d="M1013.18,620.35H994.93a.86.86,0,0,1,0-1.72h18.25a.86.86,0,0,1,0,1.72Z"/><path fill="#647ca8" d="M1030.69,620.35h-18.13a.86.86,0,0,1,0-1.72h18.13a.86.86,0,1,1,0,1.72Z"/><path fill="#647ca8" d="M1054.76,620.35h-16.59a.86.86,0,1,1,0-1.72h16.59a.86.86,0,1,1,0,1.72Z"/><path fill="#647ca8" d="M1018.77,634.66H994.93a.86.86,0,0,1,0-1.72h23.84a.86.86,0,0,1,0,1.72Z"/><path fill="#647ca8" d="M1054.76,634.66h-29.21a.86.86,0,0,1,0-1.72h29.21a.86.86,0,0,1,0,1.72Z"/><path fill="#647ca8" d="M1004.51,649h-9.58a.86.86,0,0,1,0-1.72h9.58a.86.86,0,1,1,0,1.72Z"/><path fill="#647ca8" d="M1028.12,649h-17.53a.86.86,0,0,1,0-1.72h17.53a.86.86,0,0,1,0,1.72Z"/><path fill="#647ca8" d="M1054.76,649H1034a.86.86,0,1,1,0-1.72h20.8a.86.86,0,1,1,0,1.72Z"/><path fill="#647ca8" d="M1015.73,663.28h-20.8a.86.86,0,0,1,0-1.72h20.8a.86.86,0,1,1,0,1.72Z"/><path fill="#647ca8" d="M1054.76,663.28H1022a.86.86,0,1,1,0-1.72h32.72a.86.86,0,1,1,0,1.72Z"/><path fill="#647ca8" d="M981.26,391.32H962.05a.89.89,0,0,1,0-1.77h19.21a.89.89,0,0,1,0,1.77Z"/><path fill="#647ca8" d="M962.71,391.32H943.63a.89.89,0,0,1,0-1.77h19.08a.89.89,0,0,1,0,1.77Z"/><path fill="#647ca8" d="M935.76,391.32H918.3a.89.89,0,0,1,0-1.77h17.46a.89.89,0,1,1,0,1.77Z"/><path fill="#647ca8" d="M981.26,405.63H956.17a.88.88,0,0,1,0-1.76h25.09a.88.88,0,0,1,0,1.76Z"/><path fill="#647ca8" d="M949,405.63H918.3a.88.88,0,0,1,0-1.76H949a.88.88,0,1,1,0,1.76Z"/><path fill="#647ca8" d="M981.26,419.94H971.18a.88.88,0,1,1,0-1.76h10.08a.88.88,0,1,1,0,1.76Z"/><path fill="#647ca8" d="M964.78,419.94H946.34a.88.88,0,0,1,0-1.76h18.44a.88.88,0,1,1,0,1.76Z"/><path fill="#647ca8" d="M940.19,419.94H918.3a.88.88,0,0,1,0-1.76h21.89a.88.88,0,0,1,0,1.76Z"/><path fill="#647ca8" d="M981.26,434.25H959.37a.88.88,0,0,1,0-1.76h21.89a.88.88,0,1,1,0,1.76Z"/><path fill="#647ca8" d="M952.73,434.25H918.3a.88.88,0,1,1,0-1.76h34.43a.88.88,0,1,1,0,1.76Z"/><path fill="#647ca8" d="M1054.84,508.46H1037a.85.85,0,1,1,0-1.7h17.88a.85.85,0,0,1,0,1.7Z"/><path fill="#647ca8" d="M1037.57,508.46h-17.76a.85.85,0,1,1,0-1.7h17.76a.85.85,0,0,1,0,1.7Z"/><path fill="#647ca8" d="M1012.48,508.46H996.22a.85.85,0,0,1,0-1.7h16.26a.85.85,0,1,1,0,1.7Z"/><path fill="#647ca8" d="M1054.84,522.77h-23.35a.85.85,0,1,1,0-1.7h23.35a.85.85,0,1,1,0,1.7Z"/><path fill="#647ca8" d="M1024.84,522.77H996.22a.85.85,0,0,1,0-1.7h28.62a.85.85,0,1,1,0,1.7Z"/><path fill="#647ca8" d="M1054.84,537.08h-9.39a.85.85,0,1,1,0-1.7h9.39a.85.85,0,0,1,0,1.7Z"/><path fill="#647ca8" d="M1039.5,537.08h-17.17a.85.85,0,1,1,0-1.7h17.17a.85.85,0,1,1,0,1.7Z"/><path fill="#647ca8" d="M1016.6,537.08H996.22a.85.85,0,0,1,0-1.7h20.38a.85.85,0,1,1,0,1.7Z"/><path fill="#647ca8" d="M1054.84,551.39h-20.38a.85.85,0,1,1,0-1.7h20.38a.85.85,0,1,1,0,1.7Z"/><path fill="#647ca8" d="M1028.28,551.39H996.22a.85.85,0,0,1,0-1.7h32.06a.85.85,0,1,1,0,1.7Z"/><path fill="#647ca8" d="M1007.15,452.53H995.83a.86.86,0,0,1,0-1.72h11.32a.86.86,0,0,1,0,1.72Z"/><path fill="#647ca8" d="M1031.83,452.53h-18.25a.86.86,0,0,1,0-1.72h18.25a.86.86,0,0,1,0,1.72Z"/><path fill="#647ca8" d="M1056.06,452.53h-16.71a.86.86,0,1,1,0-1.72h16.71a.86.86,0,0,1,0,1.72Z"/><path fill="#647ca8" d="M1019.83,466.85h-11.76a.87.87,0,1,1,0-1.73h11.76a.87.87,0,0,1,0,1.73Z"/><path fill="#647ca8" d="M1056.06,466.85h-28a.87.87,0,0,1,0-1.73h28a.87.87,0,0,1,0,1.73Z"/><path fill="#647ca8" d="M1008.77,481.16H995.83a.87.87,0,0,1,0-1.73h12.94a.87.87,0,0,1,0,1.73Z"/><path fill="#647ca8" d="M1037.71,481.16h-30.35a.87.87,0,0,1,0-1.73h30.35a.87.87,0,0,1,0,1.73Z"/><path fill="#647ca8" d="M1056.06,481.16h-11.53a.87.87,0,0,1,0-1.73h11.53a.87.87,0,0,1,0,1.73Z"/><path fill="#647ca8" d="M1008.77,495.47H995.83a.87.87,0,0,1,0-1.73h12.94a.87.87,0,0,1,0,1.73Z"/><path fill="#647ca8" d="M1056.06,495.47h-40.94a.87.87,0,0,1,0-1.73h40.94a.87.87,0,0,1,0,1.73Z"/><path fill="#647ca8" d="M928.91,571.36H916.79a.89.89,0,0,1,0-1.78h12.12a.89.89,0,1,1,0,1.78Z"/><path fill="#647ca8" d="M955.32,571.36H935.79a.89.89,0,0,1,0-1.78h19.53a.89.89,0,1,1,0,1.78Z"/><path fill="#647ca8" d="M981.26,571.36H963.38a.89.89,0,1,1,0-1.78h17.88a.89.89,0,0,1,0,1.78Z"/><path fill="#647ca8" d="M942.48,585.68H929.89a.9.9,0,0,1,0-1.79h12.59a.9.9,0,0,1,0,1.79Z"/><path fill="#647ca8" d="M981.26,585.68h-30a.9.9,0,0,1,0-1.79h30a.9.9,0,0,1,0,1.79Z"/><path fill="#647ca8" d="M930.64,600H916.79a.9.9,0,0,1,0-1.79h13.85a.9.9,0,1,1,0,1.79Z"/><path fill="#647ca8" d="M961.62,600H929.13a.9.9,0,0,1,0-1.79h32.49a.9.9,0,0,1,0,1.79Z"/><path fill="#647ca8" d="M981.26,600H968.92a.9.9,0,0,1,0-1.79h12.34a.9.9,0,0,1,0,1.79Z"/><path fill="#647ca8" d="M930.64,614.3H916.79a.9.9,0,0,1,0-1.79h13.85a.9.9,0,1,1,0,1.79Z"/><path fill="#647ca8" d="M981.26,614.3H937.44a.9.9,0,0,1,0-1.79h43.82a.9.9,0,0,1,0,1.79Z"/><path fill="#647ca8" d="M981.26,497H969.15a.89.89,0,1,1,0-1.78h12.11a.89.89,0,0,1,0,1.78Z"/><path fill="#647ca8" d="M962.26,497H942.73a.89.89,0,1,1,0-1.78h19.53a.89.89,0,0,1,0,1.78Z"/><path fill="#647ca8" d="M934.67,497H916.79a.89.89,0,1,1,0-1.78h17.88a.89.89,0,1,1,0,1.78Z"/><path fill="#647ca8" d="M968.16,511.35H955.57a.89.89,0,0,1,0-1.78h12.59a.89.89,0,1,1,0,1.78Z"/><path fill="#647ca8" d="M946.76,511.35h-30a.89.89,0,1,1,0-1.78h30a.89.89,0,0,1,0,1.78Z"/><path fill="#647ca8" d="M981.26,525.66H967.41a.89.89,0,1,1,0-1.78h13.85a.89.89,0,0,1,0,1.78Z"/><path fill="#647ca8" d="M968.92,525.66H936.44a.89.89,0,1,1,0-1.78h32.48a.89.89,0,1,1,0,1.78Z"/><path fill="#647ca8" d="M929.13,525.66H916.79a.89.89,0,0,1,0-1.78h12.34a.89.89,0,1,1,0,1.78Z"/><path fill="#647ca8" d="M981.26,540H967.41a.89.89,0,0,1,0-1.78h13.85a.89.89,0,0,1,0,1.78Z"/><path fill="#647ca8" d="M960.61,540H916.79a.89.89,0,0,1,0-1.78h43.82a.89.89,0,0,1,0,1.78Z"/><path fill="#647ca8" d="M1055.18,564.4H1044a.85.85,0,0,1-.85-.85.86.86,0,0,1,.85-.86h11.16a.86.86,0,0,1,.85.86A.85.85,0,0,1,1055.18,564.4Z"/><path fill="#647ca8" d="M1037.69,564.4h-18a.86.86,0,1,1,0-1.71h18a.86.86,0,0,1,.85.86A.85.85,0,0,1,1037.69,564.4Z"/><path fill="#647ca8" d="M1012.29,564.4H995.83a.86.86,0,1,1,0-1.71h16.46a.86.86,0,1,1,0,1.71Z"/><path fill="#647ca8" d="M1043.12,578.72h-11.59a.86.86,0,0,1,0-1.72h11.59a.86.86,0,0,1,0,1.72Z"/><path fill="#647ca8" d="M1023.42,578.72H995.83a.86.86,0,0,1,0-1.72h27.59a.86.86,0,0,1,0,1.72Z"/><path fill="#647ca8" d="M1055.18,593h-12.75a.86.86,0,1,1,0-1.72h12.75a.86.86,0,0,1,0,1.72Z"/><path fill="#647ca8" d="M1043.82,593h-29.91a.86.86,0,0,1,0-1.72h29.91a.86.86,0,0,1,0,1.72Z"/><path fill="#647ca8" d="M1007.19,593H995.83a.86.86,0,0,1,0-1.72h11.36a.86.86,0,1,1,0,1.72Z"/><path fill="#647ca8" d="M1055.18,607.34h-12.76a.86.86,0,0,1,0-1.72h12.76a.86.86,0,0,1,0,1.72Z"/><path fill="#647ca8" d="M1036.17,607.34H995.83a.86.86,0,0,1,0-1.72h40.34a.86.86,0,0,1,0,1.72Z"/><path fill="#647ca8" d="M650.28,615.62h-70.1a1.21,1.21,0,1,1,0-2.41h70.1a1.21,1.21,0,0,1,0,2.41Z"/><path fill="#647ca8" d="M565.51,615.62H530.86a1.21,1.21,0,0,1,0-2.41h34.65a1.21,1.21,0,1,1,0,2.41Z"/><path fill="#647ca8" d="M650.28,629.93h-22a1.21,1.21,0,1,1,0-2.41h22a1.21,1.21,0,0,1,0,2.41Z"/><path fill="#647ca8" d="M614.08,629.93H530.86a1.21,1.21,0,0,1,0-2.41h83.22a1.21,1.21,0,1,1,0,2.41Z"/><path fill="#647ca8" d="M650.28,644.24h-25.2a1.21,1.21,0,0,1,0-2.41h25.2a1.21,1.21,0,0,1,0,2.41Z"/><path fill="#647ca8" d="M613.17,644.24H568.72a1.21,1.21,0,0,1,0-2.41h44.45a1.21,1.21,0,0,1,0,2.41Z"/><path fill="#647ca8" d="M555.43,644.24H530.86a1.21,1.21,0,0,1,0-2.41h24.57a1.21,1.21,0,1,1,0,2.41Z"/><path fill="#647ca8" d="M650.28,658.55h-49a1.21,1.21,0,0,1,0-2.41h49a1.21,1.21,0,0,1,0,2.41Z"/><path fill="#647ca8" d="M588.88,658.55h-58a1.21,1.21,0,0,1,0-2.41h58a1.21,1.21,0,1,1,0,2.41Z"/><path fill="#647ca8" d="M795.52,437.47H725.41a1.21,1.21,0,0,1,0-2.41h70.11a1.21,1.21,0,0,1,0,2.41Z"/><path fill="#647ca8" d="M844.83,437.47H810.18a1.21,1.21,0,0,1,0-2.41h34.65a1.21,1.21,0,0,1,0,2.41Z"/><path fill="#647ca8" d="M747.41,451.78h-22a1.21,1.21,0,0,1,0-2.41h22a1.21,1.21,0,0,1,0,2.41Z"/><path fill="#647ca8" d="M844.83,451.78H761.61a1.21,1.21,0,0,1,0-2.41h83.22a1.21,1.21,0,0,1,0,2.41Z"/><path fill="#647ca8" d="M750.61,466.09h-25.2a1.21,1.21,0,0,1,0-2.41h25.2a1.21,1.21,0,1,1,0,2.41Z"/><path fill="#647ca8" d="M807,466.09H762.53a1.21,1.21,0,1,1,0-2.41H807a1.21,1.21,0,1,1,0,2.41Z"/><path fill="#647ca8" d="M844.83,466.09H820.26a1.21,1.21,0,0,1,0-2.41h24.57a1.21,1.21,0,0,1,0,2.41Z"/><path fill="#647ca8" d="M774.44,480.4h-49a1.21,1.21,0,0,1,0-2.41h49a1.21,1.21,0,0,1,0,2.41Z"/><path fill="#647ca8" d="M844.83,480.4h-58a1.21,1.21,0,0,1,0-2.41h58a1.21,1.21,0,0,1,0,2.41Z"/><path fill="#647ca8" d="M650.28,674.47h-70.1a1.21,1.21,0,1,1,0-2.41h70.1a1.21,1.21,0,0,1,0,2.41Z"/><path fill="#647ca8" d="M565.51,674.47H530.86a1.21,1.21,0,0,1,0-2.41h34.65a1.21,1.21,0,1,1,0,2.41Z"/><path fill="#647ca8" d="M708.21,688.78H628.29a1.2,1.2,0,1,1,0-2.4h79.92a1.2,1.2,0,0,1,0,2.4Z"/><path fill="#647ca8" d="M614.08,688.78H530.86a1.2,1.2,0,0,1,0-2.4h83.22a1.2,1.2,0,1,1,0,2.4Z"/><path fill="#647ca8" d="M708.21,703.09H625.08a1.21,1.21,0,0,1,0-2.41h83.13a1.21,1.21,0,0,1,0,2.41Z"/><path fill="#647ca8" d="M613.17,703.09H568.72a1.21,1.21,0,0,1,0-2.41h44.45a1.21,1.21,0,0,1,0,2.41Z"/><path fill="#647ca8" d="M555.43,703.09H530.86a1.21,1.21,0,0,1,0-2.41h24.57a1.21,1.21,0,1,1,0,2.41Z"/><path fill="#647ca8" d="M708.21,717.4h-107a1.2,1.2,0,0,1,0-2.4h107a1.2,1.2,0,0,1,0,2.4Z"/><path fill="#647ca8" d="M588.88,717.4h-58a1.2,1.2,0,0,1,0-2.4h58a1.2,1.2,0,1,1,0,2.4Z"/><path fill="#647ca8" d="M610.62,781.91H528.78a1.22,1.22,0,0,1,0-2.44h81.84a1.22,1.22,0,1,1,0,2.44Z"/><path fill="#647ca8" d="M708.21,781.91H625.16a1.22,1.22,0,1,1,0-2.44h83.05a1.22,1.22,0,0,1,0,2.44Z"/><path fill="#647ca8" d="M613.9,796.22H528.78a1.22,1.22,0,0,1,0-2.44H613.9a1.22,1.22,0,1,1,0,2.44Z"/><path fill="#647ca8" d="M671.61,796.22H626.1a1.22,1.22,0,1,1,0-2.44h45.51a1.22,1.22,0,1,1,0,2.44Z"/><path fill="#647ca8" d="M708.21,796.22h-23a1.22,1.22,0,0,1,0-2.44h23a1.22,1.22,0,0,1,0,2.44Z"/><path fill="#647ca8" d="M638.3,810.53H528.78a1.22,1.22,0,1,1,0-2.44H638.3a1.22,1.22,0,1,1,0,2.44Z"/><path fill="#647ca8" d="M708.21,810.53H651a1.22,1.22,0,0,1,0-2.44h57.24a1.22,1.22,0,1,1,0,2.44Z"/><g clip-path="url(#g)"><ellipse cx="688.08" cy="688.57" fill="#5c96d6" rx="31.95" ry="29.01"/><path fill="#5c96d6" d="M686.45,668.85a5.38,5.38,0,0,1-5.38-5.25l-.32-13.36A5.38,5.38,0,1,1,691.5,650l.33,13.36a5.38,5.38,0,0,1-5.25,5.51Z"/><path fill="#5c96d6" d="M686,643.75a5.38,5.38,0,0,0-5.12,4.23l.2,8.13a5.38,5.38,0,0,0,5.38,5.24h.13a5.38,5.38,0,0,0,5.12-4.23l-.2-8.12A5.39,5.39,0,0,0,686,643.75Z"/><path fill="#5c96d6" d="M702.75,629.57c0,12.15-9.78,25.92-17.85,25.92-6.11,0-17.85-13.77-17.85-25.92s8-22,17.85-22S702.75,617.42,702.75,629.57Z"/><polygon fill="#5c96d6" points="687.48 674.5 681.79 665.83 690.84 666.74 687.48 674.5"/><polygon fill="#5c96d6" points="679.22 667.89 682.48 684.03 692.75 684.03 694.87 664.79 686.07 667.15 679.22 667.89"/><path fill="#5c96d6" d="M680.14,658.57a.43.43,0,0,1,.64.29c.27,1.51,1.3,5.38,4.8,7.07,3.79,1.82,5.77-5.64,6.24-7.75a.43.43,0,0,1,.62-.28l5.74,3a.44.44,0,0,1,.23.46c-.27,1.52-1.68,8.24-6.48,11.23a.43.43,0,0,1-.56-.09l-4.63-5.35a.44.44,0,0,0-.67,0l-4.3,5.45a.42.42,0,0,1-.6.08c-1.27-1-5.76-4.86-7.39-10a.45.45,0,0,1,.2-.51Z"/><path fill="#5c96d6" d="M668.71,640.69c-.41-.88-.33-1.67.57-1.32,1.59.62,4.51,2.11,7,1.63,4.24-.82,2.77-2.61,10.92-2.61,4.9,0,4.56,1.79,9.13,1.63s5.54-3.75,5.21-1.63-2.63,8.46-3.91,10.27c-3.1,4.4-7,7.66-11.57,7.66s-7.66-3.26-10.59-6.19A42.89,42.89,0,0,1,668.71,640.69Z"/><path fill="#5c96d6" d="M667.82,637.74s1.3,2.12,1.14.65-1-17.28,3.91-17.93,17.27,1.14,21.19,0,8,3.91,7.82,15c0,0,.65,3.26,1.3-.33s1.14-12.71,0-17.44,2.94-6.19,3.59-8.31-3.59-.49-12.23-3.26-22.49-4.89-25.75,9C668.79,615.08,662.44,627.14,667.82,637.74Z"/><path fill="#5c96d6" d="M666.26,635.69c.22,2.37,1.07,4.24,1.89,4.16s1.3-2.07,1.08-4.44-1.07-4.24-1.89-4.17S666,633.31,666.26,635.69Z"/><path fill="#5c96d6" d="M700.83,635.3c-.4,2.35-.07,4.37.75,4.51s1.79-1.66,2.19-4,.06-4.38-.75-4.52S701.23,632.94,700.83,635.3Z"/></g><circle cx="561.94" cy="592.2" r="11.96" fill="#5c96d6"/><rect width="179.43" height="27.65" x="724.35" y="390.21" fill="#5c96d6"/><path fill="#fff" d="M862.63,405.94H774a1.91,1.91,0,1,1,0-3.82h88.65a1.91,1.91,0,1,1,0,3.82Z"/><circle cx="757.52" cy="418.65" r="11.96" fill="#5c96d6" transform="rotate(-76.77 757.5 418.66)"/><path fill="#fff" d="M657.29,751.05H582.11a1.91,1.91,0,0,1,0-3.82h75.18a1.91,1.91,0,1,1,0,3.82Z"/><g clip-path="url(#h)"><path fill="#5c96d6" d="M859,487.41h33.57s2.89-22.09,1.42-23.26-13.53-12-13.53-12l-15.93,2.15Z"/><ellipse cx="880.78" cy="502.4" fill="#5c96d6" rx="28.81" ry="26.16"/><path fill="#5c96d6" d="M879.3,484.62a4.85,4.85,0,0,1-4.84-4.73l-.3-12.06a4.85,4.85,0,1,1,9.7-.23l.3,12a4.86,4.86,0,0,1-4.74,5Z"/><path fill="#5c96d6" d="M878.89,462a4.84,4.84,0,0,0-4.61,3.82l.18,7.32a4.85,4.85,0,0,0,4.84,4.74h.12A4.83,4.83,0,0,0,884,474l-.18-7.33A4.85,4.85,0,0,0,878.89,462Z"/><path fill="#5c96d6" d="M894,449.19c0,11-8.82,23.37-16.1,23.37-5.51,0-16.1-12.41-16.1-23.37s7.21-19.84,16.1-19.84S894,438.23,894,449.19Z"/><path fill="#5c96d6" d="M870.41,433.32c-1.5.16-3.11,1.27-4.71,2.94a22.68,22.68,0,0,0-3.89,12.93c0,6,3.19,12.46,7,17.06-1.74-3.59-2.53-7.18-.35-11.55a132.3,132.3,0,0,0,4.85-12.78S876.37,432.66,870.41,433.32Z"/><path fill="#5c96d6" d="M868,465.19s7-9.74,8-18.54c0,0,3.87,5.06,8,5.48s4.77,12.67,4.77,12.67,2.4-4.05,3.22-6-16-21.39-16-21.39l-8,5.06-4.41,11.85.77,8.58,2.18,1.29Z"/><path fill="#5c96d6" d="M870.78,431.41A22.14,22.14,0,0,0,882.83,449c10,5.37,9,27.54,8.49,33.9a6.46,6.46,0,0,0,1.43,4.7,4.24,4.24,0,0,0,3.26,1.63c3.58,0,5.78-2.95,3.58-15.5s-3-14-5.58-30S870.64,425.23,870.78,431.41Z"/><path fill="#5c96d6" d="M876,438.85s-3.39,17.29-9.51,25.3,4.44,17.69,2.31,25.09c-1.35,4.71-10.43,1.84-10.37-10.57s-2-46.15,13.76-48S876,438.85,876,438.85Z"/></g><path fill="#647ca8" d="M844.81,498.8h-70.1a1.21,1.21,0,0,1,0-2.41h70.1a1.21,1.21,0,1,1,0,2.41Z"/><path fill="#647ca8" d="M760.05,498.8H725.4a1.21,1.21,0,1,1,0-2.41h34.65a1.21,1.21,0,0,1,0,2.41Z"/><path fill="#647ca8" d="M902.74,513.11H822.82a1.21,1.21,0,0,1,0-2.41h79.92a1.21,1.21,0,1,1,0,2.41Z"/><path fill="#647ca8" d="M808.62,513.11H725.4a1.21,1.21,0,1,1,0-2.41h83.22a1.21,1.21,0,0,1,0,2.41Z"/><path fill="#647ca8" d="M902.74,527.42H819.61a1.21,1.21,0,0,1,0-2.41h83.13a1.21,1.21,0,1,1,0,2.41Z"/><path fill="#647ca8" d="M807.7,527.42H763.25a1.21,1.21,0,0,1,0-2.41H807.7a1.21,1.21,0,0,1,0,2.41Z"/><path fill="#647ca8" d="M750,527.42H725.4a1.21,1.21,0,1,1,0-2.41H750a1.21,1.21,0,0,1,0,2.41Z"/><path fill="#647ca8" d="M902.74,541.73h-107a1.21,1.21,0,1,1,0-2.41h107a1.21,1.21,0,1,1,0,2.41Z"/><path fill="#647ca8" d="M783.41,541.73h-58a1.21,1.21,0,1,1,0-2.41h58a1.21,1.21,0,1,1,0,2.41Z"/><rect width="173.93" height="101.58" x="728.81" y="735.31" fill="#5c96d6"/><g clip-path="url(#i)"><polygon fill="#fff" points="702.59 266.06 465.13 833.02 348.61 856.14 249.55 833.02 249.55 255.24 702.59 241.7 702.59 266.06" opacity=".35"/><polygon fill="#fff" points="761.14 252.53 524.5 856.14 577.61 856.14 805.5 252.53 761.14 252.53" opacity=".35"/></g><path fill="url(#b)" d="M578,898.49H538.52a7.58,7.58,0,1,1,0-15.16H578a7.58,7.58,0,0,1,0,15.16Z"/><path fill="url(#j)" d="M500.12,898.49H460.69a7.58,7.58,0,1,1,0-15.16h39.43a7.58,7.58,0,0,1,0,15.16Z"/><path fill="url(#k)" d="M421.94,898.49h-1a7.58,7.58,0,0,1,0-15.16h1a7.58,7.58,0,1,1,0,15.16Z"/><path fill="#fdc8a9" d="M234.3,642.71c-2,3.69-4.15,7.32-6.23,11s-4.25,7.27-6.42,10.88c-4.31,7.24-8.74,14.41-13.19,21.57l.61-1.44c-3.29,9.28-6.6,18.56-10,27.8q-2.57,6.93-5.21,13.83c-1.81,4.59-3.55,9.21-5.43,13.78a3.22,3.22,0,0,1-6.14-1.84c.94-4.85,2-9.66,3-14.49s2.13-9.63,3.24-14.43c2.2-9.61,4.52-19.18,6.87-28.74a3.83,3.83,0,0,1,.3-.82l.31-.62c3.77-7.54,7.57-15.07,11.48-22.53,1.94-3.74,3.92-7.45,5.91-11.16s4-7.41,6.11-11.06a8.48,8.48,0,0,1,14.8,8.28Z"/><path fill="#f69c44" d="M182,731.41l3.43-12.68L188.78,706l6.61-25.43a5.08,5.08,0,0,1,.34-.9l.27-.53,11.44-22.55,5.67-11.3L218.72,634a9.38,9.38,0,1,1,16.82,8.32c-.14.28-.3.57-.46.83l-6.73,10.71-6.66,10.75-13.23,21.55.61-1.43-8.51,24.86L196.36,722l-4.13,12.46Z"/><path fill="#242444" d="M265.82,898.49s8.8,6.85,14.24,7.13c4.54.23,12.18,2.74,12,7.87s-33.36,3.22-34.24-.7,3.09-12.33,3.09-12.33Z"/><path fill="#242444" d="M180.92,894.11s7.24,8.49,12.5,9.86c4.41,1.15,11.38,5.14,10.18,10.14s-33.31-3.59-33.39-7.6,5.52-11.46,5.52-11.46Z"/><rect width="86.58" height="66.98" x="156.87" y="674.08" fill="#ffaede" transform="rotate(-8.74 200.045 707.287)"/><polygon fill="#ea88c7" points="237.87 667.9 233.76 668.53 243.21 730.01 161.74 742.53 162.46 747.25 248.04 734.1 237.87 667.9"/><path fill="#fff" d="M160.34,701.61l4.28-.66a8.29,8.29,0,0,0,.63,2.54.84.84,0,0,0,.9.34.82.82,0,0,0,.68-.41,2.57,2.57,0,0,0,0-1.31l-1.93-12.57,4.65-.71,1.7,11a18.49,18.49,0,0,1,.27,2.8,4.08,4.08,0,0,1-.3,1.58,3.71,3.71,0,0,1-1.55,1.65,8,8,0,0,1-2.8.91c-2,.31-3.53.13-4.53-.53a5.29,5.29,0,0,1-1.92-3.79c0-.23-.06-.4-.07-.52S160.34,701.71,160.34,701.61Z"/><path fill="#fff" d="M173.85,698.87c-.38-2.45-.22-4.23.46-5.34s2.05-1.83,4.08-2.14,3.55,0,4.53.8,1.67,2.51,2.05,5,.22,4.23-.46,5.34-2,1.82-4.08,2.13-3.56,0-4.54-.8S174.23,701.33,173.85,698.87Zm4.24-.65a11.39,11.39,0,0,0,.79,3.27,1.16,1.16,0,0,0,2.08-.29,20.1,20.1,0,0,0-1-6.7,1.16,1.16,0,0,0-2.07.35A11.62,11.62,0,0,0,178.09,698.22Z"/><path fill="#fff" d="M185.83,686.33l4.18-.65.82,5.32a3.64,3.64,0,0,1,1.12-1.29,3.75,3.75,0,0,1,1.6-.61,3.36,3.36,0,0,1,3.27.87q1.06,1.21,1.72,5.47a26.93,26.93,0,0,1,.33,3,4.61,4.61,0,0,1-.16,1.6,3,3,0,0,1-1.1,1.48,4.17,4.17,0,0,1-1.92.75,4.08,4.08,0,0,1-2-.16,4,4,0,0,1-1.65-1.07l.21,1.38-3.87.6Zm6.5,6a1.08,1.08,0,0,0-1,.76,5.45,5.45,0,0,0,0,2.25,13.64,13.64,0,0,0,.9,3.78,1.15,1.15,0,0,0,1.26.55,1,1,0,0,0,.89-.7,7.5,7.5,0,0,0-.12-2.58l-.06-.34a10.79,10.79,0,0,0-.79-3.25A1.07,1.07,0,0,0,192.33,692.35Z"/><path fill="#fff" d="M165.18,728.15l4.26-.65.08.49a3.54,3.54,0,0,0,.69,1.88,1.48,1.48,0,0,0,1.39.37,1.61,1.61,0,0,0,1.1-.61,1.59,1.59,0,0,0,.24-1.24c-.12-.81-.93-1.48-2.44-2l-.56-.22-.24-.08a15.71,15.71,0,0,1-3.86-1.85,4.58,4.58,0,0,1-1-1.26,5.13,5.13,0,0,1-.51-1.62,4.3,4.3,0,0,1,1-3.68,6.53,6.53,0,0,1,4-1.89,7,7,0,0,1,4.59.55,4.34,4.34,0,0,1,2.06,3.32c0,.07,0,.16,0,.28s0,.21,0,.27l-4.18.64,0-.2a2.83,2.83,0,0,0-.66-1.6,1.37,1.37,0,0,0-1.27-.39,1.5,1.5,0,0,0-1,.56,1.41,1.41,0,0,0-.24,1.11c.11.71,1,1.35,2.62,1.91l.69.25.55.2a10.68,10.68,0,0,1,3.46,1.71,4.27,4.27,0,0,1,.86,1.21,5.69,5.69,0,0,1,.47,1.56,4.88,4.88,0,0,1-1,4.1,6.53,6.53,0,0,1-4.23,2,6.91,6.91,0,0,1-4.74-.6,4.83,4.83,0,0,1-2.11-3.62c0-.11,0-.23-.05-.35A5.35,5.35,0,0,1,165.18,728.15Z"/><path fill="#fff" d="M186.35,726.19l3.92-.6,0,.31a4,4,0,0,1-.86,3.53,6.41,6.41,0,0,1-3.91,1.75,9,9,0,0,1-2.53.05,4.34,4.34,0,0,1-1.88-.63,3.76,3.76,0,0,1-1.26-1.61,15.13,15.13,0,0,1-.84-3.47,15.93,15.93,0,0,1-.27-3.76,3.89,3.89,0,0,1,.78-1.9,4.84,4.84,0,0,1,1.65-1.24,9.15,9.15,0,0,1,2.49-.72,8.2,8.2,0,0,1,2.61,0,4.12,4.12,0,0,1,1.9.78,3.37,3.37,0,0,1,1,1.27,11.16,11.16,0,0,1,.68,2.75l.23,1.51-6.8,1a.65.65,0,0,0,0,.14c0,.54.09.91.12,1.12a3.78,3.78,0,0,0,.62,1.79,1.29,1.29,0,0,0,1.23.34,1.37,1.37,0,0,0,1-.56,1.67,1.67,0,0,0,.18-1.26,3.3,3.3,0,0,0-.11-.49A.26.26,0,0,1,186.35,726.19ZM183.1,723l2.8-.43a.15.15,0,0,0,0-.06,6.23,6.23,0,0,0,0-.69,2.13,2.13,0,0,0-.57-1.3,1.36,1.36,0,0,0-1.17-.28,1.33,1.33,0,0,0-1,.6,2.45,2.45,0,0,0-.11,1.47c0,.18,0,.32.07.42S183.08,723,183.1,723Z"/><path fill="#fff" d="M200.77,728.49l-.42-1.11a5.74,5.74,0,0,1-1.57,1.31,5.94,5.94,0,0,1-2,.67,4,4,0,0,1-2.93-.53,3.73,3.73,0,0,1-.92-4.91,7.15,7.15,0,0,1,2.62-2l1.24-.6c1.48-.72,2.18-1.38,2.09-2a1.06,1.06,0,0,0-.47-.79,1.47,1.47,0,0,0-1-.14,1.57,1.57,0,0,0-1.08.56,1.74,1.74,0,0,0-.18,1.25v.09l-4.19.64a3.71,3.71,0,0,1,.92-3.38,7.35,7.35,0,0,1,4.13-1.7,12.2,12.2,0,0,1,2.33-.15,5.8,5.8,0,0,1,1.8.32,3,3,0,0,1,1.42,1,6.49,6.49,0,0,1,.75,2.52l.06.38.68,4.47a15.26,15.26,0,0,0,.47,2.23,3.69,3.69,0,0,0,.6,1.21Zm-1.46-6a6.45,6.45,0,0,0-2.21,1.31,1.71,1.71,0,0,0-.53,1.52,1.26,1.26,0,0,0,.52.9,1.34,1.34,0,0,0,1,.21,1.61,1.61,0,0,0,1.25-.73,2.93,2.93,0,0,0,.15-1.81Z"/><path fill="#fff" d="M207.28,727.49l-1.93-12.57,3.84-.59.27,1.76a5.32,5.32,0,0,1,1.28-1.67,4.44,4.44,0,0,1,1.77-.86l.61,4a5.09,5.09,0,0,0-.68,0,4.83,4.83,0,0,0-.58.05,1.58,1.58,0,0,0-1.31.81,4.86,4.86,0,0,0,0,2.4l.93,6Z"/><path fill="#fff" d="M222.18,720.14l4.11-.63.05.25c0,.11,0,.18,0,.23a4.62,4.62,0,0,1-.78,3.81,6,6,0,0,1-3.86,1.81c-2,.32-3.56,0-4.54-.8s-1.66-2.5-2-5-.22-4.25.46-5.35,2.05-1.82,4.08-2.13a5.9,5.9,0,0,1,4.22.56,4.81,4.81,0,0,1,1.86,3.48l0,.21-4,.62-.06-.36a3.27,3.27,0,0,0-.54-1.56,1.06,1.06,0,0,0-1.05-.33,1.07,1.07,0,0,0-1,.81,11.65,11.65,0,0,0,.24,3.4,11.92,11.92,0,0,0,.79,3.27,1.05,1.05,0,0,0,1.15.56,1.07,1.07,0,0,0,.89-.66,3.2,3.2,0,0,0,0-1.65c0-.05,0-.15,0-.28S222.19,720.21,222.18,720.14Z"/><path fill="#fff" d="M229.53,724.07,227,707.34l4.17-.64.84,5.5a3.37,3.37,0,0,1,1.18-1.4,4.7,4.7,0,0,1,1.94-.71,3.14,3.14,0,0,1,2.68.59,4.84,4.84,0,0,1,1.28,3l1.35,8.77-4.16.64-1.19-7.77a4.45,4.45,0,0,0-.52-1.84.89.89,0,0,0-.88-.25,1.29,1.29,0,0,0-1,.74,2.79,2.79,0,0,0-.15,1.65l1.21,7.86Z"/><g clip-path="url(#l)"><polygon fill="#fff" points="203.73 659.21 169.46 750.92 185.96 750.92 217.15 660.76 203.73 659.21" opacity=".35"/></g><path fill="#fdc8a9" d="M199.64,742.44a9.77,9.77,0,0,0,2.4,2c1.81,1.14,12.69-.12,14.73-4.07.2-.38-2.64.83-3-.29-.42-1.46-3.72-1.81-3.72-1.81s-2.33-1.84-6.75-.16S199.64,742.44,199.64,742.44Z"/><path fill="#323258" d="M251.85,700.59,227.65,814.5l-.2,1a8.05,8.05,0,0,1-.42,1.34l-35.29,85-17.57-6.56,29-87.31-.62,2.31,15-115.48Z"/><path fill="#404072" d="M263,694.43l17.77,119.13.15,1a8.2,8.2,0,0,1,.07,1.39l-3.37,87H258.85l-3.37-87,.22,2.37-26.93-117.4Z"/><path fill="#fdc8a9" d="M238.44,632.56h0c-3.24,1.17-5.76,1.29-6.92-1.95l-2.27-7.94a6.23,6.23,0,0,1,3.75-8h0a6.23,6.23,0,0,1,8,3.75l2.27,7.94C244.41,629.62,241.68,631.39,238.44,632.56Z"/><g clip-path="url(#m)"><circle cx="350.48" cy="464.87" r="57.2" fill="#fff" transform="rotate(-89.3 350.446 464.86)"/><g clip-path="url(#n)"><path fill="#647ca8" d="M404.92,427.67a1.62,1.62,0,0,1,0-3.23l34.22-.14h0a1.61,1.61,0,1,1,0,3.22l-34.21.15Z"/><path fill="#647ca8" d="M438,427.53a1.62,1.62,0,1,1,0-3.23l34-.14h0a1.62,1.62,0,0,1,0,3.23l-34,.14Z"/><path fill="#647ca8" d="M486,427.33a1.61,1.61,0,0,1,0-3.22l31.1-.13h0a1.61,1.61,0,1,1,0,3.22l-31.1.13Z"/><path fill="#647ca8" d="M405,454.48a1.61,1.61,0,0,1,0-3.22l44.68-.19h0a1.62,1.62,0,0,1,0,3.23l-44.68.18Z"/><path fill="#647ca8" d="M462.41,454.24a1.61,1.61,0,1,1,0-3.22l54.75-.23h0a1.62,1.62,0,0,1,0,3.23l-54.75.22Z"/><path fill="#647ca8" d="M405.14,481.3a1.61,1.61,0,1,1,0-3.22l18-.08h0a1.62,1.62,0,0,1,0,3.23l-18,.07Z"/><path fill="#647ca8" d="M434.49,481.18a1.61,1.61,0,0,1,0-3.22l32.85-.14h0a1.61,1.61,0,0,1,0,3.22l-32.85.14Z"/><path fill="#647ca8" d="M478.29,481a1.62,1.62,0,0,1,0-3.23l39-.16h0a1.62,1.62,0,0,1,0,3.23l-39,.16Z"/><path fill="#647ca8" d="M405.26,508.12a1.61,1.61,0,1,1,0-3.22l39-.17h0a1.62,1.62,0,0,1,0,3.23l-39,.16Z"/><path fill="#647ca8" d="M456.07,507.91a1.62,1.62,0,0,1,0-3.23l61.32-.25h0a1.61,1.61,0,0,1,0,3.22l-61.33.26Z"/><path fill="#647ca8" d="M340.89,428a1.65,1.65,0,1,1,0-3.3l36-.15h0a1.65,1.65,0,0,1,0,3.3l-36,.15Z"/><path fill="#647ca8" d="M306.37,428.12a1.66,1.66,0,0,1,0-3.31l35.75-.15h0a1.66,1.66,0,1,1,0,3.31l-35.74.15Z"/><path fill="#647ca8" d="M258.9,428.32a1.66,1.66,0,0,1,0-3.31l32.72-.14h0a1.66,1.66,0,1,1,0,3.31l-32.72.14Z"/><path fill="#647ca8" d="M330,454.84a1.66,1.66,0,0,1,0-3.31l47-.19h0a1.65,1.65,0,1,1,0,3.3l-47,.2Z"/><path fill="#647ca8" d="M259,455.13a1.65,1.65,0,1,1,0-3.3l57.6-.24h0a1.65,1.65,0,0,1,0,3.3l-57.61.24Z"/><path fill="#647ca8" d="M311.66,481.73a1.65,1.65,0,1,1,0-3.3l34.56-.15h0a1.66,1.66,0,0,1,0,3.31l-34.57.14Z"/><path fill="#647ca8" d="M259.13,482a1.66,1.66,0,1,1,0-3.31l41-.17h0a1.66,1.66,0,1,1,0,3.31l-41,.17Z"/><path fill="#647ca8" d="M336.2,508.45a1.66,1.66,0,0,1,0-3.31l41-.17h0a1.66,1.66,0,0,1,0,3.31l-41,.17Z"/><path fill="#647ca8" d="M259.24,508.77a1.66,1.66,0,0,1,0-3.31l64.52-.27h0a1.66,1.66,0,0,1,0,3.31l-64.52.27Z"/><path fill="#647ca8" d="M359.78,492.27a5,5,0,0,1-5-4.95l-.07-17.61a4.89,4.89,0,0,1,1.44-3.52,5,5,0,0,1,3.51-1.47l17.6-.07h0a5,5,0,0,1,5,5l.08,17.6a5,5,0,0,1-4.95,5h0l-17.61.08Zm17.54-24.91h0l-17.61.08a2.21,2.21,0,0,0-1.59.66,2.25,2.25,0,0,0-.66,1.6l.07,17.61a2.26,2.26,0,0,0,2.26,2.24h0l17.61-.07a2.26,2.26,0,0,0,2.24-2.27l-.07-17.6a2.27,2.27,0,0,0-2.25-2.25Z"/><path fill="#647ca8" d="M368.8,489l-9.18-9.1a1.36,1.36,0,1,1,1.91-1.93l6.49,6.43,7.25-14.79a1.35,1.35,0,1,1,2.43,1.19Z"/></g></g><path d="M401.79,441.91a52.75,52.75,0,0,0-34.19-22.12,53.67,53.67,0,0,0-62.31,42.67,53,53,0,0,0,27.37,56.66,5.37,5.37,0,0,0,1,1.51l6.11,6.76a5.05,5.05,0,0,0,1.31,1l-5.23,27.66-.15,0-.36.09-.31.1-.32.11-.34.15-.26.12-.54.32-.18.14-.33.27-.19.18-.27.29-.17.22-.24.33-.15.25c-.07.13-.14.26-.2.39l-.12.26a4.09,4.09,0,0,0-.18.49l-.09.24c-.07.26-.14.53-.19.82l-9,47.58a6.17,6.17,0,0,0-.11.82c0,.09,0,.18,0,.26s0,.35,0,.52,0,.19,0,.29,0,.29.05.43a2.93,2.93,0,0,0,0,.29c0,.13.06.26.1.39a2.76,2.76,0,0,0,.08.27c0,.12.1.24.15.36a2.56,2.56,0,0,0,.11.24,2.71,2.71,0,0,0,.21.37,2,2,0,0,0,.12.19,3.57,3.57,0,0,0,.38.49l.2.2.26.27.25.21.26.21.3.21.27.17a3.79,3.79,0,0,0,.34.2l.27.14.38.19.26.11.44.19.09,0a18.2,18.2,0,0,0,3.2.87c4.88.89,9.11.19,10-4.68l9-47.58a5.45,5.45,0,0,0-2.53-6.1l4.38-23.22h0l.83-4.4a5.51,5.51,0,0,0,1.89-.61l7.55-4.1a6.2,6.2,0,0,0,1-.66,53.67,53.67,0,0,0,48.19-43.35A52.56,52.56,0,0,0,401.79,441.91Zm-2.19,37.85a42.86,42.86,0,0,1-49.76,34.08h0a42.49,42.49,0,1,1,49.77-34.07Z" style="mix-blend-mode:multiply" fill="#102540" opacity=".22"/><path fill="#1e1e3a" d="M323.15,615c4.9.91,9.14.21,10.05-4.69l8.91-47.85c.91-4.9-2.79-7.08-7.69-8s-9.13-.21-10.05,4.68L315.46,607C314.55,611.9,318.25,614.07,323.15,615Z"/><path fill="#242444" d="M332.5,554.19c3.92,1.11,6.6,3.31,5.81,7.55L329.4,609.6c-.79,4.24-4.08,5.33-8.13,4.95-3.92-1.11-6.6-3.3-5.81-7.55l8.91-47.86C325.16,554.9,328.45,553.81,332.5,554.19Z"/><path fill="#323258" d="M333.64,558.63c2.93.54,5.27,1.15,5.81-1.77L346.32,520a5.39,5.39,0,1,0-10.59-2l-6.87,36.87C328.32,557.81,330.72,558.09,333.64,558.63Z"/><path fill="#fff" d="M335.31,507.44A48.09,48.09,0,0,0,386.8,438a48.1,48.1,0,1,1-78.72,54A47.82,47.82,0,0,0,335.31,507.44Z" opacity=".86"/><path fill="#fff" d="M396.32,460.05s-66.81,45.3-71.74,48.41-9.26-9.74-9.26-9.74l79.78-53.35Z" opacity=".35"/><path fill="#fff" d="M386.69,440.05s-71.22,48.5-76.16,51.62-4.88-2.13-4.88-2.13l80.66-55.35Z" opacity=".35"/><path fill="#262647" d="M346.32,520l-2.42,13a5.39,5.39,0,0,1-1.7,0l-7.15-1.33a5.66,5.66,0,0,1-1.73-.65L335.73,518a5.39,5.39,0,0,1,1.35-2.68L346,517A5.39,5.39,0,0,1,346.32,520Z"/><path fill="#323258" d="M394.87,439.57a53.49,53.49,0,1,0-69.13,77.54,5.25,5.25,0,0,0,1,1.53l6.14,6.81a5.43,5.43,0,0,0,3,1.7l7.15,1.33a5.41,5.41,0,0,0,3.59-.57l7.56-4.11a6.14,6.14,0,0,0,.95-.65,53.5,53.5,0,0,0,39.74-83.58Zm-2.11,38.08A42.76,42.76,0,0,1,343,511.83h0a42.72,42.72,0,1,1,49.83-34.18Z"/><circle cx="350.77" cy="469.83" r="48.11" fill="url(#c)" opacity=".1" transform="rotate(-.93 349.844 468.619)"/><path d="M242.42,622.45l-3.56-9.87-11.72,4.23,1.1,3.05C233,622.72,238.05,624.29,242.42,622.45Z" style="mix-blend-mode:multiply" fill="#fdc8a9" opacity=".54"/><path fill="#fdc8a9" d="M238.17,585.45s14.73,19.37,14.8,26.79-21.54,8.43-21.54,8.43l-13-19.49,5.79-18.39,12.45.29Z"/><path fill="#242444" d="M228.71,610.65c-3-4.22-.35-6.26,2.11-5.84l.36.05a4.85,4.85,0,0,1,.92.19,1,1,0,0,0,1.23-.57l-.66.58a.89.89,0,0,0-.58-1.21c-.22-.07-.82-.11-1-.17s.61-1,.33-1.08c0,0-6.66-4.67-2.71-11.48,4.94-8.52,9.12-3.72,10.87-8.52,2.89-7.9-1.8-18.74-7-15.47s-10.07,8.89-19.91,12.3-15.34,19.06-5.63,32.66,17.33,10.65,24.52,14.43c1.61.84,5.32-3.44,5.58-8.22C237.29,615.49,231.69,614.87,228.71,610.65Z"/><path fill="#fff" d="M268.22,725.76s.82,11.62-39.17,9.69c0,0-19.67-1.37-14.71-14.14a201.42,201.42,0,0,1,10.17-22.2Z"/><path fill="#242444" d="M228.54,599.34s5.61,6.2,8.61,8.79,7-7.11,11.23-7.42S257,615,252.55,617s-9.64,3.74-11.18,2.41-6.08-10.69-12.08-14.55S228.54,599.34,228.54,599.34Z"/><path fill="#f7ad66" d="M260,640.47a39.77,39.77,0,0,0-5-8.62,15.11,15.11,0,0,0-1.83-1.47,83.07,83.07,0,0,0-11.31-2.45,68,68,0,0,0-7.94.16,38.46,38.46,0,0,0-6.3,1.19c-7.34,7.34-8.15,19.28-8.15,19.28l-.06.68c-.9,15.54-2.75,35.08-2.75,35.08l-.09,4.46-.21,4.43c0,.74-.06,1.48-.12,2.22l-.17,2.2c-.12,1.46-.2,2.93-.35,4.39l-.47,4.35c-.09.73-.15,1.46-.25,2.18l-.31,2.14-.62,4.3-.1.62a19.75,19.75,0,0,0-.18,2.45c0,1.46-.89,2.9-.53,4.29,6.37,1.8,30,5.53,54.92,3.41,0-10.67-.11-31.22-.52-46.69C266.13,655.86,261.4,643.63,260,640.47Z"/><path fill="#f69c44" d="M236.86,627.93a81.56,81.56,0,0,1,11.31,2.56A14.31,14.31,0,0,1,250,632a42.27,42.27,0,0,1,5,9c1.39,3.29,6.12,16.07,7.69,40.3.36,14.4.47,33,.51,44.78,1.67-.09,3.35-.21,5-.35,0-10.67-.11-31.22-.51-46.69-1.58-23.21-6.31-35.44-7.7-38.6a39.77,39.77,0,0,0-5-8.62,15.11,15.11,0,0,0-1.83-1.47,83.07,83.07,0,0,0-11.31-2.45c-1.88,0-3.75,0-5.34,0Z"/><path fill="#fdc8a9" d="M248.06,632.27l48.16-9.78-4.06,2.62L327.81,585a3.21,3.21,0,0,1,5.09,3.89l-29.4,44.93a5.82,5.82,0,0,1-3.4,2.45l-.66.17-47.55,12.39a8.48,8.48,0,1,1-4.28-16.41Z"/><path fill="#fff" d="M322.67,590.4l3.27-4.09s3.21,4,6.24,5.37l-4,4.24Z"/><path fill="#f7ad66" d="M323.55,588.27l-29.46,34.57-46.43,7.69a11.15,11.15,0,0,0-1.27.3,10.28,10.28,0,0,0,5.9,19.7l47.15-14.13.83-.25a5.92,5.92,0,0,0,3.24-2.38l27.15-40.1Z"/><path fill="#f69c44" d="M303.94,630.61a6,6,0,0,1-3.25,2.38l-.82.25-47.15,14.13a10.29,10.29,0,0,1-12.81-6.9,10.41,10.41,0,0,1-.42-2.74,10.28,10.28,0,0,0,12.8,12.8l47.15-14.13.83-.25a5.92,5.92,0,0,0,3.24-2.38l27.15-40.1-1.13-.86Z"/><path fill="#fdc8a9" d="M329.67,589.65a5.16,5.16,0,0,0,2.5.05,27,27,0,0,1,5.35-.59c3.46,0,4.28-9.05,4.89-15.94.48-5.47-4.17.94-6.12,3.84a5.7,5.7,0,0,1-2.12,1.87c-1.82.94-5.06,3-6.3,6.4C326.8,588.18,328.3,589.25,329.67,589.65Z"/><path fill="#fdc8a9" d="M331.52,584.36l-.88.39s-2-6.31-3.7-7.21,1.22-2.31,2.79.17,3.14,1.85,3.14,1.85,3.18,5.36,3,5.44S331.52,584.36,331.52,584.36Z"/><path fill="#fff" d="M230.38,626.63l-2.72,2.65s3.27,3,10.39,2.52,8.64-3,8.64-3l-3.45-2.38S240.59,628.4,230.38,626.63Z"/><rect width="12.84" height="545.65" x="866.92" y="426.54" fill="#e08634" transform="rotate(-12.29 873.44 699.46)"/><rect width="12.84" height="545.65" x="747.82" y="426.54" fill="#e08634" transform="rotate(-12.29 754.347 699.463)"/><rect width="123.93" height="12.84" x="709.22" y="492.76" fill="#e08634"/><rect width="123.93" height="12.84" x="726.58" y="587.73" fill="#e08634"/><rect width="123.93" height="12.84" x="747.45" y="682.7" fill="#e08634"/><rect width="123.93" height="12.84" x="770.17" y="777.67" fill="#e08634"/><rect width="123.93" height="12.84" x="788.55" y="872.64" fill="#e08634"/><rect width="12.84" height="545.65" x="871.2" y="426.54" fill="#f69c44" transform="rotate(-12.29 877.716 699.45)"/><rect width="12.84" height="545.65" x="752.1" y="426.54" fill="#f69c44" transform="rotate(-12.29 758.623 699.453)"/><rect width="123.93" height="12.84" x="713.5" y="492.76" fill="#f69c44"/><rect width="123.93" height="12.84" x="730.86" y="587.73" fill="#f69c44"/><rect width="123.93" height="12.84" x="751.73" y="682.7" fill="#f69c44"/><rect width="123.93" height="12.84" x="774.45" y="777.67" fill="#f69c44"/><rect width="123.93" height="12.84" x="792.83" y="872.64" fill="#f69c44"/><path d="M582.79,401.33a103.14,103.14,0,0,0,118.77,37.24,11.33,11.33,0,0,0,2.17.38l16.47,1.14a10.47,10.47,0,0,0,3.78-.44l5,7h0l26.19,37c-2.46,3.83-2.82,8.07.44,12.69l67.95,90.18c5.49,7.76,13.44,5.62,21.25.15a34.78,34.78,0,0,0,4.9-4.06,1.59,1.59,0,0,0,.13-.13c.22-.22.42-.45.62-.68l.36-.39c.18-.21.35-.43.52-.64s.24-.31.35-.47.3-.41.44-.61l.33-.52c.12-.2.24-.4.35-.61a5.93,5.93,0,0,0,.29-.56l.28-.58c.09-.22.17-.45.25-.67s.13-.34.18-.51a9.29,9.29,0,0,0,.27-1.16,3.29,3.29,0,0,0,.05-.44,7.22,7.22,0,0,0,.08-.8c0-.17,0-.34,0-.51s0-.5,0-.76,0-.35-.07-.53-.09-.51-.14-.76-.09-.36-.14-.54-.17-.53-.27-.8-.12-.34-.19-.51-.28-.6-.43-.9l-.23-.44a16,16,0,0,0-.86-1.36l-67.94-90.18c-.33-.45-.66-.87-1-1.26-.11-.13-.23-.24-.34-.36s-.46-.49-.7-.71l-.42-.35a8,8,0,0,0-.67-.52c-.15-.11-.31-.22-.46-.31s-.45-.28-.67-.4l-.48-.24c-.24-.11-.47-.2-.71-.29L778,472c-.26-.08-.52-.14-.78-.2l-.43-.1a9.78,9.78,0,0,0-1.2-.13h-1.26l-.64.06-.64.08c-.23,0-.46.08-.69.13l-.29.05-31.21-44.13a10.12,10.12,0,0,0,1.44-2.86l5.29-16.69a10.45,10.45,0,0,0,.46-3.4A101.7,101.7,0,0,0,750.57,284C718,238,653.94,226.9,607.69,259.24a101.63,101.63,0,0,0-24.9,142.09ZM619.56,276A81.6,81.6,0,1,1,713.8,409.28l0,0c-36.95,25.82-88.13,16.95-114.1-19.78A81.26,81.26,0,0,1,619.56,276Z" style="mix-blend-mode:multiply" fill="#102540" opacity=".22"/><path fill="#fdc8a9" d="M809.4,527.68l2.74,240.67a7.12,7.12,0,0,0,14.22.31l13.07-240.33a15,15,0,1,0-30-1.64C809.4,527,809.39,527.37,809.4,527.68Z"/><path fill="#fdc8a9" d="M834,508.92l27.92,255.93a7.12,7.12,0,0,0,14.19-1l-9-257.28a16.61,16.61,0,0,0-33.2,1.16C833.94,508.1,834,508.54,834,508.92Z"/><path fill="#647ca8" d="M810.45,505.37l-12.74,157.2s42.22,9,84.17,0L867.65,485.86Z"/><path fill="#242444" d="M860.77,754s-3.28,9.28-12,9.51c-7.27.19-19.56,3.87-19.51,12.09s49.41,7,51,.8-3.61-24-3.61-24Z"/><path fill="#242444" d="M810.66,753s-3.28,9.28-12,9.5c-7.26.19-19.56,3.88-19.51,12.09s49.41,7,51,.8-3-23.35-3-23.35Z"/><rect width="17.06" height="32.55" x="832.61" y="376.39" fill="#fdc8a9" transform="rotate(-10.44 841.09 392.615)"/><path d="M832.41,392.33l-2.6-14.13,16.78-3.09.8,4.36C843.74,386.14,838.85,391.49,832.41,392.33Z" style="mix-blend-mode:multiply" fill="#fdc8a9" opacity=".54"/><path fill="#fdc8a9" d="M816.31,410.81l-42.25,60.75,14.47-.21L751,430.48a5.14,5.14,0,0,0-8,6.36l31.24,45.85a8.65,8.65,0,0,0,13.86.56l.61-.77,46.17-57.84a11.57,11.57,0,0,0-18.09-14.44Z"/><path fill="#fdc8a9" d="M807.31,348.38s1.42,33.28,7.84,41.16,30.06-10,30.06-10l-3.31-31.93-22.19-14.31-12.85,11.2Z"/><path fill="#ffaede" d="M820.43,447.69l-21.06-15.93s18.91-40,38-26.77C852.6,415.59,820.43,447.69,820.43,447.69Z"/><path fill="#647ca8" d="M867.45,451l.85-2.4c-.71-6.24-1.43-12.87-2-19l-.12-.87s-6.73-24.29-17.06-25.62c-.59-.07-1.17-.13-1.76-.18-1.67-.12-4.14-.53-6.79-.91l-5-.61-1.65-.12c-1.33.44-10.85,4-16.36,16.51a124.87,124.87,0,0,0-9,32l-.38,3-.71,6.58-.17,1.51c0,.6-.11,1.18-.15,1.78s-.09,1.05-.14,1.58l-.15,1.72-.28,3.31c-.09,1.1-.14,2.21-.22,3.31l-.4,6.64-.24,6.68c0,1.11-.09,2.22-.1,3.34l0,3.36c0,2.24,0,4.47,0,6.72l.16,6.75c0,1.13,0,2.26.09,3.39l.19,3.4.39,6.8c.15,2.58-.59,5.18.39,7.49A289.22,289.22,0,0,0,863.91,526Z"/><path fill="#1e1e3a" d="M855.41,578.9c-7.83,5.5-15.79,7.67-21.29-.16l-68-90.72c-5.5-7.83-.77-14.58,7-20.09s15.79-7.66,21.29.16l68,90.73C868,566.64,863.23,573.4,855.41,578.9Z"/><path fill="#242444" d="M776.27,465.93c-5.95,5.06-8.87,11-4.11,17.82l68,90.72c4.77,6.78,11.39,6,18.16,2.16,5.95-5.06,8.88-11,4.11-17.81l-68-90.73C789.66,461.31,783.05,462,776.27,465.93Z"/><path fill="#323258" d="M777.83,474.59c-4.68,3.29-8.28,6.21-11.56,1.54l-41.43-58.92a10.34,10.34,0,0,1,16.91-11.89l41.43,58.92C786.47,468.91,782.5,471.31,777.83,474.59Z"/><path fill="#fff" d="M734.05,386.53a92.35,92.35,0,0,1-145.37-80.19,92.36,92.36,0,1,0,180.6,31.48A91.93,91.93,0,0,1,734.05,386.53Z" opacity=".86"/><path fill="#fff" d="M616.43,270.66s51.72,146.1,55.81,156.54,25.41-4.54,25.41-4.54L635,249.34Z" opacity=".35"/><path fill="#fff" d="M654.09,250.7s54.9,156.08,59,166.52,10,2.26,10,2.26l-61.7-177.4Z" opacity=".35"/><path fill="#262647" d="M724.84,417.21l14.57,20.73a10.25,10.25,0,0,0,2.94-1.42l11.42-8a10.5,10.5,0,0,0,2.51-2.51l-14.53-20.66a10.3,10.3,0,0,0-4.5-3.6l-14.28,10A10.21,10.21,0,0,0,724.84,417.21Z"/><path fill="#323258" d="M593,392.27a102.92,102.92,0,0,0,119,37.51,11.44,11.44,0,0,0,2.18.38l16.49,1.15a10.38,10.38,0,0,0,6.72-1.87l11.42-8a10.49,10.49,0,0,0,4-5.4L758,399.2a10.05,10.05,0,0,0,.46-3.42A102.72,102.72,0,1,0,593,392.27Zm36.83-126.19a82,82,0,0,1,94.38,134.2l0,0a82,82,0,0,1-94.36-134.22Z"/><circle cx="676.98" cy="332.7" r="92.37" fill="url(#o)" opacity=".1" transform="rotate(-45 676.978 332.697)"/><path fill="#fdc8a9" d="M829.15,537.89a22,22,0,0,0-6.63,3.88,8,8,0,0,1-5.8,2.13c-4.12-.49-4.52,1.93-2.89,3.61s9.63.8,4.82,4.8,1.78,6.61,1.78,6.61,6.74,12.27,16.17-9.18C843.05,535,834.92,535.89,829.15,537.89Z"/><path fill="#fdc8a9" d="M839.34,421.16l24.49,70.47,1.32-8.08L832,536.13a5.13,5.13,0,0,0,8.29,6l39.69-47.87a8,8,0,0,0,1.57-7.19l-.24-.88-19.83-71.91a11.57,11.57,0,1,0-22.31,6.15C839.18,420.68,839.26,420.94,839.34,421.16Z"/><path fill="#fdc8a9" d="M749.43,451.63s-11.84-30.92-17.33-25.73,7.32,23.57,11.43,27.81S749.43,451.63,749.43,451.63Z"/><path fill="#ffaede" d="M875.58,450.39,847.39,460s-22.32-49.19,0-55.57C867.34,398.66,875.58,450.39,875.58,450.39Z"/><path fill="#fdc8a9" d="M849.11,403A35.61,35.61,0,0,0,837.33,405c-4.85,1.61-9.39,5.54-11.74,4.63s.45-3.68.45-3.68,9.16-6.9,13.53-7.47S849.11,403,849.11,403Z"/><path fill="#242444" d="M833.46,318.73c-2,.06-6.78,1.5-8.7,1.9-2.53.52-5.92,1.19-9.38,1.77s-16.15-1.24-19-1.07c-8.34.52-5,18.9,2.94,23s22.85-.33,26.22,8.47-.35,16.36,4.22,22.34c5.21,6.83,9.4,9.85,7.65,22.47s2.56,27,12.68,29.84c7.06,1.95,13.59-.45,24.47,17.84,11,18.47,49.95-12,18.38-35.64-18.37-13.78-18.76-18.68-17.79-34.51,1.56-25.58-8.18-45.81-22.72-51.82C843,319.39,841.44,318.51,833.46,318.73Z"/><ellipse cx="789.84" cy="965.94" rx="192.04" ry="10.02" style="mix-blend-mode:multiply" fill="#bfe3fb" opacity=".51"/><ellipse cx="1351.92" cy="837.33" rx="78.11" ry="10.1" style="mix-blend-mode:multiply" fill="#5d5d5d" opacity=".25"/><polygon fill="#fdc8a9" points="1200.04 457.09 1143.15 427.31 1139.42 491.95 1200.04 457.09"/><path fill="#242444" d="M1142.72,434.79l.43-7.48,6.41,3.35A14,14,0,0,1,1142.72,434.79Z"/><rect width="52.2" height="386.76" x="1247.71" y="444.36" fill="#f7ad66" transform="rotate(150.1 1273.81 637.742)"/><rect width="17.73" height="386.76" x="1234.63" y="461.79" fill="#ffc08d" transform="rotate(-29.9 1243.491 655.167)"/><rect width="17.73" height="386.76" x="1279.89" y="435.77" fill="#f69c44" transform="rotate(-29.9 1288.733 629.152)"/><path fill="#ffaede" d="M1344.67,761.39h27.91a21,21,0,0,1,21,21v62.27a0,0,0,0,1,0,0h-69.93a0,0,0,0,1,0,0V782.4a21,21,0,0,1,21-21Z" transform="rotate(150.1 1358.627 803.038)"/><rect width="69.93" height="27.13" x="1309.67" y="765.13" fill="#4f6185" transform="rotate(150.1 1344.633 778.695)"/></g></svg>