<svg xmlns="http://www.w3.org/2000/svg" xmlns:xlink="http://www.w3.org/1999/xlink" viewBox="0 0 1120 1400" width="1120" height="1400" preserveAspectRatio="xMidYMid meet" style="width: 100%; height: 100%; transform: translate3d(0px, 0px, 0px); content-visibility: visible;"><defs><clipPath id="__lottie_element_4042"><rect width="1120" height="1400" x="0" y="0"></rect></clipPath><clipPath id="__lottie_element_4044"><path d="M0,0 L1500,0 L1500,1400 L0,1400z"></path></clipPath><clipPath id="__lottie_element_4057"><path d="M0,0 L1500,0 L1500,1400 L0,1400z"></path></clipPath><clipPath id="__lottie_element_4061"><path d="M0,0 L1500,0 L1500,1400 L0,1400z"></path></clipPath><clipPath id="__lottie_element_4209"><path d="M0,0 L1500,0 L1500,1400 L0,1400z"></path></clipPath></defs><g clip-path="url(#__lottie_element_4042)"><g clip-path="url(#__lottie_element_4044)" transform="matrix(1,0,0,1,-158,0)" opacity="1" style="display: block;"><g transform="matrix(1,0,0,1,750,700)" opacity="1" style="display: block;"><g opacity="1" transform="matrix(1,0,0,1,0,0)"><path fill="rgb(144,109,211)" fill-opacity="1" d=" M-396.2460021972656,694.948974609375 C-396.2460021972656,694.948974609375 -574.1710205078125,694.948974609375 -574.1710205078125,694.948974609375 C-574.1710205078125,694.948974609375 -556.7050170898438,205.08399963378906 -349.5270080566406,205.08399963378906 C-136.53199768066406,205.08399963378906 -142.07000732421875,582.927978515625 -142.07000732421875,582.927978515625 C-142.07000732421875,582.927978515625 -396.2460021972656,694.948974609375 -396.2460021972656,694.948974609375z"></path></g></g><g transform="matrix(1,0,0,1,750,700)" opacity="1" style="display: block;"><g opacity="1" transform="matrix(1,0,0,1,0,0)"><path fill="rgb(215,212,255)" fill-opacity="1" d=" M416.6300048828125,694.948974609375 C332.4930114746094,484.4580078125 266.57000732421875,628.0980224609375 266.57000732421875,628.0980224609375 C266.57000732421875,628.0980224609375 226.91799926757812,-44.027000427246094 182.4320068359375,-131.656005859375 C137.9459991455078,-219.28500366210938 -20.0939998626709,-222.7480010986328 -20.0939998626709,-222.7480010986328 C-20.0939998626709,-222.7480010986328 -178.13499450683594,-219.28500366210938 -222.62100219726562,-131.656005859375 C-267.10699462890625,-44.027000427246094 -306.75799560546875,492.5889892578125 -306.75799560546875,492.5889892578125 C-306.75799560546875,492.5889892578125 -383.15899658203125,512.4639892578125 -403.4679870605469,694.948974609375 C-403.4679870605469,694.948974609375 416.6300048828125,694.948974609375 416.6300048828125,694.948974609375z"></path></g></g><g transform="matrix(1,0,0,1,750,700)" opacity="1" style="display: block;"><g opacity="1" transform="matrix(1,0,0,1,0,0)"><path fill="rgb(234,230,255)" fill-opacity="1" d=" M-20.0939998626709,-222.7480010986328 C-20.0939998626709,-222.7480010986328 -178.13499450683594,-219.28500366210938 -222.62100219726562,-131.656005859375 C-236.19400024414062,-104.91999816894531 -249.31399536132812,-36.36000061035156 -260.99798583984375,45.97600173950195 C-254.63800048828125,57.439998626708984 -247.1999969482422,65.58499908447266 -238.86099243164062,65.58499908447266 C-210.4929962158203,65.58499908447266 -144.7310028076172,-15.118000030517578 -144.7310028076172,-15.118000030517578 C-144.7310028076172,-15.118000030517578 -109.59300231933594,149.9010009765625 -69.13600158691406,140.26499938964844 C-28.679000854492188,130.62899780273438 -3.131999969482422,-18.73200035095215 -3.131999969482422,-18.73200035095215 C-3.131999969482422,-18.73200035095215 78.34700012207031,125.81099700927734 111.22799682617188,111.35700225830078 C144.10899353027344,96.90299987792969 166.02999877929688,-6.686999797821045 166.02999877929688,-6.686999797821045 C166.02999877929688,-6.686999797821045 192.49000549316406,26.871999740600586 218.08999633789062,53.38600158691406 C207.1060028076172,-35.93899917602539 194.9600067138672,-106.97799682617188 182.4320068359375,-131.656005859375 C137.9459991455078,-219.28500366210938 -20.0939998626709,-222.7480010986328 -20.0939998626709,-222.7480010986328z"></path></g></g><g transform="matrix(1,0,0,1,750,700)" opacity="1" style="display: block;"><g opacity="1" transform="matrix(1,0,0,1,0,0)"><path fill="rgb(192,198,255)" fill-opacity="1" d=" M325.8580017089844,580.3560180664062 C312.239990234375,579.4290161132812 300.4880065917969,585.93701171875 291.1180114746094,594.4320068359375 C291.1180114746094,594.4320068359375 300.6759948730469,694.948974609375 300.6759948730469,694.948974609375 C300.6759948730469,694.948974609375 336.7539978027344,694.948974609375 336.7539978027344,694.948974609375 C336.7539978027344,694.948974609375 325.8580017089844,580.3560180664062 325.8580017089844,580.3560180664062z"></path></g><g opacity="1" transform="matrix(1,0,0,1,0,0)"><path fill="rgb(192,198,255)" fill-opacity="1" d=" M262.6830139160156,566.5020141601562 C262.6830139160156,566.5020141601562 173.75399780273438,566.4149780273438 173.75399780273438,566.4149780273438 C173.75399780273438,566.4149780273438 162.17300415039062,444.62298583984375 162.17300415039062,444.62298583984375 C162.17300415039062,444.62298583984375 243.25799560546875,444.7019958496094 243.25799560546875,444.7019958496094 C243.25799560546875,444.7019958496094 255.76300048828125,466.03399658203125 255.76300048828125,466.03399658203125 C255.26199340820312,459.0820007324219 254.74099731445312,451.9440002441406 254.20899963378906,444.7130126953125 C254.20899963378906,444.7130126953125 254.2100067138672,444.7130126953125 254.2100067138672,444.7130126953125 C254.16600036621094,444.1090087890625 254.1179962158203,443.4739990234375 254.072998046875,442.8680114746094 C253.5970001220703,436.40899658203125 253.11099243164062,429.864990234375 252.61199951171875,423.2099914550781 C252.59100341796875,422.9360046386719 252.572998046875,422.67498779296875 252.552001953125,422.3999938964844 C252.552001953125,422.3999938964844 252.55099487304688,422.3999938964844 252.55099487304688,422.3999938964844 C250.8249969482422,399.4150085449219 248.96499633789062,375.35198974609375 246.97799682617188,350.6260070800781 C222.97500610351562,361.8940124511719 200.94000244140625,372.51300048828125 200.94000244140625,372.51300048828125 C200.94000244140625,372.51300048828125 230.1719970703125,422.37799072265625 230.1719970703125,422.37799072265625 C230.1719970703125,422.37799072265625 160.052001953125,422.3089904785156 160.052001953125,422.3089904785156 C160.052001953125,422.3089904785156 147.322998046875,288.43798828125 147.322998046875,288.43798828125 C147.322998046875,288.43798828125 241.8249969482422,288.531005859375 241.8249969482422,288.531005859375 C241.18899536132812,281.11199951171875 240.54200744628906,273.6709899902344 239.88699340820312,266.2179870605469 C239.88699340820312,266.2179870605469 145.2010040283203,266.125 145.2010040283203,266.125 C145.2010040283203,266.125 133.4530029296875,142.56900024414062 133.4530029296875,142.56900024414062 C133.4530029296875,142.56900024414062 228.12899780273438,142.66200256347656 228.12899780273438,142.66200256347656 C227.3509979248047,135.1649932861328 226.5659942626953,127.7229995727539 225.77200317382812,120.3479995727539 C225.77200317382812,120.3479995727539 131.33099365234375,120.25599670410156 131.33099365234375,120.25599670410156 C131.33099365234375,120.25599670410156 120.76499938964844,9.125 120.76499938964844,9.125 C120.76499938964844,9.125 106.81199645996094,9.111000061035156 106.81199645996094,9.111000061035156 C106.81199645996094,9.111000061035156 106.81099700927734,9.112000465393066 106.81099700927734,9.112000465393066 C106.81099700927734,9.112000465393066 106.81099700927734,9.111000061035156 106.81099700927734,9.111000061035156 C106.81099700927734,9.111000061035156 86.18900299072266,24.92300033569336 86.18900299072266,24.92300033569336 C86.18900299072266,24.92300033569336 149.8979949951172,694.948974609375 149.8979949951172,694.948974609375 C149.8979949951172,694.948974609375 185.97500610351562,694.948974609375 185.97500610351562,694.948974609375 C185.97500610351562,694.948974609375 175.87600708007812,588.72802734375 175.87600708007812,588.72802734375 C175.87600708007812,588.72802734375 264.1289978027344,588.8150024414062 264.1289978027344,588.8150024414062 C263.70001220703125,582.1110229492188 263.2170104980469,574.6500244140625 262.6830139160156,566.5020141601562z"></path></g></g><g transform="matrix(1,0,0,1,750,700)" opacity="1" style="display: block;"><g opacity="1" transform="matrix(1,0,0,1,0,0)"><path fill="rgb(255,45,85)" fill-opacity="1" d=" M295.3609924316406,6.638000011444092 C295.3609924316406,6.638000011444092 293.76300048828125,16.195999145507812 293.76300048828125,16.195999145507812 C293.76300048828125,16.195999145507812 284.7770080566406,20.79199981689453 284.7770080566406,20.79199981689453 C284.7770080566406,20.79199981689453 422.7829895019531,678.969970703125 422.7829895019531,678.969970703125 C422.7829895019531,678.969970703125 453.4230041503906,678.969970703125 453.4230041503906,678.969970703125 C453.4230041503906,678.969970703125 312.45001220703125,6.638000011444092 312.45001220703125,6.638000011444092 C312.45001220703125,6.638000011444092 295.3609924316406,6.638000011444092 295.3609924316406,6.638000011444092z"></path></g></g><g transform="matrix(1,0,0,1,750,700)" opacity="1" style="display: block;"><g opacity="1" transform="matrix(1,0,0,1,0,0)"><path fill="rgb(86,82,229)" fill-opacity="1" d=" M436.3340148925781,678.969970703125 C436.3340148925781,678.969970703125 412.1990051269531,693.1229858398438 412.1990051269531,693.1229858398438 C412.1990051269531,693.1229858398438 271.22601318359375,20.79199981689453 271.22601318359375,20.79199981689453 C271.22601318359375,20.79199981689453 295.3599853515625,6.638999938964844 295.3599853515625,6.638999938964844 C295.3599853515625,6.638999938964844 436.3340148925781,678.969970703125 436.3340148925781,678.969970703125z"></path></g></g><g transform="matrix(1,0,0,1,750,700)" opacity="1" style="display: block;"><g opacity="1" transform="matrix(1,0,0,1,0,0)"><path fill="rgb(255,255,255)" fill-opacity="1" d=" M412.1990051269531,693.1229858398438 C412.1990051269531,693.1229858398438 429.28900146484375,693.1229858398438 429.28900146484375,693.1229858398438 C429.28900146484375,693.1229858398438 453.4230041503906,678.969970703125 453.4230041503906,678.969970703125 C453.4230041503906,678.969970703125 436.3340148925781,678.969970703125 436.3340148925781,678.969970703125 C436.3340148925781,678.969970703125 412.1990051269531,693.1229858398438 412.1990051269531,693.1229858398438z"></path></g></g><g transform="matrix(1,0,0,1,750,700)" opacity="1" style="display: block;"><g opacity="1" transform="matrix(1,0,0,1,0,0)"><path fill="rgb(255,45,85)" fill-opacity="1" d=" M306.26300048828125,125.9219970703125 C306.26300048828125,125.9219970703125 142.68800354003906,125.9219970703125 142.68800354003906,125.9219970703125 C142.68800354003906,125.9219970703125 142.68800354003906,105.97599792480469 142.68800354003906,105.97599792480469 C142.68800354003906,105.97599792480469 306.26300048828125,105.97599792480469 306.26300048828125,105.97599792480469 C307.72601318359375,105.97599792480469 308.9119873046875,107.16200256347656 308.9119873046875,108.625 C308.9119873046875,108.625 308.9119873046875,123.27300262451172 308.9119873046875,123.27300262451172 C308.9119873046875,124.73600006103516 307.72601318359375,125.9219970703125 306.26300048828125,125.9219970703125z"></path></g></g><g transform="matrix(1,0,0,1,750,700)" opacity="1" style="display: block;"><g opacity="1" transform="matrix(1,0,0,1,0,0)"><path fill="rgb(255,45,85)" fill-opacity="1" d=" M334.45098876953125,256.31201171875 C334.45098876953125,256.31201171875 170.87600708007812,256.31201171875 170.87600708007812,256.31201171875 C170.87600708007812,256.31201171875 170.87600708007812,236.36599731445312 170.87600708007812,236.36599731445312 C170.87600708007812,236.36599731445312 334.45098876953125,236.36599731445312 334.45098876953125,236.36599731445312 C335.91400146484375,236.36599731445312 337.1000061035156,237.552001953125 337.1000061035156,239.01499938964844 C337.1000061035156,239.01499938964844 337.1000061035156,253.66299438476562 337.1000061035156,253.66299438476562 C337.1000061035156,255.12600708007812 335.91400146484375,256.31201171875 334.45098876953125,256.31201171875z"></path></g></g><g transform="matrix(1,0,0,1,750,700)" opacity="1" style="display: block;"><g opacity="1" transform="matrix(1,0,0,1,0,0)"><path fill="rgb(255,45,85)" fill-opacity="1" d=" M355.4429931640625,395.9219970703125 C355.4429931640625,395.9219970703125 191.8679962158203,395.9219970703125 191.8679962158203,395.9219970703125 C191.8679962158203,395.9219970703125 191.8679962158203,375.97601318359375 191.8679962158203,375.97601318359375 C191.8679962158203,375.97601318359375 355.4429931640625,375.97601318359375 355.4429931640625,375.97601318359375 C356.906005859375,375.97601318359375 358.0920104980469,377.1619873046875 358.0920104980469,378.625 C358.0920104980469,378.625 358.0920104980469,393.27301025390625 358.0920104980469,393.27301025390625 C358.0920104980469,394.7359924316406 356.906005859375,395.9219970703125 355.4429931640625,395.9219970703125z"></path></g></g><g transform="matrix(1,0,0,1,750,700)" opacity="1" style="display: block;"><g opacity="1" transform="matrix(1,0,0,1,0,0)"><path fill="rgb(255,45,85)" fill-opacity="1" d=" M394.1929931640625,524.7349853515625 C394.1929931640625,524.7349853515625 230.6179962158203,524.7349853515625 230.6179962158203,524.7349853515625 C230.6179962158203,524.7349853515625 230.6179962158203,504.7900085449219 230.6179962158203,504.7900085449219 C230.6179962158203,504.7900085449219 394.1929931640625,504.7900085449219 394.1929931640625,504.7900085449219 C395.656005859375,504.7900085449219 396.8420104980469,505.97601318359375 396.8420104980469,507.4389953613281 C396.8420104980469,507.4389953613281 396.8420104980469,522.0859985351562 396.8420104980469,522.0859985351562 C396.8420104980469,523.5490112304688 395.656005859375,524.7349853515625 394.1929931640625,524.7349853515625z"></path></g></g><g transform="matrix(1,0,0,1,750,700)" opacity="1" style="display: block;"><g opacity="1" transform="matrix(1,0,0,1,0,0)"><path fill="rgb(255,45,85)" fill-opacity="1" d=" M110.67500305175781,6.638000011444092 C110.67500305175781,6.638000011444092 109.0770034790039,16.195999145507812 109.0770034790039,16.195999145507812 C109.0770034790039,16.195999145507812 100.09100341796875,20.79199981689453 100.09100341796875,20.79199981689453 C100.09100341796875,20.79199981689453 238.0970001220703,678.969970703125 238.0970001220703,678.969970703125 C238.0970001220703,678.969970703125 268.73699951171875,678.969970703125 268.73699951171875,678.969970703125 C268.73699951171875,678.969970703125 127.76399993896484,6.638000011444092 127.76399993896484,6.638000011444092 C127.76399993896484,6.638000011444092 110.67500305175781,6.638000011444092 110.67500305175781,6.638000011444092z"></path></g><g opacity="1" transform="matrix(1,0,0,1,0,0)"><path fill="rgb(86,82,229)" fill-opacity="1" d=" M251.6479949951172,678.969970703125 C251.6479949951172,678.969970703125 227.51400756835938,693.1229858398438 227.51400756835938,693.1229858398438 C227.51400756835938,693.1229858398438 86.54100036621094,20.79199981689453 86.54100036621094,20.79199981689453 C86.54100036621094,20.79199981689453 110.67500305175781,6.638999938964844 110.67500305175781,6.638999938964844 C110.67500305175781,6.638999938964844 251.6479949951172,678.969970703125 251.6479949951172,678.969970703125z"></path></g><g opacity="1" transform="matrix(1,0,0,1,0,0)"><path fill="rgb(255,255,255)" fill-opacity="1" d=" M227.51400756835938,693.1229858398438 C227.51400756835938,693.1229858398438 244.60299682617188,693.1229858398438 244.60299682617188,693.1229858398438 C244.60299682617188,693.1229858398438 268.73699951171875,678.969970703125 268.73699951171875,678.969970703125 C268.73699951171875,678.969970703125 251.6479949951172,678.969970703125 251.6479949951172,678.969970703125 C251.6479949951172,678.969970703125 227.51400756835938,693.1229858398438 227.51400756835938,693.1229858398438z"></path></g></g></g><g transform="matrix(0.9998720288276672,0.015998929738998413,-0.015998929738998413,0.9998720288276672,579.4150390625,685.3274536132812)" opacity="1" style="display: block;"><g opacity="1" transform="matrix(1,0,0,1,0,0)"><path fill="rgb(255,228,89)" fill-opacity="1" d=" M144.92999267578125,-288.4700012207031 C144.92999267578125,-288.4700012207031 153.81399536132812,-260.7659912109375 153.81399536132812,-260.7659912109375 C153.81399536132812,-260.7659912109375 159.08299255371094,-236.8260040283203 159.08299255371094,-236.8260040283203 C159.08299255371094,-236.8260040283203 210.3470001220703,-214.6929931640625 210.3470001220703,-214.6929931640625 C210.3470001220703,-214.6929931640625 210.3470001220703,-222.14599609375 210.3470001220703,-222.14599609375 C210.3470001220703,-222.14599609375 195.52000427246094,-305.9360046386719 195.52000427246094,-305.9360046386719 C195.52000427246094,-305.9360046386719 173.98899841308594,-326.7139892578125 173.98899841308594,-326.7139892578125 C173.98899841308594,-326.7139892578125 148.2429962158203,-304.1289978027344 148.2429962158203,-304.1289978027344 C148.2429962158203,-304.1289978027344 144.92999267578125,-288.4700012207031 144.92999267578125,-288.4700012207031z"></path></g></g><g transform="matrix(0.9998720288276672,0.015998929738998413,-0.015998929738998413,0.9998720288276672,579.4150390625,685.3274536132812)" opacity="1" style="display: block;"><g opacity="1" transform="matrix(1,0,0,1,0,0)"><path fill="rgb(14,201,211)" fill-opacity="1" d=" M112.70899963378906,-517.3289794921875 C112.70899963378906,-517.3289794921875 128.6699981689453,-509.5 138.9080047607422,-480.89300537109375 C149.14599609375,-452.2860107421875 175.343994140625,-353.2130126953125 175.343994140625,-353.2130126953125 C175.343994140625,-353.2130126953125 199.13400268554688,-342.67401123046875 199.13400268554688,-331.5320129394531 C199.13400268554688,-320.3900146484375 195.52000427246094,-305.9360046386719 195.52000427246094,-305.9360046386719 C195.52000427246094,-305.9360046386719 168.41799926757812,-310.4530029296875 144.92999267578125,-288.4700012207031 C144.92999267578125,-288.4700012207031 92.23200225830078,-428.4960021972656 92.23200225830078,-428.4960021972656 C92.23200225830078,-428.4960021972656 71.4540023803711,-496.85198974609375 112.70899963378906,-517.3289794921875z"></path></g></g><g transform="matrix(0.9998720288276672,0.015998929738998413,-0.015998929738998413,0.9998720288276672,579.4150390625,685.3274536132812)" opacity="1" style="display: block;"><g opacity="1" transform="matrix(1,0,0,1,0,0)"><path stroke-linecap="butt" stroke-linejoin="miter" fill-opacity="0" stroke-miterlimit="10" stroke="rgb(35,31,32)" stroke-opacity="1" stroke-width="0.5" d=" M142.05599975585938,-296.10699462890625 C142.05599975585938,-296.10699462890625 157.26100158691406,-315.9599914550781 197.24400329589844,-314.1099853515625"></path></g></g><g clip-path="url(#__lottie_element_4057)" transform="matrix(1,0,0,1,-158,0)" opacity="1" style="display: block;"><g transform="matrix(0.9940707683563232,-0.10873501747846603,0.10873501747846603,0.9940707683563232,800.7928466796875,688.4503784179688)" opacity="1" style="display: block;"><g opacity="1" transform="matrix(1,0,0,1,0,0)"><path fill="rgb(6,67,132)" fill-opacity="1" d=" M210.10899353027344,-514.27001953125 C210.10899353027344,-514.27001953125 223.69400024414062,-544.4550170898438 205.927001953125,-569.1480102539062 C188.16000366210938,-593.8410034179688 160.21299743652344,-590.052001953125 142.38900756835938,-579.68701171875 C130.25399780273438,-572.6300048828125 127.46399688720703,-569.4249877929688 124.1520004272461,-569.4249877929688 C120.83999633789062,-569.4249877929688 107.28900146484375,-599.8400268554688 92.23200225830078,-600.4420166015625 C77.17500305175781,-601.0440063476562 66.93699645996094,-593.2139892578125 64.22699737548828,-573.6409912109375 C64.22699737548828,-573.6409912109375 25.381000518798828,-582.6749877929688 34.415000915527344,-539.31201171875 C43.44900131225586,-495.9490051269531 111.50499725341797,-507.3919982910156 112.40799713134766,-507.3919982910156 C113.31099700927734,-507.3919982910156 172.63400268554688,-515.7830200195312 173.83900451660156,-514.5989990234375 C175.04400634765625,-513.4149780273438 210.10899353027344,-514.27001953125 210.10899353027344,-514.27001953125z"></path></g></g><g transform="matrix(1,0,0,1,750,700)" opacity="1" style="display: block;"><g opacity="1" transform="matrix(1,0,0,1,0,0)"><path fill="rgb(29,55,105)" fill-opacity="1" d=" M-218.53500366210938,-206.56399536132812 C-227.79100036621094,-215.21400451660156 -231.83599853515625,-230.968994140625 -233.5019989013672,-240.39599609375 C-233.5019989013672,-240.39599609375 -244.13099670410156,-227.9429931640625 -244.13099670410156,-227.9429931640625 C-244.13099670410156,-227.9429931640625 -234.19400024414062,-161.39199829101562 -207.69400024414062,-140.31300354003906 C-207.69400024414062,-140.31300354003906 -183.0019989013672,-166.81300354003906 -183.0019989013672,-166.81300354003906 C-183.0019989013672,-166.81300354003906 -193.61199951171875,-209.51199340820312 -193.61199951171875,-209.51199340820312 C-205.61199951171875,-216.72300720214844 -218.53500366210938,-206.56399536132812 -218.53500366210938,-206.56399536132812z"></path></g></g><g transform="matrix(1,0,0,1,750,700)" opacity="1" style="display: block;"><g opacity="1" transform="matrix(1,0,0,1,0,0)"><path fill="rgb(255,255,255)" fill-opacity="1" d=" M-239.66799926757812,-233.17300415039062 C-239.66799926757812,-233.17300415039062 -244.13099670410156,-227.9429931640625 -244.13099670410156,-227.9429931640625 C-244.13099670410156,-227.9429931640625 -234.19400024414062,-161.39199829101562 -207.69400024414062,-140.31300354003906 C-207.69400024414062,-140.31300354003906 -200.2729949951172,-148.27699279785156 -200.2729949951172,-148.27699279785156 C-226.7760009765625,-164.30099487304688 -236.91900634765625,-215.6230010986328 -239.66799926757812,-233.17300415039062z"></path></g></g><g transform="matrix(1,0,0,1,750,700)" opacity="1" style="display: block;"><g opacity="1" transform="matrix(1,0,0,1,0,0)"><path fill="rgb(255,228,89)" fill-opacity="1" d=" M-218.53500366210938,-206.56399536132812 C-218.53500366210938,-206.56399536132812 -205.61199951171875,-216.72300720214844 -193.61199951171875,-209.51199340820312 C-193.61199951171875,-209.51199340820312 -195.34800720214844,-216.5 -195.34800720214844,-216.5 C-195.34800720214844,-216.5 -169.7519989013672,-237.57899475097656 -169.7519989013672,-237.57899475097656 C-169.7519989013672,-237.57899475097656 -203.7790069580078,-275.2200012207031 -203.7790069580078,-275.2200012207031 C-203.7790069580078,-275.2200012207031 -233.5019989013672,-240.39599609375 -233.5019989013672,-240.39599609375 C-231.83599853515625,-230.968994140625 -227.79100036621094,-215.21400451660156 -218.53500366210938,-206.56399536132812z"></path></g></g><g transform="matrix(1,0,0,1,750,700)" opacity="1" style="display: block;"><g opacity="1" transform="matrix(1,0,0,1,0,0)"><path fill="rgb(0,0,0)" fill-opacity="1" d=" M-203.7790069580078,-275.2200012207031 C-203.7790069580078,-275.2200012207031 -214.1529998779297,-263.0660095214844 -214.1529998779297,-263.0660095214844 C-209.38299560546875,-252.18299865722656 -200.2310028076172,-236.32899475097656 -184.37399291992188,-225.53799438476562 C-184.37399291992188,-225.53799438476562 -169.7519989013672,-237.57899475097656 -169.7519989013672,-237.57899475097656 C-169.7519989013672,-237.57899475097656 -203.7790069580078,-275.2200012207031 -203.7790069580078,-275.2200012207031z"></path></g></g><g transform="matrix(1,0,0,1,750,700)" opacity="1" style="display: block;"><g opacity="1" transform="matrix(1,0,0,1,0,0)"><path fill="rgb(29,55,105)" fill-opacity="1" d=" M26.510000228881836,-201.3679962158203 C7.910999774932861,-215.44900512695312 -0.26499998569488525,-227.63400268554688 -3.76200008392334,-234.6230010986328 C-3.76200008392334,-234.6230010986328 -12.109999656677246,-220.41400146484375 -12.109999656677246,-220.41400146484375 C-12.109999656677246,-220.41400146484375 13.1850004196167,-190.97900390625 19.735000610351562,-177.6540069580078 C26.284000396728516,-164.32899475097656 46.159000396728516,-136.09800720214844 71.68000030517578,-149.19700622558594 C94.2959976196289,-160.80499267578125 65.35900115966797,-195.98599243164062 55.92300033569336,-212.17799377441406 C35.92300033569336,-213.33399963378906 26.510000228881836,-201.3679962158203 26.510000228881836,-201.3679962158203z"></path></g></g><g transform="matrix(1,0,0,1,750,700)" opacity="1" style="display: block;"><g opacity="1" transform="matrix(1,0,0,1,0,0)"><path fill="rgb(255,203,83)" fill-opacity="1" d=" M55.92300033569336,-212.17799377441406 C54.71099853515625,-214.25799560546875 53.803001403808594,-216.04100036621094 53.38600158691406,-217.4029998779297 C49.720001220703125,-229.3730010986328 61.064998626708984,-267.31500244140625 61.064998626708984,-267.31500244140625 C61.064998626708984,-267.31500244140625 15.444000244140625,-267.31500244140625 15.444000244140625,-267.31500244140625 C15.444000244140625,-267.31500244140625 -3.76200008392334,-234.6230010986328 -3.76200008392334,-234.6230010986328 C-0.26499998569488525,-227.63400268554688 7.910999774932861,-215.44900512695312 26.510000228881836,-201.3679962158203 C26.510000228881836,-201.3679962158203 35.92300033569336,-213.33399963378906 55.92300033569336,-212.17799377441406z"></path></g></g><g transform="matrix(1,0,0,1,750,700)" opacity="1" style="display: block;"><g opacity="1" transform="matrix(1,0,0,1,0,0)"><path fill="rgb(0,0,0)" fill-opacity="1" d=" M15.444000244140625,-267.31500244140625 C15.444000244140625,-267.31500244140625 6.580999851226807,-252.22900390625 6.580999851226807,-252.22900390625 C14.52299976348877,-241.6320037841797 29.6299991607666,-225.8249969482422 53.57600021362305,-216.94400024414062 C53.5260009765625,-217.0850067138672 53.426998138427734,-217.27000427246094 53.38600158691406,-217.4029998779297 C49.720001220703125,-229.3730010986328 61.064998626708984,-267.31500244140625 61.064998626708984,-267.31500244140625 C61.064998626708984,-267.31500244140625 15.444000244140625,-267.31500244140625 15.444000244140625,-267.31500244140625z"></path></g></g><g transform="matrix(1,0,0,1,750,700)" opacity="1" style="display: block;"><g opacity="1" transform="matrix(1,0,0,1,0,0)"><path fill="rgb(255,255,255)" fill-opacity="1" d=" M77.68399810791016,-154.3470001220703 C74.83200073242188,-153.89100646972656 71.7239990234375,-153.3209991455078 68.29199981689453,-152.5850067138672 C42.99700164794922,-147.1649932861328 28.542999267578125,-172.91000366210938 20.86400032043457,-187.13900756835938 C14.746999740600586,-198.4739990234375 -2.5160000324249268,-217.7969970703125 -9.29699993133545,-225.20199584960938 C-9.29699993133545,-225.20199584960938 -12.109999656677246,-220.41400146484375 -12.109999656677246,-220.41400146484375 C-12.109999656677246,-220.41400146484375 13.1850004196167,-190.97900390625 19.735000610351562,-177.6540069580078 C26.284000396728516,-164.32899475097656 46.159000396728516,-136.09800720214844 71.68000030517578,-149.19700622558594 C74.39800262451172,-150.5919952392578 76.33200073242188,-152.34500122070312 77.68399810791016,-154.3470001220703z"></path></g></g><g transform="matrix(1,0,0,1,750,700)" opacity="1" style="display: block;"><g opacity="1" transform="matrix(1,0,0,1,0,0)"><path fill="rgb(255,47,79)" fill-opacity="1" d=" M-84.53199768066406,-479.3869934082031 C-84.53199768066406,-479.3869934082031 -112.83799743652344,-466.739013671875 -131.8090057373047,-420.364990234375 C-150.77999877929688,-373.9909973144531 -157.10400390625,-339.6619873046875 -157.10400390625,-339.6619873046875 C-157.10400390625,-339.6619873046875 -207.69400024414062,-276.1239929199219 -207.69400024414062,-276.1239929199219 C-207.69400024414062,-276.1239929199219 -201.06900024414062,-235.4709930419922 -152.58700561523438,-220.41400146484375 C-152.58700561523438,-220.41400146484375 -104.70700073242188,-267.9930114746094 -88.44599914550781,-307.4410095214844 C-72.18499755859375,-346.8890075683594 -56.827999114990234,-378.50799560546875 -56.827999114990234,-378.50799560546875 C-56.827999114990234,-378.50799560546875 -42.67399978637695,-376.0989990234375 -42.67399978637695,-376.0989990234375 C-42.67399978637695,-376.0989990234375 19.05699920654297,-324.9070129394531 35.31800079345703,-316.4750061035156 C35.31800079345703,-316.4750061035156 9.420999526977539,-265.5840148925781 9.420999526977539,-265.5840148925781 C9.420999526977539,-265.5840148925781 30.801000595092773,-226.43699645996094 80.48799896240234,-220.41400146484375 C80.48799896240234,-220.41400146484375 101.56700134277344,-301.1180114746094 103.3740005493164,-315.87298583984375 C105.18099975585938,-330.62799072265625 97.72799682617188,-349.5989990234375 87,-358.3320007324219 C76.27200317382812,-367.06500244140625 -0.515999972820282,-415.8479919433594 -0.515999972820282,-415.8479919433594 C-0.515999972820282,-415.8479919433594 -84.53199768066406,-479.3869934082031 -84.53199768066406,-479.3869934082031z"></path></g></g><g transform="matrix(1,0,0,1,750,700)" opacity="1" style="display: block;"><g opacity="1" transform="matrix(1,0,0,1,0,0)"><path fill="rgb(255,47,79)" fill-opacity="1" d=" M103.3740005493164,-315.87298583984375 C105.18099975585938,-330.62799072265625 97.72799682617188,-349.5989990234375 87,-358.3320007324219 C78.13899993896484,-365.5450134277344 24.243000030517578,-400.0610046386719 5.743000030517578,-411.86199951171875 C5.743000030517578,-411.86199951171875 -56.827999114990234,-378.50799560546875 -56.827999114990234,-378.50799560546875 C-56.827999114990234,-378.50799560546875 -42.67399978637695,-376.0989990234375 -42.67399978637695,-376.0989990234375 C-42.67399978637695,-376.0989990234375 19.058000564575195,-324.9070129394531 35.319000244140625,-316.4750061035156 C35.319000244140625,-316.4750061035156 9.420999526977539,-265.5840148925781 9.420999526977539,-265.5840148925781 C9.420999526977539,-265.5840148925781 30.801000595092773,-226.43699645996094 80.48799896240234,-220.41400146484375 C80.48799896240234,-220.41400146484375 101.56700134277344,-301.1180114746094 103.3740005493164,-315.87298583984375z"></path></g></g><g transform="matrix(1,0,0,1,750,700)" opacity="1" style="display: block;"><g opacity="1" transform="matrix(1,0,0,1,0,0)"><path stroke-linecap="round" stroke-linejoin="miter" fill-opacity="0" stroke-miterlimit="10" stroke="rgb(255,255,255)" stroke-opacity="1" stroke-width="0.75" d=" M-72.2959976196289,-470.1340026855469 C-72.2959976196289,-470.1340026855469 -113.3499984741211,-440.5409851074219 -127.24700164794922,-388.44500732421875 C-141.1439971923828,-336.3489990234375 -145.66099548339844,-316.7760009765625 -145.66099548339844,-316.7760009765625 C-145.66099548339844,-316.7760009765625 -200.76800537109375,-260.7659912109375 -200.76800537109375,-260.7659912109375"></path></g></g><g transform="matrix(1,0,0,1,750,700)" opacity="1" style="display: block;"><g opacity="1" transform="matrix(1,0,0,1,0,0)"><path stroke-linecap="round" stroke-linejoin="miter" fill-opacity="0" stroke-miterlimit="10" stroke="rgb(255,255,255)" stroke-opacity="1" stroke-width="0.75" d=" M-19.788000106811523,-383.32598876953125 C-19.788000106811523,-383.32598876953125 28.694000244140625,-338.90899658203125 64.22699737548828,-324.22900390625 C64.22699737548828,-324.22900390625 37.707000732421875,-291.6409912109375 22.2189998626709,-249.21800231933594"></path></g></g><g transform="matrix(0.9940707683563232,-0.10873501747846603,0.10873501747846603,0.9940707683563232,800.7928466796875,688.4503784179688)" opacity="1" style="display: block;"><g opacity="1" transform="matrix(1,0,0,1,0,0)"><path fill="rgb(17,241,253)" fill-opacity="1" d=" M112.70899963378906,-517.3289794921875 C112.70899963378906,-517.3289794921875 58.50600051879883,-549.2490234375 10.927000045776367,-540.2150268554688 C-36.652000427246094,-531.1810302734375 -88.44599914550781,-479.989013671875 -88.44599914550781,-479.989013671875 C-88.44599914550781,-479.989013671875 -77.00299835205078,-423.97900390625 -28.520999908447266,-407.4169921875 C19.961000442504883,-390.8550109863281 68.74400329589844,-391.7569885253906 81.39199829101562,-395.3710021972656 C94.04000091552734,-398.9849853515625 131.9810028076172,-423.97900390625 124.4530029296875,-500.7669982910156 C124.4530029296875,-500.7669982910156 112.70899963378906,-517.3289794921875 112.70899963378906,-517.3289794921875z"></path></g></g><g transform="matrix(0.9940707683563232,-0.10873501747846603,0.10873501747846603,0.9940707683563232,800.7928466796875,688.4503784179688)" opacity="1" style="display: block;"><g opacity="1" transform="matrix(1,0,0,1,0,0)"><path fill="rgb(0,0,0)" fill-opacity="1" d=" M6.480999946594238,-398.2179870605469 C7.198999881744385,-398.0799865722656 7.896999835968018,-397.96600341796875 8.611000061035156,-397.8349914550781 C11.416999816894531,-397.3190002441406 14.182999610900879,-396.85198974609375 16.913999557495117,-396.4330139160156 C17.365999221801758,-396.364013671875 17.84000015258789,-396.2669982910156 18.288999557495117,-396.20001220703125 C18.288999557495117,-396.20001220703125 18.322999954223633,-396.22198486328125 18.322999954223633,-396.22198486328125 C30.30699920654297,-394.4440002441406 41.47800064086914,-393.5379943847656 51.071998596191406,-393.2869873046875 C51.071998596191406,-393.2869873046875 18.493000030517578,-462.2229919433594 18.493000030517578,-462.2229919433594 C18.493000030517578,-462.2229919433594 6.5329999923706055,-438.1990051269531 6.5329999923706055,-438.1990051269531 C6.5329999923706055,-438.1990051269531 -32.71589279174805,-492.3526306152344 -32.71589279174805,-492.3526306152344 C-32.71589279174805,-492.3526306152344 -64.95440673828125,-433.1134033203125 -64.95440673828125,-433.1134033203125 C-56.88440704345703,-425.0933837890625 -41.20000076293945,-411.74798583984375 -28.520999908447266,-407.4169921875 C-22.767000198364258,-405.45098876953125 -17.0310001373291,-403.81201171875 -11.331000328063965,-402.31500244140625 C-11.331000328063965,-402.31500244140625 -11.361000061035156,-402.2539978027344 -11.361000061035156,-402.2539978027344 C-9.788000106811523,-401.8399963378906 -8.234000205993652,-401.4849853515625 -6.671000003814697,-401.10400390625 C-5.698999881744385,-400.8680114746094 -4.724999904632568,-400.614013671875 -3.757999897003174,-400.3900146484375 C-0.30799999833106995,-399.59100341796875 3.1080000400543213,-398.8659973144531 6.480999946594238,-398.2179870605469z"></path></g></g><g transform="matrix(0.9940707683563232,-0.10873501747846603,0.10873501747846603,0.9940707683563232,800.7928466796875,688.4503784179688)" opacity="1" style="display: block;"><g opacity="1" transform="matrix(1,0,0,1,0,0)"><path fill="rgb(17,241,253)" fill-opacity="1" d=" M77.77799987792969,-527.8690185546875 C77.77799987792969,-527.8690185546875 79.88600158691406,-541.8270263671875 96.7490005493164,-541.8259887695312 C111.20500183105469,-541.8250122070312 137.7570037841797,-500.3760070800781 130.4759979248047,-482.09698486328125 C130.4759979248047,-482.09698486328125 125.04399871826172,-470.1340026855469 102.77200317382812,-473.7090148925781 C102.77200317382812,-473.7090148925781 77.77799987792969,-527.8690185546875 77.77799987792969,-527.8690185546875z"></path></g></g><g transform="matrix(0.9940707683563232,-0.10873501747846603,0.10873501747846603,0.9940707683563232,800.7928466796875,688.4503784179688)" opacity="1" style="display: block;"><g opacity="1" transform="matrix(1,0,0,1,0,0)"><path fill="rgb(255,228,89)" fill-opacity="1" d=" M99.87799835205078,-525.416015625 C99.87799835205078,-525.416015625 149.7480010986328,-533.8920288085938 149.7480010986328,-533.8920288085938 C149.7480010986328,-533.8920288085938 159.08299255371094,-511.3070068359375 159.08299255371094,-511.3070068359375 C159.08299255371094,-511.3070068359375 112.40599822998047,-492.4280090332031 112.40599822998047,-492.4280090332031 C112.40599822998047,-492.4280090332031 96.29299926757812,-495.41400146484375 99.87799835205078,-525.416015625z"></path></g></g><g transform="matrix(0.9940707683563232,-0.10873501747846603,0.10873501747846603,0.9940707683563232,800.7928466796875,688.4503784179688)" opacity="1" style="display: block;"><g opacity="1" transform="matrix(1,0,0,1,0,0)"><path fill="rgb(0,0,0)" fill-opacity="1" d=" M159.08299255371094,-511.3070068359375 C159.08299255371094,-511.3070068359375 149.7480010986328,-533.8920288085938 149.7480010986328,-533.8920288085938 C149.7480010986328,-533.8920288085938 135.22900390625,-517.3109741210938 130.3560028076172,-499.68798828125 C130.3560028076172,-499.68798828125 159.08299255371094,-511.3070068359375 159.08299255371094,-511.3070068359375z"></path></g></g><g transform="matrix(0.9940707683563232,-0.10873501747846603,0.10873501747846603,0.9940707683563232,800.7928466796875,688.4503784179688)" opacity="1" style="display: block;"><g opacity="1" transform="matrix(1,0,0,1,0,0)"><path fill="rgb(255,228,89)" fill-opacity="1" d=" M151.25399780273438,-530.5789794921875 C151.25399780273438,-530.5789794921875 126.84100341796875,-493.10101318359375 157.56100463867188,-478.9840087890625 C183.7729949951172,-466.9389953613281 197.9290008544922,-504.0799865722656 197.9290008544922,-504.0799865722656 C197.9290008544922,-504.0799865722656 221.4929962158203,-513.3400268554688 208.54400634765625,-539.2369995117188 C208.54400634765625,-539.2369995117188 196.49899291992188,-533.0640258789062 175.11900329589844,-540.5919799804688 C175.11900329589844,-540.5919799804688 175.94700622558594,-530.2780151367188 151.25399780273438,-530.5789794921875z"></path></g></g><g transform="matrix(0.9940707683563232,-0.10873501747846603,0.10873501747846603,0.9940707683563232,800.7928466796875,688.4503784179688)" opacity="1" style="display: block;"><g opacity="1" transform="matrix(1,0,0,1,0,0)"><path fill="rgb(255,228,89)" fill-opacity="1" d=" M165.40699768066406,-533.8920288085938 C165.40699768066406,-526.4080200195312 160.2169952392578,-520.3410034179688 153.81399536132812,-520.3410034179688 C147.41099548339844,-520.3410034179688 142.22000122070312,-526.4080200195312 142.22000122070312,-533.8920288085938 C142.22000122070312,-541.3759765625 147.41099548339844,-547.4429931640625 153.81399536132812,-547.4429931640625 C160.2169952392578,-547.4429931640625 165.40699768066406,-541.3759765625 165.40699768066406,-533.8920288085938z"></path></g></g><g transform="matrix(0.9999178051948547,-0.012817345559597015,0.012817345559597015,0.9999178051948547,747.68310546875,698.104248046875)" opacity="1" style="display: block;"><g opacity="1" transform="matrix(1,0,0,1,0,0)"><path fill="rgb(255,228,89)" fill-opacity="1" d=" M-73.38999938964844,-270.10101318359375 C-73.38999938964844,-270.10101318359375 -76.58799743652344,-259.5610046386719 -76.58799743652344,-259.5610046386719 C-76.58799743652344,-259.5610046386719 -129.0989990234375,-240.28900146484375 -132.41099548339844,-210.4770050048828 C-132.41099548339844,-210.4770050048828 -135.572998046875,-204.1529998779297 -132.41099548339844,-197.82899475097656 C-132.41099548339844,-197.82899475097656 -132.41200256347656,-188.64500427246094 -126.84100341796875,-187.13900756835938 C-126.84100341796875,-187.13900756835938 -124.28099822998047,-181.11599731445312 -112.83799743652344,-184.72999572753906 C-101.3949966430664,-188.343994140625 -62.69900131225586,-220.56500244140625 -50.35300064086914,-220.41400146484375 C-38.00699996948242,-220.26300048828125 -33.18899917602539,-210.9290008544922 -30.780000686645508,-206.41200256347656 C-28.371000289916992,-201.89500427246094 -22.799999237060547,-190.30099487304688 -10.152000427246094,-194.06500244140625 C-10.152000427246094,-194.06500244140625 -1.871000051498413,-196.47500610351562 -9.39900016784668,-206.11099243164062 C-16.927000045776367,-215.7469940185547 -23.10099983215332,-217.4530029296875 -26.26300048828125,-226.83799743652344 C-29.424999237060547,-236.22300720214844 -33.3390007019043,-248.2689971923828 -33.3390007019043,-248.2689971923828 C-33.3390007019043,-248.2689971923828 -28.520999908447266,-260.7659912109375 -28.520999908447266,-260.7659912109375 C-28.520999908447266,-260.7659912109375 -35.89899826049805,-285.3080139160156 -35.89899826049805,-285.3080139160156 C-35.89899826049805,-285.3080139160156 -73.38999938964844,-270.10101318359375 -73.38999938964844,-270.10101318359375z"></path></g></g><g transform="matrix(0.9999178051948547,-0.012817345559597015,0.012817345559597015,0.9999178051948547,747.68310546875,698.104248046875)" opacity="1" style="display: block;"><g opacity="1" transform="matrix(1,0,0,1,0,0)"><path fill="rgb(17,241,253)" fill-opacity="1" d=" M-28.520999908447266,-494.1419982910156 C-28.520999908447266,-494.1419982910156 -11.937000274658203,-533.0479736328125 21.76799964904785,-522.75 C48.20199966430664,-514.6740112304688 39.534000396728516,-464.3299865722656 39.534000396728516,-464.3299865722656 C39.534000396728516,-464.3299865722656 -4.431000232696533,-305.0320129394531 -28.520999908447266,-260.7659912109375 C-28.520999908447266,-260.7659912109375 -39.66299819946289,-274.6180114746094 -73.38999938964844,-270.10101318359375 C-73.38999938964844,-270.10101318359375 -70.98100280761719,-280.6409912109375 -70.98100280761719,-280.6409912109375 C-70.98100280761719,-280.6409912109375 -80.31500244140625,-299.010009765625 -74.8949966430664,-313.7650146484375 C-69.4749984741211,-328.5199890136719 -62.54899978637695,-328.2200012207031 -59.8390007019043,-331.2309875488281 C-57.12900161743164,-334.24200439453125 -39.36199951171875,-466.739013671875 -28.520999908447266,-494.1419982910156z"></path></g></g><g transform="matrix(0.9999178051948547,-0.012817345559597015,0.012817345559597015,0.9999178051948547,747.68310546875,698.104248046875)" opacity="1" style="display: block;"><g opacity="1" transform="matrix(1,0,0,1,0,0)"><path stroke-linecap="round" stroke-linejoin="round" fill-opacity="0" stroke="rgb(35,31,32)" stroke-opacity="1" stroke-width="0.5" d=" M-126.84100341796875,-187.13900756835938 C-126.84100341796875,-187.13900756835938 -127.24700164794922,-197.82899475097656 -98.53399658203125,-217.4029998779297"></path></g></g><g transform="matrix(0.9999178051948547,-0.012817345559597015,0.012817345559597015,0.9999178051948547,747.68310546875,698.104248046875)" opacity="1" style="display: block;"><g opacity="1" transform="matrix(1,0,0,1,0,0)"><path stroke-linecap="round" stroke-linejoin="round" fill-opacity="0" stroke="rgb(35,31,32)" stroke-opacity="1" stroke-width="0.5" d=" M-132.41099548339844,-197.82899475097656 C-132.41099548339844,-197.82899475097656 -121.41999816894531,-214.6929931640625 -104.25599670410156,-225.38299560546875"></path></g></g><g transform="matrix(0.9999178051948547,-0.012817345559597015,0.012817345559597015,0.9999178051948547,747.68310546875,698.104248046875)" opacity="1" style="display: block;"><g opacity="1" transform="matrix(1,0,0,1,0,0)"><path stroke-linecap="round" stroke-linejoin="round" fill-opacity="0" stroke="rgb(35,31,32)" stroke-opacity="1" stroke-width="0.5" d=" M-132.41099548339844,-210.4770050048828 C-132.41099548339844,-210.4770050048828 -124.56800079345703,-222.74899291992188 -110.42900085449219,-233.81500244140625"></path></g></g><g transform="matrix(0.9999178051948547,-0.012817345559597015,0.012817345559597015,0.9999178051948547,747.68310546875,698.104248046875)" opacity="1" style="display: block;"><g opacity="1" transform="matrix(1,0,0,1,0,0)"><path stroke-linecap="butt" stroke-linejoin="miter" fill-opacity="0" stroke-miterlimit="10" stroke="rgb(35,31,32)" stroke-opacity="1" stroke-width="0.5" d=" M-70.98100280761719,-280.6409912109375 C-70.98100280761719,-280.6409912109375 -38.30400085449219,-286.9639892578125 -23.625999450683594,-270.7030029296875"></path></g></g><g transform="matrix(0.9940707683563232,-0.10873501747846603,0.10873501747846603,0.9940707683563232,800.7928466796875,688.4503784179688)" opacity="1" style="display: block;"><g opacity="1" transform="matrix(1,0,0,1,0,0)"><path stroke-linecap="round" stroke-linejoin="miter" fill-opacity="0" stroke-miterlimit="10" stroke="rgb(35,31,32)" stroke-opacity="1" stroke-width="0.75" d=" M77.77799987792969,-504.6820068359375 C77.77799987792969,-504.6820068359375 88.91999816894531,-514.27001953125 88.91999816894531,-514.27001953125"></path></g></g><g transform="matrix(0.9940707683563232,-0.10873501747846603,0.10873501747846603,0.9940707683563232,800.7928466796875,688.4503784179688)" opacity="1" style="display: block;"><g opacity="1" transform="matrix(1,0,0,1,0,0)"><path stroke-linecap="round" stroke-linejoin="miter" fill-opacity="0" stroke-miterlimit="10" stroke="rgb(35,31,32)" stroke-opacity="1" stroke-width="0.75" d=" M87,-489.02301025390625 C87,-489.02301025390625 99.35800170898438,-495.9490051269531 99.35800170898438,-495.9490051269531"></path></g></g><g transform="matrix(0.9940707683563232,-0.10873501747846603,0.10873501747846603,0.9940707683563232,800.7928466796875,688.4503784179688)" opacity="1" style="display: block;"><g opacity="1" transform="matrix(1,0,0,1,0,0)"><path stroke-linecap="round" stroke-linejoin="miter" fill-opacity="0" stroke-miterlimit="10" stroke="rgb(35,31,32)" stroke-opacity="1" stroke-width="0.75" d=" M96.14700317382812,-479.3869934082031 C96.14700317382812,-479.3869934082031 109.697998046875,-483.0010070800781 109.697998046875,-483.0010070800781"></path></g></g><g transform="matrix(0.9940707683563232,-0.10873501747846603,0.10873501747846603,0.9940707683563232,800.7928466796875,688.4503784179688)" opacity="1" style="display: block;"><g opacity="1" transform="matrix(1,0,0,1,0,0)"><path stroke-linecap="round" stroke-linejoin="miter" fill-opacity="0" stroke-miterlimit="10" stroke="rgb(35,31,32)" stroke-opacity="1" stroke-width="0.75" d=" M164.052001953125,-504.6820068359375 C164.052001953125,-504.6820068359375 159.88299560546875,-493.35101318359375 172.63400268554688,-489.02301025390625"></path></g></g><g transform="matrix(0.9940707683563232,-0.10873501747846603,0.10873501747846603,0.9940707683563232,800.7928466796875,688.4503784179688)" opacity="1" style="display: block;"><g opacity="1" transform="matrix(1,0,0,1,0,0)"><path stroke-linecap="round" stroke-linejoin="miter" fill-opacity="0" stroke-miterlimit="10" stroke="rgb(35,31,32)" stroke-opacity="1" stroke-width="0.75" d=" M188.08200073242188,-503.16400146484375 C188.08200073242188,-503.16400146484375 187.8419952392578,-496.8529968261719 187.8419952392578,-496.8529968261719 C187.8419952392578,-496.8529968261719 180.19200134277344,-497.7070007324219 180.19200134277344,-497.7070007324219"></path></g></g><g transform="matrix(0.9940707683563232,-0.10873501747846603,0.10873501747846603,0.9940707683563232,800.7928466796875,688.4503784179688)" opacity="1" style="display: block;"><g opacity="1" transform="matrix(1,0,0,1,0,0)"><path stroke-linecap="round" stroke-linejoin="miter" fill-opacity="0" stroke-miterlimit="10" stroke="rgb(35,31,32)" stroke-opacity="1" stroke-width="0.75" d=" M178.73199462890625,-527.718994140625 C178.73199462890625,-527.718994140625 188.72900390625,-528.8989868164062 193.86399841308594,-524.4849853515625"></path></g></g><g transform="matrix(0.9940707683563232,-0.10873501747846603,0.10873501747846603,0.9940707683563232,800.7928466796875,688.4503784179688)" opacity="1" style="display: block;"><g opacity="1" transform="matrix(1,0,0,1,0,0)"><path stroke-linecap="round" stroke-linejoin="miter" fill-opacity="0" stroke-miterlimit="10" stroke="rgb(35,31,32)" stroke-opacity="1" stroke-width="0.75" d=" M200.80299377441406,-520.5380249023438 C200.80299377441406,-520.5380249023438 205.6219940185547,-517.5789794921875 204.7050018310547,-513.1599731445312"></path></g></g><g transform="matrix(0.9940707683563232,-0.10873501747846603,0.10873501747846603,0.9940707683563232,800.7928466796875,688.4503784179688)" opacity="1" style="display: block;"><g opacity="1" transform="matrix(1,0,0,1,0,0)"><path fill="rgb(35,31,32)" fill-opacity="1" d=" M184.6269989013672,-512.2769775390625 C183.18499755859375,-510.6570129394531 181.4510040283203,-509.84698486328125 180.7519989013672,-510.468994140625 C180.05299377441406,-511.09100341796875 180.65499877929688,-512.9089965820312 182.0970001220703,-514.5289916992188 C183.53900146484375,-516.1489868164062 185.2729949951172,-516.9580078125 185.9720001220703,-516.3359985351562 C186.67100524902344,-515.7139892578125 186.06900024414062,-513.89697265625 184.6269989013672,-512.2769775390625z"></path></g></g><g transform="matrix(0.9940707683563232,-0.10873501747846603,0.10873501747846603,0.9940707683563232,800.7928466796875,688.4503784179688)" opacity="1" style="display: block;"><g opacity="1" transform="matrix(1,0,0,1,0,0)"><path fill="rgb(35,31,32)" fill-opacity="1" d=" M193.75100708007812,-504.9010009765625 C192.3090057373047,-503.281005859375 190.57400512695312,-502.47100830078125 189.875,-503.0929870605469 C189.17599487304688,-503.7149963378906 189.7779998779297,-505.5329895019531 191.22000122070312,-507.15301513671875 C192.66200256347656,-508.77301025390625 194.39700317382812,-509.5820007324219 195.0959930419922,-508.9599914550781 C195.7949981689453,-508.3380126953125 195.1929931640625,-506.52099609375 193.75100708007812,-504.9010009765625z"></path></g></g></g><g clip-path="url(#__lottie_element_4061)" transform="matrix(1,0,0,1,-158,0)" opacity="1" style="display: block;"><g clip-path="url(#__lottie_element_4209)" transform="matrix(0.9998720288276672,-0.015998929738998413,0.015998929738998413,0.9998720288276672,-17.9019775390625,-2.1803269386291504)" opacity="1" style="display: block;"><g transform="matrix(1,0,0,1,750,700)" opacity="1" style="display: block;"><g opacity="1" transform="matrix(1,0,0,1,0,0)"><path fill="rgb(0,0,0)" fill-opacity="1" d=" M393.9590148925781,-134.06500244140625 C392.59698486328125,-139.03399658203125 374.5429992675781,-146.71200561523438 373.18798828125,-148.5189971923828 C371.8330078125,-150.3260040283203 375.6719970703125,-165.23199462890625 375.6719970703125,-165.23199462890625 C365.96099853515625,-170.42599487304688 349.24700927734375,-167.94200134277344 340.8909912109375,-156.87600708007812 C336.12298583984375,-150.56199645996094 338.052001953125,-138.7449951171875 341.47100830078125,-129.75 C341.47100830078125,-129.75 310.62799072265625,-105.38200378417969 310.62799072265625,-105.38200378417969 C310.62799072265625,-105.38200378417969 321.0920104980469,-90.0250015258789 321.0920104980469,-90.0250015258789 C321.0920104980469,-90.0250015258789 311.9649963378906,-72.80999755859375 317.8370056152344,-58.63199996948242 C317.8370056152344,-58.63199996948242 375.2200012207031,-61.08700180053711 389.67401123046875,-76.44499969482422 C396.3810119628906,-83.57099914550781 394.0419921875,-103.802001953125 384.74200439453125,-115.1449966430664 C389.2099914550781,-121.83699798583984 394.7919921875,-131.02699279785156 393.9590148925781,-134.06500244140625z"></path></g></g><g transform="matrix(1,0,0,1,750,700)" opacity="1" style="display: block;"><g opacity="1" transform="matrix(1,0,0,1,0,0)"><path fill="rgb(252,120,167)" fill-opacity="1" d=" M298.05499267578125,-117.2770004272461 C298.05499267578125,-117.2770004272461 288.427001953125,-117.93099975585938 288.427001953125,-117.93099975585938 C284.89599609375,-118.1709976196289 282.010986328125,-115.11399841308594 282.52099609375,-111.61199951171875 C282.8970031738281,-109.02999877929688 283.7569885253906,-105.85700225830078 285.5580139160156,-102.37100219726562 C285.5580139160156,-102.37100219726562 298.05499267578125,-117.2770004272461 298.05499267578125,-117.2770004272461z"></path></g></g><g transform="matrix(1,0,0,1,750,700)" opacity="1" style="display: block;"><g opacity="1" transform="matrix(1,0,0,1,0,0)"><path fill="rgb(249,174,168)" fill-opacity="1" d=" M341.7950134277344,-62.244998931884766 C329.14801025390625,-66.98799896240234 325.3080139160156,-85.05599975585938 325.3080139160156,-85.05599975585938 C325.3080139160156,-85.05599975585938 319.4360046386719,-104.25299835205078 319.4360046386719,-104.25299835205078 C319.4360046386719,-104.25299835205078 332.5350036621094,-107.18900299072266 332.5350036621094,-107.18900299072266 C335.0190124511719,-125.25700378417969 351.8210144042969,-118.48200225830078 351.8210144042969,-118.48200225830078 C346.3080139160156,-128.96400451660156 345.7539978027344,-136.3159942626953 346.2820129394531,-140.69700622558594 C340.6659851074219,-141.43800354003906 333.96600341796875,-141.1510009765625 325.9849853515625,-139.03399658203125 C292.7850036621094,-130.2259979248047 275.16900634765625,-85.73400115966797 275.16900634765625,-85.73400115966797 C275.16900634765625,-85.73400115966797 286.22698974609375,-59.750999450683594 286.22698974609375,-59.750999450683594 C294.2959899902344,-59.027000427246094 302.3110046386719,-59.20899963378906 309.8840026855469,-59.9109992980957 C309.8840026855469,-59.9109992980957 315.8219909667969,-23.17300033569336 315.8219909667969,-23.17300033569336 C315.8219909667969,-23.17300033569336 374.5429992675781,-17.076000213623047 374.5429992675781,-17.076000213623047 C374.5429992675781,-17.076000213623047 350.27801513671875,-60.02000045776367 350.27801513671875,-60.02000045776367 C347.0669860839844,-60.62900161743164 344.15399169921875,-61.36000061035156 341.7950134277344,-62.244998931884766z"></path></g></g><g transform="matrix(1,0,0,1,750,700)" opacity="1" style="display: block;"><g opacity="1" transform="matrix(1,0,0,1,0,0)"><path stroke-linecap="round" stroke-linejoin="round" fill-opacity="0" stroke="rgb(35,31,32)" stroke-opacity="1" stroke-width="0.5" d=" M317.8370056152344,-73.14099884033203 C317.8370056152344,-73.14099884033203 308.89599609375,-61.11600112915039 291.42999267578125,-61.266998291015625"></path></g></g><g transform="matrix(1,0,0,1,749.9999389648438,700)" opacity="1" style="display: block;"><g opacity="1" transform="matrix(1,0,0,1,0,0)"><path fill="rgb(249,174,168)" fill-opacity="1" d=" M317.92999267578125,-97.25199890136719 C317.92999267578125,-97.25199890136719 333.43798828125,-104.47899627685547 340.364013671875,-91.37999725341797 C347.2900085449219,-78.28099822998047 321.0920104980469,-61.643001556396484 312.510009765625,-79.07099914550781 C312.510009765625,-79.07099914550781 317.92999267578125,-97.25199890136719 317.92999267578125,-97.25199890136719z"></path></g></g><g transform="matrix(1,0,0,1,750,700)" opacity="1" style="display: block;"><g opacity="1" transform="matrix(1,0,0,1,0,0)"><path fill="rgb(0,0,0)" fill-opacity="1" d=" M303.62701416015625,-114.15799713134766 C301.82501220703125,-111.9260025024414 299.6549987792969,-110.68900299072266 298.7820129394531,-111.39399719238281 C297.90899658203125,-112.0989990234375 298.6619873046875,-114.4800033569336 300.4639892578125,-116.71199798583984 C302.2659912109375,-118.94400024414062 304.4360046386719,-120.18199920654297 305.3089904785156,-119.47699737548828 C306.1820068359375,-118.77200317382812 305.4289855957031,-116.38999938964844 303.62701416015625,-114.15799713134766z"></path></g></g><g transform="matrix(1,0,0,1,750,700)" opacity="1" style="display: block;"><g opacity="1" transform="matrix(1,0,0,1,0,0)"><path stroke-linecap="round" stroke-linejoin="round" fill-opacity="0" stroke="rgb(35,31,32)" stroke-opacity="1" stroke-width="2" d=" M322.822998046875,-130.31700134277344 C322.822998046875,-130.31700134277344 325.9119873046875,-123.31199645996094 322.822998046875,-117.94499969482422"></path></g></g></g><g transform="matrix(1,0,0,1,750,700)" opacity="1" style="display: block;"><g opacity="1" transform="matrix(1,0,0,1,0,0)"><path fill="rgb(31,30,107)" fill-opacity="1" d=" M283.1059875488281,270.6000061035156 C288.1629943847656,282.0539855957031 274.77099609375,298.9289855957031 253.36000061035156,308.2179870605469 C231.94900512695312,317.5069885253906 210.552001953125,315.7239990234375 205.56900024414062,304.23699951171875 C205.56900024414062,304.23699951171875 200.41400146484375,289.6260070800781 207.18899536132812,275.39801025390625 C213.96400451660156,261.1700134277344 227.06399536132812,244.68299865722656 227.06399536132812,244.68299865722656 C227.06399536132812,244.68299865722656 252.80999755859375,236.10000610351562 252.80999755859375,236.10000610351562 C252.80999755859375,236.10000610351562 278.3949890136719,259.92999267578125 283.1059875488281,270.6000061035156z"></path></g></g><g transform="matrix(0.9979528188705444,-0.06395477056503296,0.06395477056503296,0.9979528188705444,725.7409057617188,714.2061767578125)" opacity="1" style="display: block;"><g opacity="1" transform="matrix(1,0,0,1,0,0)"><path fill="rgb(249,174,168)" fill-opacity="1" d=" M226.01663208007812,264.3321533203125 C226.01663208007812,264.3321533203125 222.02000427246094,310.1789855957031 222.02000427246094,310.1789855957031 C222.02000427246094,310.1789855957031 205.156005859375,345.7120056152344 200.63900756835938,364.6830139160156 C196.1219940185547,383.65399169921875 205.75900268554688,396.4519958496094 222.02000427246094,395.322998046875 C238.281005859375,394.1940002441406 247.31100463867188,381.2449951171875 252.88400268554688,367.0920104980469 C258.4570007324219,352.9389953613281 274.4169921875,339.6889953613281 280.13800048828125,329.45098876953125 C285.8590087890625,319.2130126953125 267.594482421875,245.34283447265625 267.594482421875,245.34283447265625 C267.594482421875,245.34283447265625 226.01663208007812,264.3321533203125 226.01663208007812,264.3321533203125z"></path></g></g><g transform="matrix(1,0,0,1,750,700)" opacity="1" style="display: block;"><g opacity="1" transform="matrix(1,0,0,1,0,0)"><path fill="rgb(0,0,0)" fill-opacity="1" d=" M262.8840026855469,245.42599487304688 C262.8840026855469,245.42599487304688 213.57684326171875,266.71630859375 213.57684326171875,266.71630859375 C213.57684326171875,266.71630859375 214.83883666992188,285.8282470703125 214.83883666992188,285.8282470703125 C223.42184448242188,279.1872253417969 246.22393798828125,266.3616638183594 265.9939270019531,266.2276611328125 C265.2653503417969,254.00942993164062 262.8840026855469,245.42599487304688 262.8840026855469,245.42599487304688z"></path></g></g><g transform="matrix(0.9979528188705444,-0.06395477056503296,0.06395477056503296,0.9979528188705444,725.7409057617188,714.2061767578125)" opacity="1" style="display: block;"><g opacity="1" transform="matrix(1,0,0,1,0,0)"><path fill="rgb(29,55,105)" fill-opacity="1" d=" M278.49603271484375,298.86224365234375 C240.00064086914062,284.4156188964844 217.20199584960938,331.8599853515625 217.20199584960938,331.8599853515625 C215.35400390625,331.7439880371094 214.39599609375,330.1520080566406 213.91200256347656,328.2359924316406 C208.92300415039062,339.85198974609375 203.03900146484375,354.6050109863281 200.63900756835938,364.6830139160156 C196.1219940185547,383.65399169921875 205.75900268554688,396.4519958496094 222.02000427246094,395.322998046875 C238.281005859375,394.1940002441406 247.31100463867188,381.2449951171875 252.88400268554688,367.0920104980469 C258.4570007324219,352.9389953613281 274.4169921875,339.6889953613281 280.13800048828125,329.45098876953125 C282.3330078125,325.5220031738281 283.1270446777344,313.58026123046875 278.49603271484375,298.86224365234375z"></path></g></g><g transform="matrix(0.9979528188705444,-0.06395477056503296,0.06395477056503296,0.9979528188705444,725.7409057617188,714.2061767578125)" opacity="1" style="display: block;"><g opacity="1" transform="matrix(1,0,0,1,0,0)"><path fill="rgb(255,255,255)" fill-opacity="1" d=" M275.0190124511719,320.8659973144531 C267.7919921875,314.99700927734375 250.10000610351562,312.6629943847656 232.86000061035156,331.8599853515625 C223.08099365234375,342.75 207.75399780273438,365.63299560546875 204.968994140625,389.28399658203125 C208.91799926757812,393.5790100097656 214.81399536132812,395.822998046875 222.02000427246094,395.322998046875 C238.281005859375,394.1940002441406 247.31100463867188,381.2449951171875 252.88400268554688,367.0920104980469 C257.9469909667969,354.2349853515625 271.55499267578125,342.1319885253906 278.29901123046875,332.34698486328125 C278.93798828125,328.489990234375 278.68798828125,323.8450012207031 275.0190124511719,320.8659973144531z"></path></g></g><g transform="matrix(0.9998720288276672,-0.015998929738998413,0.015998929738998413,0.9998720288276672,743.2012939453125,685.7308959960938)" opacity="1" style="display: block;"><g opacity="1" transform="matrix(1,0,0,1,0,0)"><path fill="rgb(255,101,58)" fill-opacity="1" d=" M419.260986328125,6.638000011444092 C419.260986328125,6.638000011444092 445.4590148925781,70.3280029296875 446.8139953613281,104.20500183105469 C448.16900634765625,138.08200073242188 407.9679870605469,141.6959991455078 407.9679870605469,141.6959991455078 C407.9679870605469,141.6959991455078 390.8039855957031,65.35900115966797 390.8039855957031,65.35900115966797 C390.8039855957031,65.35900115966797 419.260986328125,6.638000011444092 419.260986328125,6.638000011444092z"></path></g></g><g transform="matrix(0.9998720288276672,-0.015998929738998413,0.015998929738998413,0.9998720288276672,743.2012939453125,685.7308959960938)" opacity="1" style="display: block;"><g opacity="1" transform="matrix(1,0,0,1,0,0)"><path fill="rgb(255,101,58)" fill-opacity="1" d=" M310.62799072265625,-39.435001373291016 C310.62799072265625,-39.435001373291016 341.5159912109375,-58.12300109863281 366.1860046386719,-46.6619987487793 C366.1860046386719,-46.6619987487793 382.22100830078125,-41.03900146484375 379.510986328125,-15.494999885559082 C379.510986328125,-15.494999885559082 310.62799072265625,-31.25200080871582 310.62799072265625,-31.25200080871582 C310.62799072265625,-31.25200080871582 310.62799072265625,-39.435001373291016 310.62799072265625,-39.435001373291016z"></path></g></g><g transform="matrix(0.996361494064331,-0.08522775024175644,0.08522775024175644,0.996361494064331,741.9432373046875,722.0191040039062)" opacity="1" style="display: block;"><g opacity="1" transform="matrix(1,0,0,1,0,0)"><path fill="rgb(249,174,168)" fill-opacity="1" d=" M242.16600036621094,96.64099884033203 C242.16600036621094,96.64099884033203 239.7570037841797,102.24800109863281 246.83399963378906,105.55999755859375 C246.83399963378906,105.55999755859375 249.2429962158203,106.01200103759766 255.7169952392578,105.55999755859375 C255.7169952392578,105.55999755859375 254.51300048828125,111.58300018310547 256.4700012207031,113.69100189208984 C258.427001953125,115.79900360107422 280.1090087890625,123.0260009765625 280.1090087890625,123.0260009765625 C280.1090087890625,123.0260009765625 283.7229919433594,130.10299682617188 289.14300537109375,132.36099243164062 C294.56298828125,134.61900329589844 323.62200927734375,134.61900329589844 323.62200927734375,134.61900329589844 C323.62200927734375,134.61900329589844 312.8370056152344,89.5999984741211 312.8370056152344,89.5999984741211 C312.8370056152344,89.5999984741211 268.2139892578125,78.68800354003906 242.16600036621094,96.64099884033203z"></path></g></g><g transform="matrix(0.996361494064331,-0.08522775024175644,0.08522775024175644,0.996361494064331,741.9432373046875,722.0191040039062)" opacity="1" style="display: block;"><g opacity="1" transform="matrix(1,0,0,1,0,0)"><path stroke-linecap="round" stroke-linejoin="miter" fill-opacity="0" stroke-miterlimit="10" stroke="rgb(35,31,32)" stroke-opacity="1" stroke-width="0.5" d=" M255.7169952392578,105.55999755859375 C255.7169952392578,105.55999755859375 258.4280090332031,102.09700012207031 263.5469970703125,103.302001953125 C268.6659851074219,104.50700378417969 287.33599853515625,111.73300170898438 287.33599853515625,111.73300170898438"></path></g></g><g transform="matrix(0.996361494064331,-0.08522775024175644,0.08522775024175644,0.996361494064331,741.9432373046875,722.0191040039062)" opacity="1" style="display: block;"><g opacity="1" transform="matrix(1,0,0,1,0,0)"><path stroke-linecap="round" stroke-linejoin="miter" fill-opacity="0" stroke-miterlimit="10" stroke="rgb(35,31,32)" stroke-opacity="1" stroke-width="0.5" d=" M255.7169952392578,90.11900329589844 C255.7169952392578,90.11900329589844 275.16900634765625,85.16999816894531 286.7049865722656,94.41799926757812"></path></g></g><g transform="matrix(0.996361494064331,-0.08522775024175644,0.08522775024175644,0.996361494064331,741.9432373046875,722.0191040039062)" opacity="1" style="display: block;"><g opacity="1" transform="matrix(1,0,0,1,0,0)"><path stroke-linecap="round" stroke-linejoin="miter" fill-opacity="0" stroke-miterlimit="10" stroke="rgb(35,31,32)" stroke-opacity="1" stroke-width="0.5" d=" M280.55999755859375,86.31500244140625 C280.55999755859375,86.31500244140625 293.2460021972656,87.66899871826172 298.4779968261719,90.11299896240234"></path></g></g><g transform="matrix(0.9998720288276672,-0.015998929738998413,0.015998929738998413,0.9998720288276672,743.2012939453125,685.7308959960938)" opacity="1" style="display: block;"><g opacity="1" transform="matrix(1,0,0,1,0,0)"><path fill="rgb(254,199,38)" fill-opacity="1" d=" M284.2030029296875,22.447999954223633 C284.2030029296875,22.447999954223633 298.3838195800781,100.73936462402344 316.4518127441406,146.36036682128906 C316.4518127441406,146.36036682128906 435.2478332519531,151.78067016601562 435.2478332519531,151.78067016601562 C435.2478332519531,151.78067016601562 439.5870056152344,134.01699829101562 435.9729919433594,113.23899841308594 C432.3590087890625,92.46099853515625 420.16400146484375,83.87899780273438 420.16400146484375,83.87899780273438 C420.16400146484375,83.87899780273438 421.97100830078125,16.575000762939453 419.260986328125,6.638000011444092 C416.5509948730469,-3.2990000247955322 356.02301025390625,-43.5 321.24200439453125,-40.3380012512207 C321.24200439453125,-40.3380012512207 284.2030029296875,22.447999954223633 284.2030029296875,22.447999954223633z"></path></g></g><g transform="matrix(0.9998720288276672,-0.015998929738998413,0.015998929738998413,0.9998720288276672,743.2012939453125,685.7308959960938)" opacity="1" style="display: block;"><g opacity="1" transform="matrix(1,0,0,1,0,0)"><path stroke-linecap="round" stroke-linejoin="miter" fill-opacity="0" stroke-miterlimit="10" stroke="rgb(35,31,32)" stroke-opacity="1" stroke-width="0.5" d=" M358.7330017089844,74.16699981689453 C358.7330017089844,74.16699981689453 407.5159912109375,92.46099853515625 407.5159912109375,92.46099853515625"></path></g></g><g transform="matrix(1,0,0,1,750.0000610351562,688.3883666992188)" opacity="1" style="display: block;"><g opacity="1" transform="matrix(1,0,0,1,0,0)"><path fill="rgb(31,30,107)" fill-opacity="1" d=" M404.69500732421875,417.8529968261719 C408.5509948730469,429.7659912109375 393.677001953125,445.2489929199219 371.47198486328125,452.43701171875 C349.2669982910156,459.625 328.1400146484375,455.7950134277344 324.28399658203125,443.8819885253906 C324.28399658203125,443.8819885253906 318.3810119628906,413.76800537109375 320.18798828125,404.4330139160156 C321.9949951171875,395.0979919433594 344.27899169921875,370.4049987792969 344.27899169921875,370.4049987792969 C344.27899169921875,370.4049987792969 372.5849914550781,367.9960021972656 374.3919982910156,367.9960021972656 C376.1990051269531,367.9960021972656 402.1159973144531,408.0409851074219 402.1159973144531,408.0409851074219 C402.1159973144531,408.0409851074219 404.69500732421875,417.8529968261719 404.69500732421875,417.8529968261719z"></path></g></g><g transform="matrix(0.9993032217025757,-0.037323758006095886,0.037323758006095886,0.9993032217025757,732.0320434570312,708.2202758789062)" opacity="1" style="display: block;"><g opacity="1" transform="matrix(1,0,0,1,0,0)"><path fill="rgb(249,174,168)" fill-opacity="1" d=" M336.2760009765625,465.9339904785156 C337.34600830078125,466.2869873046875 338.7850036621094,466.55499267578125 340.6650085449219,466.4649963378906 C345.4079895019531,466.239013671875 356.70001220703125,424.6839904785156 393.2879943847656,425.5870056152344 C393.2879943847656,425.5870056152344 392.68914794921875,356.43231201171875 392.68914794921875,356.43231201171875 C392.68914794921875,356.43231201171875 346.6476745605469,360.26190185546875 346.6476745605469,360.26190185546875 C346.6476745605469,360.26190185546875 344.27899169921875,445.010009765625 344.27899169921875,445.010009765625 C343.3080139160156,447.04901123046875 339.875,456.1830139160156 336.2760009765625,465.9339904785156z"></path></g></g><g transform="matrix(0.9993032217025757,-0.037323758006095886,0.037323758006095886,0.9993032217025757,732.0320434570312,708.2202758789062)" opacity="1" style="display: block;"><g opacity="1" transform="matrix(1,0,0,1,0,0)"><path fill="rgb(29,55,105)" fill-opacity="1" d=" M340.6650085449219,466.4649963378906 C338.7850036621094,466.55499267578125 337.34600830078125,466.2869873046875 336.2760009765625,465.9339904785156 C331.50201416015625,478.8689880371094 326.43701171875,492.8900146484375 326.43701171875,492.8900146484375 C312.885986328125,499.44000244140625 315.8219909667969,509.37701416015625 315.8219909667969,509.37701416015625 C315.8219909667969,509.37701416015625 373.864990234375,509.37701416015625 373.864990234375,509.37701416015625 C393.9649963378906,488.5989990234375 406.3869934082031,454.9469909667969 406.3869934082031,454.9469909667969 C403.45098876953125,437.7829895019531 393.2879943847656,425.5870056152344 393.2879943847656,425.5870056152344 C356.70001220703125,424.6839904785156 345.4079895019531,466.239013671875 340.6650085449219,466.4649963378906z"></path></g></g><g transform="matrix(0.9993032217025757,-0.037323758006095886,0.037323758006095886,0.9993032217025757,732.0320434570312,708.2202758789062)" opacity="1" style="display: block;"><g opacity="1" transform="matrix(1,0,0,1,0,0)"><path fill="rgb(255,255,255)" fill-opacity="1" d=" M406.3869934082031,454.9469909667969 C406.3869934082031,454.9469909667969 406.0820007324219,450.6940002441406 393.2879943847656,450.0159912109375 C380.4939880371094,449.3389892578125 358.09100341796875,470.6820068359375 330.2760009765625,509.37701416015625 C330.2760009765625,509.37701416015625 373.864990234375,509.37701416015625 373.864990234375,509.37701416015625 C393.9649963378906,488.5989990234375 406.3869934082031,454.9469909667969 406.3869934082031,454.9469909667969z"></path></g></g><g transform="matrix(1,0,0,1,750.7500610351562,683.8883666992188)" opacity="1" style="display: block;"><g opacity="1" transform="matrix(1,0,0,1,0,0)"><path fill="rgb(0,0,0)" fill-opacity="1" d=" M389.1029968261719,414.14300537109375 C389.1029968261719,414.14300537109375 382.22100830078125,395.322998046875 382.22100830078125,395.322998046875 C382.22100830078125,395.322998046875 336.6000061035156,400.7439880371094 336.6000061035156,400.7439880371094 C336.6000061035156,400.7439880371094 341.0459899902344,426.3739929199219 341.0459899902344,426.3739929199219 C347.5979919433594,420.5679931640625 362.3900146484375,411.5299987792969 389.1029968261719,414.14300537109375z"></path></g></g><g transform="matrix(1,0,0,1,750.0000610351562,688.3883666992188)" opacity="1" style="display: block;"><g opacity="1" transform="matrix(1,0,0,1,0,0)"><path fill="rgb(67,43,153)" fill-opacity="1" d=" M404.8739929199219,418.3219909667969 C401.01800537109375,406.40899658203125 379.7130126953125,402.1090087890625 357.50799560546875,409.2969970703125 C335.3030090332031,416.4849853515625 320.3030090332031,431.5169982910156 324.15899658203125,443.42999267578125 C324.15899658203125,443.42999267578125 299.7869873046875,358.28399658203125 306.7879943847656,303.8550109863281 C308.6080017089844,289.7090148925781 352.40899658203125,209.4499969482422 352.40899658203125,209.4499969482422 C352.40899658203125,209.4499969482422 252.88400268554688,199.4929962158203 252.88400268554688,199.4929962158203 C252.88400268554688,199.4929962158203 273.8122253417969,261.7009582519531 273.8122253417969,261.7009582519531 C273.8122253417969,261.7009582519531 280.5396423339844,269.6336975097656 282.64764404296875,281.8297119140625 C277.6646423339844,270.34271240234375 256.5732116699219,268.02593994140625 235.16221618652344,277.31494140625 C213.751220703125,286.60394287109375 200.2272186279297,302.95294189453125 205.21022033691406,314.43994140625 C200.69322204589844,303.59893798828125 205.30421447753906,292.86895751953125 202.293212890625,286.2579650878906 C199.28221130371094,279.6469421386719 192.0552215576172,278.7149658203125 189.34521484375,269.6809387207031 C186.6352081298828,260.6469421386719 191.45220947265625,244.1599578857422 191.45220947265625,244.1599578857422 C182.418212890625,231.58795166015625 174.93289184570312,169.49398803710938 191.8390655517578,156.31961059570312 C219.45297241210938,134.75460815429688 312.35443115234375,137.1388702392578 312.35443115234375,137.1388702392578 C409.9204406738281,127.35186767578125 430.3865051269531,140.72544860839844 430.3865051269531,140.72544860839844 C430.3865051269531,140.72544860839844 444.55499267578125,183.25100708007812 442.2969970703125,206.28799438476562 C440.03900146484375,229.32469177246094 386.2869873046875,311.9859924316406 386.2869873046875,314.2439880371094 C386.2869873046875,316.50201416015625 395.4739990234375,321.0190124511719 394.0419921875,328.697998046875 C392.6099853515625,336.37701416015625 386.2869873046875,349.02398681640625 386.2869873046875,349.02398681640625 C386.2869873046875,349.02398681640625 404.8739929199219,418.3219909667969 404.8739929199219,418.3219909667969z"></path></g></g><g transform="matrix(1,0,0,1,750.0000610351562,688.3883666992188)" opacity="1" style="display: block;"><g opacity="1" transform="matrix(1,0,0,1,0,0)"><path fill="rgb(31,30,107)" fill-opacity="1" d=" M259.0830078125,214.64199829101562 C259.0830078125,214.64199829101562 252.88400268554688,199.4929962158203 252.88400268554688,199.4929962158203 C252.88400268554688,199.4929962158203 225.8000030517578,194.54400634765625 225.8000030517578,194.54400634765625 C225.8000030517578,194.54400634765625 259.0830078125,214.64199829101562 259.0830078125,214.64199829101562z"></path></g></g><g transform="matrix(1,0,0,1,750.0000610351562,688.3883666992188)" opacity="1" style="display: block;"><g opacity="1" transform="matrix(1,0,0,1,0,0)"><path fill="rgb(0,0,0)" fill-opacity="1" d=" M352.40899658203125,209.4499969482422 C352.40899658203125,209.4499969482422 343.3269958496094,226.0970001220703 333.26300048828125,245.5570068359375 C333.26300048828125,245.5570068359375 398.031005859375,211.2570037841797 398.031005859375,211.2570037841797 C398.031005859375,211.2570037841797 352.40899658203125,209.4499969482422 352.40899658203125,209.4499969482422z"></path></g></g><g transform="matrix(1,0,0,1,750.0000610351562,688.3883666992188)" opacity="1" style="display: block;"><g opacity="1" transform="matrix(1,0,0,1,0,0)"><path stroke-linecap="round" stroke-linejoin="miter" fill-opacity="0" stroke-miterlimit="10" stroke="rgb(215,212,255)" stroke-opacity="1" stroke-width="0.5" d=" M345.2239990234375,298.885986328125 C345.2239990234375,298.885986328125 369.1000061035156,316.6700134277344 369.1000061035156,316.6700134277344"></path></g></g><g transform="matrix(1,0,0,1,750.0000610351562,688.3883666992188)" opacity="1" style="display: block;"><g opacity="1" transform="matrix(1,0,0,1,0,0)"><path stroke-linecap="round" stroke-linejoin="miter" fill-opacity="0" stroke-miterlimit="10" stroke="rgb(215,212,255)" stroke-opacity="1" stroke-width="0.5" d=" M364.7820129394531,209.94000244140625 C364.7820129394531,209.94000244140625 321.614990234375,288.0979919433594 317.6289978027344,303.40301513671875 C306.3909912109375,346.5570068359375 334.66400146484375,421.3349914550781 334.66400146484375,421.3349914550781"></path></g></g><g transform="matrix(1,0,0,1,750.0000610351562,688.3883666992188)" opacity="1" style="display: block;"><g opacity="1" transform="matrix(1,0,0,1,0,0)"><path stroke-linecap="round" stroke-linejoin="miter" fill-opacity="0" stroke-miterlimit="10" stroke="rgb(215,212,255)" stroke-opacity="1" stroke-width="0.5" d=" M337.1000061035156,137.83099365234375 C337.1000061035156,137.83099365234375 341.2040100097656,168.3459930419922 341.2040100097656,168.3459930419922 C341.2040100097656,168.3459930419922 219.85171508789062,155.87173461914062 201.01112365722656,172.9696807861328 C201.01112365722656,172.9696807861328 212.52943420410156,240.22410583496094 212.52943420410156,240.22410583496094 C212.52943420410156,240.22410583496094 212.07742309570312,255.20510864257812 212.52943420410156,259.2701110839844 C212.98143005371094,263.3351135253906 221.5634307861328,269.20709228515625 221.5634307861328,269.20709228515625 C221.5634307861328,269.20709228515625 222.6144256591797,282.52410888671875 222.6144256591797,282.52410888671875"></path></g></g><g transform="matrix(1,0,0,1,750.0000610351562,688.3883666992188)" opacity="1" style="display: block;"><g opacity="1" transform="matrix(1,0,0,1,0,0)"><path stroke-linecap="round" stroke-linejoin="miter" fill-opacity="0" stroke-miterlimit="10" stroke="rgb(215,212,255)" stroke-opacity="1" stroke-width="0.5" d=" M341.2040100097656,168.3459930419922 C341.2040100097656,168.3459930419922 327.6990051269531,152.38800048828125 328.5360107421875,138.4600067138672"></path></g></g><g transform="matrix(0.9999858140945435,-0.005333178676664829,0.005333178676664829,0.9999858140945435,743.0872192382812,682.485107421875)" opacity="1" style="display: block;"><g opacity="1" transform="matrix(1,0,0,1,0,0)"><path fill="rgb(249,174,168)" fill-opacity="1" d=" M199.13400268554688,-229.80599975585938 C199.13400268554688,-229.80599975585938 153.81399536132812,-260.7659912109375 153.81399536132812,-260.7659912109375 C153.81399536132812,-260.7659912109375 140.71400451660156,-257.60400390625 142.22000122070312,-236.8260040283203 C142.22000122070312,-236.8260040283203 136.30799865722656,-213.48800659179688 141.14599609375,-197.82899475097656 C145.98399353027344,-182.1699981689453 162.2449951171875,-180.8159942626953 162.2449951171875,-180.8159942626953 C162.2449951171875,-180.8159942626953 196.08700561523438,-114.19000244140625 196.08700561523438,-114.19000244140625 C196.08700561523438,-114.19000244140625 225.9340057373047,-163.19900512695312 225.9340057373047,-163.19900512695312 C225.9340057373047,-163.19900512695312 208.3179931640625,-194.36599731445312 208.3179931640625,-194.36599731445312 C208.3179931640625,-194.36599731445312 223.0330047607422,-201.9759979248047 222.7729949951172,-214.6929931640625 C222.3209991455078,-236.8260040283203 199.13400268554688,-229.80599975585938 199.13400268554688,-229.80599975585938z"></path></g></g><g transform="matrix(0.9999858140945435,-0.005333178676664829,0.005333178676664829,0.9999858140945435,743.0872192382812,682.485107421875)" opacity="1" style="display: block;"><g opacity="1" transform="matrix(1,0,0,1,0,0)"><path fill="rgb(254,199,38)" fill-opacity="1" d=" M186.18499755859375,-120.28800201416016 C186.18499755859375,-120.28800201416016 189.79800415039062,-155.74600219726562 225.9340057373047,-175.50799560546875 C225.9340057373047,-175.50799560546875 233.16200256347656,-161.39300537109375 233.16200256347656,-161.39300537109375 C233.16200256347656,-161.39300537109375 250.3260040283203,-154.2779998779297 253.94000244140625,-147.8979949951172 C257.5539855957031,-141.51800537109375 256.6499938964844,-122.9990005493164 258.9079895019531,-118.02999877929688 C261.1659851074219,-113.06099700927734 303.6260070800781,-57.05099868774414 303.6260070800781,-57.05099868774414 C303.6260070800781,-57.05099868774414 319.71600341796875,-53.68299865722656 326.0400085449219,-43.74599838256836 C332.364013671875,-33.808998107910156 333.43798828125,-7.363999843597412 320.7909851074219,8.897000312805176 C308.1440124511719,25.158000946044922 284.2030029296875,22.447999954223633 284.2030029296875,22.447999954223633 C284.2030029296875,22.447999954223633 207.01600646972656,-65.88200378417969 186.18499755859375,-120.28800201416016z"></path></g></g><g transform="matrix(0.9999858140945435,-0.005333178676664829,0.005333178676664829,0.9999858140945435,743.0872192382812,682.485107421875)" opacity="1" style="display: block;"><g opacity="1" transform="matrix(1,0,0,1,0,0)"><path stroke-linecap="round" stroke-linejoin="round" fill-opacity="0" stroke="rgb(35,31,32)" stroke-opacity="1" stroke-width="0.5" d=" M251.5850067138672,-117.94499969482422 C251.5850067138672,-117.94499969482422 253.98800659179688,-87.61599731445312 253.98800659179688,-87.61599731445312"></path></g></g><g transform="matrix(0.9999858140945435,-0.005333178676664829,0.005333178676664829,0.9999858140945435,743.0872192382812,682.485107421875)" opacity="1" style="display: block;"><g opacity="1" transform="matrix(1,0,0,1,0,0)"><path stroke-linecap="round" stroke-linejoin="round" fill-opacity="0" stroke="rgb(35,31,32)" stroke-opacity="1" stroke-width="0.5" d=" M233.16200256347656,-161.39300537109375 C233.16200256347656,-161.39300537109375 201.31100463867188,-139.77499389648438 196.0070037841797,-99.24099731445312"></path></g></g><g transform="matrix(0.9999858140945435,-0.005333178676664829,0.005333178676664829,0.9999858140945435,743.0872192382812,682.485107421875)" opacity="1" style="display: block;"><g opacity="1" transform="matrix(1,0,0,1,0,0)"><path fill="rgb(249,174,168)" fill-opacity="1" d=" M150.27499389648438,-271.8009948730469 C150.27499389648438,-271.8009948730469 139.20799255371094,-271.8330078125 135.36900329589844,-260.7659912109375 C131.52999877929688,-249.69900512695312 146.66200256347656,-236.1479949951172 146.66200256347656,-236.1479949951172 C146.66200256347656,-236.1479949951172 176.2480010986328,-241.78799438476562 175.57000732421875,-242.1300048828125 C174.89199829101562,-242.4720001220703 156.14700317382812,-274.9939880371094 156.14700317382812,-274.9939880371094 C156.14700317382812,-274.9939880371094 150.27499389648438,-271.8009948730469 150.27499389648438,-271.8009948730469z"></path></g></g><g transform="matrix(0.9999858140945435,-0.005333178676664829,0.005333178676664829,0.9999858140945435,743.0872192382812,682.485107421875)" opacity="1" style="display: block;"><g opacity="1" transform="matrix(1,0,0,1,0,0)"><path fill="rgb(255,228,89)" fill-opacity="1" d=" M199.13400268554688,-259.18499755859375 C199.13400268554688,-259.18499755859375 213.73800659179688,-256.4679870605469 218.93299865722656,-242.1300048828125 C224.1280059814453,-227.79200744628906 212.8350067138672,-214.6929931640625 212.8350067138672,-214.6929931640625 C212.8350067138672,-214.6929931640625 217.43600463867188,-195.7220001220703 199.13400268554688,-200.01300048828125 C185.85699462890625,-203.12600708007812 197.24400329589844,-235.92300415039062 197.24400329589844,-235.92300415039062 C197.24400329589844,-235.92300415039062 187.6909942626953,-253.76499938964844 199.13400268554688,-259.18499755859375z"></path></g></g><g transform="matrix(1,0,0,1,750,700)" opacity="1" style="display: block;"><g opacity="1" transform="matrix(1,0,0,1,0,0)"><path fill="rgb(0,123,255)" fill-opacity="1" d=" M195.5,329 C195.5,329 183,330.5 183,330.5 C183,330.5 203,426.5 203,426.5 C203,426.5 217.5,432 217.5,432 C217.5,432 211,396 211,396 C211,396 274,396 274,396 C274,396 274,376 274,376 C274,376 205,376 205,376 C205,376 195.5,329 195.5,329z"></path><path stroke-linecap="butt" stroke-linejoin="miter" fill-opacity="0" stroke-miterlimit="4" stroke="rgb(0,123,255)" stroke-opacity="1" stroke-width="0" d=" M195.5,329 C195.5,329 183,330.5 183,330.5 C183,330.5 203,426.5 203,426.5 C203,426.5 217.5,432 217.5,432 C217.5,432 211,396 211,396 C211,396 274,396 274,396 C274,396 274,376 274,376 C274,376 205,376 205,376 C205,376 195.5,329 195.5,329z"></path></g></g></g></g></svg>
