<svg xmlns="http://www.w3.org/2000/svg" viewBox="0 0 961.388 859.692"><path fill="#ffe4e3" d="M899.737 734.941c-114.054-20.857-226.6-35.266-274.292-41.308-112.34-14.232-426.54-1.823-561.807 37.624-40.317 11.758-166.635 58.39 112.213 78.535 89.662 6.478 1.253 39.787 178.606 49.267 156.647 8.373 331.584-69.137 479.394-63.332 145.1 5.7 165.43-42.582 65.886-60.786Z"/><path fill="#c39ce2" d="M871.528 84.605c-10.143-14.637-37.413-20.745-57.434-13.13-12.625 4.802-12.359 18.183-28.277 32.815-15.335 14.097 9.006 57.814 22.841 63.558 16.798 6.974 35.056 18.82 50.755 16.69 22.932-3.113 31.674-71.71 12.115-99.933Z"/><path fill="#ffc7d8" d="M710.173 411.978c.825-4.203-1.384-23.542-.302-27.693 1.43-5.485 21.492-2.942 20.059 2.557-.808 3.1-4.093 19.125-3.688 23.637.54 6.023 1.03 11.506-1.759 20.736-1.275 4.218-5.916 13.723-7.97 12.479-1.805-1.094 1.817-7.535.761-9.136-2.415-.056-6.274 11.426-6.794 15.782-.282 2.366-2.455 5.46-3.615 3.31a31.91 31.91 0 0 1-2.826-5.892c-1.377-4.236-.53-12.285 1.205-17.705a146.084 146.084 0 0 0 4.929-18.075Z"/><path fill="#000023" d="M715.637 296.796c4.388-32.19-7.984-24.58 28.553-79.842 6.4-9.681 24.452-34.819 38.832-29.77 12.45 4.372-7.775 48.084-9.997 58.476-2.913 13.625-7.079 27.07-11.3 40.341-4.03 12.673-8.728 24.669-10.157 37.992-1.593 14.85-1.077 29.846-2.806 44.686-.855 7.336-3.29 19.72-6.503 26.436-3.026 6.325-33.586 10.941-37.667 6.965-7.936-7.731-7.926-22-8.083-35.769-.282-24.69 15.672-44.16 19.128-69.515Z"/><path fill="#cae7ff" d="M709.792 392.154c10.934 9.383 12.617-5.07 20.064-3.554 14.571 2.966 12.84 21.297.462 22.814-9.964 1.22-16.576 2.5-23.133-1.67-10.52-6.69-1.63-21.225 2.607-17.59Z"/><path fill="#00b4b6" d="M898.9 734.226c-3.821-2.808-14.682 5.588-16.986 9.934-2.695 5.08-2.947 10.497-14.253 18.055-2.372 1.585-4.256 6.24-3.178 8.88 1.953 4.783 13.016 2.722 17.368-.334 8.946-6.282 9.332-12.737 20.25-17.792 1.941-.9 4.936-12.764-3.201-18.743Z"/><path fill="#cae7ff" d="M894.742 734.567c-6.498-.861-16.756 16.79-15.433 20.478 1.153 3.214 9.441-.418 13.239-3.539 9.517-7.819 10.117-15.89 2.194-16.939Z"/><path fill="#00b4b6" d="M789.44 742.727c-2.649-3.933-15.706.304-19.343 3.617-4.25 3.872-6.317 8.886-19.51 12.184-2.768.691-6.113 4.436-5.99 7.286.224 5.161 11.334 6.956 16.461 5.549 10.542-2.894 13.084-8.84 25.067-9.913 2.132-.19 8.956-10.348 3.315-18.723Z"/><path fill="#ffc7d8" d="M811.138 356.82c-10.644-20.745-53.73.878-61.48 34.316-9.215 39.754-23.372 83.593-23.375 149.38-.003 66.206 39.426 165.176 43.228 204.595 1.393 14.451 18.818 13.148 19.049-2.071 1.567-103.377-9.432-179.096-1.516-207.27 14.22-50.612 13.386-70.133 22.733-102.725 11.448-39.92 9.894-59.595 1.361-76.225Z"/><path fill="#ffc7d8" d="M894.134 407.605c.194-10.248-.662-49.92-4.495-61.051-7.258-21.076-13.306-45.643-9.147-72.61 1.124-7.289-68.242-14.657-64.675 55.983 5.714 113.168-36.86 176.457-16.694 239.077 7.869 24.433 62.94 137.97 80.837 173.296 6.562 12.952 21.526 4.137 17.533-9.914-28.256-99.453-10.698-92.75-39.063-160.51-15.258-36.452 34.42-96.508 35.704-164.27Z"/><path fill="#00b4b6" d="M882.696 538.48c-.6-66.559 25.675-120.058 6.943-191.926-10.113-38.797-21.614-77.033-21.614-77.033s-102.08 14.367-105.207 23.58c-14.451 42.585-58.182 140.928-70.218 219.77 0 0 60.287 32.076 104.97 35.233 54.551 3.855 85.126-9.624 85.126-9.624Z"/><path fill="#ffc7d8" d="M882.834 198.562c-20.863-20.094-61.851-18.972-93.16-13.281-5.643 1.026-13.606 1-25.166 8.048-14.719 8.974 31.95 49.286 41.29 52.444 49.575 16.761 90.262-34.473 77.036-47.211Z"/><path fill="#000023" d="M856.892 184.048c-2.28 31.78-57.37 48.513-60.244.124-.44-7.403-39.403 6.772-38.222 17.84 8.658 81.122-6.254 94.727-.04 102.382 17.92 22.076 103.217 20.753 120.67 11.973 12.821-6.45 0-56.092 7.68-79.099 15.366-46.022-25.177-52.147-29.844-53.22Z"/><path fill="#000023" d="M822.259 331.167c-21.95 0-44.348-3.648-61.027-14.347l.58-.906c33.905 21.746 91.848 14.043 120.741 6.06l.286 1.039a239.763 239.763 0 0 1-60.58 8.154Z"/><path fill="#ffc7d8" d="M794.416 120.537c-4.833 1.994-4.815 10.608-2.896 14.172 1.688 3.134 4.323 5.147 8.295 4.44 4.1-.73 1.765-21.568-5.399-18.612Z"/><path fill="#000023" d="m809.147 572.313-.286-.204c-2.088-1.473-5.976-4.216-5.822-11.402l1.076.023c-.14 6.613 3.306 9.047 5.366 10.5l.293.207ZM734.134 564.323l-.131-.424a43.255 43.255 0 0 1-1.842-18l1.072.09a42.286 42.286 0 0 0 1.798 17.591l.131.428Z"/><path fill="#cae7ff" d="M758.21 698.866c5.14 18.803 10.216 35 11.3 46.245 1.395 14.451 18.82 13.148 19.05-2.071.239-15.749 1.005-30.736.58-45.027-6.288 3.399-22.118 7.068-30.93.853ZM898.9 734.226c-4.556-22.505-9.662-40.526-13.435-54.843-5.537 11.047-25.46 18.63-29.847 17.908 9.696 20.816 19.227 35.45 24.374 45.609 6.562 12.951 21.928 6.244 18.908-8.674Z"/><path fill="#cae7ff" d="M785.412 741.645c-5.827-3.004-21.44 10.147-21.44 14.066 0 3.414 9.027 2.793 13.656 1.138 11.597-4.148 14.887-11.541 7.784-15.204Z"/><path fill="#00b4b6" d="M788.549 741.27c.003-.894.019-1.816.02-2.707-5.297 3.318-15.089 4.62-19.6 2.092 0 0 .253 2.733.567 4.702.669.779 9.045 4.315 19.013-4.086ZM899.737 734.941c-.3-.844-.596-1.716-.896-2.555-3.865 4.91-13.782 10.77-18.881 9.914 0 0 1.16 2.487 2.12 4.234.893.508 11.11-.32 17.657-11.593Z"/><path fill="#004ebc" d="m727.598 287.37 48.642 108.496 87.552-42.433-46.193-101.683-90.001 35.62z"/><path fill="#cae7ff" d="m730.232 287.684 49.436 108.182 87.552-42.433-42.159-98.492-11.421-.267-83.408 33.01z"/><path fill="#004ebc" d="m738.42 289.231 46.055 107.91 90.138-41.846-46.192-101.683-90.001 35.619z"/><path fill="#004ebc" d="m727.598 287.187 10.822 2.044 46.055 107.91-8.235-1.275-48.642-108.679z"/><path fill="#f77fad" d="M764.333 298.221c.915.498 13.275 30.711 13.275 30.711l56.306-23.346-14.19-33.235Z"/><path fill="#ffc9c4" d="M806.833 350.731c4.55-.33 24.707 4.5 29.234 3.892 5.982-.803 5.882-22.338-.115-21.532-3.382.454-20.744 1.858-25.46.848-6.298-1.349-12.03-2.574-22.146-.816-4.623.803-15.27 4.483-14.219 6.814.924 2.049 8.199-.948 9.756.374-.253 2.56-12.888 5.158-17.559 5.145-2.537-.006-6.088 1.891-3.966 3.395a33.984 33.984 0 0 0 5.864 3.747c4.3 2.002 12.917 2.145 18.87 1.01a155.547 155.547 0 0 1 19.74-2.877Z"/><path fill="#000023" d="M943.24 310.938c-5.092-35.814-1.153-28.73-36.304-89.896-6.157-10.715-31.118-32.86-35.56-32.344-13.956 1.623 1.334 49.74 3.003 60.932 2.188 14.675 4.687 29.157 11.03 42.562 6.718 14.196 6.481 15.708-7.627 17.838-15.727 2.375-9.191-.282-24.9 2.236-7.765 1.245-20.828 4.403-27.827 8.13-6.59 3.508-10.102 36.231-5.685 40.391 8.589 8.089 23.768 7.425 38.424 6.962 26.28-.83 89.282-29.832 85.446-56.811Z"/><path fill="#cae7ff" d="M828.147 353.323c-8.919-12.484 6.57-12.903 5.665-20.945-1.768-15.736-21.375-15.631-24.153-2.646-2.237 10.453-4.219 17.345-.416 24.694 6.101 11.79 22.36 3.733 18.904-1.103Z"/><path fill="#000023" d="M882.228 286.053c-.139-.244-13.87-24.798-13.87-58.099h1.077c0 33.003 13.592 57.325 13.729 57.567Z"/><path fill="#af7ccb" d="M861.058 206.357c7.064-3.148 2.74-31.91-13.74-33.27-10.847-.895-2.077 40.321 13.74 33.27Z"/><path fill="#af7ccb" d="M846.968 179.093c7.064-3.15 30.195-39.358 13.715-40.717-10.848-.895-29.532 47.768-13.715 40.717Z"/><path fill="#c39ce2" d="M860.22 207.88c6.46-4.252 27.955-39.71 11.43-40.321-18.974-.702-20.834 46.51-11.43 40.32Z"/><path fill="#af7ccb" d="M858.501 234.206c6.49-4.206 11.365-37.64-5.16-38.252-18.973-.701-8.537 47.13 5.16 38.252Z"/><path fill="#c39ce2" d="M858.501 234.206c6.46-4.252 26.972-39.082 10.448-39.693-18.974-.701-19.852 45.883-10.448 39.693Z"/><path fill="#af7ccb" d="M858.501 254.674c6.46-4.252 9.18-33.984-7.345-34.595-18.974-.702-2.059 40.785 7.345 34.595Z"/><path fill="#c39ce2" d="M859.552 256.87c6.46-4.251 26.01-36.384 9.484-36.994-18.973-.702-18.888 43.184-9.484 36.995Z"/><path fill="#af7ccb" d="M861.214 278.342c6.46-4.252.621-45.657-11.91-34.867-16.253 13.994 2.506 41.056 11.91 34.867Z"/><path fill="#c39ce2" d="M866.365 316.367c2.74.384-4.728-3.74 2.532-15.726 7.801-12.879-2.114-39.716-15.506-33.658-19.54 8.84-10.38 46.117 12.974 49.384Z"/><path fill="#c39ce2" d="M861.214 278.342c6.46-4.252 13.4-17.875 6.81-31.948-8.05-17.196-16.214 38.137-6.81 31.948Z"/><path fill="#ffc7d8" d="M845.14 153.222c2.345-10.007-31.89-11.806-33.377-2.525-1.784 11.137-1.691 37.96-.27 41.584 3.207 8.179 24.472 7.943 29.14 1.378 2.053-2.887 2.012-29.785 4.508-40.437Z"/><path fill="#ffa9c0" d="M810.786 152.49V164c3.473 5.406 8.665 11.784 13.79 12.647 9.587 1.613 13.778-2.902 19.018-9.591l2.082-15.963Z"/><path fill="#ffc7d8" d="M843.556 93.833c-5.283-3.521-33.85-7.113-40.427 11.072a44.662 44.662 0 0 0-2.216 9.51c-2.598 13.558-2.903 28.01 2.808 39.006 5.024 9.67 15.36 15.882 27.18 13.7 12.204-2.251 20.362-11.233 25.543-21.066 8.548-16.222 6.122-39.553-12.888-52.222Z"/><path fill="#ffc7d8" d="M855.862 147.485c5.173 1.7 10.612-4.09 11.816-8.353a8.756 8.756 0 0 0-3.885-9.979c-3.67-2.234-15.599 15.813-7.93 18.332Z"/><path fill="#c39ce2" d="M862.436 129.075c27.611-1.456 4.216-53.077-12.309-53.688-18.974-.702-2.796 54.484 12.31 53.688Z"/><path fill="#000023" d="M816.11 127.62c-.62-.236-2.359.923-2 2.558.298 1.36 1.513 2.15 3.35.138.632-.693-.474-2.363-1.35-2.696ZM843.128 129.98c-.62-.236-2.359.924-2 2.558.298 1.36 1.513 2.15 3.35.139.631-.693-.474-2.364-1.35-2.697ZM860.09 141.354l-1.075-.068a8.953 8.953 0 0 1 3.569-6.386l.586.902a7.784 7.784 0 0 0-3.08 5.552ZM828.127 141.86c-1.665 0-4.705-.695-5.022-3.38-.213-1.79.988-2.716 2.048-3.534a6.072 6.072 0 0 0 1.723-1.74c.465-.845.533-4.133.465-6.008l1.077-.037c.019.526.162 5.183-.6 6.564a6.98 6.98 0 0 1-2.008 2.073c-1.102.85-1.77 1.429-1.637 2.557.293 2.468 4.007 2.417 4.048 2.427l.021 1.076-.115.001Z"/><path fill="#af7ccb" d="M836.308 124.495c12.62-5.184 14.848 4.467 14.848 4.467a24.001 24.001 0 0 0-14.385-1.684c-1.375.29-1.643-2.298-.463-2.783ZM822.562 122.836c-12.39-4.592-15.837 3.775-15.837 3.775a34.583 34.583 0 0 1 14.845-.833c1.353.25 2.151-2.512.992-2.942Z"/><path fill="#fff" d="M815.629 146.075c3.258 2.393 20.881 3.636 24.953 1.636 0 0-6.262 7.69-14.372 6.63-6.718-.879-10.581-8.266-10.581-8.266Z"/><path fill="#af7ccb" d="M855.001 94.326c-9.126-14.092-37.803-23.865-55.352 7.728-3.174 5.714-8.66 9.47-13.026 12.123a4.162 4.162 0 0 0 1.384 7.712 54.924 54.924 0 0 0 15.906 1.437c14.61-.842 61.209-13.372 51.088-29Z"/><path fill="#130a2d" fill-rule="evenodd" d="M141.145 675.866a11.768 11.768 0 0 0-8.182 3.202 9.601 9.601 0 0 0-3.041 6.903v35.11a9.604 9.604 0 0 0 3.041 6.903 11.764 11.764 0 0 0 8.182 3.203c155.053 0 337.853.07 492.907.07v-8.321H293.204a4.566 4.566 0 0 1-3.178-1.276 4.323 4.323 0 0 1-1.323-3.112V688.5a4.323 4.323 0 0 1 1.323-3.109 4.55 4.55 0 0 1 3.178-1.28h340.848v-8.316c-155.054 0-337.854.07-492.907.07Z"/><path fill="#130a2d" d="m601.467 754.822 32.585-23.565v-8.316l-97.763 19.933 65.178 11.948z"/><path fill="#cae7ff" fill-rule="evenodd" d="M621.091 678.056a40.537 40.537 0 0 0-.018 47.138L588.49 748.76l-20.395-19.407 16.818-27.73Z"/><path fill="#130a2d" d="m601.467 707.677 32.585-23.565v-8.316l-97.763 19.934 65.178 11.947z"/><path fill="#cae7ff" fill-rule="evenodd" d="m244.735 701.805 344.87 3.792c-4.838 7.135-8.393 17.228-8.393 25.663 0 8.438 6.597 13.066 11.44 20.207l-350.223 3.36-4.873-4.3v-37.349Z"/><path fill="#000023" fill-rule="evenodd" d="M107.355 700.443c-10.5 7.37-12.957 51.226 4.366 52.25 162.602 9.613 337.872 9.8 489.746 2.133v-8.321s-263.016 7.378-341.218 4.16c-5.781-.238-11.344-4.182-12.861-6.812-4.11-7.125-.925-23.734 2.03-29.502 1.308-2.554 4.508-6.234 11.201-6.67 78.095-5.082 340.848 0 340.848 0l-.221-20.754c-155.055 0-393.04-57.266-493.89 13.516Z"/><path fill="#ff4dbc" fill-rule="evenodd" d="M97.567 656.138c1.171-2.838 4.843-8.007 7.252-9.91 17.409-13.756 73.945-31.116 83.13-31.08 41.182.166 407.203 4.824 407.203 4.824s-16.244 77.297-19.473 77.297c-165.045-7.376-399.51 9.32-473.622 3.13-11.083-.925-8.732-33.98-4.49-44.26Z"/><path fill="#af7ccb" d="m498.27 639.81 35.26-28.105s-254.173 1.578-296.452 1.411c-9.43-.037-85.06 21.987-85.06 21.987Z"/><path fill="#af7ccb" d="M152.846 579.618s73.995-18.838 86.285-18.838c42.28 0 309.322-10.098 316.603 3.189 5.345 9.753 4.247 43.887 4.247 43.887a9.085 9.085 0 0 1-3.742 6.684l-34.626 25.51-3.986-55.63.168-.117Z"/><path fill="#cae7ff" fill-rule="evenodd" d="M514.585 584.42H163.996a46.736 46.736 0 0 1 .02 55.15H515.15l5.806-5.03v-43.698Z"/><path fill="#af7ccb" fill-rule="evenodd" d="M150.825 637.199a2.554 2.554 0 0 1 2.605-2.5h357.095a5.491 5.491 0 0 0 3.784-1.493 5.01 5.01 0 0 0 1.58-3.64v-35.154a5.007 5.007 0 0 0-1.58-3.64 5.494 5.494 0 0 0-3.784-1.492H153.45a2.574 2.574 0 0 1-2.625-2.52v-4.695a2.574 2.574 0 0 1 2.625-2.519h357.075a16.08 16.08 0 0 1 11.088 4.382 14.453 14.453 0 0 1 4.607 10.484v35.154a14.451 14.451 0 0 1-4.607 10.483 16.08 16.08 0 0 1-11.088 4.382H155.157c-3.14 0-4.332-1.119-4.332-2.5Z"/><path d="M510.525 635.243h-211.12v-1.076h211.12a4.932 4.932 0 0 0 3.414-1.345 4.457 4.457 0 0 0 1.412-3.25v-23.06h1.077v23.06a5.521 5.521 0 0 1-1.748 4.03 6.001 6.001 0 0 1-4.155 1.641Z"/><path d="M168.476 680.623h31.668v1.076h-31.668z" transform="rotate(-85.069 184.31 681.16)"/><path d="M209.131 666.106h1.076v11.099h-1.076z" transform="rotate(-3.333 209.669 671.656)"/><path d="M209.314 680.651h1.076v6.281h-1.076z" transform="rotate(-3.339 209.852 683.793)"/><path d="M310.694 736.184h154.333v1.077H310.694z" transform="rotate(-.573 387.845 737.142)"/><path d="M259.558 749.222c-.207-2.892 2.17-4.246 4.267-5.441 1.998-1.14 3.885-2.215 3.824-4.425-.064-2.375-2.111-3.681-4.28-5.064-2.312-1.474-4.702-2.998-4.768-5.95-.064-2.844 2.298-4.078 4.381-5.167 2.068-1.081 3.854-2.014 3.734-4.196-.116-2.1-1.967-2.711-4.11-3.418-2.202-.728-4.699-1.551-4.794-4.406l1.077-.036c.07 2.104 1.915 2.713 4.054 3.42 2.2.725 4.692 1.548 4.847 4.381.158 2.874-2.215 4.114-4.309 5.209-1.981 1.035-3.853 2.014-3.804 4.188.054 2.378 2.103 3.684 4.271 5.068 2.31 1.472 4.697 2.995 4.778 5.942.078 2.855-2.284 4.2-4.368 5.388-2.084 1.188-3.884 2.214-3.725 4.429ZM501.596 628.922a77.933 77.933 0 0 1 .005-30.473l1.045.259a76.83 76.83 0 0 0 .005 30.006Z"/><path fill="#cae7ff" d="M595.44 622.004s-3.017 17.114-3.875 22.843c-3.058 20.426 9.353 27.434 7.207 29.044l-25.782 20.177-3.607-45.848s26.216-28.62 26.056-26.216Z"/><path fill="#ff4dbc" d="m598.85 622.982-4.506 2.776-17.638 20.33a13.973 13.973 0 0 0-3.271 11.186l4.178 28.477a2.589 2.589 0 0 0 4.18 1.646l16.57-15.487s5.432-1.5 6.588-.323c1.833 1.865-3.184 5.06-5.33 6.67L576.23 696.76a2.341 2.341 0 0 1-3.768-1.487l-7.027-46.617 28.705-28.392a3.09 3.09 0 0 1 4.71 2.717Z"/><path fill="#7f0847" fill-rule="evenodd" d="M86.518 488.75a11.768 11.768 0 0 0-8.182 3.202 9.601 9.601 0 0 0-3.042 6.903v35.11a9.604 9.604 0 0 0 3.042 6.903 11.764 11.764 0 0 0 8.182 3.203c155.053 0 337.852.07 492.906.07v-8.321H238.576a4.566 4.566 0 0 1-3.178-1.276 4.323 4.323 0 0 1-1.322-3.112v-30.047a4.323 4.323 0 0 1 1.322-3.108 4.55 4.55 0 0 1 3.178-1.28h340.848v-8.317c-155.054 0-337.854.07-492.906.07Z"/><path fill="#7f0847" d="m546.84 567.707 32.584-23.566v-8.316l-97.762 19.934 65.178 11.948z"/><path fill="#cae7ff" fill-rule="evenodd" d="M567.79 496.767c-4.838 7.135-8.891 9.31-8.891 17.744a41.695 41.695 0 0 0 7.547 23.567l-32.585 23.565-20.395-19.407 16.818-27.73Z"/><path fill="#7f0847" d="m546.84 520.562 32.584-23.566v-8.316l-97.762 19.934 65.178 11.948z"/><path fill="#cae7ff" fill-rule="evenodd" d="m190.108 514.69 344.87 3.791c-4.838 7.135-8.393 17.228-8.393 25.663 0 8.438 6.596 13.066 11.44 20.207l-350.224 3.36-4.873-4.3v-37.348Z"/><path fill="#7f0847" fill-rule="evenodd" d="M67.95 506.952c-10.5 7.37-.629 54.214 16.695 55.238 162.601 9.613 310.32 13.187 462.195 5.52v-8.321s-263.017 7.379-341.218 4.16c-5.782-.238-13.29-6.01-14.807-8.64-4.11-7.124 1.02-21.906 3.975-27.674 1.308-2.553 4.508-6.234 11.202-6.67 78.094-5.082 340.848 0 340.848 0l-.222-20.754c-155.054 0-377.817-63.641-478.667 7.141Z"/><path fill="#004ebc" fill-rule="evenodd" d="M35.783 467.226c1.171-2.838 4.843-8.007 7.252-9.91 17.408-13.756 81.101-29.32 90.286-29.283 41.183.165 407.204 4.823 407.204 4.823s-16.245 77.297-19.473 77.297c-165.046-7.376-399.51 9.32-473.622 3.13-11.084-.925-15.889-35.776-11.647-46.057Z"/><path fill="#00e9ce" d="m443.643 452.695 35.26-28.106S224.729 426.168 182.45 426c-9.429-.038-85.06 21.986-85.06 21.986Z"/><path fill="#00e9ce" d="M98.218 392.502s73.996-18.838 86.286-18.838c42.279 0 309.321-10.097 316.603 3.19 5.345 9.752 4.247 43.886 4.247 43.886a9.085 9.085 0 0 1-3.743 6.684l-34.626 25.51-3.985-55.63.168-.117Z"/><path fill="#cae7ff" fill-rule="evenodd" d="M459.957 397.304H109.368a46.736 46.736 0 0 1 .021 55.15h351.134l5.805-5.03v-43.697Z"/><path fill="#00e9ce" fill-rule="evenodd" d="M96.198 450.083a2.554 2.554 0 0 1 2.605-2.5h357.094a5.49 5.49 0 0 0 3.784-1.493 5.01 5.01 0 0 0 1.58-3.64v-35.154a5.007 5.007 0 0 0-1.58-3.64 5.494 5.494 0 0 0-3.784-1.492H98.823a2.574 2.574 0 0 1-2.625-2.52v-4.695a2.574 2.574 0 0 1 2.625-2.519h357.074a16.08 16.08 0 0 1 11.088 4.382 14.453 14.453 0 0 1 4.607 10.484v35.154a14.45 14.45 0 0 1-4.607 10.484 16.08 16.08 0 0 1-11.088 4.382H100.53c-3.14 0-4.331-1.12-4.331-2.5Z"/><path d="M455.897 448.128h-211.12v-1.077h211.12a4.936 4.936 0 0 0 3.414-1.345 4.457 4.457 0 0 0 1.412-3.25v-23.06h1.076v23.06a5.521 5.521 0 0 1-1.747 4.03 6.007 6.007 0 0 1-4.155 1.642Z"/><path d="M113.849 493.507h31.668v1.076h-31.668z" transform="rotate(-85.069 129.683 494.045)"/><path d="M154.341 478.998h1.077v12.347h-1.077z" transform="rotate(-1.502 154.88 485.171)"/><path d="M154.686 493.536h1.076v6.281h-1.076z" transform="rotate(-3.339 155.225 496.677)"/><path d="M256.067 549.067H410.4v1.077H256.067z" transform="rotate(-.559 333.23 549.6)"/><path d="m206.98 558.224-.979-.445a13.112 13.112 0 0 1 4.696-5.514c1.407-1.05 2.338-1.743 2.337-3.42-.002-2.167-2.712-2.333-6.846-2.34-3.35-.005-6.517-.009-6.967-2.257-1.043-5.216 2.815-6.517 5.915-7.562 1.945-.656 3.623-1.221 3.697-2.537.125-2.266-1.124-3.406-2.57-4.727-1.401-1.28-2.99-2.731-3.078-5.383l1.076-.035c.073 2.198 1.363 3.375 2.728 4.623 1.51 1.379 3.073 2.806 2.918 5.58-.113 2.045-2.208 2.752-4.427 3.499-2.98 1.005-6.06 2.044-5.204 6.33.278 1.385 3.143 1.389 5.914 1.393 3.711.005 7.917.012 7.92 3.414.001 2.218-1.282 3.176-2.77 4.285a12.02 12.02 0 0 0-4.36 5.096ZM446.968 441.807a77.937 77.937 0 0 1 .005-30.474l1.045.258a76.835 76.835 0 0 0 .006 30.008Z"/><path fill="#cae7ff" d="M540.812 434.888s-3.017 17.114-3.874 22.843c-3.059 20.426 9.353 27.434 7.207 29.044l-25.783 20.177-3.607-45.848s26.217-28.62 26.057-26.216Z"/><path fill="#004ebc" d="m544.222 435.866-4.505 2.776-17.639 20.33a13.973 13.973 0 0 0-3.27 11.186l4.178 28.478a2.589 2.589 0 0 0 4.179 1.645l16.57-15.486s5.433-1.5 6.589-.324c1.832 1.865-3.184 5.06-5.33 6.67l-23.392 18.504a2.341 2.341 0 0 1-3.768-1.487l-7.027-46.617 28.705-28.392a3.09 3.09 0 0 1 4.71 2.717Z"/><path fill="#af7ccb" d="M463.04 233.103c.955 7.145-2.075 42.546 1.025 48.257 4.027 7.418 36.792 6.794 36.792-6.731 0-33.695.563-50.677 0-62.445-2.175-45.471-11.308-52.876-21.714-69.78-13.159-21.375-21.045-16.872-28.399-14.662-14.454 4.344-1.056 38.391 2.565 54.913 5.376 24.533 6.888 29.203 9.73 50.448Z"/><path fill="#000023" d="M457.52 101.975c5.073-5.55 5.894-9.207 11.535-11.833 11.762-5.475 20.768-34.144 11.663-60.98-.912-12.325-57.322-25.238-75.04-8.96-19.807 18.198-17.7 34.035-11.11 56.626 3.73 12.795 10.298 19.202 24.868 23.167 14.196 3.863 25.18 16.092 38.084 1.98Z"/><path fill="#ffb6c6" d="M476.394 72.075c-6.925-5.163-22.269 7.483-16.686 16.518 1.907 3.085 10.118.134 13.245-2.631 2.253-1.993 7.052-11.196 3.441-13.887Z"/><path fill="#7f0847" d="M455.754 296.383c0 44.08 49.368 92.197-28.26 135.54-30.068 16.789-46.05 18.84-67.18 5.487-24.124-15.246-51.36-48.784-51.36-72.283 0-44.08 1.848-103.668 43.904-103.668s102.896-9.156 102.896 34.924Z"/><path fill="#7f0847" d="m537.152 466.513 39.365-43.16c-21.41-23.623-48.732-62.144-73.717-84.606-24.117-21.682-62.005-45.943-62.005-45.943s-24.408 39.297-25.498 41.826c-2.463 5.713-19.536 35.389-17.149 40.533 3.848 8.289 40.697 30.55 48.315 32.776 22.583 6.603 53.84 26.38 90.69 58.574Z"/><path fill="#7f0847" d="m436.706 507.438 56.98-24.99c-5.412-32.206-26.693-77.312-42.295-91.949-13.652-12.807-48.289-10.574-62.47-12.589-19.3-2.74-62.221 8.122-67.895 19.88 0 0 20.835 30.729 61.808 59.213 34.348 23.879 22.289 28.475 53.872 50.435Z"/><path fill="#af7ccb" d="M451.016 124.654c-2.384-1.685-29.83-15.706-47.002-15.22-51.147 1.45-70.235 9.971-87.285 35.81-11.355 17.208-15.466 59.597-17.486 88.143-2.316 32.735-13.507 72.574 9.71 94.084 20.342 18.845 74.3 19.768 121.063 3.057 24.301-8.685 29.938-26.48 31.084-43.732 5.066-76.28 25.96-136.677-10.084-162.142Z"/><path fill="#f4bfbc" d="m314.924 367.2-.263-1.042c19.465-4.921 22.624-16.112 24.714-23.518l.032-.113 1.036.292-.032.114c-2.027 7.18-5.418 19.195-25.487 24.267Z"/><path fill="#ffb6c6" d="M437.568 124.157c4.786 9.44 12.625 32.037-5.008 36.193-25.23 5.945-58-19.496-56.073-34.24 2.012-15.387 21.038-14.024 34.942-12.308s22.454 3.09 26.139 10.355Z"/><path fill="#000023" d="M555.485 638.017c-4.372-12.227-12.51-16.699-18.862-18.058-8.501-1.82-12.772 6.285-13.85 15.995-.735 6.634 15.421 14.433 32.22 32.617 8.65 9.364 11.896.7 10.28-4.598-2.815-9.227-6.268-16.112-9.788-25.956Z"/><path fill="#ffb6c6" d="m531.911 615.064-3.056 14.235c-.796 4.024 5.884 5.729 10.978 5.647 4.963-.08 7.999-2.237 8.794-6.26l2.195-11.101Z"/><path fill="#00e9ce" d="M550.233 626.498c-6.007.822-28.853-1.557-23.783-11.406 2.17-4.213 2.382-11.611 2.382-11.611l29.668 3.66s-2.485 6.87-2.76 9.243c-.626 5.405 2.375 9.035-5.507 10.114Z"/><path fill="#7f0847" d="M514.593 447.794s21.784 20.515 15.95 29.947c-14.81 23.945-1.294 70.414-6.498 123.539-.461 4.708 2.534 7.901 7.212 9.41 10.014 3.23 18.53 4.423 28.094 2.999 4.918-.732 5.701-5.472 6.06-9.167 6.346-65.333 18.734-87.197 19.5-158.376.398-37.019-65.039-64.515-70.318 1.648Z"/><path fill="#000023" d="M475.831 687.95c.05-16.989-8.174-14.656-13.854-14.574-4.666.068-13.19 2.96-9.466 19.987 2.703 12.359 9.856 27.512 15.902 32.367 3.782 3.036 13.432 2.57 13.762-2.533.586-9.038-6.377-23.895-6.344-35.246Z"/><path fill="#ffb6c6" d="m456.065 668.597-.163 13.763c.007 3.88 5.423 4.637 9.34 3.915 3.817-.704 5.825-3.114 5.819-6.996l-.019-10.708Z"/><path fill="#00e9ce" d="M471.962 677.02c-4.507 1.533-22.499 2.19-20.106-7.706 1.023-4.233.046-11.211.046-11.211l23.453-.317a80.269 80.269 0 0 0-.704 9.034c.35 5.158 3.225 8.189-2.689 10.2Z"/><path fill="#7f0847" d="M433.54 499.95c-.68 9.466 12.17 9.277 7.597 19.517-2.556 5.726-6.551 4.567-7.359 22.18-.746 16.273 7.574 57.03 9.726 79.95.971 10.341 3.007 33.687 5.996 40.327 4.618 10.258 28.326 2.613 28.478-2.19.486-15.394 13.55-105.936 15.708-118.048 6.07-34.052 0-59.237 0-59.237s-56.472-33.656-60.146 17.502Z"/><path fill="#000023" d="M426.977 171.99c-13.723.002-47.605-7.32-57.424-37.455l1.024-.335c10.654 32.702 50.214 38.002 59.888 36.496 8.702-1.355 14.646-4.937 17.664-10.645 5.867-11.098-.896-27.154-3.108-31.81l.972-.462c2.267 4.771 9.19 21.235 3.087 32.776-3.185 6.024-9.392 9.795-18.448 11.205a24.558 24.558 0 0 1-3.655.23Z"/><path fill="#ffb6c6" d="M436.993 130.287c0-22.453 13.65-30.345 14.373-35.142 1.184-7.854-39.472-41.405-42.487-33.362-8.952 23.887-18.34 42.226-19.754 55.75-3.668 35.1 47.868 25.797 47.868 12.754Z"/><path fill="#e895af" d="m405.983 68.251-3.617 10.508c2.292 7.861 6.205 35.554 15.626 37.814 11.309 2.714 17.818-.447 24.799-7.937l10.414-18.635Z"/><path fill="#ffb6c6" d="M472.726 26.737c-13.307-18.218-38.628-17.747-53.451-2.091a19.667 19.667 0 0 0-3.983 6.06 46.528 46.528 0 0 0-5.78 12.477c-5.404 17.002-3.687 62.206 18.274 66.237 20.382 3.74 32.827-12.293 42.685-29.64 8.918-15.693 13.734-37.328 2.255-53.043Z"/><path fill="#000023" d="M425.407 3.93c-5.875 2.45-23.04 15.237-22.169 19.699 1.775 9.087-.67 30.963 9.6 33.806 5.628 1.558 6.797-20.714 14.948-23.323 7.17-2.296 5.125 4.16 17.406 10.254 18.03 8.946 23.879 33.379 31.302 29.056 28.13-16.38 1.081-91.242-51.087-69.491Z"/><path fill="#ffb6c6" d="M411.547 54.076c-.614-3.152-3.69-4.495-5.763-5.713-3.417-2.01-6.496 1.394-6.612 5.98-.098 3.851 2.426 11.887 2.125 16.269-.269 3.918 2.889 6.22 5.745 4.458 2.617-1.615 5.447-19.396 4.505-20.994Z"/><path fill="#000023" d="M433.519 60.562c-.6-.448-2.846.269-2.964 2.153-.099 1.568.972 2.804 3.59 1.191.9-.555.221-2.71-.626-3.344ZM459.08 71.436c-.6-.448-2.845.27-2.964 2.153-.099 1.568.973 2.804 3.59 1.191.901-.555.221-2.71-.626-3.344ZM407.823 68.101l-1.056-.214c.842-4.159-.82-10.59-1.367-11.198l.767-.755c.905.914 2.542 7.787 1.656 12.167ZM444.678 80.249c-2.619 0-6.015-2.485-6.441-2.804l.645-.862c1.191.893 4.672 3.08 6.475 2.494a1.579 1.579 0 0 0 1.017-1.148c2.533-8.16 4.118-12.88 7.25-14.97l.597.896c-2.823 1.883-4.43 6.697-6.819 14.394a2.647 2.647 0 0 1-1.714 1.852 3.26 3.26 0 0 1-1.01.148Z"/><path fill="#000023" d="M453.204 62.639c4.68-4.558 13.76 1.66 15.432 8.825.195.835-1.101 1.686-1.676 1.324-2.022-1.27-2.82-3.816-6.061-5.494-2.075-1.075-6.102-1.717-7.501-2.313-1.102-.468-.614-1.932-.194-2.342ZM442.902 58.624c-2.41-8.085-10.738-8.762-17.06-4.997a1.338 1.338 0 0 0 .21 2.126c2.317.575 4.703-.615 8.16.556 2.214.75 5.47 3.205 6.87 3.8 1.1.469 1.82-1.485 1.82-1.485ZM441.247 92.748a21.043 21.043 0 0 1-11.879-4.224l.627-.877c4.71 3.365 10.012 4.739 14.176 3.673l.267 1.043a12.878 12.878 0 0 1-3.191.385Z"/><path fill="#cae7ff" d="m430.81 292.804 21.291-55.404c.882-2.443 7.592-6.154 10.938-4.297l51.595 29.6 38.468-17.938a5.199 5.199 0 0 1 5.669.66c2.547 2.122 5.743.88 4.985 2.16l-41.783 45.219Z"/><path fill="#00b4b6" d="m407.57 344.88 39.852-106.444c.914-2.442 4.368-4.903 6.598-3.55 0 0 38.645 28.621 53.867 32.664 3.252.864 10.192.475 13.454-.348 11.6-2.924 42.705-21.589 42.705-21.589a1.937 1.937 0 0 1 2.525 2.742l-58.186 94.808s-23.551 16.582-36.108 30.09c-1.006 1.083-10.172 2.513-14.824 2.515-4.033.002-49.884-30.889-49.884-30.889Z"/><path fill="#000023" d="m422.613 306.231-1.007-.378 25.312-67.606a3.05 3.05 0 0 1 1.968-1.97c1.398-.32 2.806.844 4.165 1.97a14.395 14.395 0 0 0 1.578 1.202c.431.317 39.104 28.972 54.05 32.943 3.11.824 9.988.655 13.032-.656 12.101-5.21 41.659-22.991 41.956-23.171l.555.923c-.297.179-29.917 17.997-42.085 23.236-3.31 1.425-10.436 1.584-13.733.709-15.148-4.024-52.78-31.907-54.374-33.092a14.87 14.87 0 0 1-1.666-1.265c-1.103-.916-2.362-1.956-3.238-1.75-.45.104-.859.552-1.215 1.334Z"/><path fill="#ffb6c6" d="M406.493 327.345c-5 .34-9.774-19.818-6.35-21.323 11.967-5.262 19.298-5.613 31.031-4.045 5.11.683 15.567 5.432 14.783 8.13-.69 2.37-12.708-3.604-13.701-.737-1.397 6.147 17.958 6.274 23.037 5.542 2.76-.397 6.913 1.122 4.836 3.083-3.032 2.862-3.863 3.718-5.803 4.978-4.37 2.838-14.827 5.955-21.477 5.636-11.237-.54-20.63-1.654-26.356-1.264Z"/><path fill="#ffb6c6" d="m406.493 327.345-1.365-23.319s-43.413-20.654-70.209-41.06c-8.186-6.234-9.038-20.828-15.305-23.63-26.79-11.98-46.533 19.147-37.992 44.153 3.311 9.694 6.678 11.78 19.727 16.767 43.92 16.781 105.144 27.089 105.144 27.089Z"/><path fill="#af7ccb" d="M298.926 281.811c11.172-4.767 34.97-7.565 39.377-19.703 6.816-18.776-1.696-49.66.78-60.536 9.148-40.19 4.879-72.827-11.659-74.269-15.37-1.34-34.176 49.969-41.24 65.39-6.336 13.828-13.139 30.209-15.11 48.632-3.843 35.918 2.015 51.51 27.852 40.486Z"/><path fill="#ffb6c6" d="M523.72 329.104c-12.941 7.569-14.155 2.628-12.537.1 1.483-2.316 4.085-11.63 11.756-14.805 3.75-1.552 6.49-7.01 6.49-7.01 1.205.32 2.207 2.59 2.13 7.14-.06 3.533-3.8 12.212-7.84 14.575Z"/><path fill="#7f0847" d="m279.404 617.679 26.349 11.194s28.534 106.894 22.303 141.925c-1.202 6.76-38.693 13.317-38.693 13.317l-30.012-2.841s34.38-9.433 47.969-16.915c6.913-3.807-27.916-146.68-27.916-146.68Z"/><path fill="#00b4b6" d="M312.346 628.138c8.006 35.365-11.068 152.47-26.943 159.945-37.113 17.476-94.829 1.092-124.262-10.473-13.986-5.495 17.727-126.796 45.881-169.778 17.485-26.694 94.256-28.586 105.324 20.306Z"/><path fill="#004ebc" d="M237.747 591.316c-.93-.202.735-2.292 1.341-2.917 2.697-2.78 9.022-6.5 12.59-8.18 11.335-5.337 24.686-2.738 30.583 3.034 3.558 3.482 3.513 11.382 3.153 15.883-.136 1.706-2.129 2.856-4.083 2.36l-1.81-.46a2.88 2.88 0 0 1-2.388-2.965c.363-3.146.665-8.683-1.303-10.86-3.78-4.184-16.42-3.958-22.392-2.37-2.795.743-7.408 3.5-9.62 5.296-.671.545-.473 1.045-2.149 1.145Z"/><path d="m246.15 790.175-.21-1.055c5.744-1.148 21.113-4.683 23.23-7.222 10.51-12.612 13.498-38.009 16.389-62.569 1.022-8.69 1.988-16.896 3.273-24.597 3.12-18.7 2.163-71.667.468-76.902l1.024-.332c2 6.177 2.609 59.193-.43 77.41-1.28 7.677-2.246 15.87-3.266 24.546-2.909 24.717-5.918 50.276-16.632 63.134-2.744 3.291-21.694 7.157-23.846 7.587Z"/><path fill="#00e9ce" d="M257.097 777.34c-13.046 18.053-90.604-3.945-92.143-10.46-4.238-17.941 6.652-60.755 19.038-74.41 6.243-6.882 71.594-7.46 86.74 9.58 4.962 5.583-8.171 67.73-13.635 75.29Z"/><path fill="#004ebc" d="M276.553 658.253c-10.185 9.538-77.1-1.402-77.594-5.014-.707-5.176 5.625-23.017 13.73-33.698 3.677-4.844 51.751-7.193 63.575 1.81 3.875 2.95 4.554 32.908.289 36.902Z"/><path d="M254.562 712.703c-41.006-1.57-68.933-8.463-69.21-8.532l.261-1.045c.277.07 28.105 6.936 68.991 8.5Z"/><path d="M242.254 726.953a2.859 2.859 0 0 1-2.654-2.842c.055-4.03 4.473-8.718 4.661-8.915l.78.742c-.043.045-4.315 4.58-4.364 8.188a1.784 1.784 0 0 0 1.557 1.75c.507 0 4.376-.544 4.73-17.29l1.076.024c-.349 16.51-4.13 18.343-5.786 18.343Z"/><path fill="#7f0847" d="M239.2 279.413a64.004 64.004 0 0 0-29.42-43.836l2.558-4.395a1.898 1.898 0 0 0-3.281-1.91L140.49 347.088a1.898 1.898 0 0 0 3.282 1.91l1.35-2.322a63.94 63.94 0 0 0 26.863 7.699v24.162a124.909 124.909 0 0 0-13.748 1.987c-2.977.762-6.327 1.736-6.603 4.506a4.586 4.586 0 0 0 2.383 3.864c10.579 5.819 29.144 1.016 41.158-.186 2.388-.238 4.254-1.543 4.753-2.833.913-2.357-1.922-4.64-4.439-4.878l-15.911-2.777v-23.856a64.97 64.97 0 0 0 12.849-2.095 64.312 64.312 0 0 0 46.774-72.856Zm-11.01 40.993a60.484 60.484 0 0 1-81.15 22.977l60.831-104.525a60.49 60.49 0 0 1 20.318 81.548Z"/><circle cx="175.851" cy="289.621" r="57.429" fill="#004ebc" transform="rotate(-67.5 175.851 289.62)"/><path fill="#00e9ce" d="M184.917 255.351c.44-.448 1.4-.423 1.743-.866.54-.698-1.533-2.083-1.895-3.031-.29-.762 3.431.573 3.18-.571a11.162 11.162 0 0 1 1.265-3.661c.457-.618 3.388-2.974 3.438-3.928.091-1.747-7.441.103-7.969-.526-.742-.885 2.368.022 2.779-.8.381-.763-2.675-3.18-4.508-3.523-.658-.123-8.018-1.187-8.839-1.29-9.048-1.124-8.167 6.165-7.474 6.814 1.408 1.319 5.036 3.034 5.459 4.17.648 1.744-1.166 2.125-.062 3.606 1.623 2.177-.296 5.298.052 9.001.178 1.899 1.47 4.028 2.332 4.03 1.311.004 4.633-5.87 6.134-6.465a17.187 17.187 0 0 0 4.365-2.96ZM219.122 309.441c-.42.413-2.034-.593-1.978.614a23.812 23.812 0 0 1-.678 3.655c-.218.609.081 2.254.842 2.508a1.295 1.295 0 0 0 1.624-1.559c-.132-.663 1.113-2.125 1.445-2.7.207-.358.663-1.466.67-1.48.395-.79 1.213-3.37.161-3.37-.7.087-1.011 1.273-2.086 2.332Z"/><path fill="#00e9ce" d="M217.18 307.409c-.393.485 2.643 1.262 1.467.449a1.585 1.585 0 0 1-.446-.497c-.17-.296-.807-.217-1.021.048ZM184.013 260.78c.41.589 1.333.565 2.036.478.686-.085 1.8-1.067 1.813-1.754.011-.666-.099-.665-.613-1.1-.693-.586-.09.97-1.257.94-.35-.01-3.415-1.844-2.417-.033.565 1.025-.145.633.438 1.47Z"/><path fill="#00e9ce" d="M219.242 252c-.325-.047-7.664 1.255-8.816 1.91.327.625 1.333 4.096-1.49 4.446a2.205 2.205 0 0 1-1.333-.409c-.224-.295.09-1.183-.297-1.33-.466-.177-.829-.186-.959-.604.792.16 4.876 1.263 3.723-.823-.69-1.247-5.737-2.326-7.684-1.954a8.119 8.119 0 0 0-2.759 1.427c-1.181 1.013-3.382 4.64-3.728 4.985-.405.406-.629-.102-.84.56-.129.408-.114 2.905.44 3.462.718.725 1.444-1.29 2.112-1.114.959.25 1.026 3.223 1.25 3.365.654.415 1.785-.908 1.766-1.751-.02-.896.15-.731.595-1.405.932-1.41-1.257-1.354-.368-2.848.29-.488.564-.361.886-.814.178-.25.477-1.344.579-1.415 1.191-.832 1.725-.31.75.757-.586.64-1.685 2.085-.598 2.897.771.577.804.81 1.659.403.567-.27 2.04-.307 2.01.234-.041.716-1.4-.123-1.964.222-1.406.86.82 1.36-.135 2.16a.3.3 0 0 1-.363.01c-.662-.657-1.185-.648-1.457.095a10.986 10.986 0 0 1-2.556 2.451c-.349.032-.598-.692-1.124-.465-.416.18-.68.27-.986-.157-.42-.583 1.015-2.072-.006-2.533-.9-.407-1.325 1.409-1.096 2.005.42 1.094-3.527 4.413-3.868 4.436-.39.026-.672-.589-.892.1-.156.49-1.079-.022-1.422.302-.922.87 3.669 1.13.671 2.787-1.007.557-.195 1.84-1.354 1.84a2.484 2.484 0 0 0-2.104 1.381 3.215 3.215 0 0 0 .604 2.489 20.501 20.501 0 0 0 2.042.286c1.513.103 4.349-5.411 5.221-4.605.685.633 1.047-.485 1.433-.537.896-.122 1.09.433 1.647 1.082.658.763.979.567 1.719 1.091a3.284 3.284 0 0 1 .975 2.382c.636-.196.668-1.298.543-1.913 1.55-.005-1.007-1.344-1.383-1.714-.353-.347-1.278-1.863-.792-2.179.254-.164.592.456.736.96.189.659 3.69 2.105 4.455 2.72a13.767 13.767 0 0 0 2.233 1.952c1.528.523 3.294-.382 4.244.253.651.436-2.785 3.317-3.297 3.346-.501.03-2.08-1.4-3.222-1.05-1.248.384-.975 2.76-2.112 2.24-.954-.437-4.004-4.765-4.13-4.848-.48-.312-4.693.4-5.697.59-.43.08-.636.517-1.028.655-.47.166-2.88 1.015-3.816 1.458-.76.36-.47 2.072-1.294 2.564a7.894 7.894 0 0 0-2.016 1.93c-1.89 1.985-.644 9.213 1.247 11.292.828.91 4.042 2.168 7.072.777.49-.225 1.744-.86 2.224-.325.462.515 1.59 4.248 1.97 4.665.485.532 1.422.775 1.848 1.354.652.89.913 10.937 1.34 12.003.448 1.122.896 2.23 1.293 3.37a18.823 18.823 0 0 0 .512 2.228c.291.657.32.685.992.941.692.264 8.725-6.032 8.986-6.412.235-.341 3.5-3.425 3.78-6.187.071-.71 1.3-8.508 2.632-9.935 1.576-1.688 2.96-2.984 3.067-5.44.043-.97-4.615.511-4.154-.961.237-.76 2.363-.467 3.063-.752.575-.234 3.517-11.19 8.29-6.861a60.308 60.308 0 0 1 4.554 5.28c.008-.393.015-.786.015-1.181a57.204 57.204 0 0 0-14.038-37.622Zm-8.976 23.801c-1.48-.036-3.99.24-4.466-1.986-.143-.67 1.315-1.764 1.466-2.393.335-1.396 5.8 3.201 6.489 4.1.947 1.237-2.268 1.546-3.489.279Zm4.613 16.413c-4.415-.96-7.96-8.29-4.864-9.092 1.09-.282 7.772 9.724 4.864 9.092Zm5.222-14.137c-.442.267-1.546-.356-1.96-.658-.545-.397-1.863-4.312-1.827-4.637a1.853 1.853 0 0 1 .963-1.441c1.17-.5 2.502-.133 1.531.77-1.666 1.547 1.51 2.056 1.656 2.75.216 1.027.33 2.798-.363 3.216ZM141.2 300.73c-.19.115-.717 1.686-.024 1.413.772-.305.768-1.87.024-1.413ZM153.004 257.39c-.168.45-.48 1.197-.066 1.442.58.344 1.007-.707 1.722-.561 1.022.21 1.4 1.492 1.471.014a2.31 2.31 0 0 0-2.164-2.114c-.517.034-.782.734-.963 1.218ZM165.678 267.527c-.417.4-2.262 1.674-2.297 2.199-.063.966 2.146 1.311 2.77 1.543.894.33.735-1.961.305-1.907-1.973.246.157-.847-.778-1.835Z"/><path fill="#00e9ce" d="M173.367 304.627c.049-1.3-6.414-3.001-7.472-3.216-.564-.114-1.436.332-1.72-.17-.445-.788.43-1.097.352-1.997a2.187 2.187 0 0 0-1.883-1.724c-.602-.068-1.795.762-2.397.217-1.106-1.003-1-2.832-2.887-3.82-1.384-.725-6.278.414-6.966.982-.557.459-.512.555-1.19.275-.896-.37-2.67-3.2-2.666-3.222.124-.587-3.075-.615-3.084-1.317-.008-.697 3.172-4.667 1.284-5.324-1.058-.368-1.54-.475-1.808.96-.213 1.138-2.264-.024-2.207-1.266.245-5.416 6.869.813 8.45-.161.611-.376.075-4.687 1.708-5.082.772-.186 2.14.58 2.263-1.462.09-1.508 6.476-4.339 7.383-5.354 1.098-1.23 1.193-6.815 3.8-7.43 2.077-.488 2.838-1.788 1.955-2.524-.698-.582-3.51-1.323-4.657-1.772-1.127-.441-1.145-1.698-1.227-2.233-.164-1.062-1.703-2.287-2.295-1.131-.467.912-1.657 4.446-4.898 4.285a2.85 2.85 0 0 1-2.85-3.644c.59-2.494 3.072-3.807 5.703-5.053 3.05-1.446 8.273-2.013 9.925-4.93 1.392-2.454-2.787-4.418-8.347-6.014-1.542-.443-11.557-1.666-11.593-1.974a65.086 65.086 0 0 0-17.092 15.946c.034.145 2.14 8.027-1.071 14.644-2.119 4.365 2.04 12.216 3.801 13.25 1.283.752 3.06 1.552 3.347 2.326.801 2.155 1.966 6.366 3.488 5.586 1.08-.553 1.267-.308 2.038.586.683.792 3.57 1.855 3.862 2.127 1.162 1.081 3.978 5.288 2.914 5.949-.53.329.088 1.338.164 1.875.228 1.628-.526 1.825.213 3.17s.872 4.992 2.192 5.843c1.139.734 3.15 1.312 3.215 2.767.102 2.324.343 16.672 1.427 17.472.796.59 2.255 1.514 2.255 2.67 0 1.334 4.05 4.617 4.576 2.632.186-.697-1.435-3.793-1.478-4.243-.108-1.137.1-3.796.013-4.1-.246-.86 2.232-3.491 2.716-4.328.653-1.128-1.26-1.054-.543-2.15.284-.435 1.065.531 1.456.14.513-.515 2.838-4.036 2.869-5.43.023-1.034 1.68-2.096 2.707-2.096 1.578 0 2.597-2.231 2.103-4.34-.225-.963-.92-1.258.267-2.212.501-.401 1.52-1.054 1.796-1.636a7.64 7.64 0 0 0 .089-2.347Z"/></svg>